solid OpenSCAD_Model
  facet normal -1 0 0
    outer loop
      vertex 0 0 0
      vertex 0 6.5 30
      vertex 0 6.5 0
    endloop
  endfacet
  facet normal -1 -0 0
    outer loop
      vertex 0 6.5 30
      vertex 0 0 0
      vertex 0 0 30
    endloop
  endfacet
  facet normal -1 0 0
    outer loop
      vertex 0 9.5 0
      vertex 0 16 30
      vertex 0 16 0
    endloop
  endfacet
  facet normal -1 -0 0
    outer loop
      vertex 0 16 30
      vertex 0 9.5 0
      vertex 0 9.5 30
    endloop
  endfacet
  facet normal 0 0 1
    outer loop
      vertex 0.702943 6.30294 30
      vertex 1.27226 4.70806 30
      vertex 2.15306 5.70228 30
    endloop
  endfacet
  facet normal 0 0 1
    outer loop
      vertex 0 6.5 30
      vertex 1 4.60481 30
      vertex 0.702943 6.30294 30
    endloop
  endfacet
  facet normal 0 0 1
    outer loop
      vertex 1.27226 4.70806 30
      vertex 0.702943 6.30294 30
      vertex 1 4.60481 30
    endloop
  endfacet
  facet normal 0 0 1
    outer loop
      vertex 6.30294 0.702943 30
      vertex 6.5 0 30
      vertex 6.5 0.621319 30
    endloop
  endfacet
  facet normal -0 0 1
    outer loop
      vertex 5.00596 1.65249 30
      vertex 6.30294 0.702943 30
      vertex 5.7087 2.13756 30
    endloop
  endfacet
  facet normal -0 0 1
    outer loop
      vertex 4.6635 1 30
      vertex 6.30294 0.702943 30
      vertex 5.00596 1.65249 30
    endloop
  endfacet
  facet normal 0 0 1
    outer loop
      vertex 6.30294 0.702943 30
      vertex 4.6635 1 30
      vertex 6.5 0 30
    endloop
  endfacet
  facet normal 0 0 1
    outer loop
      vertex 0 0 30
      vertex 4.6635 1 30
      vertex 1 1 30
    endloop
  endfacet
  facet normal -0 0 1
    outer loop
      vertex 0 6.5 30
      vertex 0.702943 6.30294 30
      vertex 0.621319 6.5 30
    endloop
  endfacet
  facet normal 0 0 1
    outer loop
      vertex 0 0 30
      vertex 1 4.60481 30
      vertex 0 6.5 30
    endloop
  endfacet
  facet normal 0 0 1
    outer loop
      vertex 4.6635 1 30
      vertex 0 0 30
      vertex 6.5 0 30
    endloop
  endfacet
  facet normal 0 0 1
    outer loop
      vertex 1 4.60481 30
      vertex 0 0 30
      vertex 1 1 30
    endloop
  endfacet
  facet normal -0 0 1
    outer loop
      vertex 15 11.3386 30
      vertex 16 9.5 30
      vertex 16 16 30
    endloop
  endfacet
  facet normal -0 -0 1
    outer loop
      vertex 15.2971 9.69706 30
      vertex 16 9.5 30
      vertex 15 11.3386 30
    endloop
  endfacet
  facet normal 0 0 1
    outer loop
      vertex 15 11.3386 30
      vertex 16 16 30
      vertex 15 15 30
    endloop
  endfacet
  facet normal 0 0 1
    outer loop
      vertex 16 16 30
      vertex 11.4168 15 30
      vertex 15 15 30
    endloop
  endfacet
  facet normal 0 0 1
    outer loop
      vertex 11.4168 15 30
      vertex 9.69706 15.2971 30
      vertex 10.3288 13.7719 30
    endloop
  endfacet
  facet normal -0 0 1
    outer loop
      vertex 9.5 16 30
      vertex 11.4168 15 30
      vertex 16 16 30
    endloop
  endfacet
  facet normal 0 0 1
    outer loop
      vertex 11.4168 15 30
      vertex 9.5 16 30
      vertex 9.69706 15.2971 30
    endloop
  endfacet
  facet normal 0 0 1
    outer loop
      vertex 9.69706 15.2971 30
      vertex 9.5 16 30
      vertex 9.5 15.3787 30
    endloop
  endfacet
  facet normal 0 0 1
    outer loop
      vertex 16 9.5 30
      vertex 15.2971 9.69706 30
      vertex 15.3787 9.5 30
    endloop
  endfacet
  facet normal -0 0 1
    outer loop
      vertex 14.006 10.6525 30
      vertex 15.2971 9.69706 30
      vertex 15 11.3386 30
    endloop
  endfacet
  facet normal 0 0 1
    outer loop
      vertex 15.2971 9.69706 30
      vertex 14.006 10.6525 30
      vertex 13.8246 10.307 30
    endloop
  endfacet
  facet normal 0 0 1
    outer loop
      vertex 6.5 16 30
      vertex 6.30294 15.2971 30
      vertex 6.5 15.3787 30
    endloop
  endfacet
  facet normal 0 0 1
    outer loop
      vertex 4.6635 15 30
      vertex 6.30294 15.2971 30
      vertex 6.5 16 30
    endloop
  endfacet
  facet normal 0 0 1
    outer loop
      vertex 6.30294 15.2971 30
      vertex 5.00596 14.3475 30
      vertex 5.7087 13.8624 30
    endloop
  endfacet
  facet normal 0 0 1
    outer loop
      vertex 6.30294 15.2971 30
      vertex 4.6635 15 30
      vertex 5.00596 14.3475 30
    endloop
  endfacet
  facet normal -0 0 1
    outer loop
      vertex 0 16 30
      vertex 4.6635 15 30
      vertex 6.5 16 30
    endloop
  endfacet
  facet normal 0 0 1
    outer loop
      vertex 0 16 30
      vertex 1 11.3952 30
      vertex 1 15 30
    endloop
  endfacet
  facet normal 0 0 1
    outer loop
      vertex 1 11.3952 30
      vertex 0 9.5 30
      vertex 0.702943 9.69706 30
    endloop
  endfacet
  facet normal 0 0 1
    outer loop
      vertex 4.6635 15 30
      vertex 0 16 30
      vertex 1 15 30
    endloop
  endfacet
  facet normal 0 0 1
    outer loop
      vertex 1 11.3952 30
      vertex 0 16 30
      vertex 0 9.5 30
    endloop
  endfacet
  facet normal 0 0 1
    outer loop
      vertex 0.702943 9.69706 30
      vertex 0 9.5 30
      vertex 0.62132 9.5 30
    endloop
  endfacet
  facet normal 0 0 1
    outer loop
      vertex 0.702943 9.69706 30
      vertex 1.27226 11.2919 30
      vertex 1 11.3952 30
    endloop
  endfacet
  facet normal 0 0 1
    outer loop
      vertex 1.27226 11.2919 30
      vertex 0.702943 9.69706 30
      vertex 2.15306 10.2977 30
    endloop
  endfacet
  facet normal 0 0 1
    outer loop
      vertex 15.2971 6.30294 30
      vertex 14.006 5.34751 30
      vertex 15 4.66137 30
    endloop
  endfacet
  facet normal 0 -0 1
    outer loop
      vertex 14.006 5.34751 30
      vertex 15.2971 6.30294 30
      vertex 13.8246 5.69304 30
    endloop
  endfacet
  facet normal 0 0 1
    outer loop
      vertex 15.2971 6.30294 30
      vertex 16 6.5 30
      vertex 15.3787 6.5 30
    endloop
  endfacet
  facet normal 0 0 1
    outer loop
      vertex 16 6.5 30
      vertex 15.2971 6.30294 30
      vertex 15 4.66137 30
    endloop
  endfacet
  facet normal 0 0 1
    outer loop
      vertex 16 6.5 30
      vertex 15 4.66137 30
      vertex 16 0 30
    endloop
  endfacet
  facet normal -0 0 1
    outer loop
      vertex 15 1 30
      vertex 16 0 30
      vertex 15 4.66137 30
    endloop
  endfacet
  facet normal -0 0 1
    outer loop
      vertex 11.4168 1 30
      vertex 16 0 30
      vertex 15 1 30
    endloop
  endfacet
  facet normal 0 0 1
    outer loop
      vertex 9.69706 0.702943 30
      vertex 11.4168 1 30
      vertex 10.3288 2.22811 30
    endloop
  endfacet
  facet normal 0 0 1
    outer loop
      vertex 9.5 0 30
      vertex 11.4168 1 30
      vertex 9.69706 0.702943 30
    endloop
  endfacet
  facet normal 0 0 1
    outer loop
      vertex 9.5 0 30
      vertex 9.69706 0.702943 30
      vertex 9.5 0.62132 30
    endloop
  endfacet
  facet normal 0 0 1
    outer loop
      vertex 11.4168 1 30
      vertex 9.5 0 30
      vertex 16 0 30
    endloop
  endfacet
  facet normal 0 0 -1
    outer loop
      vertex 10.2723 2.29193 30
      vertex 10.4 2.4 30
      vertex 10.3288 2.22811 30
    endloop
  endfacet
  facet normal 0 0 -1
    outer loop
      vertex 10.2723 2.29193 30
      vertex 9.69706 4.09706 30
      vertex 10.4 2.4 30
    endloop
  endfacet
  facet normal 0 0 -1
    outer loop
      vertex 8.48215 2.97083 30
      vertex 9.69706 4.09706 30
      vertex 10.2723 2.29193 30
    endloop
  endfacet
  facet normal 0 0 -1
    outer loop
      vertex 8.48215 2.97083 30
      vertex 8 4.8 30
      vertex 9.69706 4.09706 30
    endloop
  endfacet
  facet normal 0 0 -1
    outer loop
      vertex 6.30294 4.09706 30
      vertex 8.48215 2.97083 30
      vertex 6.58158 2.74006 30
    endloop
  endfacet
  facet normal 0 0 -1
    outer loop
      vertex 8.48215 2.97083 30
      vertex 6.30294 4.09706 30
      vertex 8 4.8 30
    endloop
  endfacet
  facet normal 0 0 -1
    outer loop
      vertex 5.6 2.4 30
      vertex 6.58158 2.74006 30
      vertex 5.7087 2.13756 30
    endloop
  endfacet
  facet normal -0 0 -1
    outer loop
      vertex 6.58158 2.74006 30
      vertex 5.6 2.4 30
      vertex 6.30294 4.09706 30
    endloop
  endfacet
  facet normal 0 0 -1
    outer loop
      vertex 10.4 13.6 30
      vertex 10.2723 13.7081 30
      vertex 10.3288 13.7719 30
    endloop
  endfacet
  facet normal 0 0 -1
    outer loop
      vertex 9.69706 11.9029 30
      vertex 10.2723 13.7081 30
      vertex 10.4 13.6 30
    endloop
  endfacet
  facet normal 0 0 -1
    outer loop
      vertex 9.69706 11.9029 30
      vertex 8.48215 13.0292 30
      vertex 10.2723 13.7081 30
    endloop
  endfacet
  facet normal 0 0 -1
    outer loop
      vertex 8 11.2 30
      vertex 8.48215 13.0292 30
      vertex 9.69706 11.9029 30
    endloop
  endfacet
  facet normal 0 0 -1
    outer loop
      vertex 6.30294 11.9029 30
      vertex 8.48215 13.0292 30
      vertex 8 11.2 30
    endloop
  endfacet
  facet normal -0 0 -1
    outer loop
      vertex 8.48215 13.0292 30
      vertex 6.30294 11.9029 30
      vertex 6.58158 13.2599 30
    endloop
  endfacet
  facet normal 0 0 -1
    outer loop
      vertex 5.6 13.6 30
      vertex 6.58158 13.2599 30
      vertex 6.30294 11.9029 30
    endloop
  endfacet
  facet normal 0 0 -1
    outer loop
      vertex 6.58158 13.2599 30
      vertex 5.6 13.6 30
      vertex 5.7087 13.8624 30
    endloop
  endfacet
  facet normal 0 0 -1
    outer loop
      vertex 13.6 5.6 30
      vertex 13.1162 7.04274 30
      vertex 13.8246 5.69304 30
    endloop
  endfacet
  facet normal 0 0 -1
    outer loop
      vertex 11.2 8 30
      vertex 13.1162 7.04274 30
      vertex 11.9029 6.30294 30
    endloop
  endfacet
  facet normal 0 0 -1
    outer loop
      vertex 11.9029 6.30294 30
      vertex 13.1162 7.04274 30
      vertex 13.6 5.6 30
    endloop
  endfacet
  facet normal 0 0 -1
    outer loop
      vertex 13.1162 8.95726 30
      vertex 13.6 10.4 30
      vertex 13.8246 10.307 30
    endloop
  endfacet
  facet normal 0 0 -1
    outer loop
      vertex 13.1162 7.04274 30
      vertex 11.2 8 30
      vertex 13.1162 8.95726 30
    endloop
  endfacet
  facet normal 0 0 -1
    outer loop
      vertex 13.1162 8.95726 30
      vertex 11.9029 9.69706 30
      vertex 13.6 10.4 30
    endloop
  endfacet
  facet normal -0 0 -1
    outer loop
      vertex 13.1162 8.95726 30
      vertex 11.2 8 30
      vertex 11.9029 9.69706 30
    endloop
  endfacet
  facet normal 0 0 -1
    outer loop
      vertex 3 8 30
      vertex 4.8 8 30
      vertex 4.09706 6.30294 30
    endloop
  endfacet
  facet normal 0 0 -1
    outer loop
      vertex 4.8 8 30
      vertex 3 8 30
      vertex 4.09706 9.69706 30
    endloop
  endfacet
  facet normal -0 0 -1
    outer loop
      vertex 4.09706 6.30294 30
      vertex 2.54182 6.14111 30
      vertex 3 8 30
    endloop
  endfacet
  facet normal 0 0 -1
    outer loop
      vertex 2.4 5.6 30
      vertex 2.54182 6.14111 30
      vertex 4.09706 6.30294 30
    endloop
  endfacet
  facet normal 0 0 -1
    outer loop
      vertex 2.54182 6.14111 30
      vertex 2.4 5.6 30
      vertex 2.15306 5.70228 30
    endloop
  endfacet
  facet normal 0 0 -1
    outer loop
      vertex 2.54182 9.85889 30
      vertex 4.09706 9.69706 30
      vertex 3 8 30
    endloop
  endfacet
  facet normal 0 0 -1
    outer loop
      vertex 2.54182 9.85889 30
      vertex 2.4 10.4 30
      vertex 4.09706 9.69706 30
    endloop
  endfacet
  facet normal 0 -0 -1
    outer loop
      vertex 2.4 10.4 30
      vertex 2.54182 9.85889 30
      vertex 2.15306 10.2977 30
    endloop
  endfacet
  facet normal 1 -0 0
    outer loop
      vertex 16 0 30
      vertex 16 6.5 0
      vertex 16 6.5 30
    endloop
  endfacet
  facet normal 1 0 0
    outer loop
      vertex 16 6.5 0
      vertex 16 0 30
      vertex 16 0 0
    endloop
  endfacet
  facet normal 1 -0 0
    outer loop
      vertex 16 9.5 30
      vertex 16 16 0
      vertex 16 16 30
    endloop
  endfacet
  facet normal 1 0 0
    outer loop
      vertex 16 16 0
      vertex 16 9.5 30
      vertex 16 9.5 0
    endloop
  endfacet
  facet normal 0 1 0
    outer loop
      vertex 16 16 30
      vertex 10.4 16 4.8
      vertex 9.5 16 30
    endloop
  endfacet
  facet normal 0 1 -0
    outer loop
      vertex 16 16 0
      vertex 10.4 16 4.8
      vertex 16 16 30
    endloop
  endfacet
  facet normal 0 1 0
    outer loop
      vertex 10.4 16 4.8
      vertex 16 16 0
      vertex 10.4 16 0
    endloop
  endfacet
  facet normal 0 1 0
    outer loop
      vertex 9.5 16 30
      vertex 10.4 16 4.8
      vertex 9.5 16 4.8
    endloop
  endfacet
  facet normal 0 1 0
    outer loop
      vertex 5.6 16 4.8
      vertex 6.5 16 30
      vertex 6.5 16 4.8
    endloop
  endfacet
  facet normal 0 1 0
    outer loop
      vertex 6.5 16 30
      vertex 5.6 16 4.8
      vertex 0 16 30
    endloop
  endfacet
  facet normal 0 1 0
    outer loop
      vertex 0 16 0
      vertex 5.6 16 4.8
      vertex 5.6 16 0
    endloop
  endfacet
  facet normal 0 1 0
    outer loop
      vertex 5.6 16 4.8
      vertex 0 16 0
      vertex 0 16 30
    endloop
  endfacet
  facet normal 0 0 -1
    outer loop
      vertex 0 0 0
      vertex 5.6 2.4 0
      vertex 5.6 0 0
    endloop
  endfacet
  facet normal 0 0 -1
    outer loop
      vertex 5.6 2.4 0
      vertex 4.8 8 0
      vertex 5.6 13.6 0
    endloop
  endfacet
  facet normal 0 0 -1
    outer loop
      vertex 4.09706 9.69706 0
      vertex 5.6 13.6 0
      vertex 4.8 8 0
    endloop
  endfacet
  facet normal 0 0 -1
    outer loop
      vertex 5.6 2.4 0
      vertex 4.09706 6.30294 0
      vertex 4.8 8 0
    endloop
  endfacet
  facet normal 0 0 -1
    outer loop
      vertex 5.6 2.4 0
      vertex 2.4 5.6 0
      vertex 4.09706 6.30294 0
    endloop
  endfacet
  facet normal -0 0 -1
    outer loop
      vertex 5.6 2.4 0
      vertex 0 0 0
      vertex 2.4 5.6 0
    endloop
  endfacet
  facet normal -0 0 -1
    outer loop
      vertex 2.4 5.6 0
      vertex 0 0 0
      vertex 0.702943 6.30294 0
    endloop
  endfacet
  facet normal 0 0 -1
    outer loop
      vertex 0 6.5 0
      vertex 0.702943 6.30294 0
      vertex 0 0 0
    endloop
  endfacet
  facet normal 0 0 -1
    outer loop
      vertex 0.702943 6.30294 0
      vertex 0 6.5 0
      vertex 0.621319 6.5 0
    endloop
  endfacet
  facet normal 0 0 -1
    outer loop
      vertex 6.30294 4.09706 0
      vertex 6.5 11.8213 0
      vertex 6.5 4.17868 0
    endloop
  endfacet
  facet normal 0 0 -1
    outer loop
      vertex 6.30294 4.09706 0
      vertex 6.30294 11.9029 0
      vertex 6.5 11.8213 0
    endloop
  endfacet
  facet normal 0 0 -1
    outer loop
      vertex 5.6 2.4 0
      vertex 6.30294 11.9029 0
      vertex 6.30294 4.09706 0
    endloop
  endfacet
  facet normal -0 0 -1
    outer loop
      vertex 6.30294 11.9029 0
      vertex 5.6 2.4 0
      vertex 5.6 13.6 0
    endloop
  endfacet
  facet normal 0 0 -1
    outer loop
      vertex 2.4 10.4 0
      vertex 5.6 13.6 0
      vertex 4.09706 9.69706 0
    endloop
  endfacet
  facet normal 0 0 -1
    outer loop
      vertex 0 16 0
      vertex 5.6 13.6 0
      vertex 2.4 10.4 0
    endloop
  endfacet
  facet normal 0 0 -1
    outer loop
      vertex 0 16 0
      vertex 2.4 10.4 0
      vertex 0.702943 9.69706 0
    endloop
  endfacet
  facet normal 0 0 -1
    outer loop
      vertex 0 9.5 0
      vertex 0.702943 9.69706 0
      vertex 0.62132 9.5 0
    endloop
  endfacet
  facet normal 0 0 -1
    outer loop
      vertex 0 16 0
      vertex 0.702943 9.69706 0
      vertex 0 9.5 0
    endloop
  endfacet
  facet normal 0 0 -1
    outer loop
      vertex 5.6 13.6 0
      vertex 0 16 0
      vertex 5.6 16 0
    endloop
  endfacet
  facet normal 0 0 -1
    outer loop
      vertex 15.2971 6.30294 0
      vertex 16 6.5 0
      vertex 16 0 0
    endloop
  endfacet
  facet normal -0 0 -1
    outer loop
      vertex 16 6.5 0
      vertex 15.2971 6.30294 0
      vertex 15.3787 6.5 0
    endloop
  endfacet
  facet normal 0 0 -1
    outer loop
      vertex 16 0 0
      vertex 13.6 5.6 0
      vertex 15.2971 6.30294 0
    endloop
  endfacet
  facet normal 0 0 -1
    outer loop
      vertex 10.4 2.4 0
      vertex 13.6 5.6 0
      vertex 16 0 0
    endloop
  endfacet
  facet normal -0 0 -1
    outer loop
      vertex 13.6 5.6 0
      vertex 10.4 2.4 0
      vertex 11.9029 6.30294 0
    endloop
  endfacet
  facet normal 0 0 -1
    outer loop
      vertex 10.4 2.4 0
      vertex 16 0 0
      vertex 10.4 0 0
    endloop
  endfacet
  facet normal 0 0 -1
    outer loop
      vertex 15.2971 9.69706 0
      vertex 16 9.5 0
      vertex 15.3787 9.5 0
    endloop
  endfacet
  facet normal 0 0 -1
    outer loop
      vertex 16 9.5 0
      vertex 15.2971 9.69706 0
      vertex 16 16 0
    endloop
  endfacet
  facet normal 0 0 -1
    outer loop
      vertex 13.6 10.4 0
      vertex 16 16 0
      vertex 15.2971 9.69706 0
    endloop
  endfacet
  facet normal 0 0 -1
    outer loop
      vertex 10.4 13.6 0
      vertex 13.6 10.4 0
      vertex 11.9029 9.69706 0
    endloop
  endfacet
  facet normal 0 0 -1
    outer loop
      vertex 9.69706 4.09706 0
      vertex 11.9029 6.30294 0
      vertex 10.4 2.4 0
    endloop
  endfacet
  facet normal 0 0 -1
    outer loop
      vertex 9.5 4.17868 0
      vertex 11.9029 6.30294 0
      vertex 9.69706 4.09706 0
    endloop
  endfacet
  facet normal 0 0 -1
    outer loop
      vertex 9.69706 11.9029 0
      vertex 11.9029 9.69706 0
      vertex 11.2 8 0
    endloop
  endfacet
  facet normal 0 0 -1
    outer loop
      vertex 13.6 10.4 0
      vertex 10.4 13.6 0
      vertex 16 16 0
    endloop
  endfacet
  facet normal -0 0 -1
    outer loop
      vertex 16 16 0
      vertex 10.4 13.6 0
      vertex 10.4 16 0
    endloop
  endfacet
  facet normal -0 0 -1
    outer loop
      vertex 11.9029 6.30294 0
      vertex 9.5 4.17868 0
      vertex 11.2 8 0
    endloop
  endfacet
  facet normal 0 0 -1
    outer loop
      vertex 11.9029 9.69706 0
      vertex 9.69706 11.9029 0
      vertex 10.4 13.6 0
    endloop
  endfacet
  facet normal 0 0 -1
    outer loop
      vertex 9.5 11.8213 0
      vertex 11.2 8 0
      vertex 9.5 4.17868 0
    endloop
  endfacet
  facet normal 0 0 -1
    outer loop
      vertex 11.2 8 0
      vertex 9.5 11.8213 0
      vertex 9.69706 11.9029 0
    endloop
  endfacet
  facet normal 0 -1 0
    outer loop
      vertex 10.4 0 4.8
      vertex 9.5 0 30
      vertex 9.5 0 4.8
    endloop
  endfacet
  facet normal 0 -1 0
    outer loop
      vertex 9.5 0 30
      vertex 10.4 0 4.8
      vertex 16 0 30
    endloop
  endfacet
  facet normal 0 -1 0
    outer loop
      vertex 16 0 0
      vertex 10.4 0 4.8
      vertex 10.4 0 0
    endloop
  endfacet
  facet normal 0 -1 0
    outer loop
      vertex 10.4 0 4.8
      vertex 16 0 0
      vertex 16 0 30
    endloop
  endfacet
  facet normal 0 -1 0
    outer loop
      vertex 0 0 30
      vertex 5.6 0 4.8
      vertex 6.5 0 30
    endloop
  endfacet
  facet normal 0 -1 0
    outer loop
      vertex 0 0 0
      vertex 5.6 0 4.8
      vertex 0 0 30
    endloop
  endfacet
  facet normal 0 -1 -0
    outer loop
      vertex 5.6 0 4.8
      vertex 0 0 0
      vertex 5.6 0 0
    endloop
  endfacet
  facet normal 0 -1 -0
    outer loop
      vertex 6.5 0 30
      vertex 5.6 0 4.8
      vertex 6.5 0 4.8
    endloop
  endfacet
  facet normal -0.923881 -0.382681 0
    outer loop
      vertex 10.4 2.4 0
      vertex 9.69706 4.09706 0.702943
      vertex 9.69706 4.09706 0
    endloop
  endfacet
  facet normal -0.923881 -0.382681 0
    outer loop
      vertex 9.69706 4.09706 0.702943
      vertex 10.4 2.4 0
      vertex 10.4 2.4 2.4
    endloop
  endfacet
  facet normal -0.923881 -0.382681 -0
    outer loop
      vertex 10.4 2.4 4.8
      vertex 9.69706 4.09706 4.09706
      vertex 10.4 2.4 2.4
    endloop
  endfacet
  facet normal -0.923881 -0.382681 0
    outer loop
      vertex 9.69706 4.09706 4.09706
      vertex 10.4 2.4 4.8
      vertex 9.69706 4.09706 30
    endloop
  endfacet
  facet normal -0.923881 -0.382681 0
    outer loop
      vertex 9.69706 4.09706 30
      vertex 10.4 2.4 4.8
      vertex 10.4 2.4 30
    endloop
  endfacet
  facet normal 0.382681 -0.923881 0
    outer loop
      vertex 6.30294 4.09706 30
      vertex 8 4.8 4.8
      vertex 8 4.8 30
    endloop
  endfacet
  facet normal 0.382681 -0.923881 0
    outer loop
      vertex 8 4.8 4.8
      vertex 6.30294 4.09706 30
      vertex 6.30294 4.09706 4.09706
    endloop
  endfacet
  facet normal 0.382664 -0.923888 0
    outer loop
      vertex 6.30294 4.09706 0
      vertex 6.5 4.17868 0.621319
      vertex 6.30294 4.09706 0.702943
    endloop
  endfacet
  facet normal 0.382664 -0.923888 0
    outer loop
      vertex 6.5 4.17868 0.621319
      vertex 6.30294 4.09706 0
      vertex 6.5 4.17868 0
    endloop
  endfacet
  facet normal -0.382664 -0.923888 0
    outer loop
      vertex 9.69706 4.09706 0
      vertex 9.5 4.17868 0.62132
      vertex 9.5 4.17868 0
    endloop
  endfacet
  facet normal -0.382664 -0.923888 0
    outer loop
      vertex 9.5 4.17868 0.62132
      vertex 9.69706 4.09706 0
      vertex 9.69706 4.09706 0.702943
    endloop
  endfacet
  facet normal -0.382681 -0.923881 0
    outer loop
      vertex 8 4.8 4.8
      vertex 9.69706 4.09706 30
      vertex 8 4.8 30
    endloop
  endfacet
  facet normal -0.382681 -0.923881 -0
    outer loop
      vertex 9.69706 4.09706 30
      vertex 8 4.8 4.8
      vertex 9.69706 4.09706 4.09706
    endloop
  endfacet
  facet normal 0.923881 -0.382681 0
    outer loop
      vertex 5.6 2.4 4.8
      vertex 6.30294 4.09706 30
      vertex 5.6 2.4 30
    endloop
  endfacet
  facet normal 0.923881 -0.382681 0
    outer loop
      vertex 6.30294 4.09706 30
      vertex 5.6 2.4 4.8
      vertex 6.30294 4.09706 4.09706
    endloop
  endfacet
  facet normal 0.923881 -0.382681 0
    outer loop
      vertex 6.30294 4.09706 4.09706
      vertex 5.6 2.4 4.8
      vertex 5.6 2.4 2.4
    endloop
  endfacet
  facet normal 0.923881 -0.382681 0
    outer loop
      vertex 5.6 2.4 0
      vertex 6.30294 4.09706 0.702943
      vertex 5.6 2.4 2.4
    endloop
  endfacet
  facet normal 0.923881 -0.382681 0
    outer loop
      vertex 6.30294 4.09706 0.702943
      vertex 5.6 2.4 0
      vertex 6.30294 4.09706 0
    endloop
  endfacet
  facet normal -0.923878 0.382687 0
    outer loop
      vertex 10.4 2.4 4.8
      vertex 10.3288 2.22811 30
      vertex 10.4 2.4 30
    endloop
  endfacet
  facet normal -0.92388 0.382682 -4.54057e-08
    outer loop
      vertex 9.69706 0.702943 4.8
      vertex 10.3288 2.22811 30
      vertex 10.4 2.4 4.8
    endloop
  endfacet
  facet normal -0.923881 0.382681 0
    outer loop
      vertex 10.3288 2.22811 30
      vertex 9.69706 0.702943 4.8
      vertex 9.69706 0.702943 30
    endloop
  endfacet
  facet normal 0.38268 0.923881 -0
    outer loop
      vertex 6.5 0.621319 4.8
      vertex 6.30294 0.702943 30
      vertex 6.5 0.621319 30
    endloop
  endfacet
  facet normal 0.38268 0.923881 0
    outer loop
      vertex 6.30294 0.702943 30
      vertex 6.5 0.621319 4.8
      vertex 6.30294 0.702943 4.8
    endloop
  endfacet
  facet normal 0.923887 0.382665 0
    outer loop
      vertex 5.7087 2.13756 30
      vertex 5.6 2.4 4.8
      vertex 5.6 2.4 30
    endloop
  endfacet
  facet normal 0.923879 0.382685 -0
    outer loop
      vertex 6.30294 0.702943 4.8
      vertex 5.7087 2.13756 30
      vertex 6.30294 0.702943 30
    endloop
  endfacet
  facet normal 0.92388 0.382682 2.04749e-07
    outer loop
      vertex 5.7087 2.13756 30
      vertex 6.30294 0.702943 4.8
      vertex 5.6 2.4 4.8
    endloop
  endfacet
  facet normal -0.382676 0.923883 0
    outer loop
      vertex 9.69706 0.702943 4.8
      vertex 9.5 0.62132 30
      vertex 9.69706 0.702943 30
    endloop
  endfacet
  facet normal -0.382676 0.923883 0
    outer loop
      vertex 9.5 0.62132 30
      vertex 9.69706 0.702943 4.8
      vertex 9.5 0.62132 4.8
    endloop
  endfacet
  facet normal -0.923883 -0.382674 0
    outer loop
      vertex 9.69706 15.2971 4.8
      vertex 10.3288 13.7719 30
      vertex 9.69706 15.2971 30
    endloop
  endfacet
  facet normal -0.923884 -0.382673 4.03108e-08
    outer loop
      vertex 10.4 13.6 4.8
      vertex 10.3288 13.7719 30
      vertex 9.69706 15.2971 4.8
    endloop
  endfacet
  facet normal -0.923886 -0.382668 0
    outer loop
      vertex 10.3288 13.7719 30
      vertex 10.4 13.6 4.8
      vertex 10.4 13.6 30
    endloop
  endfacet
  facet normal 0.923887 -0.382666 0
    outer loop
      vertex 5.7087 13.8624 30
      vertex 6.30294 15.2971 4.8
      vertex 6.30294 15.2971 30
    endloop
  endfacet
  facet normal 0.923867 -0.382715 0
    outer loop
      vertex 5.6 13.6 4.8
      vertex 5.7087 13.8624 30
      vertex 5.6 13.6 30
    endloop
  endfacet
  facet normal 0.923884 -0.382673 -5.03647e-07
    outer loop
      vertex 5.7087 13.8624 30
      vertex 5.6 13.6 4.8
      vertex 6.30294 15.2971 4.8
    endloop
  endfacet
  facet normal 0.382584 -0.923921 0
    outer loop
      vertex 6.30294 15.2971 4.8
      vertex 6.5 15.3787 30
      vertex 6.30294 15.2971 30
    endloop
  endfacet
  facet normal 0.382584 -0.923921 0
    outer loop
      vertex 6.5 15.3787 30
      vertex 6.30294 15.2971 4.8
      vertex 6.5 15.3787 4.8
    endloop
  endfacet
  facet normal -0.382584 -0.923921 0
    outer loop
      vertex 9.5 15.3787 4.8
      vertex 9.69706 15.2971 30
      vertex 9.5 15.3787 30
    endloop
  endfacet
  facet normal -0.382584 -0.923921 -0
    outer loop
      vertex 9.69706 15.2971 30
      vertex 9.5 15.3787 4.8
      vertex 9.69706 15.2971 4.8
    endloop
  endfacet
  facet normal -0.382662 0.923888 0
    outer loop
      vertex 9.69706 11.9029 30
      vertex 8 11.2 4.8
      vertex 8 11.2 30
    endloop
  endfacet
  facet normal -0.382662 0.923888 0
    outer loop
      vertex 8 11.2 4.8
      vertex 9.69706 11.9029 30
      vertex 9.69706 11.9029 4.09706
    endloop
  endfacet
  facet normal -0.382584 0.923921 0
    outer loop
      vertex 9.69706 11.9029 0
      vertex 9.5 11.8213 0.62132
      vertex 9.69706 11.9029 0.702943
    endloop
  endfacet
  facet normal -0.382584 0.923921 0
    outer loop
      vertex 9.5 11.8213 0.62132
      vertex 9.69706 11.9029 0
      vertex 9.5 11.8213 0
    endloop
  endfacet
  facet normal 0.923884 0.382673 0
    outer loop
      vertex 6.30294 11.9029 0.702943
      vertex 5.6 13.6 0
      vertex 5.6 13.6 2.4
    endloop
  endfacet
  facet normal 0.923884 0.382673 0
    outer loop
      vertex 5.6 13.6 0
      vertex 6.30294 11.9029 0.702943
      vertex 6.30294 11.9029 0
    endloop
  endfacet
  facet normal 0.923884 0.382673 0
    outer loop
      vertex 6.30294 11.9029 30
      vertex 5.6 13.6 4.8
      vertex 5.6 13.6 30
    endloop
  endfacet
  facet normal 0.923884 0.382673 0
    outer loop
      vertex 5.6 13.6 4.8
      vertex 6.30294 11.9029 30
      vertex 6.30294 11.9029 4.09706
    endloop
  endfacet
  facet normal 0.923884 0.382673 0
    outer loop
      vertex 5.6 13.6 4.8
      vertex 6.30294 11.9029 4.09706
      vertex 5.6 13.6 2.4
    endloop
  endfacet
  facet normal -0.923884 0.382673 0
    outer loop
      vertex 9.69706 11.9029 0.702943
      vertex 10.4 13.6 0
      vertex 9.69706 11.9029 0
    endloop
  endfacet
  facet normal -0.923884 0.382673 0
    outer loop
      vertex 10.4 13.6 0
      vertex 9.69706 11.9029 0.702943
      vertex 10.4 13.6 2.4
    endloop
  endfacet
  facet normal -0.923884 0.382673 0
    outer loop
      vertex 9.69706 11.9029 4.09706
      vertex 10.4 13.6 4.8
      vertex 10.4 13.6 2.4
    endloop
  endfacet
  facet normal -0.923884 0.382673 0
    outer loop
      vertex 9.69706 11.9029 30
      vertex 10.4 13.6 4.8
      vertex 9.69706 11.9029 4.09706
    endloop
  endfacet
  facet normal -0.923884 0.382673 0
    outer loop
      vertex 10.4 13.6 4.8
      vertex 9.69706 11.9029 30
      vertex 10.4 13.6 30
    endloop
  endfacet
  facet normal 0.382584 0.923921 0
    outer loop
      vertex 6.30294 11.9029 0
      vertex 6.5 11.8213 0.621319
      vertex 6.5 11.8213 0
    endloop
  endfacet
  facet normal 0.382584 0.923921 0
    outer loop
      vertex 6.5 11.8213 0.621319
      vertex 6.30294 11.9029 0
      vertex 6.30294 11.9029 0.702943
    endloop
  endfacet
  facet normal 0.382662 0.923888 -0
    outer loop
      vertex 8 11.2 4.8
      vertex 6.30294 11.9029 30
      vertex 8 11.2 30
    endloop
  endfacet
  facet normal 0.382662 0.923888 0
    outer loop
      vertex 6.30294 11.9029 30
      vertex 8 11.2 4.8
      vertex 6.30294 11.9029 4.09706
    endloop
  endfacet
  facet normal -0.923921 -0.382584 0
    outer loop
      vertex 15.3787 9.5 0
      vertex 15.2971 9.69706 30
      vertex 15.2971 9.69706 0
    endloop
  endfacet
  facet normal -0.923921 -0.382584 0
    outer loop
      vertex 15.2971 9.69706 30
      vertex 15.3787 9.5 0
      vertex 15.3787 9.5 30
    endloop
  endfacet
  facet normal 0.382673 -0.923884 0
    outer loop
      vertex 11.9029 9.69706 0
      vertex 13.6 10.4 30
      vertex 11.9029 9.69706 30
    endloop
  endfacet
  facet normal 0.382673 -0.923884 0
    outer loop
      vertex 13.6 10.4 30
      vertex 11.9029 9.69706 0
      vertex 13.6 10.4 0
    endloop
  endfacet
  facet normal -0.38257 -0.923927 0
    outer loop
      vertex 13.6 10.4 0
      vertex 13.8246 10.307 30
      vertex 13.6 10.4 30
    endloop
  endfacet
  facet normal -0.382689 -0.923877 1.0462e-06
    outer loop
      vertex 13.8246 10.307 30
      vertex 13.6 10.4 0
      vertex 15.2971 9.69706 30
    endloop
  endfacet
  facet normal -0.382673 -0.923884 -0
    outer loop
      vertex 15.2971 9.69706 30
      vertex 13.6 10.4 0
      vertex 15.2971 9.69706 0
    endloop
  endfacet
  facet normal 0.923888 -0.382662 0
    outer loop
      vertex 11.2 8 30
      vertex 11.9029 9.69706 0
      vertex 11.9029 9.69706 30
    endloop
  endfacet
  facet normal 0.923888 -0.382662 0
    outer loop
      vertex 11.9029 9.69706 0
      vertex 11.2 8 30
      vertex 11.2 8 0
    endloop
  endfacet
  facet normal -0.923921 0.382584 0
    outer loop
      vertex 15.2971 6.30294 0
      vertex 15.3787 6.5 30
      vertex 15.3787 6.5 0
    endloop
  endfacet
  facet normal -0.923921 0.382584 0
    outer loop
      vertex 15.3787 6.5 30
      vertex 15.2971 6.30294 0
      vertex 15.2971 6.30294 30
    endloop
  endfacet
  facet normal 0.382673 0.923884 -0
    outer loop
      vertex 13.6 5.6 0
      vertex 11.9029 6.30294 30
      vertex 13.6 5.6 30
    endloop
  endfacet
  facet normal 0.382673 0.923884 0
    outer loop
      vertex 11.9029 6.30294 30
      vertex 13.6 5.6 0
      vertex 11.9029 6.30294 0
    endloop
  endfacet
  facet normal 0.923888 0.382662 0
    outer loop
      vertex 11.9029 6.30294 30
      vertex 11.2 8 0
      vertex 11.2 8 30
    endloop
  endfacet
  facet normal 0.923888 0.382662 0
    outer loop
      vertex 11.2 8 0
      vertex 11.9029 6.30294 30
      vertex 11.9029 6.30294 0
    endloop
  endfacet
  facet normal -0.382668 0.923886 0
    outer loop
      vertex 15.2971 6.30294 0
      vertex 13.8246 5.69304 30
      vertex 15.2971 6.30294 30
    endloop
  endfacet
  facet normal -0.382673 0.923884 -3.24093e-07
    outer loop
      vertex 13.6 5.6 0
      vertex 13.8246 5.69304 30
      vertex 15.2971 6.30294 0
    endloop
  endfacet
  facet normal -0.38271 0.923868 0
    outer loop
      vertex 13.8246 5.69304 30
      vertex 13.6 5.6 0
      vertex 13.6 5.6 30
    endloop
  endfacet
  facet normal -0.923881 -0.382681 0
    outer loop
      vertex 4.8 8 0
      vertex 4.09706 9.69706 30
      vertex 4.09706 9.69706 0
    endloop
  endfacet
  facet normal -0.923881 -0.382681 0
    outer loop
      vertex 4.09706 9.69706 30
      vertex 4.8 8 0
      vertex 4.8 8 30
    endloop
  endfacet
  facet normal 0.382674 -0.923884 0
    outer loop
      vertex 0.702943 9.69706 0
      vertex 2.15306 10.2977 30
      vertex 0.702943 9.69706 30
    endloop
  endfacet
  facet normal 0.382682 -0.92388 -4.52352e-07
    outer loop
      vertex 2.4 10.4 0
      vertex 2.15306 10.2977 30
      vertex 0.702943 9.69706 0
    endloop
  endfacet
  facet normal 0.382728 -0.923861 0
    outer loop
      vertex 2.15306 10.2977 30
      vertex 2.4 10.4 0
      vertex 2.4 10.4 30
    endloop
  endfacet
  facet normal -0.382681 -0.923881 0
    outer loop
      vertex 2.4 10.4 0
      vertex 4.09706 9.69706 30
      vertex 2.4 10.4 30
    endloop
  endfacet
  facet normal -0.382681 -0.923881 -0
    outer loop
      vertex 4.09706 9.69706 30
      vertex 2.4 10.4 0
      vertex 4.09706 9.69706 0
    endloop
  endfacet
  facet normal 0.923883 -0.382676 0
    outer loop
      vertex 0.62132 9.5 30
      vertex 0.702943 9.69706 0
      vertex 0.702943 9.69706 30
    endloop
  endfacet
  facet normal 0.923883 -0.382676 0
    outer loop
      vertex 0.702943 9.69706 0
      vertex 0.62132 9.5 30
      vertex 0.62132 9.5 0
    endloop
  endfacet
  facet normal -0.923881 0.382681 0
    outer loop
      vertex 4.09706 6.30294 0
      vertex 4.8 8 30
      vertex 4.8 8 0
    endloop
  endfacet
  facet normal -0.923881 0.382681 0
    outer loop
      vertex 4.8 8 30
      vertex 4.09706 6.30294 0
      vertex 4.09706 6.30294 30
    endloop
  endfacet
  facet normal 0.923881 0.38268 0
    outer loop
      vertex 0.702943 6.30294 30
      vertex 0.621319 6.5 0
      vertex 0.621319 6.5 30
    endloop
  endfacet
  facet normal 0.923881 0.38268 0
    outer loop
      vertex 0.621319 6.5 0
      vertex 0.702943 6.30294 30
      vertex 0.702943 6.30294 0
    endloop
  endfacet
  facet normal -0.382681 0.923881 0
    outer loop
      vertex 4.09706 6.30294 0
      vertex 2.4 5.6 30
      vertex 4.09706 6.30294 30
    endloop
  endfacet
  facet normal -0.382681 0.923881 0
    outer loop
      vertex 2.4 5.6 30
      vertex 4.09706 6.30294 0
      vertex 2.4 5.6 0
    endloop
  endfacet
  facet normal 0.382665 0.923887 -0
    outer loop
      vertex 2.4 5.6 0
      vertex 2.15306 5.70228 30
      vertex 2.4 5.6 30
    endloop
  endfacet
  facet normal 0.382684 0.923879 1.91422e-07
    outer loop
      vertex 2.15306 5.70228 30
      vertex 2.4 5.6 0
      vertex 0.702943 6.30294 30
    endloop
  endfacet
  facet normal 0.382682 0.92388 0
    outer loop
      vertex 0.702943 6.30294 30
      vertex 2.4 5.6 0
      vertex 0.702943 6.30294 0
    endloop
  endfacet
  facet normal 1 -0 0
    outer loop
      vertex 6.5 0 30
      vertex 6.5 0.621319 4.8
      vertex 6.5 0.621319 30
    endloop
  endfacet
  facet normal 1 0 0
    outer loop
      vertex 6.5 0.621319 4.8
      vertex 6.5 0 30
      vertex 6.5 0 4.8
    endloop
  endfacet
  facet normal -1 0 0
    outer loop
      vertex 9.5 0 4.8
      vertex 9.5 0.62132 30
      vertex 9.5 0.62132 4.8
    endloop
  endfacet
  facet normal -1 -0 0
    outer loop
      vertex 9.5 0.62132 30
      vertex 9.5 0 4.8
      vertex 9.5 0 30
    endloop
  endfacet
  facet normal 1 -0 0
    outer loop
      vertex 6.5 15.3787 30
      vertex 6.5 16 4.8
      vertex 6.5 16 30
    endloop
  endfacet
  facet normal 1 0 0
    outer loop
      vertex 6.5 16 4.8
      vertex 6.5 15.3787 30
      vertex 6.5 15.3787 4.8
    endloop
  endfacet
  facet normal -1 0 0
    outer loop
      vertex 9.5 15.3787 4.8
      vertex 9.5 16 30
      vertex 9.5 16 4.8
    endloop
  endfacet
  facet normal -1 -0 0
    outer loop
      vertex 9.5 16 30
      vertex 9.5 15.3787 4.8
      vertex 9.5 15.3787 30
    endloop
  endfacet
  facet normal 0 1 -0
    outer loop
      vertex 16 6.5 0
      vertex 15.3787 6.5 30
      vertex 16 6.5 30
    endloop
  endfacet
  facet normal 0 1 0
    outer loop
      vertex 15.3787 6.5 30
      vertex 16 6.5 0
      vertex 15.3787 6.5 0
    endloop
  endfacet
  facet normal 0 -1 0
    outer loop
      vertex 15.3787 9.5 0
      vertex 16 9.5 30
      vertex 15.3787 9.5 30
    endloop
  endfacet
  facet normal 0 -1 -0
    outer loop
      vertex 16 9.5 30
      vertex 15.3787 9.5 0
      vertex 16 9.5 0
    endloop
  endfacet
  facet normal 0 -1 0
    outer loop
      vertex 0 9.5 0
      vertex 0.62132 9.5 30
      vertex 0 9.5 30
    endloop
  endfacet
  facet normal 0 -1 -0
    outer loop
      vertex 0.62132 9.5 30
      vertex 0 9.5 0
      vertex 0.62132 9.5 0
    endloop
  endfacet
  facet normal 0 1 -0
    outer loop
      vertex 0.621319 6.5 0
      vertex 0 6.5 30
      vertex 0.621319 6.5 30
    endloop
  endfacet
  facet normal 0 1 0
    outer loop
      vertex 0 6.5 30
      vertex 0.621319 6.5 0
      vertex 0 6.5 0
    endloop
  endfacet
  facet normal -0.923881 0 -0.382681
    outer loop
      vertex 10.4 13.6 2.4
      vertex 9.69706 4.09706 4.09706
      vertex 9.69706 11.9029 4.09706
    endloop
  endfacet
  facet normal -0.923881 0 -0.382681
    outer loop
      vertex 9.69706 4.09706 4.09706
      vertex 10.4 13.6 2.4
      vertex 10.4 2.4 2.4
    endloop
  endfacet
  facet normal -0.382681 0 -0.923881
    outer loop
      vertex 8 4.8 4.8
      vertex 9.69706 11.9029 4.09706
      vertex 9.69706 4.09706 4.09706
    endloop
  endfacet
  facet normal -0.382681 0 -0.923881
    outer loop
      vertex 9.69706 11.9029 4.09706
      vertex 8 4.8 4.8
      vertex 8 11.2 4.8
    endloop
  endfacet
  facet normal 0.382681 0 -0.923881
    outer loop
      vertex 6.30294 4.09706 4.09706
      vertex 8 11.2 4.8
      vertex 8 4.8 4.8
    endloop
  endfacet
  facet normal 0.382681 0 -0.923881
    outer loop
      vertex 8 11.2 4.8
      vertex 6.30294 4.09706 4.09706
      vertex 6.30294 11.9029 4.09706
    endloop
  endfacet
  facet normal -0.92388 0 0.382682
    outer loop
      vertex 9.69706 4.09706 0.702943
      vertex 10.4 13.6 2.4
      vertex 9.69706 11.9029 0.702943
    endloop
  endfacet
  facet normal -0.92388 0 0.382682
    outer loop
      vertex 10.4 13.6 2.4
      vertex 9.69706 4.09706 0.702943
      vertex 10.4 2.4 2.4
    endloop
  endfacet
  facet normal 0.38268 0 0.923881
    outer loop
      vertex 6.30294 11.9029 0.702943
      vertex 6.5 4.17868 0.621319
      vertex 6.5 11.8213 0.621319
    endloop
  endfacet
  facet normal 0.38268 0 0.923881
    outer loop
      vertex 6.5 4.17868 0.621319
      vertex 6.30294 11.9029 0.702943
      vertex 6.30294 4.09706 0.702943
    endloop
  endfacet
  facet normal 0.923881 0 -0.382681
    outer loop
      vertex 6.30294 4.09706 4.09706
      vertex 5.6 13.6 2.4
      vertex 6.30294 11.9029 4.09706
    endloop
  endfacet
  facet normal 0.923881 0 -0.382681
    outer loop
      vertex 5.6 13.6 2.4
      vertex 6.30294 4.09706 4.09706
      vertex 5.6 2.4 2.4
    endloop
  endfacet
  facet normal 0.92388 0 0.382682
    outer loop
      vertex 5.6 13.6 2.4
      vertex 6.30294 4.09706 0.702943
      vertex 6.30294 11.9029 0.702943
    endloop
  endfacet
  facet normal 0.92388 0 0.382682
    outer loop
      vertex 6.30294 4.09706 0.702943
      vertex 5.6 13.6 2.4
      vertex 5.6 2.4 2.4
    endloop
  endfacet
  facet normal -0.382676 0 0.923883
    outer loop
      vertex 9.5 11.8213 0.62132
      vertex 9.69706 4.09706 0.702943
      vertex 9.69706 11.9029 0.702943
    endloop
  endfacet
  facet normal -0.382676 0 0.923883
    outer loop
      vertex 9.69706 4.09706 0.702943
      vertex 9.5 11.8213 0.62132
      vertex 9.5 4.17868 0.62132
    endloop
  endfacet
  facet normal 1 0 0
    outer loop
      vertex 5.6 13.6 2.4
      vertex 5.6 16 4.8
      vertex 5.6 13.6 4.8
    endloop
  endfacet
  facet normal 1 0 0
    outer loop
      vertex 5.6 16 4.8
      vertex 5.6 13.6 2.4
      vertex 5.6 16 0
    endloop
  endfacet
  facet normal 1 0 0
    outer loop
      vertex 5.6 16 0
      vertex 5.6 13.6 2.4
      vertex 5.6 13.6 0
    endloop
  endfacet
  facet normal 0 0 -1
    outer loop
      vertex 9.69706 15.2971 4.8
      vertex 10.4 16 4.8
      vertex 10.4 13.6 4.8
    endloop
  endfacet
  facet normal 0 0 -1
    outer loop
      vertex 9.5 16 4.8
      vertex 9.69706 15.2971 4.8
      vertex 9.5 15.3787 4.8
    endloop
  endfacet
  facet normal 0 0 -1
    outer loop
      vertex 9.69706 15.2971 4.8
      vertex 9.5 16 4.8
      vertex 10.4 16 4.8
    endloop
  endfacet
  facet normal 0 0 -1
    outer loop
      vertex 6.30294 15.2971 4.8
      vertex 6.5 16 4.8
      vertex 6.5 15.3787 4.8
    endloop
  endfacet
  facet normal 0 0 -1
    outer loop
      vertex 5.6 16 4.8
      vertex 6.30294 15.2971 4.8
      vertex 5.6 13.6 4.8
    endloop
  endfacet
  facet normal 0 0 -1
    outer loop
      vertex 6.30294 15.2971 4.8
      vertex 5.6 16 4.8
      vertex 6.5 16 4.8
    endloop
  endfacet
  facet normal -1 0 0
    outer loop
      vertex 10.4 13.6 2.4
      vertex 10.4 16 0
      vertex 10.4 13.6 0
    endloop
  endfacet
  facet normal -1 0 0
    outer loop
      vertex 10.4 16 0
      vertex 10.4 13.6 2.4
      vertex 10.4 16 4.8
    endloop
  endfacet
  facet normal -1 -0 0
    outer loop
      vertex 10.4 16 4.8
      vertex 10.4 13.6 2.4
      vertex 10.4 13.6 4.8
    endloop
  endfacet
  facet normal 1 -0 0
    outer loop
      vertex 5.6 0 4.8
      vertex 5.6 2.4 2.4
      vertex 5.6 2.4 4.8
    endloop
  endfacet
  facet normal 1 0 0
    outer loop
      vertex 5.6 0 0
      vertex 5.6 2.4 2.4
      vertex 5.6 0 4.8
    endloop
  endfacet
  facet normal 1 0 0
    outer loop
      vertex 5.6 2.4 2.4
      vertex 5.6 0 0
      vertex 5.6 2.4 0
    endloop
  endfacet
  facet normal 0 0 -1
    outer loop
      vertex 10.4 0 4.8
      vertex 9.69706 0.702943 4.8
      vertex 10.4 2.4 4.8
    endloop
  endfacet
  facet normal 0 0 -1
    outer loop
      vertex 9.5 0 4.8
      vertex 9.69706 0.702943 4.8
      vertex 10.4 0 4.8
    endloop
  endfacet
  facet normal 0 0 -1
    outer loop
      vertex 9.69706 0.702943 4.8
      vertex 9.5 0 4.8
      vertex 9.5 0.62132 4.8
    endloop
  endfacet
  facet normal 0 0 -1
    outer loop
      vertex 6.5 0 4.8
      vertex 6.30294 0.702943 4.8
      vertex 6.5 0.621319 4.8
    endloop
  endfacet
  facet normal 0 0 -1
    outer loop
      vertex 5.6 0 4.8
      vertex 6.30294 0.702943 4.8
      vertex 6.5 0 4.8
    endloop
  endfacet
  facet normal -0 0 -1
    outer loop
      vertex 6.30294 0.702943 4.8
      vertex 5.6 0 4.8
      vertex 5.6 2.4 4.8
    endloop
  endfacet
  facet normal -1 0 0
    outer loop
      vertex 10.4 0 0
      vertex 10.4 2.4 2.4
      vertex 10.4 2.4 0
    endloop
  endfacet
  facet normal -1 0 0
    outer loop
      vertex 10.4 0 4.8
      vertex 10.4 2.4 2.4
      vertex 10.4 0 0
    endloop
  endfacet
  facet normal -1 0 0
    outer loop
      vertex 10.4 2.4 2.4
      vertex 10.4 0 4.8
      vertex 10.4 2.4 4.8
    endloop
  endfacet
  facet normal -1 0 0
    outer loop
      vertex 9.5 4.17868 0
      vertex 9.5 11.8213 0.62132
      vertex 9.5 11.8213 0
    endloop
  endfacet
  facet normal -1 -0 0
    outer loop
      vertex 9.5 11.8213 0.62132
      vertex 9.5 4.17868 0
      vertex 9.5 4.17868 0.62132
    endloop
  endfacet
  facet normal 1 -0 0
    outer loop
      vertex 6.5 4.17868 0.621319
      vertex 6.5 11.8213 0
      vertex 6.5 11.8213 0.621319
    endloop
  endfacet
  facet normal 1 0 0
    outer loop
      vertex 6.5 11.8213 0
      vertex 6.5 4.17868 0.621319
      vertex 6.5 4.17868 0
    endloop
  endfacet
  facet normal -1 0 0
    outer loop
      vertex 1 1 30
      vertex 1 4.60481 60
      vertex 1 4.60481 30
    endloop
  endfacet
  facet normal -1 -0 0
    outer loop
      vertex 1 4.60481 60
      vertex 1 1 30
      vertex 1 1 60
    endloop
  endfacet
  facet normal -1 0 0
    outer loop
      vertex 1 11.3952 30
      vertex 1 15 60
      vertex 1 15 30
    endloop
  endfacet
  facet normal -1 -0 0
    outer loop
      vertex 1 15 60
      vertex 1 11.3952 30
      vertex 1 11.3952 60
    endloop
  endfacet
  facet normal -0 0 1
    outer loop
      vertex 11.4168 15 60
      vertex 15 11.3386 60
      vertex 15 15 60
    endloop
  endfacet
  facet normal 0 0 1
    outer loop
      vertex 15 11.3386 60
      vertex 11.4168 15 60
      vertex 14.006 10.6525 60
    endloop
  endfacet
  facet normal 0 0 1
    outer loop
      vertex 14.006 10.6525 60
      vertex 10.2723 13.7081 60
      vertex 13.1162 8.95726 60
    endloop
  endfacet
  facet normal -0 0 1
    outer loop
      vertex 10.2723 13.7081 60
      vertex 14.006 10.6525 60
      vertex 11.4168 15 60
    endloop
  endfacet
  facet normal 0 0 1
    outer loop
      vertex 11.4168 1 60
      vertex 15 4.66137 60
      vertex 14.006 5.34751 60
    endloop
  endfacet
  facet normal 0 0 1
    outer loop
      vertex 10.2723 2.29193 60
      vertex 14.006 5.34751 60
      vertex 13.1162 7.04274 60
    endloop
  endfacet
  facet normal 0 0 1
    outer loop
      vertex 15 4.66137 60
      vertex 11.4168 1 60
      vertex 15 1 60
    endloop
  endfacet
  facet normal -0 0 1
    outer loop
      vertex 8.48215 13.0292 60
      vertex 13.1162 8.95726 60
      vertex 10.2723 13.7081 60
    endloop
  endfacet
  facet normal 0 0 1
    outer loop
      vertex 13.1162 8.95726 60
      vertex 8.48215 13.0292 60
      vertex 13.1162 7.04274 60
    endloop
  endfacet
  facet normal 0 0 1
    outer loop
      vertex 14.006 5.34751 60
      vertex 10.2723 2.29193 60
      vertex 11.4168 1 60
    endloop
  endfacet
  facet normal 0 0 1
    outer loop
      vertex 8.48215 2.97083 60
      vertex 13.1162 7.04274 60
      vertex 8.48215 13.0292 60
    endloop
  endfacet
  facet normal 0 0 1
    outer loop
      vertex 13.1162 7.04274 60
      vertex 8.48215 2.97083 60
      vertex 10.2723 2.29193 60
    endloop
  endfacet
  facet normal 0 0 1
    outer loop
      vertex 3 8 60
      vertex 8.48215 13.0292 60
      vertex 6.58158 13.2599 60
    endloop
  endfacet
  facet normal 0 0 1
    outer loop
      vertex 8.48215 13.0292 60
      vertex 3 8 60
      vertex 8.48215 2.97083 60
    endloop
  endfacet
  facet normal 0 0 1
    outer loop
      vertex 2.54182 9.85889 60
      vertex 6.58158 13.2599 60
      vertex 5.00596 14.3475 60
    endloop
  endfacet
  facet normal 0 0 1
    outer loop
      vertex 8.48215 2.97083 60
      vertex 3 8 60
      vertex 6.58158 2.74006 60
    endloop
  endfacet
  facet normal -0 0 1
    outer loop
      vertex 1 15 60
      vertex 5.00596 14.3475 60
      vertex 4.6635 15 60
    endloop
  endfacet
  facet normal -0 0 1
    outer loop
      vertex 2.54182 6.14111 60
      vertex 6.58158 2.74006 60
      vertex 3 8 60
    endloop
  endfacet
  facet normal 0 0 1
    outer loop
      vertex 6.58158 2.74006 60
      vertex 2.54182 6.14111 60
      vertex 5.00596 1.65249 60
    endloop
  endfacet
  facet normal 0 0 1
    outer loop
      vertex 6.58158 13.2599 60
      vertex 2.54182 9.85889 60
      vertex 3 8 60
    endloop
  endfacet
  facet normal 0 0 1
    outer loop
      vertex 5.00596 14.3475 60
      vertex 1.27226 11.2919 60
      vertex 2.54182 9.85889 60
    endloop
  endfacet
  facet normal 0 0 1
    outer loop
      vertex 5.00596 14.3475 60
      vertex 1 15 60
      vertex 1.27226 11.2919 60
    endloop
  endfacet
  facet normal 0 0 1
    outer loop
      vertex 1.27226 11.2919 60
      vertex 1 15 60
      vertex 1 11.3952 60
    endloop
  endfacet
  facet normal -0 0 1
    outer loop
      vertex 1.27226 4.70806 60
      vertex 5.00596 1.65249 60
      vertex 2.54182 6.14111 60
    endloop
  endfacet
  facet normal 0 0 1
    outer loop
      vertex 1 1 60
      vertex 5.00596 1.65249 60
      vertex 1.27226 4.70806 60
    endloop
  endfacet
  facet normal 0 0 1
    outer loop
      vertex 1 1 60
      vertex 1.27226 4.70806 60
      vertex 1 4.60481 60
    endloop
  endfacet
  facet normal 0 0 1
    outer loop
      vertex 5.00596 1.65249 60
      vertex 1 1 60
      vertex 4.6635 1 60
    endloop
  endfacet
  facet normal 1 -0 0
    outer loop
      vertex 15 1 60
      vertex 15 4.66137 30
      vertex 15 4.66137 60
    endloop
  endfacet
  facet normal 1 0 0
    outer loop
      vertex 15 4.66137 30
      vertex 15 1 60
      vertex 15 1 30
    endloop
  endfacet
  facet normal 1 -0 0
    outer loop
      vertex 15 11.3386 60
      vertex 15 15 30
      vertex 15 15 60
    endloop
  endfacet
  facet normal 1 0 0
    outer loop
      vertex 15 15 30
      vertex 15 11.3386 60
      vertex 15 11.3386 30
    endloop
  endfacet
  facet normal 0 1 -0
    outer loop
      vertex 15 15 30
      vertex 11.4168 15 60
      vertex 15 15 60
    endloop
  endfacet
  facet normal 0 1 0
    outer loop
      vertex 11.4168 15 60
      vertex 15 15 30
      vertex 11.4168 15 30
    endloop
  endfacet
  facet normal 0 1 -0
    outer loop
      vertex 4.6635 15 30
      vertex 1 15 60
      vertex 4.6635 15 60
    endloop
  endfacet
  facet normal 0 1 0
    outer loop
      vertex 1 15 60
      vertex 4.6635 15 30
      vertex 1 15 30
    endloop
  endfacet
  facet normal 0 -1 0
    outer loop
      vertex 11.4168 1 30
      vertex 15 1 60
      vertex 11.4168 1 60
    endloop
  endfacet
  facet normal 0 -1 -0
    outer loop
      vertex 15 1 60
      vertex 11.4168 1 30
      vertex 15 1 30
    endloop
  endfacet
  facet normal 0 -1 0
    outer loop
      vertex 1 1 30
      vertex 4.6635 1 60
      vertex 1 1 60
    endloop
  endfacet
  facet normal 0 -1 -0
    outer loop
      vertex 4.6635 1 60
      vertex 1 1 30
      vertex 4.6635 1 30
    endloop
  endfacet
  facet normal 0.120536 -0.992709 0
    outer loop
      vertex 6.58158 2.74006 30
      vertex 8.48215 2.97083 60
      vertex 6.58158 2.74006 60
    endloop
  endfacet
  facet normal 0.120536 -0.992709 0
    outer loop
      vertex 8.48215 2.97083 60
      vertex 6.58158 2.74006 30
      vertex 8.48215 2.97083 30
    endloop
  endfacet
  facet normal -0.748741 -0.662862 0
    outer loop
      vertex 10.3288 2.22811 30
      vertex 10.2723 2.29193 60
      vertex 10.2723 2.29193 30
    endloop
  endfacet
  facet normal -0.748514 -0.663119 9.74058e-07
    outer loop
      vertex 11.4168 1 30
      vertex 10.2723 2.29193 60
      vertex 10.3288 2.22811 30
    endloop
  endfacet
  facet normal -0.748525 -0.663106 0
    outer loop
      vertex 10.2723 2.29193 60
      vertex 11.4168 1 30
      vertex 11.4168 1 60
    endloop
  endfacet
  facet normal -0.354598 -0.935019 0
    outer loop
      vertex 8.48215 2.97083 30
      vertex 10.2723 2.29193 60
      vertex 8.48215 2.97083 60
    endloop
  endfacet
  facet normal -0.354598 -0.935019 -0
    outer loop
      vertex 10.2723 2.29193 60
      vertex 8.48215 2.97083 30
      vertex 10.2723 2.29193 30
    endloop
  endfacet
  facet normal 0.885452 -0.46473 0
    outer loop
      vertex 4.6635 1 60
      vertex 5.00596 1.65249 30
      vertex 5.00596 1.65249 60
    endloop
  endfacet
  facet normal 0.885452 -0.46473 0
    outer loop
      vertex 5.00596 1.65249 30
      vertex 4.6635 1 60
      vertex 4.6635 1 30
    endloop
  endfacet
  facet normal 0.568068 -0.822982 0
    outer loop
      vertex 5.7087 2.13756 30
      vertex 5.00596 1.65249 60
      vertex 5.00596 1.65249 30
    endloop
  endfacet
  facet normal 0.568064 -0.822984 -1.22774e-07
    outer loop
      vertex 5.00596 1.65249 60
      vertex 5.7087 2.13756 30
      vertex 6.58158 2.74006 60
    endloop
  endfacet
  facet normal 0.568061 -0.822986 0
    outer loop
      vertex 6.58158 2.74006 60
      vertex 5.7087 2.13756 30
      vertex 6.58158 2.74006 30
    endloop
  endfacet
  facet normal -0.354598 0.935019 0
    outer loop
      vertex 10.2723 13.7081 30
      vertex 8.48215 13.0292 60
      vertex 10.2723 13.7081 60
    endloop
  endfacet
  facet normal -0.354598 0.935019 0
    outer loop
      vertex 8.48215 13.0292 60
      vertex 10.2723 13.7081 30
      vertex 8.48215 13.0292 30
    endloop
  endfacet
  facet normal -0.748511 0.663122 0
    outer loop
      vertex 10.3288 13.7719 30
      vertex 11.4168 15 60
      vertex 11.4168 15 30
    endloop
  endfacet
  facet normal -0.748638 0.662979 0
    outer loop
      vertex 10.2723 13.7081 60
      vertex 10.3288 13.7719 30
      vertex 10.2723 13.7081 30
    endloop
  endfacet
  facet normal -0.748518 0.663115 5.16625e-07
    outer loop
      vertex 10.3288 13.7719 30
      vertex 10.2723 13.7081 60
      vertex 11.4168 15 60
    endloop
  endfacet
  facet normal 0.1205 0.992713 -0
    outer loop
      vertex 8.48215 13.0292 30
      vertex 6.58158 13.2599 60
      vertex 8.48215 13.0292 60
    endloop
  endfacet
  facet normal 0.1205 0.992713 0
    outer loop
      vertex 6.58158 13.2599 60
      vertex 8.48215 13.0292 30
      vertex 6.58158 13.2599 30
    endloop
  endfacet
  facet normal 0.568061 0.822986 0
    outer loop
      vertex 5.7087 13.8624 30
      vertex 6.58158 13.2599 60
      vertex 6.58158 13.2599 30
    endloop
  endfacet
  facet normal 0.568075 0.822977 -5.78695e-07
    outer loop
      vertex 6.58158 13.2599 60
      vertex 5.7087 13.8624 30
      vertex 5.00596 14.3475 60
    endloop
  endfacet
  facet normal 0.568091 0.822965 0
    outer loop
      vertex 5.00596 14.3475 60
      vertex 5.7087 13.8624 30
      vertex 5.00596 14.3475 30
    endloop
  endfacet
  facet normal 0.885455 0.464725 0
    outer loop
      vertex 5.00596 14.3475 60
      vertex 4.6635 15 30
      vertex 4.6635 15 60
    endloop
  endfacet
  facet normal 0.885455 0.464725 0
    outer loop
      vertex 4.6635 15 30
      vertex 5.00596 14.3475 60
      vertex 5.00596 14.3475 30
    endloop
  endfacet
  facet normal 1 -0 0
    outer loop
      vertex 13.1162 7.04274 60
      vertex 13.1162 8.95726 30
      vertex 13.1162 8.95726 60
    endloop
  endfacet
  facet normal 1 0 0
    outer loop
      vertex 13.1162 8.95726 30
      vertex 13.1162 7.04274 60
      vertex 13.1162 7.04274 30
    endloop
  endfacet
  facet normal 0.56806 -0.822987 0
    outer loop
      vertex 14.006 10.6525 30
      vertex 15 11.3386 60
      vertex 14.006 10.6525 60
    endloop
  endfacet
  facet normal 0.56806 -0.822987 0
    outer loop
      vertex 15 11.3386 60
      vertex 14.006 10.6525 30
      vertex 15 11.3386 30
    endloop
  endfacet
  facet normal 0.885385 -0.464859 0
    outer loop
      vertex 14.006 10.6525 60
      vertex 13.8246 10.307 30
      vertex 14.006 10.6525 30
    endloop
  endfacet
  facet normal 0.885441 -0.464752 -1.578e-06
    outer loop
      vertex 13.1162 8.95726 60
      vertex 13.8246 10.307 30
      vertex 14.006 10.6525 60
    endloop
  endfacet
  facet normal 0.885456 -0.464724 0
    outer loop
      vertex 13.8246 10.307 30
      vertex 13.1162 8.95726 60
      vertex 13.1162 8.95726 30
    endloop
  endfacet
  facet normal 0.568082 0.822972 -0
    outer loop
      vertex 15 4.66137 30
      vertex 14.006 5.34751 60
      vertex 15 4.66137 60
    endloop
  endfacet
  facet normal 0.568082 0.822972 0
    outer loop
      vertex 14.006 5.34751 60
      vertex 15 4.66137 30
      vertex 14.006 5.34751 30
    endloop
  endfacet
  facet normal 0.88545 0.464735 0
    outer loop
      vertex 13.1162 7.04274 60
      vertex 13.8246 5.69304 30
      vertex 13.1162 7.04274 30
    endloop
  endfacet
  facet normal 0.88544 0.464754 -1.08167e-06
    outer loop
      vertex 14.006 5.34751 60
      vertex 13.8246 5.69304 30
      vertex 13.1162 7.04274 60
    endloop
  endfacet
  facet normal 0.885401 0.464827 0
    outer loop
      vertex 13.8246 5.69304 30
      vertex 14.006 5.34751 60
      vertex 14.006 5.34751 30
    endloop
  endfacet
  facet normal -0.970941 -0.239318 0
    outer loop
      vertex 3 8 30
      vertex 2.54182 9.85889 60
      vertex 2.54182 9.85889 30
    endloop
  endfacet
  facet normal -0.970941 -0.239318 0
    outer loop
      vertex 2.54182 9.85889 60
      vertex 3 8 30
      vertex 3 8 60
    endloop
  endfacet
  facet normal -0.748505 -0.663129 0
    outer loop
      vertex 2.15306 10.2977 30
      vertex 1.27226 11.2919 60
      vertex 1.27226 11.2919 30
    endloop
  endfacet
  facet normal -0.748504 -0.663131 -0
    outer loop
      vertex 2.54182 9.85889 60
      vertex 2.15306 10.2977 30
      vertex 2.54182 9.85889 30
    endloop
  endfacet
  facet normal -0.748505 -0.66313 2.34004e-08
    outer loop
      vertex 2.15306 10.2977 30
      vertex 2.54182 9.85889 60
      vertex 1.27226 11.2919 60
    endloop
  endfacet
  facet normal -0.354591 0.935021 0
    outer loop
      vertex 1.27226 4.70806 30
      vertex 1 4.60481 60
      vertex 1.27226 4.70806 60
    endloop
  endfacet
  facet normal -0.354591 0.935021 0
    outer loop
      vertex 1 4.60481 60
      vertex 1.27226 4.70806 30
      vertex 1 4.60481 30
    endloop
  endfacet
  facet normal -0.354741 -0.934965 0
    outer loop
      vertex 1 11.3952 30
      vertex 1.27226 11.2919 60
      vertex 1 11.3952 60
    endloop
  endfacet
  facet normal -0.354741 -0.934965 -0
    outer loop
      vertex 1.27226 11.2919 60
      vertex 1 11.3952 30
      vertex 1.27226 11.2919 30
    endloop
  endfacet
  facet normal -0.970941 0.239318 0
    outer loop
      vertex 2.54182 6.14111 30
      vertex 3 8 60
      vertex 3 8 30
    endloop
  endfacet
  facet normal -0.970941 0.239318 0
    outer loop
      vertex 3 8 60
      vertex 2.54182 6.14111 30
      vertex 2.54182 6.14111 60
    endloop
  endfacet
  facet normal -0.748519 0.663114 0
    outer loop
      vertex 2.15306 5.70228 30
      vertex 2.54182 6.14111 60
      vertex 2.54182 6.14111 30
    endloop
  endfacet
  facet normal -0.748512 0.663122 0
    outer loop
      vertex 1.27226 4.70806 60
      vertex 2.15306 5.70228 30
      vertex 1.27226 4.70806 30
    endloop
  endfacet
  facet normal -0.748514 0.663119 -1.47936e-07
    outer loop
      vertex 2.15306 5.70228 30
      vertex 1.27226 4.70806 60
      vertex 2.54182 6.14111 60
    endloop
  endfacet
endsolid OpenSCAD_Model
