solid OpenSCAD_Model
  facet normal -1 0 0
    outer loop
      vertex 0 0 0
      vertex 0 6.5 15
      vertex 0 6.5 0
    endloop
  endfacet
  facet normal -1 -0 0
    outer loop
      vertex 0 6.5 15
      vertex 0 0 0
      vertex 0 0 15
    endloop
  endfacet
  facet normal -1 0 0
    outer loop
      vertex 0 9.5 0
      vertex 0 16 15
      vertex 0 16 0
    endloop
  endfacet
  facet normal -1 -0 0
    outer loop
      vertex 0 16 15
      vertex 0 9.5 0
      vertex 0 9.5 15
    endloop
  endfacet
  facet normal 0 0 1
    outer loop
      vertex 0.702943 6.30294 15
      vertex 1.27226 4.70806 15
      vertex 2.15306 5.70228 15
    endloop
  endfacet
  facet normal 0 0 1
    outer loop
      vertex 0 6.5 15
      vertex 1 4.60481 15
      vertex 0.702943 6.30294 15
    endloop
  endfacet
  facet normal 0 0 1
    outer loop
      vertex 1.27226 4.70806 15
      vertex 0.702943 6.30294 15
      vertex 1 4.60481 15
    endloop
  endfacet
  facet normal 0 0 1
    outer loop
      vertex 6.30294 0.702943 15
      vertex 6.5 0 15
      vertex 6.5 0.621319 15
    endloop
  endfacet
  facet normal -0 0 1
    outer loop
      vertex 5.00596 1.65249 15
      vertex 6.30294 0.702943 15
      vertex 5.7087 2.13756 15
    endloop
  endfacet
  facet normal -0 0 1
    outer loop
      vertex 4.6635 1 15
      vertex 6.30294 0.702943 15
      vertex 5.00596 1.65249 15
    endloop
  endfacet
  facet normal 0 0 1
    outer loop
      vertex 6.30294 0.702943 15
      vertex 4.6635 1 15
      vertex 6.5 0 15
    endloop
  endfacet
  facet normal 0 0 1
    outer loop
      vertex 0 0 15
      vertex 4.6635 1 15
      vertex 1 1 15
    endloop
  endfacet
  facet normal -0 0 1
    outer loop
      vertex 0 6.5 15
      vertex 0.702943 6.30294 15
      vertex 0.621319 6.5 15
    endloop
  endfacet
  facet normal 0 0 1
    outer loop
      vertex 0 0 15
      vertex 1 4.60481 15
      vertex 0 6.5 15
    endloop
  endfacet
  facet normal 0 0 1
    outer loop
      vertex 4.6635 1 15
      vertex 0 0 15
      vertex 6.5 0 15
    endloop
  endfacet
  facet normal 0 0 1
    outer loop
      vertex 1 4.60481 15
      vertex 0 0 15
      vertex 1 1 15
    endloop
  endfacet
  facet normal -0 0 1
    outer loop
      vertex 15 11.3386 15
      vertex 16 9.5 15
      vertex 16 16 15
    endloop
  endfacet
  facet normal -0 -0 1
    outer loop
      vertex 15.2971 9.69706 15
      vertex 16 9.5 15
      vertex 15 11.3386 15
    endloop
  endfacet
  facet normal 0 0 1
    outer loop
      vertex 15 11.3386 15
      vertex 16 16 15
      vertex 15 15 15
    endloop
  endfacet
  facet normal 0 0 1
    outer loop
      vertex 16 16 15
      vertex 11.4168 15 15
      vertex 15 15 15
    endloop
  endfacet
  facet normal 0 0 1
    outer loop
      vertex 11.4168 15 15
      vertex 9.69706 15.2971 15
      vertex 10.3288 13.7719 15
    endloop
  endfacet
  facet normal -0 0 1
    outer loop
      vertex 9.5 16 15
      vertex 11.4168 15 15
      vertex 16 16 15
    endloop
  endfacet
  facet normal 0 0 1
    outer loop
      vertex 11.4168 15 15
      vertex 9.5 16 15
      vertex 9.69706 15.2971 15
    endloop
  endfacet
  facet normal 0 0 1
    outer loop
      vertex 9.69706 15.2971 15
      vertex 9.5 16 15
      vertex 9.5 15.3787 15
    endloop
  endfacet
  facet normal 0 0 1
    outer loop
      vertex 16 9.5 15
      vertex 15.2971 9.69706 15
      vertex 15.3787 9.5 15
    endloop
  endfacet
  facet normal -0 0 1
    outer loop
      vertex 14.006 10.6525 15
      vertex 15.2971 9.69706 15
      vertex 15 11.3386 15
    endloop
  endfacet
  facet normal 0 0 1
    outer loop
      vertex 15.2971 9.69706 15
      vertex 14.006 10.6525 15
      vertex 13.8246 10.307 15
    endloop
  endfacet
  facet normal 0 0 1
    outer loop
      vertex 6.5 16 15
      vertex 6.30294 15.2971 15
      vertex 6.5 15.3787 15
    endloop
  endfacet
  facet normal 0 0 1
    outer loop
      vertex 4.6635 15 15
      vertex 6.30294 15.2971 15
      vertex 6.5 16 15
    endloop
  endfacet
  facet normal 0 0 1
    outer loop
      vertex 6.30294 15.2971 15
      vertex 5.00596 14.3475 15
      vertex 5.7087 13.8624 15
    endloop
  endfacet
  facet normal 0 0 1
    outer loop
      vertex 6.30294 15.2971 15
      vertex 4.6635 15 15
      vertex 5.00596 14.3475 15
    endloop
  endfacet
  facet normal -0 0 1
    outer loop
      vertex 0 16 15
      vertex 4.6635 15 15
      vertex 6.5 16 15
    endloop
  endfacet
  facet normal 0 0 1
    outer loop
      vertex 0 16 15
      vertex 1 11.3952 15
      vertex 1 15 15
    endloop
  endfacet
  facet normal 0 0 1
    outer loop
      vertex 1 11.3952 15
      vertex 0 9.5 15
      vertex 0.702943 9.69706 15
    endloop
  endfacet
  facet normal 0 0 1
    outer loop
      vertex 4.6635 15 15
      vertex 0 16 15
      vertex 1 15 15
    endloop
  endfacet
  facet normal 0 0 1
    outer loop
      vertex 1 11.3952 15
      vertex 0 16 15
      vertex 0 9.5 15
    endloop
  endfacet
  facet normal 0 0 1
    outer loop
      vertex 0.702943 9.69706 15
      vertex 0 9.5 15
      vertex 0.62132 9.5 15
    endloop
  endfacet
  facet normal 0 0 1
    outer loop
      vertex 0.702943 9.69706 15
      vertex 1.27226 11.2919 15
      vertex 1 11.3952 15
    endloop
  endfacet
  facet normal 0 0 1
    outer loop
      vertex 1.27226 11.2919 15
      vertex 0.702943 9.69706 15
      vertex 2.15306 10.2977 15
    endloop
  endfacet
  facet normal 0 0 1
    outer loop
      vertex 15.2971 6.30294 15
      vertex 14.006 5.34751 15
      vertex 15 4.66137 15
    endloop
  endfacet
  facet normal 0 -0 1
    outer loop
      vertex 14.006 5.34751 15
      vertex 15.2971 6.30294 15
      vertex 13.8246 5.69304 15
    endloop
  endfacet
  facet normal 0 0 1
    outer loop
      vertex 15.2971 6.30294 15
      vertex 16 6.5 15
      vertex 15.3787 6.5 15
    endloop
  endfacet
  facet normal 0 0 1
    outer loop
      vertex 16 6.5 15
      vertex 15.2971 6.30294 15
      vertex 15 4.66137 15
    endloop
  endfacet
  facet normal 0 0 1
    outer loop
      vertex 16 6.5 15
      vertex 15 4.66137 15
      vertex 16 0 15
    endloop
  endfacet
  facet normal -0 0 1
    outer loop
      vertex 15 1 15
      vertex 16 0 15
      vertex 15 4.66137 15
    endloop
  endfacet
  facet normal -0 0 1
    outer loop
      vertex 11.4168 1 15
      vertex 16 0 15
      vertex 15 1 15
    endloop
  endfacet
  facet normal 0 0 1
    outer loop
      vertex 9.69706 0.702943 15
      vertex 11.4168 1 15
      vertex 10.3288 2.22811 15
    endloop
  endfacet
  facet normal 0 0 1
    outer loop
      vertex 9.5 0 15
      vertex 11.4168 1 15
      vertex 9.69706 0.702943 15
    endloop
  endfacet
  facet normal 0 0 1
    outer loop
      vertex 9.5 0 15
      vertex 9.69706 0.702943 15
      vertex 9.5 0.62132 15
    endloop
  endfacet
  facet normal 0 0 1
    outer loop
      vertex 11.4168 1 15
      vertex 9.5 0 15
      vertex 16 0 15
    endloop
  endfacet
  facet normal 0 0 -1
    outer loop
      vertex 10.2723 2.29193 15
      vertex 10.4 2.4 15
      vertex 10.3288 2.22811 15
    endloop
  endfacet
  facet normal 0 0 -1
    outer loop
      vertex 10.2723 2.29193 15
      vertex 9.69706 4.09706 15
      vertex 10.4 2.4 15
    endloop
  endfacet
  facet normal 0 0 -1
    outer loop
      vertex 8.48215 2.97083 15
      vertex 9.69706 4.09706 15
      vertex 10.2723 2.29193 15
    endloop
  endfacet
  facet normal 0 0 -1
    outer loop
      vertex 8.48215 2.97083 15
      vertex 8 4.8 15
      vertex 9.69706 4.09706 15
    endloop
  endfacet
  facet normal 0 0 -1
    outer loop
      vertex 6.30294 4.09706 15
      vertex 8.48215 2.97083 15
      vertex 6.58158 2.74006 15
    endloop
  endfacet
  facet normal 0 0 -1
    outer loop
      vertex 8.48215 2.97083 15
      vertex 6.30294 4.09706 15
      vertex 8 4.8 15
    endloop
  endfacet
  facet normal 0 0 -1
    outer loop
      vertex 5.6 2.4 15
      vertex 6.58158 2.74006 15
      vertex 5.7087 2.13756 15
    endloop
  endfacet
  facet normal -0 0 -1
    outer loop
      vertex 6.58158 2.74006 15
      vertex 5.6 2.4 15
      vertex 6.30294 4.09706 15
    endloop
  endfacet
  facet normal 0 0 -1
    outer loop
      vertex 10.4 13.6 15
      vertex 10.2723 13.7081 15
      vertex 10.3288 13.7719 15
    endloop
  endfacet
  facet normal 0 0 -1
    outer loop
      vertex 9.69706 11.9029 15
      vertex 10.2723 13.7081 15
      vertex 10.4 13.6 15
    endloop
  endfacet
  facet normal 0 0 -1
    outer loop
      vertex 9.69706 11.9029 15
      vertex 8.48215 13.0292 15
      vertex 10.2723 13.7081 15
    endloop
  endfacet
  facet normal 0 0 -1
    outer loop
      vertex 8 11.2 15
      vertex 8.48215 13.0292 15
      vertex 9.69706 11.9029 15
    endloop
  endfacet
  facet normal 0 0 -1
    outer loop
      vertex 6.30294 11.9029 15
      vertex 8.48215 13.0292 15
      vertex 8 11.2 15
    endloop
  endfacet
  facet normal -0 0 -1
    outer loop
      vertex 8.48215 13.0292 15
      vertex 6.30294 11.9029 15
      vertex 6.58158 13.2599 15
    endloop
  endfacet
  facet normal 0 0 -1
    outer loop
      vertex 5.6 13.6 15
      vertex 6.58158 13.2599 15
      vertex 6.30294 11.9029 15
    endloop
  endfacet
  facet normal 0 0 -1
    outer loop
      vertex 6.58158 13.2599 15
      vertex 5.6 13.6 15
      vertex 5.7087 13.8624 15
    endloop
  endfacet
  facet normal 0 0 -1
    outer loop
      vertex 13.6 5.6 15
      vertex 13.1162 7.04274 15
      vertex 13.8246 5.69304 15
    endloop
  endfacet
  facet normal 0 0 -1
    outer loop
      vertex 11.2 8 15
      vertex 13.1162 7.04274 15
      vertex 11.9029 6.30294 15
    endloop
  endfacet
  facet normal 0 0 -1
    outer loop
      vertex 11.9029 6.30294 15
      vertex 13.1162 7.04274 15
      vertex 13.6 5.6 15
    endloop
  endfacet
  facet normal 0 0 -1
    outer loop
      vertex 13.1162 8.95726 15
      vertex 13.6 10.4 15
      vertex 13.8246 10.307 15
    endloop
  endfacet
  facet normal 0 0 -1
    outer loop
      vertex 13.1162 7.04274 15
      vertex 11.2 8 15
      vertex 13.1162 8.95726 15
    endloop
  endfacet
  facet normal 0 0 -1
    outer loop
      vertex 13.1162 8.95726 15
      vertex 11.9029 9.69706 15
      vertex 13.6 10.4 15
    endloop
  endfacet
  facet normal -0 0 -1
    outer loop
      vertex 13.1162 8.95726 15
      vertex 11.2 8 15
      vertex 11.9029 9.69706 15
    endloop
  endfacet
  facet normal 0 0 -1
    outer loop
      vertex 3 8 15
      vertex 4.8 8 15
      vertex 4.09706 6.30294 15
    endloop
  endfacet
  facet normal 0 0 -1
    outer loop
      vertex 4.8 8 15
      vertex 3 8 15
      vertex 4.09706 9.69706 15
    endloop
  endfacet
  facet normal -0 0 -1
    outer loop
      vertex 4.09706 6.30294 15
      vertex 2.54182 6.14111 15
      vertex 3 8 15
    endloop
  endfacet
  facet normal 0 0 -1
    outer loop
      vertex 2.4 5.6 15
      vertex 2.54182 6.14111 15
      vertex 4.09706 6.30294 15
    endloop
  endfacet
  facet normal 0 0 -1
    outer loop
      vertex 2.54182 6.14111 15
      vertex 2.4 5.6 15
      vertex 2.15306 5.70228 15
    endloop
  endfacet
  facet normal 0 0 -1
    outer loop
      vertex 2.54182 9.85889 15
      vertex 4.09706 9.69706 15
      vertex 3 8 15
    endloop
  endfacet
  facet normal 0 0 -1
    outer loop
      vertex 2.54182 9.85889 15
      vertex 2.4 10.4 15
      vertex 4.09706 9.69706 15
    endloop
  endfacet
  facet normal 0 -0 -1
    outer loop
      vertex 2.4 10.4 15
      vertex 2.54182 9.85889 15
      vertex 2.15306 10.2977 15
    endloop
  endfacet
  facet normal 1 -0 0
    outer loop
      vertex 16 0 15
      vertex 16 6.5 0
      vertex 16 6.5 15
    endloop
  endfacet
  facet normal 1 0 0
    outer loop
      vertex 16 6.5 0
      vertex 16 0 15
      vertex 16 0 0
    endloop
  endfacet
  facet normal 1 -0 0
    outer loop
      vertex 16 9.5 15
      vertex 16 16 0
      vertex 16 16 15
    endloop
  endfacet
  facet normal 1 0 0
    outer loop
      vertex 16 16 0
      vertex 16 9.5 15
      vertex 16 9.5 0
    endloop
  endfacet
  facet normal 0 1 0
    outer loop
      vertex 16 16 15
      vertex 10.4 16 4.8
      vertex 9.5 16 15
    endloop
  endfacet
  facet normal 0 1 -0
    outer loop
      vertex 16 16 0
      vertex 10.4 16 4.8
      vertex 16 16 15
    endloop
  endfacet
  facet normal 0 1 0
    outer loop
      vertex 10.4 16 4.8
      vertex 16 16 0
      vertex 10.4 16 0
    endloop
  endfacet
  facet normal 0 1 0
    outer loop
      vertex 9.5 16 15
      vertex 10.4 16 4.8
      vertex 9.5 16 4.8
    endloop
  endfacet
  facet normal 0 1 0
    outer loop
      vertex 5.6 16 4.8
      vertex 6.5 16 15
      vertex 6.5 16 4.8
    endloop
  endfacet
  facet normal 0 1 0
    outer loop
      vertex 6.5 16 15
      vertex 5.6 16 4.8
      vertex 0 16 15
    endloop
  endfacet
  facet normal 0 1 0
    outer loop
      vertex 0 16 0
      vertex 5.6 16 4.8
      vertex 5.6 16 0
    endloop
  endfacet
  facet normal 0 1 0
    outer loop
      vertex 5.6 16 4.8
      vertex 0 16 0
      vertex 0 16 15
    endloop
  endfacet
  facet normal 0 0 -1
    outer loop
      vertex 0 0 0
      vertex 5.6 2.4 0
      vertex 5.6 0 0
    endloop
  endfacet
  facet normal 0 0 -1
    outer loop
      vertex 5.6 2.4 0
      vertex 4.8 8 0
      vertex 5.6 13.6 0
    endloop
  endfacet
  facet normal 0 0 -1
    outer loop
      vertex 4.09706 9.69706 0
      vertex 5.6 13.6 0
      vertex 4.8 8 0
    endloop
  endfacet
  facet normal 0 0 -1
    outer loop
      vertex 5.6 2.4 0
      vertex 4.09706 6.30294 0
      vertex 4.8 8 0
    endloop
  endfacet
  facet normal 0 0 -1
    outer loop
      vertex 5.6 2.4 0
      vertex 2.4 5.6 0
      vertex 4.09706 6.30294 0
    endloop
  endfacet
  facet normal -0 0 -1
    outer loop
      vertex 5.6 2.4 0
      vertex 0 0 0
      vertex 2.4 5.6 0
    endloop
  endfacet
  facet normal -0 0 -1
    outer loop
      vertex 2.4 5.6 0
      vertex 0 0 0
      vertex 0.702943 6.30294 0
    endloop
  endfacet
  facet normal 0 0 -1
    outer loop
      vertex 0 6.5 0
      vertex 0.702943 6.30294 0
      vertex 0 0 0
    endloop
  endfacet
  facet normal 0 0 -1
    outer loop
      vertex 0.702943 6.30294 0
      vertex 0 6.5 0
      vertex 0.621319 6.5 0
    endloop
  endfacet
  facet normal 0 0 -1
    outer loop
      vertex 6.30294 4.09706 0
      vertex 6.5 11.8213 0
      vertex 6.5 4.17868 0
    endloop
  endfacet
  facet normal 0 0 -1
    outer loop
      vertex 6.30294 4.09706 0
      vertex 6.30294 11.9029 0
      vertex 6.5 11.8213 0
    endloop
  endfacet
  facet normal 0 0 -1
    outer loop
      vertex 5.6 2.4 0
      vertex 6.30294 11.9029 0
      vertex 6.30294 4.09706 0
    endloop
  endfacet
  facet normal -0 0 -1
    outer loop
      vertex 6.30294 11.9029 0
      vertex 5.6 2.4 0
      vertex 5.6 13.6 0
    endloop
  endfacet
  facet normal 0 0 -1
    outer loop
      vertex 2.4 10.4 0
      vertex 5.6 13.6 0
      vertex 4.09706 9.69706 0
    endloop
  endfacet
  facet normal 0 0 -1
    outer loop
      vertex 0 16 0
      vertex 5.6 13.6 0
      vertex 2.4 10.4 0
    endloop
  endfacet
  facet normal 0 0 -1
    outer loop
      vertex 0 16 0
      vertex 2.4 10.4 0
      vertex 0.702943 9.69706 0
    endloop
  endfacet
  facet normal 0 0 -1
    outer loop
      vertex 0 9.5 0
      vertex 0.702943 9.69706 0
      vertex 0.62132 9.5 0
    endloop
  endfacet
  facet normal 0 0 -1
    outer loop
      vertex 0 16 0
      vertex 0.702943 9.69706 0
      vertex 0 9.5 0
    endloop
  endfacet
  facet normal 0 0 -1
    outer loop
      vertex 5.6 13.6 0
      vertex 0 16 0
      vertex 5.6 16 0
    endloop
  endfacet
  facet normal 0 0 -1
    outer loop
      vertex 15.2971 6.30294 0
      vertex 16 6.5 0
      vertex 16 0 0
    endloop
  endfacet
  facet normal -0 0 -1
    outer loop
      vertex 16 6.5 0
      vertex 15.2971 6.30294 0
      vertex 15.3787 6.5 0
    endloop
  endfacet
  facet normal 0 0 -1
    outer loop
      vertex 16 0 0
      vertex 13.6 5.6 0
      vertex 15.2971 6.30294 0
    endloop
  endfacet
  facet normal 0 0 -1
    outer loop
      vertex 10.4 2.4 0
      vertex 13.6 5.6 0
      vertex 16 0 0
    endloop
  endfacet
  facet normal -0 0 -1
    outer loop
      vertex 13.6 5.6 0
      vertex 10.4 2.4 0
      vertex 11.9029 6.30294 0
    endloop
  endfacet
  facet normal 0 0 -1
    outer loop
      vertex 10.4 2.4 0
      vertex 16 0 0
      vertex 10.4 0 0
    endloop
  endfacet
  facet normal 0 0 -1
    outer loop
      vertex 15.2971 9.69706 0
      vertex 16 9.5 0
      vertex 15.3787 9.5 0
    endloop
  endfacet
  facet normal 0 0 -1
    outer loop
      vertex 16 9.5 0
      vertex 15.2971 9.69706 0
      vertex 16 16 0
    endloop
  endfacet
  facet normal 0 0 -1
    outer loop
      vertex 13.6 10.4 0
      vertex 16 16 0
      vertex 15.2971 9.69706 0
    endloop
  endfacet
  facet normal 0 0 -1
    outer loop
      vertex 10.4 13.6 0
      vertex 13.6 10.4 0
      vertex 11.9029 9.69706 0
    endloop
  endfacet
  facet normal 0 0 -1
    outer loop
      vertex 9.69706 4.09706 0
      vertex 11.9029 6.30294 0
      vertex 10.4 2.4 0
    endloop
  endfacet
  facet normal 0 0 -1
    outer loop
      vertex 9.5 4.17868 0
      vertex 11.9029 6.30294 0
      vertex 9.69706 4.09706 0
    endloop
  endfacet
  facet normal 0 0 -1
    outer loop
      vertex 9.69706 11.9029 0
      vertex 11.9029 9.69706 0
      vertex 11.2 8 0
    endloop
  endfacet
  facet normal 0 0 -1
    outer loop
      vertex 13.6 10.4 0
      vertex 10.4 13.6 0
      vertex 16 16 0
    endloop
  endfacet
  facet normal -0 0 -1
    outer loop
      vertex 16 16 0
      vertex 10.4 13.6 0
      vertex 10.4 16 0
    endloop
  endfacet
  facet normal -0 0 -1
    outer loop
      vertex 11.9029 6.30294 0
      vertex 9.5 4.17868 0
      vertex 11.2 8 0
    endloop
  endfacet
  facet normal 0 0 -1
    outer loop
      vertex 11.9029 9.69706 0
      vertex 9.69706 11.9029 0
      vertex 10.4 13.6 0
    endloop
  endfacet
  facet normal 0 0 -1
    outer loop
      vertex 9.5 11.8213 0
      vertex 11.2 8 0
      vertex 9.5 4.17868 0
    endloop
  endfacet
  facet normal 0 0 -1
    outer loop
      vertex 11.2 8 0
      vertex 9.5 11.8213 0
      vertex 9.69706 11.9029 0
    endloop
  endfacet
  facet normal 0 -1 0
    outer loop
      vertex 10.4 0 4.8
      vertex 9.5 0 15
      vertex 9.5 0 4.8
    endloop
  endfacet
  facet normal 0 -1 0
    outer loop
      vertex 9.5 0 15
      vertex 10.4 0 4.8
      vertex 16 0 15
    endloop
  endfacet
  facet normal 0 -1 0
    outer loop
      vertex 16 0 0
      vertex 10.4 0 4.8
      vertex 10.4 0 0
    endloop
  endfacet
  facet normal 0 -1 0
    outer loop
      vertex 10.4 0 4.8
      vertex 16 0 0
      vertex 16 0 15
    endloop
  endfacet
  facet normal 0 -1 0
    outer loop
      vertex 0 0 15
      vertex 5.6 0 4.8
      vertex 6.5 0 15
    endloop
  endfacet
  facet normal 0 -1 0
    outer loop
      vertex 0 0 0
      vertex 5.6 0 4.8
      vertex 0 0 15
    endloop
  endfacet
  facet normal 0 -1 -0
    outer loop
      vertex 5.6 0 4.8
      vertex 0 0 0
      vertex 5.6 0 0
    endloop
  endfacet
  facet normal 0 -1 -0
    outer loop
      vertex 6.5 0 15
      vertex 5.6 0 4.8
      vertex 6.5 0 4.8
    endloop
  endfacet
  facet normal -0.923881 -0.382681 0
    outer loop
      vertex 10.4 2.4 0
      vertex 9.69706 4.09706 0.702943
      vertex 9.69706 4.09706 0
    endloop
  endfacet
  facet normal -0.923881 -0.382681 0
    outer loop
      vertex 9.69706 4.09706 0.702943
      vertex 10.4 2.4 0
      vertex 10.4 2.4 2.4
    endloop
  endfacet
  facet normal -0.923881 -0.382681 -0
    outer loop
      vertex 10.4 2.4 4.8
      vertex 9.69706 4.09706 4.09706
      vertex 10.4 2.4 2.4
    endloop
  endfacet
  facet normal -0.923881 -0.382681 0
    outer loop
      vertex 9.69706 4.09706 4.09706
      vertex 10.4 2.4 4.8
      vertex 9.69706 4.09706 15
    endloop
  endfacet
  facet normal -0.923881 -0.382681 0
    outer loop
      vertex 9.69706 4.09706 15
      vertex 10.4 2.4 4.8
      vertex 10.4 2.4 15
    endloop
  endfacet
  facet normal 0.382664 -0.923888 0
    outer loop
      vertex 6.30294 4.09706 0
      vertex 6.5 4.17868 0.621319
      vertex 6.30294 4.09706 0.702943
    endloop
  endfacet
  facet normal 0.382664 -0.923888 0
    outer loop
      vertex 6.5 4.17868 0.621319
      vertex 6.30294 4.09706 0
      vertex 6.5 4.17868 0
    endloop
  endfacet
  facet normal 0.382681 -0.923881 0
    outer loop
      vertex 6.30294 4.09706 15
      vertex 8 4.8 4.8
      vertex 8 4.8 15
    endloop
  endfacet
  facet normal 0.382681 -0.923881 0
    outer loop
      vertex 8 4.8 4.8
      vertex 6.30294 4.09706 15
      vertex 6.30294 4.09706 4.09706
    endloop
  endfacet
  facet normal -0.382664 -0.923888 0
    outer loop
      vertex 9.69706 4.09706 0
      vertex 9.5 4.17868 0.62132
      vertex 9.5 4.17868 0
    endloop
  endfacet
  facet normal -0.382664 -0.923888 0
    outer loop
      vertex 9.5 4.17868 0.62132
      vertex 9.69706 4.09706 0
      vertex 9.69706 4.09706 0.702943
    endloop
  endfacet
  facet normal -0.382681 -0.923881 0
    outer loop
      vertex 8 4.8 4.8
      vertex 9.69706 4.09706 15
      vertex 8 4.8 15
    endloop
  endfacet
  facet normal -0.382681 -0.923881 -0
    outer loop
      vertex 9.69706 4.09706 15
      vertex 8 4.8 4.8
      vertex 9.69706 4.09706 4.09706
    endloop
  endfacet
  facet normal 0.923881 -0.382681 0
    outer loop
      vertex 5.6 2.4 0
      vertex 6.30294 4.09706 0.702943
      vertex 5.6 2.4 2.4
    endloop
  endfacet
  facet normal 0.923881 -0.382681 0
    outer loop
      vertex 6.30294 4.09706 0.702943
      vertex 5.6 2.4 0
      vertex 6.30294 4.09706 0
    endloop
  endfacet
  facet normal 0.923881 -0.382681 0
    outer loop
      vertex 5.6 2.4 4.8
      vertex 6.30294 4.09706 15
      vertex 5.6 2.4 15
    endloop
  endfacet
  facet normal 0.923881 -0.382681 0
    outer loop
      vertex 6.30294 4.09706 15
      vertex 5.6 2.4 4.8
      vertex 6.30294 4.09706 4.09706
    endloop
  endfacet
  facet normal 0.923881 -0.382681 0
    outer loop
      vertex 6.30294 4.09706 4.09706
      vertex 5.6 2.4 4.8
      vertex 5.6 2.4 2.4
    endloop
  endfacet
  facet normal -0.923878 0.382687 0
    outer loop
      vertex 10.4 2.4 4.8
      vertex 10.3288 2.22811 15
      vertex 10.4 2.4 15
    endloop
  endfacet
  facet normal -0.92388 0.382682 -1.12179e-07
    outer loop
      vertex 9.69706 0.702943 4.8
      vertex 10.3288 2.22811 15
      vertex 10.4 2.4 4.8
    endloop
  endfacet
  facet normal -0.923881 0.382681 0
    outer loop
      vertex 10.3288 2.22811 15
      vertex 9.69706 0.702943 4.8
      vertex 9.69706 0.702943 15
    endloop
  endfacet
  facet normal 0.38268 0.923881 -0
    outer loop
      vertex 6.5 0.621319 4.8
      vertex 6.30294 0.702943 15
      vertex 6.5 0.621319 15
    endloop
  endfacet
  facet normal 0.38268 0.923881 0
    outer loop
      vertex 6.30294 0.702943 15
      vertex 6.5 0.621319 4.8
      vertex 6.30294 0.702943 4.8
    endloop
  endfacet
  facet normal 0.923887 0.382665 0
    outer loop
      vertex 5.7087 2.13756 15
      vertex 5.6 2.4 4.8
      vertex 5.6 2.4 15
    endloop
  endfacet
  facet normal 0.923879 0.382685 -0
    outer loop
      vertex 6.30294 0.702943 4.8
      vertex 5.7087 2.13756 15
      vertex 6.30294 0.702943 15
    endloop
  endfacet
  facet normal 0.92388 0.382682 5.0585e-07
    outer loop
      vertex 5.7087 2.13756 15
      vertex 6.30294 0.702943 4.8
      vertex 5.6 2.4 4.8
    endloop
  endfacet
  facet normal -0.382676 0.923883 0
    outer loop
      vertex 9.69706 0.702943 4.8
      vertex 9.5 0.62132 15
      vertex 9.69706 0.702943 15
    endloop
  endfacet
  facet normal -0.382676 0.923883 0
    outer loop
      vertex 9.5 0.62132 15
      vertex 9.69706 0.702943 4.8
      vertex 9.5 0.62132 4.8
    endloop
  endfacet
  facet normal -0.923883 -0.382674 0
    outer loop
      vertex 9.69706 15.2971 4.8
      vertex 10.3288 13.7719 15
      vertex 9.69706 15.2971 15
    endloop
  endfacet
  facet normal -0.923884 -0.382673 9.95913e-08
    outer loop
      vertex 10.4 13.6 4.8
      vertex 10.3288 13.7719 15
      vertex 9.69706 15.2971 4.8
    endloop
  endfacet
  facet normal -0.923886 -0.382668 0
    outer loop
      vertex 10.3288 13.7719 15
      vertex 10.4 13.6 4.8
      vertex 10.4 13.6 15
    endloop
  endfacet
  facet normal 0.923887 -0.382666 0
    outer loop
      vertex 5.7087 13.8624 15
      vertex 6.30294 15.2971 4.8
      vertex 6.30294 15.2971 15
    endloop
  endfacet
  facet normal 0.923867 -0.382715 0
    outer loop
      vertex 5.6 13.6 4.8
      vertex 5.7087 13.8624 15
      vertex 5.6 13.6 15
    endloop
  endfacet
  facet normal 0.923884 -0.382673 -1.2443e-06
    outer loop
      vertex 5.7087 13.8624 15
      vertex 5.6 13.6 4.8
      vertex 6.30294 15.2971 4.8
    endloop
  endfacet
  facet normal 0.382584 -0.923921 0
    outer loop
      vertex 6.30294 15.2971 4.8
      vertex 6.5 15.3787 15
      vertex 6.30294 15.2971 15
    endloop
  endfacet
  facet normal 0.382584 -0.923921 0
    outer loop
      vertex 6.5 15.3787 15
      vertex 6.30294 15.2971 4.8
      vertex 6.5 15.3787 4.8
    endloop
  endfacet
  facet normal -0.382584 -0.923921 0
    outer loop
      vertex 9.5 15.3787 4.8
      vertex 9.69706 15.2971 15
      vertex 9.5 15.3787 15
    endloop
  endfacet
  facet normal -0.382584 -0.923921 -0
    outer loop
      vertex 9.69706 15.2971 15
      vertex 9.5 15.3787 4.8
      vertex 9.69706 15.2971 4.8
    endloop
  endfacet
  facet normal -0.382662 0.923888 0
    outer loop
      vertex 9.69706 11.9029 15
      vertex 8 11.2 4.8
      vertex 8 11.2 15
    endloop
  endfacet
  facet normal -0.382662 0.923888 0
    outer loop
      vertex 8 11.2 4.8
      vertex 9.69706 11.9029 15
      vertex 9.69706 11.9029 4.09706
    endloop
  endfacet
  facet normal -0.382584 0.923921 0
    outer loop
      vertex 9.69706 11.9029 0
      vertex 9.5 11.8213 0.62132
      vertex 9.69706 11.9029 0.702943
    endloop
  endfacet
  facet normal -0.382584 0.923921 0
    outer loop
      vertex 9.5 11.8213 0.62132
      vertex 9.69706 11.9029 0
      vertex 9.5 11.8213 0
    endloop
  endfacet
  facet normal 0.923884 0.382673 0
    outer loop
      vertex 6.30294 11.9029 0.702943
      vertex 5.6 13.6 0
      vertex 5.6 13.6 2.4
    endloop
  endfacet
  facet normal 0.923884 0.382673 0
    outer loop
      vertex 5.6 13.6 0
      vertex 6.30294 11.9029 0.702943
      vertex 6.30294 11.9029 0
    endloop
  endfacet
  facet normal 0.923884 0.382673 0
    outer loop
      vertex 6.30294 11.9029 15
      vertex 5.6 13.6 4.8
      vertex 5.6 13.6 15
    endloop
  endfacet
  facet normal 0.923884 0.382673 0
    outer loop
      vertex 5.6 13.6 4.8
      vertex 6.30294 11.9029 15
      vertex 6.30294 11.9029 4.09706
    endloop
  endfacet
  facet normal 0.923884 0.382673 0
    outer loop
      vertex 5.6 13.6 4.8
      vertex 6.30294 11.9029 4.09706
      vertex 5.6 13.6 2.4
    endloop
  endfacet
  facet normal 0.382584 0.923921 0
    outer loop
      vertex 6.30294 11.9029 0
      vertex 6.5 11.8213 0.621319
      vertex 6.5 11.8213 0
    endloop
  endfacet
  facet normal 0.382584 0.923921 0
    outer loop
      vertex 6.5 11.8213 0.621319
      vertex 6.30294 11.9029 0
      vertex 6.30294 11.9029 0.702943
    endloop
  endfacet
  facet normal 0.382662 0.923888 -0
    outer loop
      vertex 8 11.2 4.8
      vertex 6.30294 11.9029 15
      vertex 8 11.2 15
    endloop
  endfacet
  facet normal 0.382662 0.923888 0
    outer loop
      vertex 6.30294 11.9029 15
      vertex 8 11.2 4.8
      vertex 6.30294 11.9029 4.09706
    endloop
  endfacet
  facet normal -0.923884 0.382673 0
    outer loop
      vertex 9.69706 11.9029 4.09706
      vertex 10.4 13.6 4.8
      vertex 10.4 13.6 2.4
    endloop
  endfacet
  facet normal -0.923884 0.382673 0
    outer loop
      vertex 9.69706 11.9029 15
      vertex 10.4 13.6 4.8
      vertex 9.69706 11.9029 4.09706
    endloop
  endfacet
  facet normal -0.923884 0.382673 0
    outer loop
      vertex 10.4 13.6 4.8
      vertex 9.69706 11.9029 15
      vertex 10.4 13.6 15
    endloop
  endfacet
  facet normal -0.923884 0.382673 0
    outer loop
      vertex 9.69706 11.9029 0.702943
      vertex 10.4 13.6 0
      vertex 9.69706 11.9029 0
    endloop
  endfacet
  facet normal -0.923884 0.382673 0
    outer loop
      vertex 10.4 13.6 0
      vertex 9.69706 11.9029 0.702943
      vertex 10.4 13.6 2.4
    endloop
  endfacet
  facet normal -0.923921 -0.382584 0
    outer loop
      vertex 15.3787 9.5 0
      vertex 15.2971 9.69706 15
      vertex 15.2971 9.69706 0
    endloop
  endfacet
  facet normal -0.923921 -0.382584 0
    outer loop
      vertex 15.2971 9.69706 15
      vertex 15.3787 9.5 0
      vertex 15.3787 9.5 15
    endloop
  endfacet
  facet normal 0.382673 -0.923884 0
    outer loop
      vertex 11.9029 9.69706 0
      vertex 13.6 10.4 15
      vertex 11.9029 9.69706 15
    endloop
  endfacet
  facet normal 0.382673 -0.923884 0
    outer loop
      vertex 13.6 10.4 15
      vertex 11.9029 9.69706 0
      vertex 13.6 10.4 0
    endloop
  endfacet
  facet normal -0.38257 -0.923927 0
    outer loop
      vertex 13.6 10.4 0
      vertex 13.8246 10.307 15
      vertex 13.6 10.4 15
    endloop
  endfacet
  facet normal -0.382673 -0.923884 1.8155e-06
    outer loop
      vertex 15.2971 9.69706 0
      vertex 13.8246 10.307 15
      vertex 13.6 10.4 0
    endloop
  endfacet
  facet normal -0.382689 -0.923877 0
    outer loop
      vertex 13.8246 10.307 15
      vertex 15.2971 9.69706 0
      vertex 15.2971 9.69706 15
    endloop
  endfacet
  facet normal 0.923888 -0.382662 0
    outer loop
      vertex 11.2 8 15
      vertex 11.9029 9.69706 0
      vertex 11.9029 9.69706 15
    endloop
  endfacet
  facet normal 0.923888 -0.382662 0
    outer loop
      vertex 11.9029 9.69706 0
      vertex 11.2 8 15
      vertex 11.2 8 0
    endloop
  endfacet
  facet normal -0.923921 0.382584 0
    outer loop
      vertex 15.2971 6.30294 0
      vertex 15.3787 6.5 15
      vertex 15.3787 6.5 0
    endloop
  endfacet
  facet normal -0.923921 0.382584 0
    outer loop
      vertex 15.3787 6.5 15
      vertex 15.2971 6.30294 0
      vertex 15.2971 6.30294 15
    endloop
  endfacet
  facet normal 0.382673 0.923884 -0
    outer loop
      vertex 13.6 5.6 0
      vertex 11.9029 6.30294 15
      vertex 13.6 5.6 15
    endloop
  endfacet
  facet normal 0.382673 0.923884 0
    outer loop
      vertex 11.9029 6.30294 15
      vertex 13.6 5.6 0
      vertex 11.9029 6.30294 0
    endloop
  endfacet
  facet normal 0.923888 0.382662 0
    outer loop
      vertex 11.9029 6.30294 15
      vertex 11.2 8 0
      vertex 11.2 8 15
    endloop
  endfacet
  facet normal 0.923888 0.382662 0
    outer loop
      vertex 11.2 8 0
      vertex 11.9029 6.30294 15
      vertex 11.9029 6.30294 0
    endloop
  endfacet
  facet normal -0.382668 0.923886 0
    outer loop
      vertex 15.2971 6.30294 0
      vertex 13.8246 5.69304 15
      vertex 15.2971 6.30294 15
    endloop
  endfacet
  facet normal -0.382673 0.923884 -6.48187e-07
    outer loop
      vertex 13.6 5.6 0
      vertex 13.8246 5.69304 15
      vertex 15.2971 6.30294 0
    endloop
  endfacet
  facet normal -0.38271 0.923868 0
    outer loop
      vertex 13.8246 5.69304 15
      vertex 13.6 5.6 0
      vertex 13.6 5.6 15
    endloop
  endfacet
  facet normal -0.923881 -0.382681 0
    outer loop
      vertex 4.8 8 0
      vertex 4.09706 9.69706 15
      vertex 4.09706 9.69706 0
    endloop
  endfacet
  facet normal -0.923881 -0.382681 0
    outer loop
      vertex 4.09706 9.69706 15
      vertex 4.8 8 0
      vertex 4.8 8 15
    endloop
  endfacet
  facet normal 0.382665 0.923887 -0
    outer loop
      vertex 2.4 5.6 0
      vertex 2.15306 5.70228 15
      vertex 2.4 5.6 15
    endloop
  endfacet
  facet normal 0.382682 0.92388 3.27136e-07
    outer loop
      vertex 0.702943 6.30294 0
      vertex 2.15306 5.70228 15
      vertex 2.4 5.6 0
    endloop
  endfacet
  facet normal 0.382684 0.923879 0
    outer loop
      vertex 2.15306 5.70228 15
      vertex 0.702943 6.30294 0
      vertex 0.702943 6.30294 15
    endloop
  endfacet
  facet normal 0.382674 -0.923884 0
    outer loop
      vertex 0.702943 9.69706 0
      vertex 2.15306 10.2977 15
      vertex 0.702943 9.69706 15
    endloop
  endfacet
  facet normal 0.382682 -0.92388 -9.04704e-07
    outer loop
      vertex 2.4 10.4 0
      vertex 2.15306 10.2977 15
      vertex 0.702943 9.69706 0
    endloop
  endfacet
  facet normal 0.382728 -0.923861 0
    outer loop
      vertex 2.15306 10.2977 15
      vertex 2.4 10.4 0
      vertex 2.4 10.4 15
    endloop
  endfacet
  facet normal -0.382681 -0.923881 0
    outer loop
      vertex 2.4 10.4 0
      vertex 4.09706 9.69706 15
      vertex 2.4 10.4 15
    endloop
  endfacet
  facet normal -0.382681 -0.923881 -0
    outer loop
      vertex 4.09706 9.69706 15
      vertex 2.4 10.4 0
      vertex 4.09706 9.69706 0
    endloop
  endfacet
  facet normal 0.923883 -0.382676 0
    outer loop
      vertex 0.62132 9.5 15
      vertex 0.702943 9.69706 0
      vertex 0.702943 9.69706 15
    endloop
  endfacet
  facet normal 0.923883 -0.382676 0
    outer loop
      vertex 0.702943 9.69706 0
      vertex 0.62132 9.5 15
      vertex 0.62132 9.5 0
    endloop
  endfacet
  facet normal 0.923881 0.38268 0
    outer loop
      vertex 0.702943 6.30294 15
      vertex 0.621319 6.5 0
      vertex 0.621319 6.5 15
    endloop
  endfacet
  facet normal 0.923881 0.38268 0
    outer loop
      vertex 0.621319 6.5 0
      vertex 0.702943 6.30294 15
      vertex 0.702943 6.30294 0
    endloop
  endfacet
  facet normal -0.382681 0.923881 0
    outer loop
      vertex 4.09706 6.30294 0
      vertex 2.4 5.6 15
      vertex 4.09706 6.30294 15
    endloop
  endfacet
  facet normal -0.382681 0.923881 0
    outer loop
      vertex 2.4 5.6 15
      vertex 4.09706 6.30294 0
      vertex 2.4 5.6 0
    endloop
  endfacet
  facet normal -0.923881 0.382681 0
    outer loop
      vertex 4.09706 6.30294 0
      vertex 4.8 8 15
      vertex 4.8 8 0
    endloop
  endfacet
  facet normal -0.923881 0.382681 0
    outer loop
      vertex 4.8 8 15
      vertex 4.09706 6.30294 0
      vertex 4.09706 6.30294 15
    endloop
  endfacet
  facet normal 1 -0 0
    outer loop
      vertex 6.5 0 15
      vertex 6.5 0.621319 4.8
      vertex 6.5 0.621319 15
    endloop
  endfacet
  facet normal 1 0 0
    outer loop
      vertex 6.5 0.621319 4.8
      vertex 6.5 0 15
      vertex 6.5 0 4.8
    endloop
  endfacet
  facet normal -1 0 0
    outer loop
      vertex 9.5 0 4.8
      vertex 9.5 0.62132 15
      vertex 9.5 0.62132 4.8
    endloop
  endfacet
  facet normal -1 -0 0
    outer loop
      vertex 9.5 0.62132 15
      vertex 9.5 0 4.8
      vertex 9.5 0 15
    endloop
  endfacet
  facet normal 1 -0 0
    outer loop
      vertex 6.5 15.3787 15
      vertex 6.5 16 4.8
      vertex 6.5 16 15
    endloop
  endfacet
  facet normal 1 0 0
    outer loop
      vertex 6.5 16 4.8
      vertex 6.5 15.3787 15
      vertex 6.5 15.3787 4.8
    endloop
  endfacet
  facet normal -1 0 0
    outer loop
      vertex 9.5 15.3787 4.8
      vertex 9.5 16 15
      vertex 9.5 16 4.8
    endloop
  endfacet
  facet normal -1 -0 0
    outer loop
      vertex 9.5 16 15
      vertex 9.5 15.3787 4.8
      vertex 9.5 15.3787 15
    endloop
  endfacet
  facet normal 0 -1 0
    outer loop
      vertex 15.3787 9.5 0
      vertex 16 9.5 15
      vertex 15.3787 9.5 15
    endloop
  endfacet
  facet normal 0 -1 -0
    outer loop
      vertex 16 9.5 15
      vertex 15.3787 9.5 0
      vertex 16 9.5 0
    endloop
  endfacet
  facet normal 0 1 -0
    outer loop
      vertex 16 6.5 0
      vertex 15.3787 6.5 15
      vertex 16 6.5 15
    endloop
  endfacet
  facet normal 0 1 0
    outer loop
      vertex 15.3787 6.5 15
      vertex 16 6.5 0
      vertex 15.3787 6.5 0
    endloop
  endfacet
  facet normal 0 -1 0
    outer loop
      vertex 0 9.5 0
      vertex 0.62132 9.5 15
      vertex 0 9.5 15
    endloop
  endfacet
  facet normal 0 -1 -0
    outer loop
      vertex 0.62132 9.5 15
      vertex 0 9.5 0
      vertex 0.62132 9.5 0
    endloop
  endfacet
  facet normal 0 1 -0
    outer loop
      vertex 0.621319 6.5 0
      vertex 0 6.5 15
      vertex 0.621319 6.5 15
    endloop
  endfacet
  facet normal 0 1 0
    outer loop
      vertex 0 6.5 15
      vertex 0.621319 6.5 0
      vertex 0 6.5 0
    endloop
  endfacet
  facet normal -0.923881 0 -0.382681
    outer loop
      vertex 10.4 13.6 2.4
      vertex 9.69706 4.09706 4.09706
      vertex 9.69706 11.9029 4.09706
    endloop
  endfacet
  facet normal -0.923881 0 -0.382681
    outer loop
      vertex 9.69706 4.09706 4.09706
      vertex 10.4 13.6 2.4
      vertex 10.4 2.4 2.4
    endloop
  endfacet
  facet normal -0.382681 0 -0.923881
    outer loop
      vertex 8 4.8 4.8
      vertex 9.69706 11.9029 4.09706
      vertex 9.69706 4.09706 4.09706
    endloop
  endfacet
  facet normal -0.382681 0 -0.923881
    outer loop
      vertex 9.69706 11.9029 4.09706
      vertex 8 4.8 4.8
      vertex 8 11.2 4.8
    endloop
  endfacet
  facet normal 0.382681 0 -0.923881
    outer loop
      vertex 6.30294 4.09706 4.09706
      vertex 8 11.2 4.8
      vertex 8 4.8 4.8
    endloop
  endfacet
  facet normal 0.382681 0 -0.923881
    outer loop
      vertex 8 11.2 4.8
      vertex 6.30294 4.09706 4.09706
      vertex 6.30294 11.9029 4.09706
    endloop
  endfacet
  facet normal -0.92388 0 0.382682
    outer loop
      vertex 9.69706 4.09706 0.702943
      vertex 10.4 13.6 2.4
      vertex 9.69706 11.9029 0.702943
    endloop
  endfacet
  facet normal -0.92388 0 0.382682
    outer loop
      vertex 10.4 13.6 2.4
      vertex 9.69706 4.09706 0.702943
      vertex 10.4 2.4 2.4
    endloop
  endfacet
  facet normal 0.38268 0 0.923881
    outer loop
      vertex 6.30294 11.9029 0.702943
      vertex 6.5 4.17868 0.621319
      vertex 6.5 11.8213 0.621319
    endloop
  endfacet
  facet normal 0.38268 0 0.923881
    outer loop
      vertex 6.5 4.17868 0.621319
      vertex 6.30294 11.9029 0.702943
      vertex 6.30294 4.09706 0.702943
    endloop
  endfacet
  facet normal 0.923881 0 -0.382681
    outer loop
      vertex 6.30294 4.09706 4.09706
      vertex 5.6 13.6 2.4
      vertex 6.30294 11.9029 4.09706
    endloop
  endfacet
  facet normal 0.923881 0 -0.382681
    outer loop
      vertex 5.6 13.6 2.4
      vertex 6.30294 4.09706 4.09706
      vertex 5.6 2.4 2.4
    endloop
  endfacet
  facet normal 0.92388 0 0.382682
    outer loop
      vertex 5.6 13.6 2.4
      vertex 6.30294 4.09706 0.702943
      vertex 6.30294 11.9029 0.702943
    endloop
  endfacet
  facet normal 0.92388 0 0.382682
    outer loop
      vertex 6.30294 4.09706 0.702943
      vertex 5.6 13.6 2.4
      vertex 5.6 2.4 2.4
    endloop
  endfacet
  facet normal -0.382676 0 0.923883
    outer loop
      vertex 9.5 11.8213 0.62132
      vertex 9.69706 4.09706 0.702943
      vertex 9.69706 11.9029 0.702943
    endloop
  endfacet
  facet normal -0.382676 0 0.923883
    outer loop
      vertex 9.69706 4.09706 0.702943
      vertex 9.5 11.8213 0.62132
      vertex 9.5 4.17868 0.62132
    endloop
  endfacet
  facet normal 1 0 0
    outer loop
      vertex 5.6 13.6 2.4
      vertex 5.6 16 4.8
      vertex 5.6 13.6 4.8
    endloop
  endfacet
  facet normal 1 0 0
    outer loop
      vertex 5.6 16 4.8
      vertex 5.6 13.6 2.4
      vertex 5.6 16 0
    endloop
  endfacet
  facet normal 1 0 0
    outer loop
      vertex 5.6 16 0
      vertex 5.6 13.6 2.4
      vertex 5.6 13.6 0
    endloop
  endfacet
  facet normal 0 0 -1
    outer loop
      vertex 9.69706 15.2971 4.8
      vertex 10.4 16 4.8
      vertex 10.4 13.6 4.8
    endloop
  endfacet
  facet normal 0 0 -1
    outer loop
      vertex 9.5 16 4.8
      vertex 9.69706 15.2971 4.8
      vertex 9.5 15.3787 4.8
    endloop
  endfacet
  facet normal 0 0 -1
    outer loop
      vertex 9.69706 15.2971 4.8
      vertex 9.5 16 4.8
      vertex 10.4 16 4.8
    endloop
  endfacet
  facet normal 0 0 -1
    outer loop
      vertex 6.30294 15.2971 4.8
      vertex 6.5 16 4.8
      vertex 6.5 15.3787 4.8
    endloop
  endfacet
  facet normal 0 0 -1
    outer loop
      vertex 5.6 16 4.8
      vertex 6.30294 15.2971 4.8
      vertex 5.6 13.6 4.8
    endloop
  endfacet
  facet normal 0 0 -1
    outer loop
      vertex 6.30294 15.2971 4.8
      vertex 5.6 16 4.8
      vertex 6.5 16 4.8
    endloop
  endfacet
  facet normal -1 0 0
    outer loop
      vertex 10.4 13.6 2.4
      vertex 10.4 16 0
      vertex 10.4 13.6 0
    endloop
  endfacet
  facet normal -1 0 0
    outer loop
      vertex 10.4 16 0
      vertex 10.4 13.6 2.4
      vertex 10.4 16 4.8
    endloop
  endfacet
  facet normal -1 -0 0
    outer loop
      vertex 10.4 16 4.8
      vertex 10.4 13.6 2.4
      vertex 10.4 13.6 4.8
    endloop
  endfacet
  facet normal 1 -0 0
    outer loop
      vertex 5.6 0 4.8
      vertex 5.6 2.4 2.4
      vertex 5.6 2.4 4.8
    endloop
  endfacet
  facet normal 1 0 0
    outer loop
      vertex 5.6 0 0
      vertex 5.6 2.4 2.4
      vertex 5.6 0 4.8
    endloop
  endfacet
  facet normal 1 0 0
    outer loop
      vertex 5.6 2.4 2.4
      vertex 5.6 0 0
      vertex 5.6 2.4 0
    endloop
  endfacet
  facet normal 0 0 -1
    outer loop
      vertex 10.4 0 4.8
      vertex 9.69706 0.702943 4.8
      vertex 10.4 2.4 4.8
    endloop
  endfacet
  facet normal 0 0 -1
    outer loop
      vertex 9.5 0 4.8
      vertex 9.69706 0.702943 4.8
      vertex 10.4 0 4.8
    endloop
  endfacet
  facet normal 0 0 -1
    outer loop
      vertex 9.69706 0.702943 4.8
      vertex 9.5 0 4.8
      vertex 9.5 0.62132 4.8
    endloop
  endfacet
  facet normal 0 0 -1
    outer loop
      vertex 6.5 0 4.8
      vertex 6.30294 0.702943 4.8
      vertex 6.5 0.621319 4.8
    endloop
  endfacet
  facet normal 0 0 -1
    outer loop
      vertex 5.6 0 4.8
      vertex 6.30294 0.702943 4.8
      vertex 6.5 0 4.8
    endloop
  endfacet
  facet normal -0 0 -1
    outer loop
      vertex 6.30294 0.702943 4.8
      vertex 5.6 0 4.8
      vertex 5.6 2.4 4.8
    endloop
  endfacet
  facet normal -1 0 0
    outer loop
      vertex 10.4 0 0
      vertex 10.4 2.4 2.4
      vertex 10.4 2.4 0
    endloop
  endfacet
  facet normal -1 0 0
    outer loop
      vertex 10.4 0 4.8
      vertex 10.4 2.4 2.4
      vertex 10.4 0 0
    endloop
  endfacet
  facet normal -1 0 0
    outer loop
      vertex 10.4 2.4 2.4
      vertex 10.4 0 4.8
      vertex 10.4 2.4 4.8
    endloop
  endfacet
  facet normal -1 0 0
    outer loop
      vertex 9.5 4.17868 0
      vertex 9.5 11.8213 0.62132
      vertex 9.5 11.8213 0
    endloop
  endfacet
  facet normal -1 -0 0
    outer loop
      vertex 9.5 11.8213 0.62132
      vertex 9.5 4.17868 0
      vertex 9.5 4.17868 0.62132
    endloop
  endfacet
  facet normal 1 -0 0
    outer loop
      vertex 6.5 4.17868 0.621319
      vertex 6.5 11.8213 0
      vertex 6.5 11.8213 0.621319
    endloop
  endfacet
  facet normal 1 0 0
    outer loop
      vertex 6.5 11.8213 0
      vertex 6.5 4.17868 0.621319
      vertex 6.5 4.17868 0
    endloop
  endfacet
  facet normal -1 0 0
    outer loop
      vertex 1 1 15
      vertex 1 4.60481 45
      vertex 1 4.60481 15
    endloop
  endfacet
  facet normal -1 -0 0
    outer loop
      vertex 1 4.60481 45
      vertex 1 1 15
      vertex 1 1 45
    endloop
  endfacet
  facet normal -1 0 0
    outer loop
      vertex 1 11.3952 15
      vertex 1 15 45
      vertex 1 15 15
    endloop
  endfacet
  facet normal -1 -0 0
    outer loop
      vertex 1 15 45
      vertex 1 11.3952 15
      vertex 1 11.3952 45
    endloop
  endfacet
  facet normal -0 0 1
    outer loop
      vertex 11.4168 15 45
      vertex 15 11.3386 45
      vertex 15 15 45
    endloop
  endfacet
  facet normal 0 0 1
    outer loop
      vertex 15 11.3386 45
      vertex 11.4168 15 45
      vertex 14.006 10.6525 45
    endloop
  endfacet
  facet normal 0 0 1
    outer loop
      vertex 14.006 10.6525 45
      vertex 10.2723 13.7081 45
      vertex 13.1162 8.95726 45
    endloop
  endfacet
  facet normal -0 0 1
    outer loop
      vertex 10.2723 13.7081 45
      vertex 14.006 10.6525 45
      vertex 11.4168 15 45
    endloop
  endfacet
  facet normal 0 0 1
    outer loop
      vertex 11.4168 1 45
      vertex 15 4.66137 45
      vertex 14.006 5.34751 45
    endloop
  endfacet
  facet normal 0 0 1
    outer loop
      vertex 10.2723 2.29193 45
      vertex 14.006 5.34751 45
      vertex 13.1162 7.04274 45
    endloop
  endfacet
  facet normal 0 0 1
    outer loop
      vertex 15 4.66137 45
      vertex 11.4168 1 45
      vertex 15 1 45
    endloop
  endfacet
  facet normal -0 0 1
    outer loop
      vertex 8.48215 13.0292 45
      vertex 13.1162 8.95726 45
      vertex 10.2723 13.7081 45
    endloop
  endfacet
  facet normal 0 0 1
    outer loop
      vertex 13.1162 8.95726 45
      vertex 8.48215 13.0292 45
      vertex 13.1162 7.04274 45
    endloop
  endfacet
  facet normal 0 0 1
    outer loop
      vertex 14.006 5.34751 45
      vertex 10.2723 2.29193 45
      vertex 11.4168 1 45
    endloop
  endfacet
  facet normal 0 0 1
    outer loop
      vertex 8.48215 2.97083 45
      vertex 13.1162 7.04274 45
      vertex 8.48215 13.0292 45
    endloop
  endfacet
  facet normal 0 0 1
    outer loop
      vertex 13.1162 7.04274 45
      vertex 8.48215 2.97083 45
      vertex 10.2723 2.29193 45
    endloop
  endfacet
  facet normal 0 0 1
    outer loop
      vertex 3 8 45
      vertex 8.48215 13.0292 45
      vertex 6.58158 13.2599 45
    endloop
  endfacet
  facet normal 0 0 1
    outer loop
      vertex 8.48215 13.0292 45
      vertex 3 8 45
      vertex 8.48215 2.97083 45
    endloop
  endfacet
  facet normal 0 0 1
    outer loop
      vertex 2.54182 9.85889 45
      vertex 6.58158 13.2599 45
      vertex 5.00596 14.3475 45
    endloop
  endfacet
  facet normal 0 0 1
    outer loop
      vertex 8.48215 2.97083 45
      vertex 3 8 45
      vertex 6.58158 2.74006 45
    endloop
  endfacet
  facet normal -0 0 1
    outer loop
      vertex 1 15 45
      vertex 5.00596 14.3475 45
      vertex 4.6635 15 45
    endloop
  endfacet
  facet normal -0 0 1
    outer loop
      vertex 2.54182 6.14111 45
      vertex 6.58158 2.74006 45
      vertex 3 8 45
    endloop
  endfacet
  facet normal 0 0 1
    outer loop
      vertex 6.58158 2.74006 45
      vertex 2.54182 6.14111 45
      vertex 5.00596 1.65249 45
    endloop
  endfacet
  facet normal 0 0 1
    outer loop
      vertex 6.58158 13.2599 45
      vertex 2.54182 9.85889 45
      vertex 3 8 45
    endloop
  endfacet
  facet normal 0 0 1
    outer loop
      vertex 5.00596 14.3475 45
      vertex 1.27226 11.2919 45
      vertex 2.54182 9.85889 45
    endloop
  endfacet
  facet normal 0 0 1
    outer loop
      vertex 5.00596 14.3475 45
      vertex 1 15 45
      vertex 1.27226 11.2919 45
    endloop
  endfacet
  facet normal 0 0 1
    outer loop
      vertex 1.27226 11.2919 45
      vertex 1 15 45
      vertex 1 11.3952 45
    endloop
  endfacet
  facet normal -0 0 1
    outer loop
      vertex 1.27226 4.70806 45
      vertex 5.00596 1.65249 45
      vertex 2.54182 6.14111 45
    endloop
  endfacet
  facet normal 0 0 1
    outer loop
      vertex 1 1 45
      vertex 5.00596 1.65249 45
      vertex 1.27226 4.70806 45
    endloop
  endfacet
  facet normal 0 0 1
    outer loop
      vertex 1 1 45
      vertex 1.27226 4.70806 45
      vertex 1 4.60481 45
    endloop
  endfacet
  facet normal 0 0 1
    outer loop
      vertex 5.00596 1.65249 45
      vertex 1 1 45
      vertex 4.6635 1 45
    endloop
  endfacet
  facet normal 1 -0 0
    outer loop
      vertex 15 1 45
      vertex 15 4.66137 15
      vertex 15 4.66137 45
    endloop
  endfacet
  facet normal 1 0 0
    outer loop
      vertex 15 4.66137 15
      vertex 15 1 45
      vertex 15 1 15
    endloop
  endfacet
  facet normal 1 -0 0
    outer loop
      vertex 15 11.3386 45
      vertex 15 15 15
      vertex 15 15 45
    endloop
  endfacet
  facet normal 1 0 0
    outer loop
      vertex 15 15 15
      vertex 15 11.3386 45
      vertex 15 11.3386 15
    endloop
  endfacet
  facet normal 0 -1 0
    outer loop
      vertex 11.4168 1 15
      vertex 15 1 45
      vertex 11.4168 1 45
    endloop
  endfacet
  facet normal 0 -1 -0
    outer loop
      vertex 15 1 45
      vertex 11.4168 1 15
      vertex 15 1 15
    endloop
  endfacet
  facet normal 0 -1 0
    outer loop
      vertex 1 1 15
      vertex 4.6635 1 45
      vertex 1 1 45
    endloop
  endfacet
  facet normal 0 -1 -0
    outer loop
      vertex 4.6635 1 45
      vertex 1 1 15
      vertex 4.6635 1 15
    endloop
  endfacet
  facet normal 0 1 -0
    outer loop
      vertex 15 15 15
      vertex 11.4168 15 45
      vertex 15 15 45
    endloop
  endfacet
  facet normal 0 1 0
    outer loop
      vertex 11.4168 15 45
      vertex 15 15 15
      vertex 11.4168 15 15
    endloop
  endfacet
  facet normal 0 1 -0
    outer loop
      vertex 4.6635 15 15
      vertex 1 15 45
      vertex 4.6635 15 45
    endloop
  endfacet
  facet normal 0 1 0
    outer loop
      vertex 1 15 45
      vertex 4.6635 15 15
      vertex 1 15 15
    endloop
  endfacet
  facet normal 0.120536 -0.992709 0
    outer loop
      vertex 6.58158 2.74006 15
      vertex 8.48215 2.97083 45
      vertex 6.58158 2.74006 45
    endloop
  endfacet
  facet normal 0.120536 -0.992709 0
    outer loop
      vertex 8.48215 2.97083 45
      vertex 6.58158 2.74006 15
      vertex 8.48215 2.97083 15
    endloop
  endfacet
  facet normal -0.748741 -0.662862 0
    outer loop
      vertex 10.3288 2.22811 15
      vertex 10.2723 2.29193 45
      vertex 10.2723 2.29193 15
    endloop
  endfacet
  facet normal -0.748514 -0.663119 9.74058e-07
    outer loop
      vertex 11.4168 1 15
      vertex 10.2723 2.29193 45
      vertex 10.3288 2.22811 15
    endloop
  endfacet
  facet normal -0.748525 -0.663106 0
    outer loop
      vertex 10.2723 2.29193 45
      vertex 11.4168 1 15
      vertex 11.4168 1 45
    endloop
  endfacet
  facet normal -0.354598 -0.935019 0
    outer loop
      vertex 8.48215 2.97083 15
      vertex 10.2723 2.29193 45
      vertex 8.48215 2.97083 45
    endloop
  endfacet
  facet normal -0.354598 -0.935019 -0
    outer loop
      vertex 10.2723 2.29193 45
      vertex 8.48215 2.97083 15
      vertex 10.2723 2.29193 15
    endloop
  endfacet
  facet normal 0.885452 -0.46473 0
    outer loop
      vertex 4.6635 1 45
      vertex 5.00596 1.65249 15
      vertex 5.00596 1.65249 45
    endloop
  endfacet
  facet normal 0.885452 -0.46473 0
    outer loop
      vertex 5.00596 1.65249 15
      vertex 4.6635 1 45
      vertex 4.6635 1 15
    endloop
  endfacet
  facet normal 0.568068 -0.822982 0
    outer loop
      vertex 5.7087 2.13756 15
      vertex 5.00596 1.65249 45
      vertex 5.00596 1.65249 15
    endloop
  endfacet
  facet normal 0.568064 -0.822984 -1.22774e-07
    outer loop
      vertex 5.00596 1.65249 45
      vertex 5.7087 2.13756 15
      vertex 6.58158 2.74006 45
    endloop
  endfacet
  facet normal 0.568061 -0.822986 0
    outer loop
      vertex 6.58158 2.74006 45
      vertex 5.7087 2.13756 15
      vertex 6.58158 2.74006 15
    endloop
  endfacet
  facet normal -0.354598 0.935019 0
    outer loop
      vertex 10.2723 13.7081 15
      vertex 8.48215 13.0292 45
      vertex 10.2723 13.7081 45
    endloop
  endfacet
  facet normal -0.354598 0.935019 0
    outer loop
      vertex 8.48215 13.0292 45
      vertex 10.2723 13.7081 15
      vertex 8.48215 13.0292 15
    endloop
  endfacet
  facet normal 0.885455 0.464725 0
    outer loop
      vertex 5.00596 14.3475 45
      vertex 4.6635 15 15
      vertex 4.6635 15 45
    endloop
  endfacet
  facet normal 0.885455 0.464725 0
    outer loop
      vertex 4.6635 15 15
      vertex 5.00596 14.3475 45
      vertex 5.00596 14.3475 15
    endloop
  endfacet
  facet normal -0.748511 0.663122 0
    outer loop
      vertex 10.3288 13.7719 15
      vertex 11.4168 15 45
      vertex 11.4168 15 15
    endloop
  endfacet
  facet normal -0.748638 0.662979 0
    outer loop
      vertex 10.2723 13.7081 45
      vertex 10.3288 13.7719 15
      vertex 10.2723 13.7081 15
    endloop
  endfacet
  facet normal -0.748518 0.663115 5.16625e-07
    outer loop
      vertex 10.3288 13.7719 15
      vertex 10.2723 13.7081 45
      vertex 11.4168 15 45
    endloop
  endfacet
  facet normal 0.1205 0.992713 -0
    outer loop
      vertex 8.48215 13.0292 15
      vertex 6.58158 13.2599 45
      vertex 8.48215 13.0292 45
    endloop
  endfacet
  facet normal 0.1205 0.992713 0
    outer loop
      vertex 6.58158 13.2599 45
      vertex 8.48215 13.0292 15
      vertex 6.58158 13.2599 15
    endloop
  endfacet
  facet normal 0.568061 0.822986 0
    outer loop
      vertex 5.7087 13.8624 15
      vertex 6.58158 13.2599 45
      vertex 6.58158 13.2599 15
    endloop
  endfacet
  facet normal 0.568075 0.822977 -5.78695e-07
    outer loop
      vertex 6.58158 13.2599 45
      vertex 5.7087 13.8624 15
      vertex 5.00596 14.3475 45
    endloop
  endfacet
  facet normal 0.568091 0.822965 0
    outer loop
      vertex 5.00596 14.3475 45
      vertex 5.7087 13.8624 15
      vertex 5.00596 14.3475 15
    endloop
  endfacet
  facet normal 1 -0 0
    outer loop
      vertex 13.1162 7.04274 45
      vertex 13.1162 8.95726 15
      vertex 13.1162 8.95726 45
    endloop
  endfacet
  facet normal 1 0 0
    outer loop
      vertex 13.1162 8.95726 15
      vertex 13.1162 7.04274 45
      vertex 13.1162 7.04274 15
    endloop
  endfacet
  facet normal 0.56806 -0.822987 0
    outer loop
      vertex 14.006 10.6525 15
      vertex 15 11.3386 45
      vertex 14.006 10.6525 45
    endloop
  endfacet
  facet normal 0.56806 -0.822987 0
    outer loop
      vertex 15 11.3386 45
      vertex 14.006 10.6525 15
      vertex 15 11.3386 15
    endloop
  endfacet
  facet normal 0.885385 -0.464859 0
    outer loop
      vertex 14.006 10.6525 45
      vertex 13.8246 10.307 15
      vertex 14.006 10.6525 15
    endloop
  endfacet
  facet normal 0.885441 -0.464752 -1.578e-06
    outer loop
      vertex 13.1162 8.95726 45
      vertex 13.8246 10.307 15
      vertex 14.006 10.6525 45
    endloop
  endfacet
  facet normal 0.885456 -0.464724 0
    outer loop
      vertex 13.8246 10.307 15
      vertex 13.1162 8.95726 45
      vertex 13.1162 8.95726 15
    endloop
  endfacet
  facet normal 0.568082 0.822972 -0
    outer loop
      vertex 15 4.66137 15
      vertex 14.006 5.34751 45
      vertex 15 4.66137 45
    endloop
  endfacet
  facet normal 0.568082 0.822972 0
    outer loop
      vertex 14.006 5.34751 45
      vertex 15 4.66137 15
      vertex 14.006 5.34751 15
    endloop
  endfacet
  facet normal 0.88545 0.464735 0
    outer loop
      vertex 13.1162 7.04274 45
      vertex 13.8246 5.69304 15
      vertex 13.1162 7.04274 15
    endloop
  endfacet
  facet normal 0.88544 0.464754 -1.08167e-06
    outer loop
      vertex 14.006 5.34751 45
      vertex 13.8246 5.69304 15
      vertex 13.1162 7.04274 45
    endloop
  endfacet
  facet normal 0.885401 0.464827 0
    outer loop
      vertex 13.8246 5.69304 15
      vertex 14.006 5.34751 45
      vertex 14.006 5.34751 15
    endloop
  endfacet
  facet normal -0.970941 -0.239318 0
    outer loop
      vertex 3 8 15
      vertex 2.54182 9.85889 45
      vertex 2.54182 9.85889 15
    endloop
  endfacet
  facet normal -0.970941 -0.239318 0
    outer loop
      vertex 2.54182 9.85889 45
      vertex 3 8 15
      vertex 3 8 45
    endloop
  endfacet
  facet normal -0.748505 -0.663129 0
    outer loop
      vertex 2.15306 10.2977 15
      vertex 1.27226 11.2919 45
      vertex 1.27226 11.2919 15
    endloop
  endfacet
  facet normal -0.748504 -0.663131 -0
    outer loop
      vertex 2.54182 9.85889 45
      vertex 2.15306 10.2977 15
      vertex 2.54182 9.85889 15
    endloop
  endfacet
  facet normal -0.748505 -0.66313 2.34004e-08
    outer loop
      vertex 2.15306 10.2977 15
      vertex 2.54182 9.85889 45
      vertex 1.27226 11.2919 45
    endloop
  endfacet
  facet normal -0.354591 0.935021 0
    outer loop
      vertex 1.27226 4.70806 15
      vertex 1 4.60481 45
      vertex 1.27226 4.70806 45
    endloop
  endfacet
  facet normal -0.354591 0.935021 0
    outer loop
      vertex 1 4.60481 45
      vertex 1.27226 4.70806 15
      vertex 1 4.60481 15
    endloop
  endfacet
  facet normal -0.354741 -0.934965 0
    outer loop
      vertex 1 11.3952 15
      vertex 1.27226 11.2919 45
      vertex 1 11.3952 45
    endloop
  endfacet
  facet normal -0.354741 -0.934965 -0
    outer loop
      vertex 1.27226 11.2919 45
      vertex 1 11.3952 15
      vertex 1.27226 11.2919 15
    endloop
  endfacet
  facet normal -0.970941 0.239318 0
    outer loop
      vertex 2.54182 6.14111 15
      vertex 3 8 45
      vertex 3 8 15
    endloop
  endfacet
  facet normal -0.970941 0.239318 0
    outer loop
      vertex 3 8 45
      vertex 2.54182 6.14111 15
      vertex 2.54182 6.14111 45
    endloop
  endfacet
  facet normal -0.748519 0.663114 0
    outer loop
      vertex 2.15306 5.70228 15
      vertex 2.54182 6.14111 45
      vertex 2.54182 6.14111 15
    endloop
  endfacet
  facet normal -0.748512 0.663122 0
    outer loop
      vertex 1.27226 4.70806 45
      vertex 2.15306 5.70228 15
      vertex 1.27226 4.70806 15
    endloop
  endfacet
  facet normal -0.748514 0.663119 -1.47936e-07
    outer loop
      vertex 2.15306 5.70228 15
      vertex 1.27226 4.70806 45
      vertex 2.54182 6.14111 45
    endloop
  endfacet
endsolid OpenSCAD_Model
