solid OpenSCAD_Model
  facet normal -1 0 0
    outer loop
      vertex 0 0 0
      vertex 0 6.25 15
      vertex 0 6.25 0
    endloop
  endfacet
  facet normal -1 -0 0
    outer loop
      vertex 0 6.25 15
      vertex 0 0 0
      vertex 0 0 15
    endloop
  endfacet
  facet normal -1 0 0
    outer loop
      vertex 0 9.25 0
      vertex 0 15.5 15
      vertex 0 15.5 0
    endloop
  endfacet
  facet normal -1 -0 0
    outer loop
      vertex 0 15.5 15
      vertex 0 9.25 0
      vertex 0 9.25 15
    endloop
  endfacet
  facet normal 0 0 1
    outer loop
      vertex 0.659009 6.15901 15
      vertex 1.27226 4.45806 15
      vertex 2.21001 5.51656 15
    endloop
  endfacet
  facet normal 0 0 1
    outer loop
      vertex 0 6.25 15
      vertex 1 4.35481 15
      vertex 0.659009 6.15901 15
    endloop
  endfacet
  facet normal 0 0 1
    outer loop
      vertex 1.27226 4.45806 15
      vertex 0.659009 6.15901 15
      vertex 1 4.35481 15
    endloop
  endfacet
  facet normal 0 0 1
    outer loop
      vertex 6.15901 0.659009 15
      vertex 6.25 0 15
      vertex 6.25 0.621319 15
    endloop
  endfacet
  facet normal -0 0 1
    outer loop
      vertex 4.75596 1.65249 15
      vertex 6.15901 0.659009 15
      vertex 5.52704 2.18473 15
    endloop
  endfacet
  facet normal -0 0 1
    outer loop
      vertex 4.4135 1 15
      vertex 6.15901 0.659009 15
      vertex 4.75596 1.65249 15
    endloop
  endfacet
  facet normal 0 0 1
    outer loop
      vertex 6.15901 0.659009 15
      vertex 4.4135 1 15
      vertex 6.25 0 15
    endloop
  endfacet
  facet normal 0 0 1
    outer loop
      vertex 0 0 15
      vertex 4.4135 1 15
      vertex 1 1 15
    endloop
  endfacet
  facet normal -0 0 1
    outer loop
      vertex 0 6.25 15
      vertex 0.659009 6.15901 15
      vertex 0.621319 6.25 15
    endloop
  endfacet
  facet normal 0 0 1
    outer loop
      vertex 0 0 15
      vertex 1 4.35481 15
      vertex 0 6.25 15
    endloop
  endfacet
  facet normal 0 0 1
    outer loop
      vertex 4.4135 1 15
      vertex 0 0 15
      vertex 6.25 0 15
    endloop
  endfacet
  facet normal 0 0 1
    outer loop
      vertex 1 4.35481 15
      vertex 0 0 15
      vertex 1 1 15
    endloop
  endfacet
  facet normal -0 0 1
    outer loop
      vertex 14.5 11.0886 15
      vertex 15.5 9.25 15
      vertex 15.5 15.5 15
    endloop
  endfacet
  facet normal -0 -0 1
    outer loop
      vertex 14.841 9.34099 15
      vertex 15.5 9.25 15
      vertex 14.5 11.0886 15
    endloop
  endfacet
  facet normal 0 0 1
    outer loop
      vertex 14.5 11.0886 15
      vertex 15.5 15.5 15
      vertex 14.5 14.5 15
    endloop
  endfacet
  facet normal 0 0 1
    outer loop
      vertex 15.5 15.5 15
      vertex 11.1668 14.5 15
      vertex 14.5 14.5 15
    endloop
  endfacet
  facet normal 0 0 1
    outer loop
      vertex 11.1668 14.5 15
      vertex 10 13.25 15
      vertex 10.0223 13.2081 15
    endloop
  endfacet
  facet normal 0 0 1
    outer loop
      vertex 11.1668 14.5 15
      vertex 9.34099 14.841 15
      vertex 10 13.25 15
    endloop
  endfacet
  facet normal -0 0 1
    outer loop
      vertex 9.25 15.5 15
      vertex 11.1668 14.5 15
      vertex 15.5 15.5 15
    endloop
  endfacet
  facet normal 0 0 1
    outer loop
      vertex 11.1668 14.5 15
      vertex 9.25 15.5 15
      vertex 9.34099 14.841 15
    endloop
  endfacet
  facet normal 0 0 1
    outer loop
      vertex 9.34099 14.841 15
      vertex 9.25 15.5 15
      vertex 9.25 14.8787 15
    endloop
  endfacet
  facet normal 0 0 1
    outer loop
      vertex 15.5 9.25 15
      vertex 14.841 9.34099 15
      vertex 14.8787 9.25 15
    endloop
  endfacet
  facet normal -0 0 1
    outer loop
      vertex 13.506 10.4025 15
      vertex 14.841 9.34099 15
      vertex 14.5 11.0886 15
    endloop
  endfacet
  facet normal 0 0 1
    outer loop
      vertex 14.841 9.34099 15
      vertex 13.506 10.4025 15
      vertex 13.2867 9.98479 15
    endloop
  endfacet
  facet normal 0 0 1
    outer loop
      vertex 10.0223 13.2081 15
      vertex 10 13.25 15
      vertex 9.97524 13.1902 15
    endloop
  endfacet
  facet normal 0 0 1
    outer loop
      vertex 6.25 15.5 15
      vertex 6.15901 14.841 15
      vertex 6.25 14.8787 15
    endloop
  endfacet
  facet normal 0 0 1
    outer loop
      vertex 4.4135 14.5 15
      vertex 6.15901 14.841 15
      vertex 6.25 15.5 15
    endloop
  endfacet
  facet normal 0 0 1
    outer loop
      vertex 6.15901 14.841 15
      vertex 4.75596 13.8475 15
      vertex 5.52704 13.3153 15
    endloop
  endfacet
  facet normal 0 0 1
    outer loop
      vertex 6.15901 14.841 15
      vertex 4.4135 14.5 15
      vertex 4.75596 13.8475 15
    endloop
  endfacet
  facet normal -0 0 1
    outer loop
      vertex 0 15.5 15
      vertex 4.4135 14.5 15
      vertex 6.25 15.5 15
    endloop
  endfacet
  facet normal 0 0 1
    outer loop
      vertex 0 15.5 15
      vertex 1 11.1452 15
      vertex 1 14.5 15
    endloop
  endfacet
  facet normal 0 0 1
    outer loop
      vertex 1 11.1452 15
      vertex 0 9.25 15
      vertex 0.659009 9.34099 15
    endloop
  endfacet
  facet normal 0 0 1
    outer loop
      vertex 4.4135 14.5 15
      vertex 0 15.5 15
      vertex 1 14.5 15
    endloop
  endfacet
  facet normal 0 0 1
    outer loop
      vertex 1 11.1452 15
      vertex 0 15.5 15
      vertex 0 9.25 15
    endloop
  endfacet
  facet normal 0 0 1
    outer loop
      vertex 0.659009 9.34099 15
      vertex 0 9.25 15
      vertex 0.62132 9.25 15
    endloop
  endfacet
  facet normal 0 0 1
    outer loop
      vertex 0.659009 9.34099 15
      vertex 1.27226 11.0419 15
      vertex 1 11.1452 15
    endloop
  endfacet
  facet normal 0 0 1
    outer loop
      vertex 1.27226 11.0419 15
      vertex 0.659009 9.34099 15
      vertex 2.21001 9.98343 15
    endloop
  endfacet
  facet normal 0 0 1
    outer loop
      vertex 10.0223 2.29193 15
      vertex 9.97524 2.30977 15
      vertex 10 2.25 15
    endloop
  endfacet
  facet normal 0 0 1
    outer loop
      vertex 14.841 6.15901 15
      vertex 13.506 5.09751 15
      vertex 14.5 4.41137 15
    endloop
  endfacet
  facet normal 0 -0 1
    outer loop
      vertex 13.506 5.09751 15
      vertex 14.841 6.15901 15
      vertex 13.2867 5.51521 15
    endloop
  endfacet
  facet normal 0 0 1
    outer loop
      vertex 14.841 6.15901 15
      vertex 15.5 6.25 15
      vertex 14.8787 6.25 15
    endloop
  endfacet
  facet normal 0 0 1
    outer loop
      vertex 15.5 6.25 15
      vertex 14.841 6.15901 15
      vertex 14.5 4.41137 15
    endloop
  endfacet
  facet normal 0 0 1
    outer loop
      vertex 15.5 6.25 15
      vertex 14.5 4.41137 15
      vertex 15.5 0 15
    endloop
  endfacet
  facet normal -0 0 1
    outer loop
      vertex 14.5 1 15
      vertex 15.5 0 15
      vertex 14.5 4.41137 15
    endloop
  endfacet
  facet normal -0 0 1
    outer loop
      vertex 11.1668 1 15
      vertex 15.5 0 15
      vertex 14.5 1 15
    endloop
  endfacet
  facet normal -0 0 1
    outer loop
      vertex 10 2.25 15
      vertex 11.1668 1 15
      vertex 10.0223 2.29193 15
    endloop
  endfacet
  facet normal 0 0 1
    outer loop
      vertex 9.34099 0.659009 15
      vertex 11.1668 1 15
      vertex 10 2.25 15
    endloop
  endfacet
  facet normal 0 0 1
    outer loop
      vertex 9.25 0 15
      vertex 11.1668 1 15
      vertex 9.34099 0.659009 15
    endloop
  endfacet
  facet normal 0 0 1
    outer loop
      vertex 9.25 0 15
      vertex 9.34099 0.659009 15
      vertex 9.25 0.62132 15
    endloop
  endfacet
  facet normal 0 0 1
    outer loop
      vertex 11.1668 1 15
      vertex 9.25 0 15
      vertex 15.5 0 15
    endloop
  endfacet
  facet normal 0 0 -1
    outer loop
      vertex 8.23215 2.97083 15
      vertex 9.34099 3.84099 15
      vertex 9.97524 2.30977 15
    endloop
  endfacet
  facet normal 0 0 -1
    outer loop
      vertex 8.23215 2.97083 15
      vertex 7.75 4.5 15
      vertex 9.34099 3.84099 15
    endloop
  endfacet
  facet normal 0 0 -1
    outer loop
      vertex 6.15901 3.84099 15
      vertex 8.23215 2.97083 15
      vertex 6.33158 2.74006 15
    endloop
  endfacet
  facet normal 0 0 -1
    outer loop
      vertex 8.23215 2.97083 15
      vertex 6.15901 3.84099 15
      vertex 7.75 4.5 15
    endloop
  endfacet
  facet normal 0 0 -1
    outer loop
      vertex 5.5 2.25 15
      vertex 6.33158 2.74006 15
      vertex 5.52704 2.18473 15
    endloop
  endfacet
  facet normal -0 0 -1
    outer loop
      vertex 6.33158 2.74006 15
      vertex 5.5 2.25 15
      vertex 6.15901 3.84099 15
    endloop
  endfacet
  facet normal 0 0 -1
    outer loop
      vertex 9.34099 11.659 15
      vertex 8.23215 12.5292 15
      vertex 9.97524 13.1902 15
    endloop
  endfacet
  facet normal 0 0 -1
    outer loop
      vertex 7.75 11 15
      vertex 8.23215 12.5292 15
      vertex 9.34099 11.659 15
    endloop
  endfacet
  facet normal 0 0 -1
    outer loop
      vertex 6.15901 11.659 15
      vertex 8.23215 12.5292 15
      vertex 7.75 11 15
    endloop
  endfacet
  facet normal -0 0 -1
    outer loop
      vertex 8.23215 12.5292 15
      vertex 6.15901 11.659 15
      vertex 6.33158 12.7599 15
    endloop
  endfacet
  facet normal 0 0 -1
    outer loop
      vertex 5.5 13.25 15
      vertex 6.33158 12.7599 15
      vertex 6.15901 11.659 15
    endloop
  endfacet
  facet normal 0 0 -1
    outer loop
      vertex 6.33158 12.7599 15
      vertex 5.5 13.25 15
      vertex 5.52704 13.3153 15
    endloop
  endfacet
  facet normal 0 0 -1
    outer loop
      vertex 13.25 5.5 15
      vertex 12.6162 6.79274 15
      vertex 13.2867 5.51521 15
    endloop
  endfacet
  facet normal 0 0 -1
    outer loop
      vertex 11 7.75 15
      vertex 12.6162 6.79274 15
      vertex 11.659 6.15901 15
    endloop
  endfacet
  facet normal 0 0 -1
    outer loop
      vertex 11.659 6.15901 15
      vertex 12.6162 6.79274 15
      vertex 13.25 5.5 15
    endloop
  endfacet
  facet normal 0 0 -1
    outer loop
      vertex 12.6162 8.70726 15
      vertex 13.25 10 15
      vertex 13.2867 9.98479 15
    endloop
  endfacet
  facet normal 0 0 -1
    outer loop
      vertex 12.6162 8.70726 15
      vertex 11.659 9.34099 15
      vertex 13.25 10 15
    endloop
  endfacet
  facet normal 0 0 -1
    outer loop
      vertex 12.6162 6.79274 15
      vertex 11 7.75 15
      vertex 12.6162 8.70726 15
    endloop
  endfacet
  facet normal -0 0 -1
    outer loop
      vertex 12.6162 8.70726 15
      vertex 11 7.75 15
      vertex 11.659 9.34099 15
    endloop
  endfacet
  facet normal 0 0 -1
    outer loop
      vertex 3 7.75 15
      vertex 4.5 7.75 15
      vertex 3.84099 6.15901 15
    endloop
  endfacet
  facet normal 0 0 -1
    outer loop
      vertex 4.5 7.75 15
      vertex 3 7.75 15
      vertex 3.84099 9.34099 15
    endloop
  endfacet
  facet normal -0 0 -1
    outer loop
      vertex 3.84099 6.15901 15
      vertex 2.54182 5.89111 15
      vertex 3 7.75 15
    endloop
  endfacet
  facet normal 0 0 -1
    outer loop
      vertex 2.25 5.5 15
      vertex 2.54182 5.89111 15
      vertex 3.84099 6.15901 15
    endloop
  endfacet
  facet normal 0 0 -1
    outer loop
      vertex 2.54182 5.89111 15
      vertex 2.25 5.5 15
      vertex 2.21001 5.51656 15
    endloop
  endfacet
  facet normal 0 0 -1
    outer loop
      vertex 2.54182 9.60889 15
      vertex 3.84099 9.34099 15
      vertex 3 7.75 15
    endloop
  endfacet
  facet normal 0 0 -1
    outer loop
      vertex 2.54182 9.60889 15
      vertex 2.25 10 15
      vertex 3.84099 9.34099 15
    endloop
  endfacet
  facet normal 0 -0 -1
    outer loop
      vertex 2.25 10 15
      vertex 2.54182 9.60889 15
      vertex 2.21001 9.98343 15
    endloop
  endfacet
  facet normal 1 -0 0
    outer loop
      vertex 15.5 0 15
      vertex 15.5 6.25 0
      vertex 15.5 6.25 15
    endloop
  endfacet
  facet normal 1 0 0
    outer loop
      vertex 15.5 6.25 0
      vertex 15.5 0 15
      vertex 15.5 0 0
    endloop
  endfacet
  facet normal 1 -0 0
    outer loop
      vertex 15.5 9.25 15
      vertex 15.5 15.5 0
      vertex 15.5 15.5 15
    endloop
  endfacet
  facet normal 1 0 0
    outer loop
      vertex 15.5 15.5 0
      vertex 15.5 9.25 15
      vertex 15.5 9.25 0
    endloop
  endfacet
  facet normal 0 0 -1
    outer loop
      vertex 0 0 0
      vertex 5.5 2.25 0
      vertex 5.5 0 0
    endloop
  endfacet
  facet normal 0 0 -1
    outer loop
      vertex 5.5 2.25 0
      vertex 4.5 7.75 0
      vertex 5.5 13.25 0
    endloop
  endfacet
  facet normal 0 0 -1
    outer loop
      vertex 3.84099 9.34099 0
      vertex 5.5 13.25 0
      vertex 4.5 7.75 0
    endloop
  endfacet
  facet normal 0 0 -1
    outer loop
      vertex 5.5 2.25 0
      vertex 3.84099 6.15901 0
      vertex 4.5 7.75 0
    endloop
  endfacet
  facet normal 0 0 -1
    outer loop
      vertex 5.5 2.25 0
      vertex 2.25 5.5 0
      vertex 3.84099 6.15901 0
    endloop
  endfacet
  facet normal -0 0 -1
    outer loop
      vertex 5.5 2.25 0
      vertex 0 0 0
      vertex 2.25 5.5 0
    endloop
  endfacet
  facet normal -0 0 -1
    outer loop
      vertex 2.25 5.5 0
      vertex 0 0 0
      vertex 0.659009 6.15901 0
    endloop
  endfacet
  facet normal 0 0 -1
    outer loop
      vertex 0 6.25 0
      vertex 0.659009 6.15901 0
      vertex 0 0 0
    endloop
  endfacet
  facet normal 0 0 -1
    outer loop
      vertex 0.659009 6.15901 0
      vertex 0 6.25 0
      vertex 0.621319 6.25 0
    endloop
  endfacet
  facet normal 0 0 -1
    outer loop
      vertex 6.15901 3.84099 0
      vertex 6.25 11.6213 0
      vertex 6.25 3.87868 0
    endloop
  endfacet
  facet normal 0 0 -1
    outer loop
      vertex 6.15901 3.84099 0
      vertex 6.15901 11.659 0
      vertex 6.25 11.6213 0
    endloop
  endfacet
  facet normal 0 0 -1
    outer loop
      vertex 5.5 2.25 0
      vertex 6.15901 11.659 0
      vertex 6.15901 3.84099 0
    endloop
  endfacet
  facet normal -0 0 -1
    outer loop
      vertex 6.15901 11.659 0
      vertex 5.5 2.25 0
      vertex 5.5 13.25 0
    endloop
  endfacet
  facet normal 0 0 -1
    outer loop
      vertex 2.25 10 0
      vertex 5.5 13.25 0
      vertex 3.84099 9.34099 0
    endloop
  endfacet
  facet normal 0 0 -1
    outer loop
      vertex 0 15.5 0
      vertex 5.5 13.25 0
      vertex 2.25 10 0
    endloop
  endfacet
  facet normal 0 0 -1
    outer loop
      vertex 0 15.5 0
      vertex 2.25 10 0
      vertex 0.659009 9.34099 0
    endloop
  endfacet
  facet normal 0 0 -1
    outer loop
      vertex 0 9.25 0
      vertex 0.659009 9.34099 0
      vertex 0.62132 9.25 0
    endloop
  endfacet
  facet normal 0 0 -1
    outer loop
      vertex 0 15.5 0
      vertex 0.659009 9.34099 0
      vertex 0 9.25 0
    endloop
  endfacet
  facet normal 0 0 -1
    outer loop
      vertex 5.5 13.25 0
      vertex 0 15.5 0
      vertex 5.5 15.5 0
    endloop
  endfacet
  facet normal 0 0 -1
    outer loop
      vertex 14.841 6.15901 0
      vertex 15.5 6.25 0
      vertex 15.5 0 0
    endloop
  endfacet
  facet normal -0 0 -1
    outer loop
      vertex 15.5 6.25 0
      vertex 14.841 6.15901 0
      vertex 14.8787 6.25 0
    endloop
  endfacet
  facet normal 0 0 -1
    outer loop
      vertex 15.5 0 0
      vertex 13.25 5.5 0
      vertex 14.841 6.15901 0
    endloop
  endfacet
  facet normal 0 0 -1
    outer loop
      vertex 10 2.25 0
      vertex 13.25 5.5 0
      vertex 15.5 0 0
    endloop
  endfacet
  facet normal -0 0 -1
    outer loop
      vertex 13.25 5.5 0
      vertex 10 2.25 0
      vertex 11.659 6.15901 0
    endloop
  endfacet
  facet normal 0 0 -1
    outer loop
      vertex 10 2.25 0
      vertex 15.5 0 0
      vertex 10 0 0
    endloop
  endfacet
  facet normal 0 0 -1
    outer loop
      vertex 14.841 9.34099 0
      vertex 15.5 9.25 0
      vertex 14.8787 9.25 0
    endloop
  endfacet
  facet normal 0 0 -1
    outer loop
      vertex 15.5 9.25 0
      vertex 14.841 9.34099 0
      vertex 15.5 15.5 0
    endloop
  endfacet
  facet normal 0 0 -1
    outer loop
      vertex 13.25 10 0
      vertex 15.5 15.5 0
      vertex 14.841 9.34099 0
    endloop
  endfacet
  facet normal 0 0 -1
    outer loop
      vertex 10 13.25 0
      vertex 13.25 10 0
      vertex 11.659 9.34099 0
    endloop
  endfacet
  facet normal 0 0 -1
    outer loop
      vertex 9.34099 3.84099 0
      vertex 11.659 6.15901 0
      vertex 10 2.25 0
    endloop
  endfacet
  facet normal 0 0 -1
    outer loop
      vertex 9.25 3.87868 0
      vertex 11.659 6.15901 0
      vertex 9.34099 3.84099 0
    endloop
  endfacet
  facet normal 0 0 -1
    outer loop
      vertex 9.34099 11.659 0
      vertex 11.659 9.34099 0
      vertex 11 7.75 0
    endloop
  endfacet
  facet normal 0 0 -1
    outer loop
      vertex 13.25 10 0
      vertex 10 13.25 0
      vertex 15.5 15.5 0
    endloop
  endfacet
  facet normal -0 0 -1
    outer loop
      vertex 15.5 15.5 0
      vertex 10 13.25 0
      vertex 10 15.5 0
    endloop
  endfacet
  facet normal -0 0 -1
    outer loop
      vertex 11.659 6.15901 0
      vertex 9.25 3.87868 0
      vertex 11 7.75 0
    endloop
  endfacet
  facet normal 0 0 -1
    outer loop
      vertex 11.659 9.34099 0
      vertex 9.34099 11.659 0
      vertex 10 13.25 0
    endloop
  endfacet
  facet normal 0 0 -1
    outer loop
      vertex 9.25 11.6213 0
      vertex 11 7.75 0
      vertex 9.25 3.87868 0
    endloop
  endfacet
  facet normal 0 0 -1
    outer loop
      vertex 11 7.75 0
      vertex 9.25 11.6213 0
      vertex 9.34099 11.659 0
    endloop
  endfacet
  facet normal 0 -1 0
    outer loop
      vertex 10 0 4.5
      vertex 9.25 0 15
      vertex 9.25 0 4.5
    endloop
  endfacet
  facet normal 0 -1 0
    outer loop
      vertex 9.25 0 15
      vertex 10 0 4.5
      vertex 15.5 0 15
    endloop
  endfacet
  facet normal 0 -1 0
    outer loop
      vertex 15.5 0 0
      vertex 10 0 4.5
      vertex 10 0 0
    endloop
  endfacet
  facet normal 0 -1 0
    outer loop
      vertex 10 0 4.5
      vertex 15.5 0 0
      vertex 15.5 0 15
    endloop
  endfacet
  facet normal 0 -1 0
    outer loop
      vertex 0 0 15
      vertex 5.5 0 4.5
      vertex 6.25 0 15
    endloop
  endfacet
  facet normal 0 -1 0
    outer loop
      vertex 0 0 0
      vertex 5.5 0 4.5
      vertex 0 0 15
    endloop
  endfacet
  facet normal 0 -1 -0
    outer loop
      vertex 5.5 0 4.5
      vertex 0 0 0
      vertex 5.5 0 0
    endloop
  endfacet
  facet normal 0 -1 -0
    outer loop
      vertex 6.25 0 15
      vertex 5.5 0 4.5
      vertex 6.25 0 4.5
    endloop
  endfacet
  facet normal 0 1 0
    outer loop
      vertex 15.5 15.5 15
      vertex 10 15.5 4.5
      vertex 9.25 15.5 15
    endloop
  endfacet
  facet normal 0 1 -0
    outer loop
      vertex 15.5 15.5 0
      vertex 10 15.5 4.5
      vertex 15.5 15.5 15
    endloop
  endfacet
  facet normal 0 1 0
    outer loop
      vertex 10 15.5 4.5
      vertex 15.5 15.5 0
      vertex 10 15.5 0
    endloop
  endfacet
  facet normal 0 1 0
    outer loop
      vertex 9.25 15.5 15
      vertex 10 15.5 4.5
      vertex 9.25 15.5 4.5
    endloop
  endfacet
  facet normal 0 1 0
    outer loop
      vertex 5.5 15.5 4.5
      vertex 6.25 15.5 15
      vertex 6.25 15.5 4.5
    endloop
  endfacet
  facet normal 0 1 0
    outer loop
      vertex 6.25 15.5 15
      vertex 5.5 15.5 4.5
      vertex 0 15.5 15
    endloop
  endfacet
  facet normal 0 1 0
    outer loop
      vertex 0 15.5 0
      vertex 5.5 15.5 4.5
      vertex 5.5 15.5 0
    endloop
  endfacet
  facet normal 0 1 0
    outer loop
      vertex 5.5 15.5 4.5
      vertex 0 15.5 0
      vertex 0 15.5 15
    endloop
  endfacet
  facet normal -0.923879 -0.382684 0
    outer loop
      vertex 10 2.25 0
      vertex 9.34099 3.84099 0.659009
      vertex 9.34099 3.84099 0
    endloop
  endfacet
  facet normal -0.923879 -0.382684 0
    outer loop
      vertex 9.34099 3.84099 0.659009
      vertex 10 2.25 0
      vertex 10 2.25 2.25
    endloop
  endfacet
  facet normal -0.923879 -0.382684 0
    outer loop
      vertex 10 2.25 4.5
      vertex 9.34099 3.84099 15
      vertex 9.34099 3.84099 3.84099
    endloop
  endfacet
  facet normal -0.923879 -0.382684 -0
    outer loop
      vertex 10 2.25 4.5
      vertex 9.34099 3.84099 3.84099
      vertex 10 2.25 2.25
    endloop
  endfacet
  facet normal -0.92388 -0.382682 -2.23227e-07
    outer loop
      vertex 9.34099 3.84099 15
      vertex 10 2.25 4.5
      vertex 9.97524 2.30977 15
    endloop
  endfacet
  facet normal -0.923866 -0.382716 0
    outer loop
      vertex 9.97524 2.30977 15
      vertex 10 2.25 4.5
      vertex 10 2.25 15
    endloop
  endfacet
  facet normal 0.38269 -0.923877 0
    outer loop
      vertex 6.15901 3.84099 0
      vertex 6.25 3.87868 0.621319
      vertex 6.15901 3.84099 0.659009
    endloop
  endfacet
  facet normal 0.38269 -0.923877 0
    outer loop
      vertex 6.25 3.87868 0.621319
      vertex 6.15901 3.84099 0
      vertex 6.25 3.87868 0
    endloop
  endfacet
  facet normal 0.382684 -0.923879 0
    outer loop
      vertex 6.15901 3.84099 15
      vertex 7.75 4.5 4.5
      vertex 7.75 4.5 15
    endloop
  endfacet
  facet normal 0.382684 -0.923879 0
    outer loop
      vertex 7.75 4.5 4.5
      vertex 6.15901 3.84099 15
      vertex 6.15901 3.84099 3.84099
    endloop
  endfacet
  facet normal -0.38269 -0.923877 0
    outer loop
      vertex 9.34099 3.84099 0
      vertex 9.25 3.87868 0.62132
      vertex 9.25 3.87868 0
    endloop
  endfacet
  facet normal -0.38269 -0.923877 0
    outer loop
      vertex 9.25 3.87868 0.62132
      vertex 9.34099 3.84099 0
      vertex 9.34099 3.84099 0.659009
    endloop
  endfacet
  facet normal -0.382684 -0.923879 0
    outer loop
      vertex 7.75 4.5 4.5
      vertex 9.34099 3.84099 15
      vertex 7.75 4.5 15
    endloop
  endfacet
  facet normal -0.382684 -0.923879 -0
    outer loop
      vertex 9.34099 3.84099 15
      vertex 7.75 4.5 4.5
      vertex 9.34099 3.84099 3.84099
    endloop
  endfacet
  facet normal 0.923879 -0.382684 0
    outer loop
      vertex 5.5 2.25 0
      vertex 6.15901 3.84099 0.659009
      vertex 5.5 2.25 2.25
    endloop
  endfacet
  facet normal 0.923879 -0.382684 0
    outer loop
      vertex 6.15901 3.84099 0.659009
      vertex 5.5 2.25 0
      vertex 6.15901 3.84099 0
    endloop
  endfacet
  facet normal 0.923879 -0.382684 0
    outer loop
      vertex 5.5 2.25 4.5
      vertex 6.15901 3.84099 15
      vertex 5.5 2.25 15
    endloop
  endfacet
  facet normal 0.923879 -0.382684 0
    outer loop
      vertex 6.15901 3.84099 15
      vertex 5.5 2.25 4.5
      vertex 6.15901 3.84099 3.84099
    endloop
  endfacet
  facet normal 0.923879 -0.382684 0
    outer loop
      vertex 6.15901 3.84099 3.84099
      vertex 5.5 2.25 4.5
      vertex 5.5 2.25 2.25
    endloop
  endfacet
  facet normal -0.92388 0.382683 0
    outer loop
      vertex 9.34099 0.659009 4.5
      vertex 10 2.25 15
      vertex 10 2.25 4.5
    endloop
  endfacet
  facet normal -0.92388 0.382683 0
    outer loop
      vertex 10 2.25 15
      vertex 9.34099 0.659009 4.5
      vertex 9.34099 0.659009 15
    endloop
  endfacet
  facet normal 0.38269 0.923877 -0
    outer loop
      vertex 6.25 0.621319 4.5
      vertex 6.15901 0.659009 15
      vertex 6.25 0.621319 15
    endloop
  endfacet
  facet normal 0.38269 0.923877 0
    outer loop
      vertex 6.15901 0.659009 15
      vertex 6.25 0.621319 4.5
      vertex 6.15901 0.659009 4.5
    endloop
  endfacet
  facet normal 0.923858 0.382735 0
    outer loop
      vertex 5.52704 2.18473 15
      vertex 5.5 2.25 4.5
      vertex 5.5 2.25 15
    endloop
  endfacet
  facet normal 0.92388 0.382681 -3.92961e-07
    outer loop
      vertex 6.15901 0.659009 15
      vertex 5.5 2.25 4.5
      vertex 5.52704 2.18473 15
    endloop
  endfacet
  facet normal 0.92388 0.382683 0
    outer loop
      vertex 5.5 2.25 4.5
      vertex 6.15901 0.659009 15
      vertex 6.15901 0.659009 4.5
    endloop
  endfacet
  facet normal -0.382681 0.923881 0
    outer loop
      vertex 9.34099 0.659009 4.5
      vertex 9.25 0.62132 15
      vertex 9.34099 0.659009 15
    endloop
  endfacet
  facet normal -0.382681 0.923881 0
    outer loop
      vertex 9.25 0.62132 15
      vertex 9.34099 0.659009 4.5
      vertex 9.25 0.62132 4.5
    endloop
  endfacet
  facet normal -0.92388 -0.382682 0
    outer loop
      vertex 10 13.25 4.5
      vertex 9.34099 14.841 15
      vertex 9.34099 14.841 4.5
    endloop
  endfacet
  facet normal -0.92388 -0.382682 0
    outer loop
      vertex 9.34099 14.841 15
      vertex 10 13.25 4.5
      vertex 10 13.25 15
    endloop
  endfacet
  facet normal 0.382776 -0.923841 0
    outer loop
      vertex 6.15901 14.841 4.5
      vertex 6.25 14.8787 15
      vertex 6.15901 14.841 15
    endloop
  endfacet
  facet normal 0.382776 -0.923841 0
    outer loop
      vertex 6.25 14.8787 15
      vertex 6.15901 14.841 4.5
      vertex 6.25 14.8787 4.5
    endloop
  endfacet
  facet normal -0.382776 -0.923841 0
    outer loop
      vertex 9.25 14.8787 4.5
      vertex 9.34099 14.841 15
      vertex 9.25 14.8787 15
    endloop
  endfacet
  facet normal -0.382776 -0.923841 -0
    outer loop
      vertex 9.34099 14.841 15
      vertex 9.25 14.8787 4.5
      vertex 9.34099 14.841 4.5
    endloop
  endfacet
  facet normal 0.923879 -0.382686 0
    outer loop
      vertex 5.52704 13.3153 15
      vertex 6.15901 14.841 4.5
      vertex 6.15901 14.841 15
    endloop
  endfacet
  facet normal 0.92392 -0.382585 0
    outer loop
      vertex 5.5 13.25 4.5
      vertex 5.52704 13.3153 15
      vertex 5.5 13.25 15
    endloop
  endfacet
  facet normal 0.92388 -0.382682 7.03079e-07
    outer loop
      vertex 5.52704 13.3153 15
      vertex 5.5 13.25 4.5
      vertex 6.15901 14.841 4.5
    endloop
  endfacet
  facet normal -0.92388 0.382682 0
    outer loop
      vertex 9.34099 11.659 0.659009
      vertex 10 13.25 0
      vertex 9.34099 11.659 0
    endloop
  endfacet
  facet normal -0.92388 0.382682 0
    outer loop
      vertex 10 13.25 0
      vertex 9.34099 11.659 0.659009
      vertex 10 13.25 2.25
    endloop
  endfacet
  facet normal -0.92388 0.382682 0
    outer loop
      vertex 9.34099 11.659 3.84099
      vertex 10 13.25 4.5
      vertex 10 13.25 2.25
    endloop
  endfacet
  facet normal -0.92388 0.382682 0
    outer loop
      vertex 9.34099 11.659 15
      vertex 10 13.25 4.5
      vertex 9.34099 11.659 3.84099
    endloop
  endfacet
  facet normal -0.923934 0.382552 0
    outer loop
      vertex 10 13.25 4.5
      vertex 9.97524 13.1902 15
      vertex 10 13.25 15
    endloop
  endfacet
  facet normal -0.923878 0.382687 8.98617e-07
    outer loop
      vertex 10 13.25 4.5
      vertex 9.34099 11.659 15
      vertex 9.97524 13.1902 15
    endloop
  endfacet
  facet normal 0.382776 0.923841 0
    outer loop
      vertex 6.15901 11.659 0
      vertex 6.25 11.6213 0.621319
      vertex 6.25 11.6213 0
    endloop
  endfacet
  facet normal 0.382776 0.923841 0
    outer loop
      vertex 6.25 11.6213 0.621319
      vertex 6.15901 11.659 0
      vertex 6.15901 11.659 0.659009
    endloop
  endfacet
  facet normal 0.382679 0.923882 -0
    outer loop
      vertex 7.75 11 4.5
      vertex 6.15901 11.659 15
      vertex 7.75 11 15
    endloop
  endfacet
  facet normal 0.382679 0.923882 0
    outer loop
      vertex 6.15901 11.659 15
      vertex 7.75 11 4.5
      vertex 6.15901 11.659 3.84099
    endloop
  endfacet
  facet normal 0.92388 0.382682 0
    outer loop
      vertex 6.15901 11.659 0.659009
      vertex 5.5 13.25 0
      vertex 5.5 13.25 2.25
    endloop
  endfacet
  facet normal 0.92388 0.382682 0
    outer loop
      vertex 5.5 13.25 0
      vertex 6.15901 11.659 0.659009
      vertex 6.15901 11.659 0
    endloop
  endfacet
  facet normal 0.92388 0.382682 0
    outer loop
      vertex 6.15901 11.659 15
      vertex 5.5 13.25 4.5
      vertex 5.5 13.25 15
    endloop
  endfacet
  facet normal 0.92388 0.382682 0
    outer loop
      vertex 5.5 13.25 4.5
      vertex 6.15901 11.659 15
      vertex 6.15901 11.659 3.84099
    endloop
  endfacet
  facet normal 0.92388 0.382682 0
    outer loop
      vertex 5.5 13.25 4.5
      vertex 6.15901 11.659 3.84099
      vertex 5.5 13.25 2.25
    endloop
  endfacet
  facet normal -0.382679 0.923882 0
    outer loop
      vertex 9.34099 11.659 15
      vertex 7.75 11 4.5
      vertex 7.75 11 15
    endloop
  endfacet
  facet normal -0.382679 0.923882 0
    outer loop
      vertex 7.75 11 4.5
      vertex 9.34099 11.659 15
      vertex 9.34099 11.659 3.84099
    endloop
  endfacet
  facet normal -0.382776 0.923841 0
    outer loop
      vertex 9.34099 11.659 0
      vertex 9.25 11.6213 0.62132
      vertex 9.34099 11.659 0.659009
    endloop
  endfacet
  facet normal -0.382776 0.923841 0
    outer loop
      vertex 9.25 11.6213 0.62132
      vertex 9.34099 11.659 0
      vertex 9.25 11.6213 0
    endloop
  endfacet
  facet normal -0.923841 -0.382776 0
    outer loop
      vertex 14.8787 9.25 0
      vertex 14.841 9.34099 15
      vertex 14.841 9.34099 0
    endloop
  endfacet
  facet normal -0.923841 -0.382776 0
    outer loop
      vertex 14.841 9.34099 15
      vertex 14.8787 9.25 0
      vertex 14.8787 9.25 15
    endloop
  endfacet
  facet normal 0.382682 -0.92388 0
    outer loop
      vertex 11.659 9.34099 0
      vertex 13.25 10 15
      vertex 11.659 9.34099 15
    endloop
  endfacet
  facet normal 0.382682 -0.92388 0
    outer loop
      vertex 13.25 10 15
      vertex 11.659 9.34099 0
      vertex 13.25 10 0
    endloop
  endfacet
  facet normal -0.382863 -0.923805 0
    outer loop
      vertex 13.25 10 0
      vertex 13.2867 9.98479 15
      vertex 13.25 10 15
    endloop
  endfacet
  facet normal -0.382677 -0.923882 -5.32705e-07
    outer loop
      vertex 13.2867 9.98479 15
      vertex 13.25 10 0
      vertex 14.841 9.34099 15
    endloop
  endfacet
  facet normal -0.382682 -0.92388 -0
    outer loop
      vertex 14.841 9.34099 15
      vertex 13.25 10 0
      vertex 14.841 9.34099 0
    endloop
  endfacet
  facet normal 0.923882 -0.382679 0
    outer loop
      vertex 11 7.75 15
      vertex 11.659 9.34099 0
      vertex 11.659 9.34099 15
    endloop
  endfacet
  facet normal 0.923882 -0.382679 0
    outer loop
      vertex 11.659 9.34099 0
      vertex 11 7.75 15
      vertex 11 7.75 0
    endloop
  endfacet
  facet normal -0.923841 0.382776 0
    outer loop
      vertex 14.841 6.15901 0
      vertex 14.8787 6.25 15
      vertex 14.8787 6.25 0
    endloop
  endfacet
  facet normal -0.923841 0.382776 0
    outer loop
      vertex 14.8787 6.25 15
      vertex 14.841 6.15901 0
      vertex 14.841 6.15901 15
    endloop
  endfacet
  facet normal 0.382682 0.92388 -0
    outer loop
      vertex 13.25 5.5 0
      vertex 11.659 6.15901 15
      vertex 13.25 5.5 15
    endloop
  endfacet
  facet normal 0.382682 0.92388 0
    outer loop
      vertex 11.659 6.15901 15
      vertex 13.25 5.5 0
      vertex 11.659 6.15901 0
    endloop
  endfacet
  facet normal 0.923882 0.382679 0
    outer loop
      vertex 11.659 6.15901 15
      vertex 11 7.75 0
      vertex 11 7.75 15
    endloop
  endfacet
  facet normal 0.923882 0.382679 0
    outer loop
      vertex 11 7.75 0
      vertex 11.659 6.15901 15
      vertex 11.659 6.15901 0
    endloop
  endfacet
  facet normal -0.382677 0.923882 0
    outer loop
      vertex 14.841 6.15901 0
      vertex 13.2867 5.51521 15
      vertex 14.841 6.15901 15
    endloop
  endfacet
  facet normal -0.382682 0.92388 -5.20416e-07
    outer loop
      vertex 13.25 5.5 0
      vertex 13.2867 5.51521 15
      vertex 14.841 6.15901 0
    endloop
  endfacet
  facet normal -0.382863 0.923805 0
    outer loop
      vertex 13.2867 5.51521 15
      vertex 13.25 5.5 0
      vertex 13.25 5.5 15
    endloop
  endfacet
  facet normal -0.923879 -0.382684 0
    outer loop
      vertex 4.5 7.75 0
      vertex 3.84099 9.34099 15
      vertex 3.84099 9.34099 0
    endloop
  endfacet
  facet normal -0.923879 -0.382684 0
    outer loop
      vertex 3.84099 9.34099 15
      vertex 4.5 7.75 0
      vertex 4.5 7.75 15
    endloop
  endfacet
  facet normal 0.382681 -0.923881 0
    outer loop
      vertex 0.659009 9.34099 0
      vertex 2.21001 9.98343 15
      vertex 0.659009 9.34099 15
    endloop
  endfacet
  facet normal 0.382683 -0.92388 -3.4497e-07
    outer loop
      vertex 2.25 10 0
      vertex 2.21001 9.98343 15
      vertex 0.659009 9.34099 0
    endloop
  endfacet
  facet normal 0.382794 -0.923834 0
    outer loop
      vertex 2.21001 9.98343 15
      vertex 2.25 10 0
      vertex 2.25 10 15
    endloop
  endfacet
  facet normal -0.382684 -0.923879 0
    outer loop
      vertex 2.25 10 0
      vertex 3.84099 9.34099 15
      vertex 2.25 10 15
    endloop
  endfacet
  facet normal -0.382684 -0.923879 -0
    outer loop
      vertex 3.84099 9.34099 15
      vertex 2.25 10 0
      vertex 3.84099 9.34099 0
    endloop
  endfacet
  facet normal 0.923881 -0.382681 0
    outer loop
      vertex 0.62132 9.25 15
      vertex 0.659009 9.34099 0
      vertex 0.659009 9.34099 15
    endloop
  endfacet
  facet normal 0.923881 -0.382681 0
    outer loop
      vertex 0.659009 9.34099 0
      vertex 0.62132 9.25 15
      vertex 0.62132 9.25 0
    endloop
  endfacet
  facet normal -0.923879 0.382684 0
    outer loop
      vertex 3.84099 6.15901 0
      vertex 4.5 7.75 15
      vertex 4.5 7.75 0
    endloop
  endfacet
  facet normal -0.923879 0.382684 0
    outer loop
      vertex 4.5 7.75 15
      vertex 3.84099 6.15901 0
      vertex 3.84099 6.15901 15
    endloop
  endfacet
  facet normal 0.382597 0.923915 -0
    outer loop
      vertex 2.25 5.5 0
      vertex 2.21001 5.51656 15
      vertex 2.25 5.5 15
    endloop
  endfacet
  facet normal 0.382686 0.923879 2.77935e-07
    outer loop
      vertex 2.21001 5.51656 15
      vertex 2.25 5.5 0
      vertex 0.659009 6.15901 15
    endloop
  endfacet
  facet normal 0.382683 0.92388 0
    outer loop
      vertex 0.659009 6.15901 15
      vertex 2.25 5.5 0
      vertex 0.659009 6.15901 0
    endloop
  endfacet
  facet normal 0.923877 0.38269 0
    outer loop
      vertex 0.659009 6.15901 15
      vertex 0.621319 6.25 0
      vertex 0.621319 6.25 15
    endloop
  endfacet
  facet normal 0.923877 0.38269 0
    outer loop
      vertex 0.621319 6.25 0
      vertex 0.659009 6.15901 15
      vertex 0.659009 6.15901 0
    endloop
  endfacet
  facet normal -0.382684 0.923879 0
    outer loop
      vertex 3.84099 6.15901 0
      vertex 2.25 5.5 15
      vertex 3.84099 6.15901 15
    endloop
  endfacet
  facet normal -0.382684 0.923879 0
    outer loop
      vertex 2.25 5.5 15
      vertex 3.84099 6.15901 0
      vertex 2.25 5.5 0
    endloop
  endfacet
  facet normal 1 -0 0
    outer loop
      vertex 6.25 0 15
      vertex 6.25 0.621319 4.5
      vertex 6.25 0.621319 15
    endloop
  endfacet
  facet normal 1 0 0
    outer loop
      vertex 6.25 0.621319 4.5
      vertex 6.25 0 15
      vertex 6.25 0 4.5
    endloop
  endfacet
  facet normal -1 0 0
    outer loop
      vertex 9.25 0 4.5
      vertex 9.25 0.62132 15
      vertex 9.25 0.62132 4.5
    endloop
  endfacet
  facet normal -1 -0 0
    outer loop
      vertex 9.25 0.62132 15
      vertex 9.25 0 4.5
      vertex 9.25 0 15
    endloop
  endfacet
  facet normal 1 -0 0
    outer loop
      vertex 6.25 14.8787 15
      vertex 6.25 15.5 4.5
      vertex 6.25 15.5 15
    endloop
  endfacet
  facet normal 1 0 0
    outer loop
      vertex 6.25 15.5 4.5
      vertex 6.25 14.8787 15
      vertex 6.25 14.8787 4.5
    endloop
  endfacet
  facet normal -1 0 0
    outer loop
      vertex 9.25 14.8787 4.5
      vertex 9.25 15.5 15
      vertex 9.25 15.5 4.5
    endloop
  endfacet
  facet normal -1 -0 0
    outer loop
      vertex 9.25 15.5 15
      vertex 9.25 14.8787 4.5
      vertex 9.25 14.8787 15
    endloop
  endfacet
  facet normal 0 1 -0
    outer loop
      vertex 15.5 6.25 0
      vertex 14.8787 6.25 15
      vertex 15.5 6.25 15
    endloop
  endfacet
  facet normal 0 1 0
    outer loop
      vertex 14.8787 6.25 15
      vertex 15.5 6.25 0
      vertex 14.8787 6.25 0
    endloop
  endfacet
  facet normal 0 -1 0
    outer loop
      vertex 14.8787 9.25 0
      vertex 15.5 9.25 15
      vertex 14.8787 9.25 15
    endloop
  endfacet
  facet normal 0 -1 -0
    outer loop
      vertex 15.5 9.25 15
      vertex 14.8787 9.25 0
      vertex 15.5 9.25 0
    endloop
  endfacet
  facet normal 0 1 -0
    outer loop
      vertex 0.621319 6.25 0
      vertex 0 6.25 15
      vertex 0.621319 6.25 15
    endloop
  endfacet
  facet normal 0 1 0
    outer loop
      vertex 0 6.25 15
      vertex 0.621319 6.25 0
      vertex 0 6.25 0
    endloop
  endfacet
  facet normal 0 -1 0
    outer loop
      vertex 0 9.25 0
      vertex 0.62132 9.25 15
      vertex 0 9.25 15
    endloop
  endfacet
  facet normal 0 -1 -0
    outer loop
      vertex 0.62132 9.25 15
      vertex 0 9.25 0
      vertex 0.62132 9.25 0
    endloop
  endfacet
  facet normal -0.923879 0 -0.382684
    outer loop
      vertex 10 13.25 2.25
      vertex 9.34099 3.84099 3.84099
      vertex 9.34099 11.659 3.84099
    endloop
  endfacet
  facet normal -0.923879 0 -0.382684
    outer loop
      vertex 9.34099 3.84099 3.84099
      vertex 10 13.25 2.25
      vertex 10 2.25 2.25
    endloop
  endfacet
  facet normal -0.382684 0 -0.923879
    outer loop
      vertex 7.75 4.5 4.5
      vertex 9.34099 11.659 3.84099
      vertex 9.34099 3.84099 3.84099
    endloop
  endfacet
  facet normal -0.382684 0 -0.923879
    outer loop
      vertex 9.34099 11.659 3.84099
      vertex 7.75 4.5 4.5
      vertex 7.75 11 4.5
    endloop
  endfacet
  facet normal 0.382684 0 -0.923879
    outer loop
      vertex 6.15901 3.84099 3.84099
      vertex 7.75 11 4.5
      vertex 7.75 4.5 4.5
    endloop
  endfacet
  facet normal 0.382684 0 -0.923879
    outer loop
      vertex 7.75 11 4.5
      vertex 6.15901 3.84099 3.84099
      vertex 6.15901 11.659 3.84099
    endloop
  endfacet
  facet normal -0.92388 0 0.382683
    outer loop
      vertex 9.34099 3.84099 0.659009
      vertex 10 13.25 2.25
      vertex 9.34099 11.659 0.659009
    endloop
  endfacet
  facet normal -0.92388 0 0.382683
    outer loop
      vertex 10 13.25 2.25
      vertex 9.34099 3.84099 0.659009
      vertex 10 2.25 2.25
    endloop
  endfacet
  facet normal 0.38269 0 0.923877
    outer loop
      vertex 6.15901 11.659 0.659009
      vertex 6.25 3.87868 0.621319
      vertex 6.25 11.6213 0.621319
    endloop
  endfacet
  facet normal 0.38269 0 0.923877
    outer loop
      vertex 6.25 3.87868 0.621319
      vertex 6.15901 11.659 0.659009
      vertex 6.15901 3.84099 0.659009
    endloop
  endfacet
  facet normal 0.923879 0 -0.382684
    outer loop
      vertex 6.15901 3.84099 3.84099
      vertex 5.5 13.25 2.25
      vertex 6.15901 11.659 3.84099
    endloop
  endfacet
  facet normal 0.923879 0 -0.382684
    outer loop
      vertex 5.5 13.25 2.25
      vertex 6.15901 3.84099 3.84099
      vertex 5.5 2.25 2.25
    endloop
  endfacet
  facet normal 0.92388 0 0.382683
    outer loop
      vertex 5.5 13.25 2.25
      vertex 6.15901 3.84099 0.659009
      vertex 6.15901 11.659 0.659009
    endloop
  endfacet
  facet normal 0.92388 0 0.382683
    outer loop
      vertex 6.15901 3.84099 0.659009
      vertex 5.5 13.25 2.25
      vertex 5.5 2.25 2.25
    endloop
  endfacet
  facet normal -0.382681 0 0.923881
    outer loop
      vertex 9.25 11.6213 0.62132
      vertex 9.34099 3.84099 0.659009
      vertex 9.34099 11.659 0.659009
    endloop
  endfacet
  facet normal -0.382681 0 0.923881
    outer loop
      vertex 9.34099 3.84099 0.659009
      vertex 9.25 11.6213 0.62132
      vertex 9.25 3.87868 0.62132
    endloop
  endfacet
  facet normal 1 0 0
    outer loop
      vertex 5.5 13.25 2.25
      vertex 5.5 15.5 4.5
      vertex 5.5 13.25 4.5
    endloop
  endfacet
  facet normal 1 0 0
    outer loop
      vertex 5.5 15.5 4.5
      vertex 5.5 13.25 2.25
      vertex 5.5 15.5 0
    endloop
  endfacet
  facet normal 1 0 0
    outer loop
      vertex 5.5 15.5 0
      vertex 5.5 13.25 2.25
      vertex 5.5 13.25 0
    endloop
  endfacet
  facet normal 0 0 -1
    outer loop
      vertex 9.34099 14.841 4.5
      vertex 10 15.5 4.5
      vertex 10 13.25 4.5
    endloop
  endfacet
  facet normal 0 0 -1
    outer loop
      vertex 9.25 15.5 4.5
      vertex 9.34099 14.841 4.5
      vertex 9.25 14.8787 4.5
    endloop
  endfacet
  facet normal 0 0 -1
    outer loop
      vertex 9.34099 14.841 4.5
      vertex 9.25 15.5 4.5
      vertex 10 15.5 4.5
    endloop
  endfacet
  facet normal 0 0 -1
    outer loop
      vertex 6.15901 14.841 4.5
      vertex 6.25 15.5 4.5
      vertex 6.25 14.8787 4.5
    endloop
  endfacet
  facet normal 0 0 -1
    outer loop
      vertex 5.5 15.5 4.5
      vertex 6.15901 14.841 4.5
      vertex 5.5 13.25 4.5
    endloop
  endfacet
  facet normal 0 0 -1
    outer loop
      vertex 6.15901 14.841 4.5
      vertex 5.5 15.5 4.5
      vertex 6.25 15.5 4.5
    endloop
  endfacet
  facet normal -1 0 0
    outer loop
      vertex 10 13.25 2.25
      vertex 10 15.5 0
      vertex 10 13.25 0
    endloop
  endfacet
  facet normal -1 0 0
    outer loop
      vertex 10 15.5 0
      vertex 10 13.25 2.25
      vertex 10 15.5 4.5
    endloop
  endfacet
  facet normal -1 -0 0
    outer loop
      vertex 10 15.5 4.5
      vertex 10 13.25 2.25
      vertex 10 13.25 4.5
    endloop
  endfacet
  facet normal 1 -0 0
    outer loop
      vertex 5.5 0 4.5
      vertex 5.5 2.25 2.25
      vertex 5.5 2.25 4.5
    endloop
  endfacet
  facet normal 1 0 0
    outer loop
      vertex 5.5 0 0
      vertex 5.5 2.25 2.25
      vertex 5.5 0 4.5
    endloop
  endfacet
  facet normal 1 0 0
    outer loop
      vertex 5.5 2.25 2.25
      vertex 5.5 0 0
      vertex 5.5 2.25 0
    endloop
  endfacet
  facet normal 0 0 -1
    outer loop
      vertex 10 0 4.5
      vertex 9.34099 0.659009 4.5
      vertex 10 2.25 4.5
    endloop
  endfacet
  facet normal 0 0 -1
    outer loop
      vertex 9.25 0 4.5
      vertex 9.34099 0.659009 4.5
      vertex 10 0 4.5
    endloop
  endfacet
  facet normal 0 0 -1
    outer loop
      vertex 9.34099 0.659009 4.5
      vertex 9.25 0 4.5
      vertex 9.25 0.62132 4.5
    endloop
  endfacet
  facet normal 0 0 -1
    outer loop
      vertex 6.25 0 4.5
      vertex 6.15901 0.659009 4.5
      vertex 6.25 0.621319 4.5
    endloop
  endfacet
  facet normal 0 0 -1
    outer loop
      vertex 5.5 0 4.5
      vertex 6.15901 0.659009 4.5
      vertex 6.25 0 4.5
    endloop
  endfacet
  facet normal -0 0 -1
    outer loop
      vertex 6.15901 0.659009 4.5
      vertex 5.5 0 4.5
      vertex 5.5 2.25 4.5
    endloop
  endfacet
  facet normal -1 0 0
    outer loop
      vertex 10 0 0
      vertex 10 2.25 2.25
      vertex 10 2.25 0
    endloop
  endfacet
  facet normal -1 0 0
    outer loop
      vertex 10 0 4.5
      vertex 10 2.25 2.25
      vertex 10 0 0
    endloop
  endfacet
  facet normal -1 0 0
    outer loop
      vertex 10 2.25 2.25
      vertex 10 0 4.5
      vertex 10 2.25 4.5
    endloop
  endfacet
  facet normal -1 0 0
    outer loop
      vertex 9.25 3.87868 0
      vertex 9.25 11.6213 0.62132
      vertex 9.25 11.6213 0
    endloop
  endfacet
  facet normal -1 -0 0
    outer loop
      vertex 9.25 11.6213 0.62132
      vertex 9.25 3.87868 0
      vertex 9.25 3.87868 0.62132
    endloop
  endfacet
  facet normal 1 -0 0
    outer loop
      vertex 6.25 3.87868 0.621319
      vertex 6.25 11.6213 0
      vertex 6.25 11.6213 0.621319
    endloop
  endfacet
  facet normal 1 0 0
    outer loop
      vertex 6.25 11.6213 0
      vertex 6.25 3.87868 0.621319
      vertex 6.25 3.87868 0
    endloop
  endfacet
  facet normal -1 0 0
    outer loop
      vertex 1 1 15
      vertex 1 4.35481 45
      vertex 1 4.35481 15
    endloop
  endfacet
  facet normal -1 -0 0
    outer loop
      vertex 1 4.35481 45
      vertex 1 1 15
      vertex 1 1 45
    endloop
  endfacet
  facet normal -1 0 0
    outer loop
      vertex 1 11.1452 15
      vertex 1 14.5 45
      vertex 1 14.5 15
    endloop
  endfacet
  facet normal -1 -0 0
    outer loop
      vertex 1 14.5 45
      vertex 1 11.1452 15
      vertex 1 11.1452 45
    endloop
  endfacet
  facet normal -0 0 1
    outer loop
      vertex 11.1668 14.5 45
      vertex 14.5 11.0886 45
      vertex 14.5 14.5 45
    endloop
  endfacet
  facet normal 0 0 1
    outer loop
      vertex 14.5 11.0886 45
      vertex 11.1668 14.5 45
      vertex 13.506 10.4025 45
    endloop
  endfacet
  facet normal 0 0 1
    outer loop
      vertex 13.506 10.4025 45
      vertex 10.0223 13.2081 45
      vertex 12.6162 8.70726 45
    endloop
  endfacet
  facet normal -0 0 1
    outer loop
      vertex 10.0223 13.2081 45
      vertex 13.506 10.4025 45
      vertex 11.1668 14.5 45
    endloop
  endfacet
  facet normal 0 0 1
    outer loop
      vertex 11.1668 1 45
      vertex 14.5 4.41137 45
      vertex 13.506 5.09751 45
    endloop
  endfacet
  facet normal 0 0 1
    outer loop
      vertex 10.0223 2.29193 45
      vertex 13.506 5.09751 45
      vertex 12.6162 6.79274 45
    endloop
  endfacet
  facet normal 0 0 1
    outer loop
      vertex 14.5 4.41137 45
      vertex 11.1668 1 45
      vertex 14.5 1 45
    endloop
  endfacet
  facet normal -0 0 1
    outer loop
      vertex 8.23215 12.5292 45
      vertex 12.6162 8.70726 45
      vertex 10.0223 13.2081 45
    endloop
  endfacet
  facet normal 0 0 1
    outer loop
      vertex 12.6162 8.70726 45
      vertex 8.23215 12.5292 45
      vertex 12.6162 6.79274 45
    endloop
  endfacet
  facet normal 0 0 1
    outer loop
      vertex 13.506 5.09751 45
      vertex 10.0223 2.29193 45
      vertex 11.1668 1 45
    endloop
  endfacet
  facet normal 0 0 1
    outer loop
      vertex 8.23215 2.97083 45
      vertex 12.6162 6.79274 45
      vertex 8.23215 12.5292 45
    endloop
  endfacet
  facet normal 0 0 1
    outer loop
      vertex 12.6162 6.79274 45
      vertex 8.23215 2.97083 45
      vertex 10.0223 2.29193 45
    endloop
  endfacet
  facet normal 0 0 1
    outer loop
      vertex 3 7.75 45
      vertex 8.23215 12.5292 45
      vertex 6.33158 12.7599 45
    endloop
  endfacet
  facet normal 0 0 1
    outer loop
      vertex 8.23215 12.5292 45
      vertex 3 7.75 45
      vertex 8.23215 2.97083 45
    endloop
  endfacet
  facet normal 0 0 1
    outer loop
      vertex 2.54182 9.60889 45
      vertex 6.33158 12.7599 45
      vertex 4.75596 13.8475 45
    endloop
  endfacet
  facet normal 0 0 1
    outer loop
      vertex 8.23215 2.97083 45
      vertex 3 7.75 45
      vertex 6.33158 2.74006 45
    endloop
  endfacet
  facet normal -0 0 1
    outer loop
      vertex 1 14.5 45
      vertex 4.75596 13.8475 45
      vertex 4.4135 14.5 45
    endloop
  endfacet
  facet normal -0 0 1
    outer loop
      vertex 2.54182 5.89111 45
      vertex 6.33158 2.74006 45
      vertex 3 7.75 45
    endloop
  endfacet
  facet normal 0 0 1
    outer loop
      vertex 6.33158 2.74006 45
      vertex 2.54182 5.89111 45
      vertex 4.75596 1.65249 45
    endloop
  endfacet
  facet normal 0 0 1
    outer loop
      vertex 6.33158 12.7599 45
      vertex 2.54182 9.60889 45
      vertex 3 7.75 45
    endloop
  endfacet
  facet normal 0 0 1
    outer loop
      vertex 4.75596 13.8475 45
      vertex 1.27226 11.0419 45
      vertex 2.54182 9.60889 45
    endloop
  endfacet
  facet normal 0 0 1
    outer loop
      vertex 4.75596 13.8475 45
      vertex 1 14.5 45
      vertex 1.27226 11.0419 45
    endloop
  endfacet
  facet normal 0 0 1
    outer loop
      vertex 1.27226 11.0419 45
      vertex 1 14.5 45
      vertex 1 11.1452 45
    endloop
  endfacet
  facet normal -0 0 1
    outer loop
      vertex 1.27226 4.45806 45
      vertex 4.75596 1.65249 45
      vertex 2.54182 5.89111 45
    endloop
  endfacet
  facet normal 0 0 1
    outer loop
      vertex 1 1 45
      vertex 4.75596 1.65249 45
      vertex 1.27226 4.45806 45
    endloop
  endfacet
  facet normal 0 0 1
    outer loop
      vertex 1 1 45
      vertex 1.27226 4.45806 45
      vertex 1 4.35481 45
    endloop
  endfacet
  facet normal 0 0 1
    outer loop
      vertex 4.75596 1.65249 45
      vertex 1 1 45
      vertex 4.4135 1 45
    endloop
  endfacet
  facet normal 1 -0 0
    outer loop
      vertex 14.5 1 45
      vertex 14.5 4.41137 15
      vertex 14.5 4.41137 45
    endloop
  endfacet
  facet normal 1 0 0
    outer loop
      vertex 14.5 4.41137 15
      vertex 14.5 1 45
      vertex 14.5 1 15
    endloop
  endfacet
  facet normal 1 -0 0
    outer loop
      vertex 14.5 11.0886 45
      vertex 14.5 14.5 15
      vertex 14.5 14.5 45
    endloop
  endfacet
  facet normal 1 0 0
    outer loop
      vertex 14.5 14.5 15
      vertex 14.5 11.0886 45
      vertex 14.5 11.0886 15
    endloop
  endfacet
  facet normal 0 -1 0
    outer loop
      vertex 11.1668 1 15
      vertex 14.5 1 45
      vertex 11.1668 1 45
    endloop
  endfacet
  facet normal 0 -1 -0
    outer loop
      vertex 14.5 1 45
      vertex 11.1668 1 15
      vertex 14.5 1 15
    endloop
  endfacet
  facet normal 0 -1 0
    outer loop
      vertex 1 1 15
      vertex 4.4135 1 45
      vertex 1 1 45
    endloop
  endfacet
  facet normal 0 -1 -0
    outer loop
      vertex 4.4135 1 45
      vertex 1 1 15
      vertex 4.4135 1 15
    endloop
  endfacet
  facet normal 0 1 -0
    outer loop
      vertex 14.5 14.5 15
      vertex 11.1668 14.5 45
      vertex 14.5 14.5 45
    endloop
  endfacet
  facet normal 0 1 0
    outer loop
      vertex 11.1668 14.5 45
      vertex 14.5 14.5 15
      vertex 11.1668 14.5 15
    endloop
  endfacet
  facet normal 0 1 -0
    outer loop
      vertex 4.4135 14.5 15
      vertex 1 14.5 45
      vertex 4.4135 14.5 45
    endloop
  endfacet
  facet normal 0 1 0
    outer loop
      vertex 1 14.5 45
      vertex 4.4135 14.5 15
      vertex 1 14.5 15
    endloop
  endfacet
  facet normal 0.120536 -0.992709 0
    outer loop
      vertex 6.33158 2.74006 15
      vertex 8.23215 2.97083 45
      vertex 6.33158 2.74006 45
    endloop
  endfacet
  facet normal 0.120536 -0.992709 0
    outer loop
      vertex 8.23215 2.97083 45
      vertex 6.33158 2.74006 15
      vertex 8.23215 2.97083 15
    endloop
  endfacet
  facet normal -0.748525 -0.663106 0
    outer loop
      vertex 11.1668 1 15
      vertex 10.0223 2.29193 45
      vertex 10.0223 2.29193 15
    endloop
  endfacet
  facet normal -0.748525 -0.663106 0
    outer loop
      vertex 10.0223 2.29193 45
      vertex 11.1668 1 15
      vertex 11.1668 1 45
    endloop
  endfacet
  facet normal -0.354598 -0.935019 0
    outer loop
      vertex 8.23215 2.97083 15
      vertex 10.0223 2.29193 45
      vertex 8.23215 2.97083 45
    endloop
  endfacet
  facet normal -0.354602 -0.935017 2.28119e-07
    outer loop
      vertex 9.97524 2.30977 15
      vertex 10.0223 2.29193 45
      vertex 8.23215 2.97083 15
    endloop
  endfacet
  facet normal -0.354475 -0.935066 -0
    outer loop
      vertex 10.0223 2.29193 45
      vertex 9.97524 2.30977 15
      vertex 10.0223 2.29193 15
    endloop
  endfacet
  facet normal 0.568066 -0.822983 0
    outer loop
      vertex 5.52704 2.18473 15
      vertex 4.75596 1.65249 45
      vertex 4.75596 1.65249 15
    endloop
  endfacet
  facet normal 0.568064 -0.822984 -7.85784e-08
    outer loop
      vertex 4.75596 1.65249 45
      vertex 5.52704 2.18473 15
      vertex 6.33158 2.74006 45
    endloop
  endfacet
  facet normal 0.568062 -0.822986 0
    outer loop
      vertex 6.33158 2.74006 45
      vertex 5.52704 2.18473 15
      vertex 6.33158 2.74006 15
    endloop
  endfacet
  facet normal 0.885452 -0.46473 0
    outer loop
      vertex 4.4135 1 45
      vertex 4.75596 1.65249 15
      vertex 4.75596 1.65249 45
    endloop
  endfacet
  facet normal 0.885452 -0.46473 0
    outer loop
      vertex 4.75596 1.65249 15
      vertex 4.4135 1 45
      vertex 4.4135 1 15
    endloop
  endfacet
  facet normal 0.885455 0.464725 0
    outer loop
      vertex 4.75596 13.8475 45
      vertex 4.4135 14.5 15
      vertex 4.4135 14.5 45
    endloop
  endfacet
  facet normal 0.885455 0.464725 0
    outer loop
      vertex 4.4135 14.5 15
      vertex 4.75596 13.8475 45
      vertex 4.75596 13.8475 15
    endloop
  endfacet
  facet normal -0.748518 0.663115 0
    outer loop
      vertex 10.0223 13.2081 15
      vertex 11.1668 14.5 45
      vertex 11.1668 14.5 15
    endloop
  endfacet
  facet normal -0.748518 0.663115 0
    outer loop
      vertex 11.1668 14.5 45
      vertex 10.0223 13.2081 15
      vertex 10.0223 13.2081 45
    endloop
  endfacet
  facet normal 0.568111 0.822952 0
    outer loop
      vertex 5.52704 13.3153 15
      vertex 6.33158 12.7599 45
      vertex 6.33158 12.7599 15
    endloop
  endfacet
  facet normal 0.568075 0.822977 1.42148e-06
    outer loop
      vertex 6.33158 12.7599 45
      vertex 5.52704 13.3153 15
      vertex 4.75596 13.8475 45
    endloop
  endfacet
  facet normal 0.568037 0.823003 0
    outer loop
      vertex 4.75596 13.8475 45
      vertex 5.52704 13.3153 15
      vertex 4.75596 13.8475 15
    endloop
  endfacet
  facet normal -0.355516 0.93467 0
    outer loop
      vertex 9.97524 13.1902 15
      vertex 10.0223 13.2081 45
      vertex 10.0223 13.2081 15
    endloop
  endfacet
  facet normal -0.354598 0.935019 -1.64792e-06
    outer loop
      vertex 10.0223 13.2081 45
      vertex 9.97524 13.1902 15
      vertex 8.23215 12.5292 45
    endloop
  endfacet
  facet normal -0.354574 0.935028 0
    outer loop
      vertex 8.23215 12.5292 45
      vertex 9.97524 13.1902 15
      vertex 8.23215 12.5292 15
    endloop
  endfacet
  facet normal 0.1205 0.992713 -0
    outer loop
      vertex 8.23215 12.5292 15
      vertex 6.33158 12.7599 45
      vertex 8.23215 12.5292 45
    endloop
  endfacet
  facet normal 0.1205 0.992713 0
    outer loop
      vertex 6.33158 12.7599 45
      vertex 8.23215 12.5292 15
      vertex 6.33158 12.7599 15
    endloop
  endfacet
  facet normal 1 -0 0
    outer loop
      vertex 12.6162 6.79274 45
      vertex 12.6162 8.70726 15
      vertex 12.6162 8.70726 45
    endloop
  endfacet
  facet normal 1 0 0
    outer loop
      vertex 12.6162 8.70726 15
      vertex 12.6162 6.79274 45
      vertex 12.6162 6.79274 15
    endloop
  endfacet
  facet normal 0.56806 -0.822987 0
    outer loop
      vertex 13.506 10.4025 15
      vertex 14.5 11.0886 45
      vertex 13.506 10.4025 45
    endloop
  endfacet
  facet normal 0.56806 -0.822987 0
    outer loop
      vertex 14.5 11.0886 45
      vertex 13.506 10.4025 15
      vertex 14.5 11.0886 15
    endloop
  endfacet
  facet normal 0.885456 0.464723 0
    outer loop
      vertex 12.6162 6.79274 45
      vertex 13.2867 5.51521 15
      vertex 12.6162 6.79274 15
    endloop
  endfacet
  facet normal 0.88544 0.464754 -1.64492e-06
    outer loop
      vertex 13.506 5.09751 45
      vertex 13.2867 5.51521 15
      vertex 12.6162 6.79274 45
    endloop
  endfacet
  facet normal 0.885391 0.464846 0
    outer loop
      vertex 13.2867 5.51521 15
      vertex 13.506 5.09751 45
      vertex 13.506 5.09751 15
    endloop
  endfacet
  facet normal 0.885396 -0.464838 0
    outer loop
      vertex 13.506 10.4025 45
      vertex 13.2867 9.98479 15
      vertex 13.506 10.4025 15
    endloop
  endfacet
  facet normal 0.885441 -0.464752 -1.52818e-06
    outer loop
      vertex 12.6162 8.70726 45
      vertex 13.2867 9.98479 15
      vertex 13.506 10.4025 45
    endloop
  endfacet
  facet normal 0.885456 -0.464723 0
    outer loop
      vertex 13.2867 9.98479 15
      vertex 12.6162 8.70726 45
      vertex 12.6162 8.70726 15
    endloop
  endfacet
  facet normal 0.568082 0.822972 -0
    outer loop
      vertex 14.5 4.41137 15
      vertex 13.506 5.09751 45
      vertex 14.5 4.41137 45
    endloop
  endfacet
  facet normal 0.568082 0.822972 0
    outer loop
      vertex 13.506 5.09751 45
      vertex 14.5 4.41137 15
      vertex 13.506 5.09751 15
    endloop
  endfacet
  facet normal -0.970941 -0.239318 0
    outer loop
      vertex 3 7.75 15
      vertex 2.54182 9.60889 45
      vertex 2.54182 9.60889 15
    endloop
  endfacet
  facet normal -0.970941 -0.239318 0
    outer loop
      vertex 2.54182 9.60889 45
      vertex 3 7.75 15
      vertex 3 7.75 45
    endloop
  endfacet
  facet normal -0.748501 -0.663134 0
    outer loop
      vertex 2.21001 9.98343 15
      vertex 1.27226 11.0419 45
      vertex 1.27226 11.0419 15
    endloop
  endfacet
  facet normal -0.748514 -0.663119 -0
    outer loop
      vertex 2.54182 9.60889 45
      vertex 2.21001 9.98343 15
      vertex 2.54182 9.60889 15
    endloop
  endfacet
  facet normal -0.748505 -0.66313 -2.42958e-07
    outer loop
      vertex 2.21001 9.98343 15
      vertex 2.54182 9.60889 45
      vertex 1.27226 11.0419 45
    endloop
  endfacet
  facet normal -0.970941 0.239318 0
    outer loop
      vertex 2.54182 5.89111 15
      vertex 3 7.75 45
      vertex 3 7.75 15
    endloop
  endfacet
  facet normal -0.970941 0.239318 0
    outer loop
      vertex 3 7.75 45
      vertex 2.54182 5.89111 15
      vertex 2.54182 5.89111 45
    endloop
  endfacet
  facet normal -0.354741 -0.934965 0
    outer loop
      vertex 1 11.1452 15
      vertex 1.27226 11.0419 45
      vertex 1 11.1452 45
    endloop
  endfacet
  facet normal -0.354741 -0.934965 -0
    outer loop
      vertex 1.27226 11.0419 45
      vertex 1 11.1452 15
      vertex 1.27226 11.0419 15
    endloop
  endfacet
  facet normal -0.748523 0.663109 0
    outer loop
      vertex 2.21001 5.51656 15
      vertex 2.54182 5.89111 45
      vertex 2.54182 5.89111 15
    endloop
  endfacet
  facet normal -0.74851 0.663123 0
    outer loop
      vertex 1.27226 4.45806 45
      vertex 2.21001 5.51656 15
      vertex 1.27226 4.45806 15
    endloop
  endfacet
  facet normal -0.748514 0.663119 -2.32912e-07
    outer loop
      vertex 2.21001 5.51656 15
      vertex 1.27226 4.45806 45
      vertex 2.54182 5.89111 45
    endloop
  endfacet
  facet normal -0.354591 0.935021 0
    outer loop
      vertex 1.27226 4.45806 15
      vertex 1 4.35481 45
      vertex 1.27226 4.45806 45
    endloop
  endfacet
  facet normal -0.354591 0.935021 0
    outer loop
      vertex 1 4.35481 45
      vertex 1.27226 4.45806 15
      vertex 1 4.35481 15
    endloop
  endfacet
endsolid OpenSCAD_Model
