solid OpenSCAD_Model
  facet normal -1 0 0
    outer loop
      vertex 0 0 0
      vertex 0 6.5 30
      vertex 0 6.5 0
    endloop
  endfacet
  facet normal -1 -0 0
    outer loop
      vertex 0 6.5 30
      vertex 0 0 0
      vertex 0 0 30
    endloop
  endfacet
  facet normal -1 0 0
    outer loop
      vertex 0 9.5 0
      vertex 0 16 30
      vertex 0 16 0
    endloop
  endfacet
  facet normal -1 -0 0
    outer loop
      vertex 0 16 30
      vertex 0 9.5 0
      vertex 0 9.5 30
    endloop
  endfacet
  facet normal 0 0 1
    outer loop
      vertex 2.4 5.6 30
      vertex 2.54182 5.64111 30
      vertex 2.54667 5.66075 30
    endloop
  endfacet
  facet normal -0 0 1
    outer loop
      vertex 2.4 5.6 30
      vertex 1.27226 4.20806 30
      vertex 2.54182 5.64111 30
    endloop
  endfacet
  facet normal 0 0 1
    outer loop
      vertex 0.702943 6.30294 30
      vertex 1.27226 4.20806 30
      vertex 2.4 5.6 30
    endloop
  endfacet
  facet normal 0 0 1
    outer loop
      vertex 0 6.5 30
      vertex 1 4.10481 30
      vertex 0.702943 6.30294 30
    endloop
  endfacet
  facet normal 0 0 1
    outer loop
      vertex 1.27226 4.20806 30
      vertex 0.702943 6.30294 30
      vertex 1 4.10481 30
    endloop
  endfacet
  facet normal 0 0 1
    outer loop
      vertex 5.60444 2.41072 30
      vertex 4.50596 1.65249 30
      vertex 5.6 2.4 30
    endloop
  endfacet
  facet normal 0 0 1
    outer loop
      vertex 6.30294 0.702943 30
      vertex 6.5 0 30
      vertex 6.5 0.621319 30
    endloop
  endfacet
  facet normal -0 0 1
    outer loop
      vertex 4.50596 1.65249 30
      vertex 6.30294 0.702943 30
      vertex 5.6 2.4 30
    endloop
  endfacet
  facet normal -0 0 1
    outer loop
      vertex 4.1635 1 30
      vertex 6.30294 0.702943 30
      vertex 4.50596 1.65249 30
    endloop
  endfacet
  facet normal 0 0 1
    outer loop
      vertex 6.30294 0.702943 30
      vertex 4.1635 1 30
      vertex 6.5 0 30
    endloop
  endfacet
  facet normal 0 0 1
    outer loop
      vertex 0 0 30
      vertex 4.1635 1 30
      vertex 1 1 30
    endloop
  endfacet
  facet normal -0 0 1
    outer loop
      vertex 0 6.5 30
      vertex 0.702943 6.30294 30
      vertex 0.621319 6.5 30
    endloop
  endfacet
  facet normal 0 0 1
    outer loop
      vertex 0 0 30
      vertex 1 4.10481 30
      vertex 0 6.5 30
    endloop
  endfacet
  facet normal 0 0 1
    outer loop
      vertex 4.1635 1 30
      vertex 0 0 30
      vertex 6.5 0 30
    endloop
  endfacet
  facet normal 0 0 1
    outer loop
      vertex 1 4.10481 30
      vertex 0 0 30
      vertex 1 1 30
    endloop
  endfacet
  facet normal -0 0 1
    outer loop
      vertex 14 14 30
      vertex 16 9.5 30
      vertex 16 16 30
    endloop
  endfacet
  facet normal 0 0 1
    outer loop
      vertex 16 9.5 30
      vertex 15.2971 9.69706 30
      vertex 15.3787 9.5 30
    endloop
  endfacet
  facet normal -0 0 1
    outer loop
      vertex 14 10.8386 30
      vertex 16 9.5 30
      vertex 14 14 30
    endloop
  endfacet
  facet normal -0 0 1
    outer loop
      vertex 9.5 16 30
      vertex 14 14 30
      vertex 16 16 30
    endloop
  endfacet
  facet normal 0 0 1
    outer loop
      vertex 10.9168 14 30
      vertex 9.69706 15.2971 30
      vertex 10.4 13.6 30
    endloop
  endfacet
  facet normal 0 0 1
    outer loop
      vertex 14 14 30
      vertex 9.5 16 30
      vertex 10.9168 14 30
    endloop
  endfacet
  facet normal 0 0 1
    outer loop
      vertex 10.9168 14 30
      vertex 9.5 16 30
      vertex 9.69706 15.2971 30
    endloop
  endfacet
  facet normal 0 0 1
    outer loop
      vertex 9.69706 15.2971 30
      vertex 9.5 16 30
      vertex 9.5 15.3787 30
    endloop
  endfacet
  facet normal 0 0 1
    outer loop
      vertex 16 9.5 30
      vertex 14 10.8386 30
      vertex 15.2971 9.69706 30
    endloop
  endfacet
  facet normal 0 0 1
    outer loop
      vertex 14 10.8386 30
      vertex 13.6 10.4 30
      vertex 15.2971 9.69706 30
    endloop
  endfacet
  facet normal 0 -0 1
    outer loop
      vertex 13.6 10.4 30
      vertex 14 10.8386 30
      vertex 13.0112 10.1561 30
    endloop
  endfacet
  facet normal 0 0 1
    outer loop
      vertex 10.9168 14 30
      vertex 10.4 13.6 30
      vertex 10.2574 13.2556 30
    endloop
  endfacet
  facet normal 0 0 1
    outer loop
      vertex 6.5 16 30
      vertex 6.30294 15.2971 30
      vertex 6.5 15.3787 30
    endloop
  endfacet
  facet normal 0 0 1
    outer loop
      vertex 4.1635 14 30
      vertex 6.30294 15.2971 30
      vertex 6.5 16 30
    endloop
  endfacet
  facet normal 0 0 1
    outer loop
      vertex 6.30294 15.2971 30
      vertex 4.1635 14 30
      vertex 5.6 13.6 30
    endloop
  endfacet
  facet normal 0 0 1
    outer loop
      vertex 5.6 13.6 30
      vertex 4.1635 14 30
      vertex 4.50596 13.3475 30
    endloop
  endfacet
  facet normal -0 0 1
    outer loop
      vertex 0 16 30
      vertex 4.1635 14 30
      vertex 6.5 16 30
    endloop
  endfacet
  facet normal 0 0 1
    outer loop
      vertex 0 9.5 30
      vertex 1 10.8952 30
      vertex 1 14 30
    endloop
  endfacet
  facet normal 0 0 1
    outer loop
      vertex 1 10.8952 30
      vertex 0 9.5 30
      vertex 0.702943 9.69706 30
    endloop
  endfacet
  facet normal 0 0 1
    outer loop
      vertex 4.1635 14 30
      vertex 0 16 30
      vertex 1 14 30
    endloop
  endfacet
  facet normal 0 0 1
    outer loop
      vertex 0 9.5 30
      vertex 1 14 30
      vertex 0 16 30
    endloop
  endfacet
  facet normal 0 0 1
    outer loop
      vertex 0.702943 9.69706 30
      vertex 0 9.5 30
      vertex 0.62132 9.5 30
    endloop
  endfacet
  facet normal 0 0 1
    outer loop
      vertex 5.6 13.6 30
      vertex 6.08158 12.2599 30
      vertex 6.15896 12.2505 30
    endloop
  endfacet
  facet normal 0 0 1
    outer loop
      vertex 6.08158 12.2599 30
      vertex 5.6 13.6 30
      vertex 4.50596 13.3475 30
    endloop
  endfacet
  facet normal 0 0 1
    outer loop
      vertex 0.702943 9.69706 30
      vertex 1.27226 10.7919 30
      vertex 1 10.8952 30
    endloop
  endfacet
  facet normal 0 0 1
    outer loop
      vertex 1.27226 10.7919 30
      vertex 0.702943 9.69706 30
      vertex 1.82901 10.1635 30
    endloop
  endfacet
  facet normal -0 0 1
    outer loop
      vertex 13.6 5.6 30
      vertex 14 4.16137 30
      vertex 15.2971 6.30294 30
    endloop
  endfacet
  facet normal 0 0 1
    outer loop
      vertex 13.6 5.6 30
      vertex 13.006 4.84751 30
      vertex 14 4.16137 30
    endloop
  endfacet
  facet normal 0 -0 1
    outer loop
      vertex 13.006 4.84751 30
      vertex 13.6 5.6 30
      vertex 12.3363 6.12344 30
    endloop
  endfacet
  facet normal 0 0 1
    outer loop
      vertex 15.2971 6.30294 30
      vertex 16 6.5 30
      vertex 15.3787 6.5 30
    endloop
  endfacet
  facet normal 0 0 1
    outer loop
      vertex 14 4.16137 30
      vertex 16 6.5 30
      vertex 15.2971 6.30294 30
    endloop
  endfacet
  facet normal 0 0 1
    outer loop
      vertex 16 6.5 30
      vertex 14 4.16137 30
      vertex 16 0 30
    endloop
  endfacet
  facet normal -0 0 1
    outer loop
      vertex 14 1 30
      vertex 16 0 30
      vertex 14 4.16137 30
    endloop
  endfacet
  facet normal 0 0 1
    outer loop
      vertex 9.5 0 30
      vertex 14 1 30
      vertex 10.9168 1 30
    endloop
  endfacet
  facet normal 0 0 1
    outer loop
      vertex 9.69706 0.702943 30
      vertex 10.9168 1 30
      vertex 10.1695 1.84354 30
    endloop
  endfacet
  facet normal 0 0 1
    outer loop
      vertex 9.5 0 30
      vertex 10.9168 1 30
      vertex 9.69706 0.702943 30
    endloop
  endfacet
  facet normal 0 0 1
    outer loop
      vertex 9.5 0 30
      vertex 9.69706 0.702943 30
      vertex 9.5 0.62132 30
    endloop
  endfacet
  facet normal 0 0 1
    outer loop
      vertex 14 1 30
      vertex 9.5 0 30
      vertex 16 0 30
    endloop
  endfacet
  facet normal 0 0 -1
    outer loop
      vertex 9.77226 2.29193 30
      vertex 10.4 2.4 30
      vertex 10.1695 1.84354 30
    endloop
  endfacet
  facet normal 0 0 -1
    outer loop
      vertex 9.77226 2.29193 30
      vertex 9.69706 4.09706 30
      vertex 10.4 2.4 30
    endloop
  endfacet
  facet normal 0 0 -1
    outer loop
      vertex 7.98215 2.97083 30
      vertex 9.69706 4.09706 30
      vertex 9.77226 2.29193 30
    endloop
  endfacet
  facet normal -0 0 -1
    outer loop
      vertex 9.69706 4.09706 30
      vertex 7.98215 2.97083 30
      vertex 8 4.8 30
    endloop
  endfacet
  facet normal 0 0 -1
    outer loop
      vertex 7.98215 2.97083 30
      vertex 6.30294 4.09706 30
      vertex 8 4.8 30
    endloop
  endfacet
  facet normal 0 0 -1
    outer loop
      vertex 6.08158 2.74006 30
      vertex 6.30294 4.09706 30
      vertex 7.98215 2.97083 30
    endloop
  endfacet
  facet normal 0 0 -1
    outer loop
      vertex 6.30294 4.09706 30
      vertex 6.08158 2.74006 30
      vertex 5.60444 2.41072 30
    endloop
  endfacet
  facet normal 0 0 -1
    outer loop
      vertex 9.69706 11.9029 30
      vertex 9.77226 12.7081 30
      vertex 10.2574 13.2556 30
    endloop
  endfacet
  facet normal 0 0 -1
    outer loop
      vertex 7.98215 12.0292 30
      vertex 9.69706 11.9029 30
      vertex 8 11.2 30
    endloop
  endfacet
  facet normal 0 0 -1
    outer loop
      vertex 9.69706 11.9029 30
      vertex 7.98215 12.0292 30
      vertex 9.77226 12.7081 30
    endloop
  endfacet
  facet normal 0 0 -1
    outer loop
      vertex 6.30294 11.9029 30
      vertex 7.98215 12.0292 30
      vertex 8 11.2 30
    endloop
  endfacet
  facet normal -0 0 -1
    outer loop
      vertex 7.98215 12.0292 30
      vertex 6.30294 11.9029 30
      vertex 6.15896 12.2505 30
    endloop
  endfacet
  facet normal 0 0 -1
    outer loop
      vertex 11.2 8 30
      vertex 12.1162 6.54274 30
      vertex 11.9029 6.30294 30
    endloop
  endfacet
  facet normal 0 0 -1
    outer loop
      vertex 11.9029 6.30294 30
      vertex 12.1162 6.54274 30
      vertex 12.3363 6.12344 30
    endloop
  endfacet
  facet normal -0 0 -1
    outer loop
      vertex 13.006 10.1525 30
      vertex 11.9029 9.69706 30
      vertex 13.0112 10.1561 30
    endloop
  endfacet
  facet normal 0 0 -1
    outer loop
      vertex 12.1162 8.45726 30
      vertex 11.9029 9.69706 30
      vertex 13.006 10.1525 30
    endloop
  endfacet
  facet normal 0 0 -1
    outer loop
      vertex 12.1162 6.54274 30
      vertex 11.2 8 30
      vertex 12.1162 8.45726 30
    endloop
  endfacet
  facet normal -0 0 -1
    outer loop
      vertex 12.1162 8.45726 30
      vertex 11.2 8 30
      vertex 11.9029 9.69706 30
    endloop
  endfacet
  facet normal 0 0 -1
    outer loop
      vertex 3 7.5 30
      vertex 4.8 8 30
      vertex 4.09706 6.30294 30
    endloop
  endfacet
  facet normal -0 0 -1
    outer loop
      vertex 4.8 8 30
      vertex 3 7.5 30
      vertex 4.09706 9.69706 30
    endloop
  endfacet
  facet normal 0 -0 -1
    outer loop
      vertex 3 7.5 30
      vertex 4.09706 6.30294 30
      vertex 2.54667 5.66075 30
    endloop
  endfacet
  facet normal 0 0 -1
    outer loop
      vertex 2.54182 9.35889 30
      vertex 4.09706 9.69706 30
      vertex 3 7.5 30
    endloop
  endfacet
  facet normal 0 0 -1
    outer loop
      vertex 2.54182 9.35889 30
      vertex 2.4 10.4 30
      vertex 4.09706 9.69706 30
    endloop
  endfacet
  facet normal 0 -0 -1
    outer loop
      vertex 2.4 10.4 30
      vertex 2.54182 9.35889 30
      vertex 1.82901 10.1635 30
    endloop
  endfacet
  facet normal 1 -0 0
    outer loop
      vertex 16 0 30
      vertex 16 6.5 0
      vertex 16 6.5 30
    endloop
  endfacet
  facet normal 1 0 0
    outer loop
      vertex 16 6.5 0
      vertex 16 0 30
      vertex 16 0 0
    endloop
  endfacet
  facet normal 1 -0 0
    outer loop
      vertex 16 9.5 30
      vertex 16 16 0
      vertex 16 16 30
    endloop
  endfacet
  facet normal 1 0 0
    outer loop
      vertex 16 16 0
      vertex 16 9.5 30
      vertex 16 9.5 0
    endloop
  endfacet
  facet normal 0 0 -1
    outer loop
      vertex 0 0 0
      vertex 5.6 2.4 0
      vertex 5.6 0 0
    endloop
  endfacet
  facet normal 0 0 -1
    outer loop
      vertex 5.6 2.4 0
      vertex 4.8 8 0
      vertex 5.6 13.6 0
    endloop
  endfacet
  facet normal 0 0 -1
    outer loop
      vertex 4.09706 9.69706 0
      vertex 5.6 13.6 0
      vertex 4.8 8 0
    endloop
  endfacet
  facet normal 0 0 -1
    outer loop
      vertex 5.6 2.4 0
      vertex 4.09706 6.30294 0
      vertex 4.8 8 0
    endloop
  endfacet
  facet normal 0 0 -1
    outer loop
      vertex 5.6 2.4 0
      vertex 2.4 5.6 0
      vertex 4.09706 6.30294 0
    endloop
  endfacet
  facet normal -0 0 -1
    outer loop
      vertex 5.6 2.4 0
      vertex 0 0 0
      vertex 2.4 5.6 0
    endloop
  endfacet
  facet normal -0 0 -1
    outer loop
      vertex 2.4 5.6 0
      vertex 0 0 0
      vertex 0.702943 6.30294 0
    endloop
  endfacet
  facet normal 0 0 -1
    outer loop
      vertex 0 6.5 0
      vertex 0.702943 6.30294 0
      vertex 0 0 0
    endloop
  endfacet
  facet normal 0 0 -1
    outer loop
      vertex 0.702943 6.30294 0
      vertex 0 6.5 0
      vertex 0.621319 6.5 0
    endloop
  endfacet
  facet normal 0 0 -1
    outer loop
      vertex 6.30294 4.09706 0
      vertex 6.5 11.8213 0
      vertex 6.5 4.17868 0
    endloop
  endfacet
  facet normal 0 0 -1
    outer loop
      vertex 6.30294 4.09706 0
      vertex 6.30294 11.9029 0
      vertex 6.5 11.8213 0
    endloop
  endfacet
  facet normal 0 0 -1
    outer loop
      vertex 5.6 2.4 0
      vertex 6.30294 11.9029 0
      vertex 6.30294 4.09706 0
    endloop
  endfacet
  facet normal -0 0 -1
    outer loop
      vertex 6.30294 11.9029 0
      vertex 5.6 2.4 0
      vertex 5.6 13.6 0
    endloop
  endfacet
  facet normal 0 0 -1
    outer loop
      vertex 2.4 10.4 0
      vertex 5.6 13.6 0
      vertex 4.09706 9.69706 0
    endloop
  endfacet
  facet normal 0 0 -1
    outer loop
      vertex 0 16 0
      vertex 5.6 13.6 0
      vertex 2.4 10.4 0
    endloop
  endfacet
  facet normal 0 0 -1
    outer loop
      vertex 0 16 0
      vertex 2.4 10.4 0
      vertex 0.702943 9.69706 0
    endloop
  endfacet
  facet normal 0 0 -1
    outer loop
      vertex 0 9.5 0
      vertex 0.702943 9.69706 0
      vertex 0.62132 9.5 0
    endloop
  endfacet
  facet normal 0 0 -1
    outer loop
      vertex 0 16 0
      vertex 0.702943 9.69706 0
      vertex 0 9.5 0
    endloop
  endfacet
  facet normal 0 0 -1
    outer loop
      vertex 5.6 13.6 0
      vertex 0 16 0
      vertex 5.6 16 0
    endloop
  endfacet
  facet normal 0 0 -1
    outer loop
      vertex 15.2971 6.30294 0
      vertex 16 6.5 0
      vertex 16 0 0
    endloop
  endfacet
  facet normal -0 0 -1
    outer loop
      vertex 16 6.5 0
      vertex 15.2971 6.30294 0
      vertex 15.3787 6.5 0
    endloop
  endfacet
  facet normal 0 0 -1
    outer loop
      vertex 16 0 0
      vertex 13.6 5.6 0
      vertex 15.2971 6.30294 0
    endloop
  endfacet
  facet normal 0 0 -1
    outer loop
      vertex 10.4 2.4 0
      vertex 13.6 5.6 0
      vertex 16 0 0
    endloop
  endfacet
  facet normal -0 0 -1
    outer loop
      vertex 13.6 5.6 0
      vertex 10.4 2.4 0
      vertex 11.9029 6.30294 0
    endloop
  endfacet
  facet normal 0 0 -1
    outer loop
      vertex 10.4 2.4 0
      vertex 16 0 0
      vertex 10.4 0 0
    endloop
  endfacet
  facet normal 0 0 -1
    outer loop
      vertex 15.2971 9.69706 0
      vertex 16 9.5 0
      vertex 15.3787 9.5 0
    endloop
  endfacet
  facet normal 0 0 -1
    outer loop
      vertex 16 9.5 0
      vertex 15.2971 9.69706 0
      vertex 16 16 0
    endloop
  endfacet
  facet normal 0 0 -1
    outer loop
      vertex 13.6 10.4 0
      vertex 16 16 0
      vertex 15.2971 9.69706 0
    endloop
  endfacet
  facet normal 0 0 -1
    outer loop
      vertex 10.4 13.6 0
      vertex 13.6 10.4 0
      vertex 11.9029 9.69706 0
    endloop
  endfacet
  facet normal 0 0 -1
    outer loop
      vertex 9.69706 4.09706 0
      vertex 11.9029 6.30294 0
      vertex 10.4 2.4 0
    endloop
  endfacet
  facet normal 0 0 -1
    outer loop
      vertex 9.5 4.17868 0
      vertex 11.9029 6.30294 0
      vertex 9.69706 4.09706 0
    endloop
  endfacet
  facet normal 0 0 -1
    outer loop
      vertex 9.69706 11.9029 0
      vertex 11.9029 9.69706 0
      vertex 11.2 8 0
    endloop
  endfacet
  facet normal 0 0 -1
    outer loop
      vertex 13.6 10.4 0
      vertex 10.4 13.6 0
      vertex 16 16 0
    endloop
  endfacet
  facet normal -0 0 -1
    outer loop
      vertex 16 16 0
      vertex 10.4 13.6 0
      vertex 10.4 16 0
    endloop
  endfacet
  facet normal -0 0 -1
    outer loop
      vertex 11.9029 6.30294 0
      vertex 9.5 4.17868 0
      vertex 11.2 8 0
    endloop
  endfacet
  facet normal 0 0 -1
    outer loop
      vertex 11.9029 9.69706 0
      vertex 9.69706 11.9029 0
      vertex 10.4 13.6 0
    endloop
  endfacet
  facet normal 0 0 -1
    outer loop
      vertex 9.5 11.8213 0
      vertex 11.2 8 0
      vertex 9.5 4.17868 0
    endloop
  endfacet
  facet normal 0 0 -1
    outer loop
      vertex 11.2 8 0
      vertex 9.5 11.8213 0
      vertex 9.69706 11.9029 0
    endloop
  endfacet
  facet normal 0 -1 0
    outer loop
      vertex 10.4 0 4.8
      vertex 9.5 0 30
      vertex 9.5 0 4.8
    endloop
  endfacet
  facet normal 0 -1 0
    outer loop
      vertex 9.5 0 30
      vertex 10.4 0 4.8
      vertex 16 0 30
    endloop
  endfacet
  facet normal 0 -1 0
    outer loop
      vertex 16 0 0
      vertex 10.4 0 4.8
      vertex 10.4 0 0
    endloop
  endfacet
  facet normal 0 -1 0
    outer loop
      vertex 10.4 0 4.8
      vertex 16 0 0
      vertex 16 0 30
    endloop
  endfacet
  facet normal 0 -1 0
    outer loop
      vertex 0 0 30
      vertex 5.6 0 4.8
      vertex 6.5 0 30
    endloop
  endfacet
  facet normal 0 -1 0
    outer loop
      vertex 0 0 0
      vertex 5.6 0 4.8
      vertex 0 0 30
    endloop
  endfacet
  facet normal 0 -1 -0
    outer loop
      vertex 5.6 0 4.8
      vertex 0 0 0
      vertex 5.6 0 0
    endloop
  endfacet
  facet normal 0 -1 -0
    outer loop
      vertex 6.5 0 30
      vertex 5.6 0 4.8
      vertex 6.5 0 4.8
    endloop
  endfacet
  facet normal 0 1 0
    outer loop
      vertex 16 16 30
      vertex 10.4 16 4.8
      vertex 9.5 16 30
    endloop
  endfacet
  facet normal 0 1 -0
    outer loop
      vertex 16 16 0
      vertex 10.4 16 4.8
      vertex 16 16 30
    endloop
  endfacet
  facet normal 0 1 0
    outer loop
      vertex 10.4 16 4.8
      vertex 16 16 0
      vertex 10.4 16 0
    endloop
  endfacet
  facet normal 0 1 0
    outer loop
      vertex 9.5 16 30
      vertex 10.4 16 4.8
      vertex 9.5 16 4.8
    endloop
  endfacet
  facet normal 0 1 0
    outer loop
      vertex 5.6 16 4.8
      vertex 6.5 16 30
      vertex 6.5 16 4.8
    endloop
  endfacet
  facet normal 0 1 0
    outer loop
      vertex 6.5 16 30
      vertex 5.6 16 4.8
      vertex 0 16 30
    endloop
  endfacet
  facet normal 0 1 0
    outer loop
      vertex 0 16 0
      vertex 5.6 16 4.8
      vertex 5.6 16 0
    endloop
  endfacet
  facet normal 0 1 0
    outer loop
      vertex 5.6 16 4.8
      vertex 0 16 0
      vertex 0 16 30
    endloop
  endfacet
  facet normal -0.923881 -0.382681 0
    outer loop
      vertex 10.4 2.4 0
      vertex 9.69706 4.09706 0.702943
      vertex 9.69706 4.09706 0
    endloop
  endfacet
  facet normal -0.923881 -0.382681 0
    outer loop
      vertex 9.69706 4.09706 0.702943
      vertex 10.4 2.4 0
      vertex 10.4 2.4 2.4
    endloop
  endfacet
  facet normal -0.923881 -0.382681 -0
    outer loop
      vertex 10.4 2.4 4.8
      vertex 9.69706 4.09706 4.09706
      vertex 10.4 2.4 2.4
    endloop
  endfacet
  facet normal -0.923881 -0.382681 0
    outer loop
      vertex 9.69706 4.09706 4.09706
      vertex 10.4 2.4 4.8
      vertex 9.69706 4.09706 30
    endloop
  endfacet
  facet normal -0.923881 -0.382681 0
    outer loop
      vertex 9.69706 4.09706 30
      vertex 10.4 2.4 4.8
      vertex 10.4 2.4 30
    endloop
  endfacet
  facet normal 0.382664 -0.923888 0
    outer loop
      vertex 6.30294 4.09706 0
      vertex 6.5 4.17868 0.621319
      vertex 6.30294 4.09706 0.702943
    endloop
  endfacet
  facet normal 0.382664 -0.923888 0
    outer loop
      vertex 6.5 4.17868 0.621319
      vertex 6.30294 4.09706 0
      vertex 6.5 4.17868 0
    endloop
  endfacet
  facet normal 0.382681 -0.923881 0
    outer loop
      vertex 6.30294 4.09706 30
      vertex 8 4.8 4.8
      vertex 8 4.8 30
    endloop
  endfacet
  facet normal 0.382681 -0.923881 0
    outer loop
      vertex 8 4.8 4.8
      vertex 6.30294 4.09706 30
      vertex 6.30294 4.09706 4.09706
    endloop
  endfacet
  facet normal -0.382664 -0.923888 0
    outer loop
      vertex 9.69706 4.09706 0
      vertex 9.5 4.17868 0.62132
      vertex 9.5 4.17868 0
    endloop
  endfacet
  facet normal -0.382664 -0.923888 0
    outer loop
      vertex 9.5 4.17868 0.62132
      vertex 9.69706 4.09706 0
      vertex 9.69706 4.09706 0.702943
    endloop
  endfacet
  facet normal -0.382681 -0.923881 0
    outer loop
      vertex 8 4.8 4.8
      vertex 9.69706 4.09706 30
      vertex 8 4.8 30
    endloop
  endfacet
  facet normal -0.382681 -0.923881 -0
    outer loop
      vertex 9.69706 4.09706 30
      vertex 8 4.8 4.8
      vertex 9.69706 4.09706 4.09706
    endloop
  endfacet
  facet normal 0.923881 -0.382681 0
    outer loop
      vertex 5.6 2.4 0
      vertex 6.30294 4.09706 0.702943
      vertex 5.6 2.4 2.4
    endloop
  endfacet
  facet normal 0.923881 -0.382681 0
    outer loop
      vertex 6.30294 4.09706 0.702943
      vertex 5.6 2.4 0
      vertex 6.30294 4.09706 0
    endloop
  endfacet
  facet normal 0.92388 -0.382681 1.24008e-08
    outer loop
      vertex 5.6 2.4 4.8
      vertex 6.30294 4.09706 30
      vertex 5.60444 2.41072 30
    endloop
  endfacet
  facet normal 0.923891 -0.382656 0
    outer loop
      vertex 5.6 2.4 4.8
      vertex 5.60444 2.41072 30
      vertex 5.6 2.4 30
    endloop
  endfacet
  facet normal 0.923881 -0.382681 0
    outer loop
      vertex 6.30294 4.09706 30
      vertex 5.6 2.4 4.8
      vertex 6.30294 4.09706 4.09706
    endloop
  endfacet
  facet normal 0.923881 -0.382681 0
    outer loop
      vertex 6.30294 4.09706 4.09706
      vertex 5.6 2.4 4.8
      vertex 5.6 2.4 2.4
    endloop
  endfacet
  facet normal -0.923876 0.382693 0
    outer loop
      vertex 10.4 2.4 4.8
      vertex 10.1695 1.84354 30
      vertex 10.4 2.4 30
    endloop
  endfacet
  facet normal -0.92388 0.382682 -2.948e-07
    outer loop
      vertex 9.69706 0.702943 4.8
      vertex 10.1695 1.84354 30
      vertex 10.4 2.4 4.8
    endloop
  endfacet
  facet normal -0.923883 0.382676 0
    outer loop
      vertex 10.1695 1.84354 30
      vertex 9.69706 0.702943 4.8
      vertex 9.69706 0.702943 30
    endloop
  endfacet
  facet normal 0.38268 0.923881 -0
    outer loop
      vertex 6.5 0.621319 4.8
      vertex 6.30294 0.702943 30
      vertex 6.5 0.621319 30
    endloop
  endfacet
  facet normal 0.38268 0.923881 0
    outer loop
      vertex 6.30294 0.702943 30
      vertex 6.5 0.621319 4.8
      vertex 6.30294 0.702943 4.8
    endloop
  endfacet
  facet normal 0.92388 0.382682 0
    outer loop
      vertex 6.30294 0.702943 30
      vertex 5.6 2.4 4.8
      vertex 5.6 2.4 30
    endloop
  endfacet
  facet normal 0.92388 0.382682 0
    outer loop
      vertex 5.6 2.4 4.8
      vertex 6.30294 0.702943 30
      vertex 6.30294 0.702943 4.8
    endloop
  endfacet
  facet normal -0.382676 0.923883 0
    outer loop
      vertex 9.69706 0.702943 4.8
      vertex 9.5 0.62132 30
      vertex 9.69706 0.702943 30
    endloop
  endfacet
  facet normal -0.382676 0.923883 0
    outer loop
      vertex 9.5 0.62132 30
      vertex 9.69706 0.702943 4.8
      vertex 9.5 0.62132 4.8
    endloop
  endfacet
  facet normal -0.923884 -0.382673 0
    outer loop
      vertex 10.4 13.6 4.8
      vertex 9.69706 15.2971 30
      vertex 9.69706 15.2971 4.8
    endloop
  endfacet
  facet normal -0.923884 -0.382673 0
    outer loop
      vertex 9.69706 15.2971 30
      vertex 10.4 13.6 4.8
      vertex 10.4 13.6 30
    endloop
  endfacet
  facet normal 0.923884 -0.382673 0
    outer loop
      vertex 5.6 13.6 30
      vertex 6.30294 15.2971 4.8
      vertex 6.30294 15.2971 30
    endloop
  endfacet
  facet normal 0.923884 -0.382673 0
    outer loop
      vertex 6.30294 15.2971 4.8
      vertex 5.6 13.6 30
      vertex 5.6 13.6 4.8
    endloop
  endfacet
  facet normal 0.382584 -0.923921 0
    outer loop
      vertex 6.30294 15.2971 4.8
      vertex 6.5 15.3787 30
      vertex 6.30294 15.2971 30
    endloop
  endfacet
  facet normal 0.382584 -0.923921 0
    outer loop
      vertex 6.5 15.3787 30
      vertex 6.30294 15.2971 4.8
      vertex 6.5 15.3787 4.8
    endloop
  endfacet
  facet normal -0.382584 -0.923921 0
    outer loop
      vertex 9.5 15.3787 4.8
      vertex 9.69706 15.2971 30
      vertex 9.5 15.3787 30
    endloop
  endfacet
  facet normal -0.382584 -0.923921 -0
    outer loop
      vertex 9.69706 15.2971 30
      vertex 9.5 15.3787 4.8
      vertex 9.69706 15.2971 4.8
    endloop
  endfacet
  facet normal -0.382662 0.923888 0
    outer loop
      vertex 9.69706 11.9029 30
      vertex 8 11.2 4.8
      vertex 8 11.2 30
    endloop
  endfacet
  facet normal -0.382662 0.923888 0
    outer loop
      vertex 8 11.2 4.8
      vertex 9.69706 11.9029 30
      vertex 9.69706 11.9029 4.09706
    endloop
  endfacet
  facet normal -0.382584 0.923921 0
    outer loop
      vertex 9.69706 11.9029 0
      vertex 9.5 11.8213 0.62132
      vertex 9.69706 11.9029 0.702943
    endloop
  endfacet
  facet normal -0.382584 0.923921 0
    outer loop
      vertex 9.5 11.8213 0.62132
      vertex 9.69706 11.9029 0
      vertex 9.5 11.8213 0
    endloop
  endfacet
  facet normal 0.923884 0.382673 0
    outer loop
      vertex 6.30294 11.9029 0.702943
      vertex 5.6 13.6 0
      vertex 5.6 13.6 2.4
    endloop
  endfacet
  facet normal 0.923884 0.382673 0
    outer loop
      vertex 5.6 13.6 0
      vertex 6.30294 11.9029 0.702943
      vertex 6.30294 11.9029 0
    endloop
  endfacet
  facet normal 0.923885 0.382671 0
    outer loop
      vertex 6.15896 12.2505 30
      vertex 5.6 13.6 4.8
      vertex 5.6 13.6 30
    endloop
  endfacet
  facet normal 0.92388 0.382682 6.87042e-07
    outer loop
      vertex 6.30294 11.9029 30
      vertex 5.6 13.6 4.8
      vertex 6.15896 12.2505 30
    endloop
  endfacet
  facet normal 0.923884 0.382673 0
    outer loop
      vertex 5.6 13.6 4.8
      vertex 6.30294 11.9029 30
      vertex 6.30294 11.9029 4.09706
    endloop
  endfacet
  facet normal 0.923884 0.382673 0
    outer loop
      vertex 5.6 13.6 4.8
      vertex 6.30294 11.9029 4.09706
      vertex 5.6 13.6 2.4
    endloop
  endfacet
  facet normal -0.923884 0.382673 0
    outer loop
      vertex 9.69706 11.9029 0.702943
      vertex 10.4 13.6 0
      vertex 9.69706 11.9029 0
    endloop
  endfacet
  facet normal -0.923884 0.382673 0
    outer loop
      vertex 10.4 13.6 0
      vertex 9.69706 11.9029 0.702943
      vertex 10.4 13.6 2.4
    endloop
  endfacet
  facet normal -0.923884 0.382673 0
    outer loop
      vertex 9.69706 11.9029 4.09706
      vertex 10.4 13.6 4.8
      vertex 10.4 13.6 2.4
    endloop
  endfacet
  facet normal -0.923884 0.382673 0
    outer loop
      vertex 9.69706 11.9029 30
      vertex 10.4 13.6 4.8
      vertex 9.69706 11.9029 4.09706
    endloop
  endfacet
  facet normal -0.923932 0.382557 0
    outer loop
      vertex 10.4 13.6 4.8
      vertex 10.2574 13.2556 30
      vertex 10.4 13.6 30
    endloop
  endfacet
  facet normal -0.923871 0.382703 2.33288e-06
    outer loop
      vertex 10.4 13.6 4.8
      vertex 9.69706 11.9029 30
      vertex 10.2574 13.2556 30
    endloop
  endfacet
  facet normal 0.382584 0.923921 0
    outer loop
      vertex 6.30294 11.9029 0
      vertex 6.5 11.8213 0.621319
      vertex 6.5 11.8213 0
    endloop
  endfacet
  facet normal 0.382584 0.923921 0
    outer loop
      vertex 6.5 11.8213 0.621319
      vertex 6.30294 11.9029 0
      vertex 6.30294 11.9029 0.702943
    endloop
  endfacet
  facet normal 0.382662 0.923888 -0
    outer loop
      vertex 8 11.2 4.8
      vertex 6.30294 11.9029 30
      vertex 8 11.2 30
    endloop
  endfacet
  facet normal 0.382662 0.923888 0
    outer loop
      vertex 6.30294 11.9029 30
      vertex 8 11.2 4.8
      vertex 6.30294 11.9029 4.09706
    endloop
  endfacet
  facet normal -0.923921 -0.382584 0
    outer loop
      vertex 15.3787 9.5 0
      vertex 15.2971 9.69706 30
      vertex 15.2971 9.69706 0
    endloop
  endfacet
  facet normal -0.923921 -0.382584 0
    outer loop
      vertex 15.2971 9.69706 30
      vertex 15.3787 9.5 0
      vertex 15.3787 9.5 30
    endloop
  endfacet
  facet normal 0.38266 -0.923889 0
    outer loop
      vertex 11.9029 9.69706 0
      vertex 13.0112 10.1561 30
      vertex 11.9029 9.69706 30
    endloop
  endfacet
  facet normal 0.382673 -0.923884 -5.7375e-07
    outer loop
      vertex 13.6 10.4 0
      vertex 13.0112 10.1561 30
      vertex 11.9029 9.69706 0
    endloop
  endfacet
  facet normal 0.382698 -0.923873 0
    outer loop
      vertex 13.0112 10.1561 30
      vertex 13.6 10.4 0
      vertex 13.6 10.4 30
    endloop
  endfacet
  facet normal -0.382673 -0.923884 0
    outer loop
      vertex 13.6 10.4 0
      vertex 15.2971 9.69706 30
      vertex 13.6 10.4 30
    endloop
  endfacet
  facet normal -0.382673 -0.923884 -0
    outer loop
      vertex 15.2971 9.69706 30
      vertex 13.6 10.4 0
      vertex 15.2971 9.69706 0
    endloop
  endfacet
  facet normal 0.923888 -0.382662 0
    outer loop
      vertex 11.2 8 30
      vertex 11.9029 9.69706 0
      vertex 11.9029 9.69706 30
    endloop
  endfacet
  facet normal 0.923888 -0.382662 0
    outer loop
      vertex 11.9029 9.69706 0
      vertex 11.2 8 30
      vertex 11.2 8 0
    endloop
  endfacet
  facet normal -0.923921 0.382584 0
    outer loop
      vertex 15.2971 6.30294 0
      vertex 15.3787 6.5 30
      vertex 15.3787 6.5 0
    endloop
  endfacet
  facet normal -0.923921 0.382584 0
    outer loop
      vertex 15.3787 6.5 30
      vertex 15.2971 6.30294 0
      vertex 15.2971 6.30294 30
    endloop
  endfacet
  facet normal 0.382682 0.92388 -0
    outer loop
      vertex 13.6 5.6 0
      vertex 12.3363 6.12344 30
      vertex 13.6 5.6 30
    endloop
  endfacet
  facet normal 0.382673 0.923884 -4.49049e-07
    outer loop
      vertex 11.9029 6.30294 0
      vertex 12.3363 6.12344 30
      vertex 13.6 5.6 0
    endloop
  endfacet
  facet normal 0.382647 0.923895 0
    outer loop
      vertex 12.3363 6.12344 30
      vertex 11.9029 6.30294 0
      vertex 11.9029 6.30294 30
    endloop
  endfacet
  facet normal 0.923888 0.382662 0
    outer loop
      vertex 11.9029 6.30294 30
      vertex 11.2 8 0
      vertex 11.2 8 30
    endloop
  endfacet
  facet normal 0.923888 0.382662 0
    outer loop
      vertex 11.2 8 0
      vertex 11.9029 6.30294 30
      vertex 11.9029 6.30294 0
    endloop
  endfacet
  facet normal -0.382673 0.923884 0
    outer loop
      vertex 15.2971 6.30294 0
      vertex 13.6 5.6 30
      vertex 15.2971 6.30294 30
    endloop
  endfacet
  facet normal -0.382673 0.923884 0
    outer loop
      vertex 13.6 5.6 30
      vertex 15.2971 6.30294 0
      vertex 13.6 5.6 0
    endloop
  endfacet
  facet normal -0.923881 -0.382681 0
    outer loop
      vertex 4.8 8 0
      vertex 4.09706 9.69706 30
      vertex 4.09706 9.69706 0
    endloop
  endfacet
  facet normal -0.923881 -0.382681 0
    outer loop
      vertex 4.09706 9.69706 30
      vertex 4.8 8 0
      vertex 4.8 8 30
    endloop
  endfacet
  facet normal 0.382682 0.92388 -0
    outer loop
      vertex 2.4 5.6 0
      vertex 0.702943 6.30294 30
      vertex 2.4 5.6 30
    endloop
  endfacet
  facet normal 0.382682 0.92388 0
    outer loop
      vertex 0.702943 6.30294 30
      vertex 2.4 5.6 0
      vertex 0.702943 6.30294 0
    endloop
  endfacet
  facet normal 0.382689 -0.923877 0
    outer loop
      vertex 0.702943 9.69706 0
      vertex 1.82901 10.1635 30
      vertex 0.702943 9.69706 30
    endloop
  endfacet
  facet normal 0.382682 -0.92388 3.21743e-07
    outer loop
      vertex 2.4 10.4 0
      vertex 1.82901 10.1635 30
      vertex 0.702943 9.69706 0
    endloop
  endfacet
  facet normal 0.382667 -0.923886 0
    outer loop
      vertex 1.82901 10.1635 30
      vertex 2.4 10.4 0
      vertex 2.4 10.4 30
    endloop
  endfacet
  facet normal -0.382681 -0.923881 0
    outer loop
      vertex 2.4 10.4 0
      vertex 4.09706 9.69706 30
      vertex 2.4 10.4 30
    endloop
  endfacet
  facet normal -0.382681 -0.923881 -0
    outer loop
      vertex 4.09706 9.69706 30
      vertex 2.4 10.4 0
      vertex 4.09706 9.69706 0
    endloop
  endfacet
  facet normal 0.923883 -0.382676 0
    outer loop
      vertex 0.62132 9.5 30
      vertex 0.702943 9.69706 0
      vertex 0.702943 9.69706 30
    endloop
  endfacet
  facet normal 0.923883 -0.382676 0
    outer loop
      vertex 0.702943 9.69706 0
      vertex 0.62132 9.5 30
      vertex 0.62132 9.5 0
    endloop
  endfacet
  facet normal -0.923881 0.382681 0
    outer loop
      vertex 4.09706 6.30294 0
      vertex 4.8 8 30
      vertex 4.8 8 0
    endloop
  endfacet
  facet normal -0.923881 0.382681 0
    outer loop
      vertex 4.8 8 30
      vertex 4.09706 6.30294 0
      vertex 4.09706 6.30294 30
    endloop
  endfacet
  facet normal 0.923881 0.38268 0
    outer loop
      vertex 0.702943 6.30294 30
      vertex 0.621319 6.5 0
      vertex 0.621319 6.5 30
    endloop
  endfacet
  facet normal 0.923881 0.38268 0
    outer loop
      vertex 0.621319 6.5 0
      vertex 0.702943 6.30294 30
      vertex 0.702943 6.30294 0
    endloop
  endfacet
  facet normal -0.382682 0.92388 0
    outer loop
      vertex 4.09706 6.30294 0
      vertex 2.54667 5.66075 30
      vertex 4.09706 6.30294 30
    endloop
  endfacet
  facet normal -0.382681 0.923881 6.9226e-08
    outer loop
      vertex 2.4 5.6 0
      vertex 2.54667 5.66075 30
      vertex 4.09706 6.30294 0
    endloop
  endfacet
  facet normal -0.382669 0.923886 0
    outer loop
      vertex 2.54667 5.66075 30
      vertex 2.4 5.6 0
      vertex 2.4 5.6 30
    endloop
  endfacet
  facet normal 1 -0 0
    outer loop
      vertex 6.5 0 30
      vertex 6.5 0.621319 4.8
      vertex 6.5 0.621319 30
    endloop
  endfacet
  facet normal 1 0 0
    outer loop
      vertex 6.5 0.621319 4.8
      vertex 6.5 0 30
      vertex 6.5 0 4.8
    endloop
  endfacet
  facet normal -1 0 0
    outer loop
      vertex 9.5 0 4.8
      vertex 9.5 0.62132 30
      vertex 9.5 0.62132 4.8
    endloop
  endfacet
  facet normal -1 -0 0
    outer loop
      vertex 9.5 0.62132 30
      vertex 9.5 0 4.8
      vertex 9.5 0 30
    endloop
  endfacet
  facet normal 1 -0 0
    outer loop
      vertex 6.5 15.3787 30
      vertex 6.5 16 4.8
      vertex 6.5 16 30
    endloop
  endfacet
  facet normal 1 0 0
    outer loop
      vertex 6.5 16 4.8
      vertex 6.5 15.3787 30
      vertex 6.5 15.3787 4.8
    endloop
  endfacet
  facet normal -1 0 0
    outer loop
      vertex 9.5 15.3787 4.8
      vertex 9.5 16 30
      vertex 9.5 16 4.8
    endloop
  endfacet
  facet normal -1 -0 0
    outer loop
      vertex 9.5 16 30
      vertex 9.5 15.3787 4.8
      vertex 9.5 15.3787 30
    endloop
  endfacet
  facet normal 0 -1 0
    outer loop
      vertex 15.3787 9.5 0
      vertex 16 9.5 30
      vertex 15.3787 9.5 30
    endloop
  endfacet
  facet normal 0 -1 -0
    outer loop
      vertex 16 9.5 30
      vertex 15.3787 9.5 0
      vertex 16 9.5 0
    endloop
  endfacet
  facet normal 0 1 -0
    outer loop
      vertex 16 6.5 0
      vertex 15.3787 6.5 30
      vertex 16 6.5 30
    endloop
  endfacet
  facet normal 0 1 0
    outer loop
      vertex 15.3787 6.5 30
      vertex 16 6.5 0
      vertex 15.3787 6.5 0
    endloop
  endfacet
  facet normal 0 1 -0
    outer loop
      vertex 0.621319 6.5 0
      vertex 0 6.5 30
      vertex 0.621319 6.5 30
    endloop
  endfacet
  facet normal 0 1 0
    outer loop
      vertex 0 6.5 30
      vertex 0.621319 6.5 0
      vertex 0 6.5 0
    endloop
  endfacet
  facet normal 0 -1 0
    outer loop
      vertex 0 9.5 0
      vertex 0.62132 9.5 30
      vertex 0 9.5 30
    endloop
  endfacet
  facet normal 0 -1 -0
    outer loop
      vertex 0.62132 9.5 30
      vertex 0 9.5 0
      vertex 0.62132 9.5 0
    endloop
  endfacet
  facet normal -0.923881 0 -0.382681
    outer loop
      vertex 10.4 13.6 2.4
      vertex 9.69706 4.09706 4.09706
      vertex 9.69706 11.9029 4.09706
    endloop
  endfacet
  facet normal -0.923881 0 -0.382681
    outer loop
      vertex 9.69706 4.09706 4.09706
      vertex 10.4 13.6 2.4
      vertex 10.4 2.4 2.4
    endloop
  endfacet
  facet normal -0.382681 0 -0.923881
    outer loop
      vertex 8 4.8 4.8
      vertex 9.69706 11.9029 4.09706
      vertex 9.69706 4.09706 4.09706
    endloop
  endfacet
  facet normal -0.382681 0 -0.923881
    outer loop
      vertex 9.69706 11.9029 4.09706
      vertex 8 4.8 4.8
      vertex 8 11.2 4.8
    endloop
  endfacet
  facet normal 0.382681 0 -0.923881
    outer loop
      vertex 6.30294 4.09706 4.09706
      vertex 8 11.2 4.8
      vertex 8 4.8 4.8
    endloop
  endfacet
  facet normal 0.382681 0 -0.923881
    outer loop
      vertex 8 11.2 4.8
      vertex 6.30294 4.09706 4.09706
      vertex 6.30294 11.9029 4.09706
    endloop
  endfacet
  facet normal -0.92388 0 0.382682
    outer loop
      vertex 9.69706 4.09706 0.702943
      vertex 10.4 13.6 2.4
      vertex 9.69706 11.9029 0.702943
    endloop
  endfacet
  facet normal -0.92388 0 0.382682
    outer loop
      vertex 10.4 13.6 2.4
      vertex 9.69706 4.09706 0.702943
      vertex 10.4 2.4 2.4
    endloop
  endfacet
  facet normal 0.38268 0 0.923881
    outer loop
      vertex 6.30294 11.9029 0.702943
      vertex 6.5 4.17868 0.621319
      vertex 6.5 11.8213 0.621319
    endloop
  endfacet
  facet normal 0.38268 0 0.923881
    outer loop
      vertex 6.5 4.17868 0.621319
      vertex 6.30294 11.9029 0.702943
      vertex 6.30294 4.09706 0.702943
    endloop
  endfacet
  facet normal 0.923881 0 -0.382681
    outer loop
      vertex 6.30294 4.09706 4.09706
      vertex 5.6 13.6 2.4
      vertex 6.30294 11.9029 4.09706
    endloop
  endfacet
  facet normal 0.923881 0 -0.382681
    outer loop
      vertex 5.6 13.6 2.4
      vertex 6.30294 4.09706 4.09706
      vertex 5.6 2.4 2.4
    endloop
  endfacet
  facet normal 0.92388 0 0.382682
    outer loop
      vertex 5.6 13.6 2.4
      vertex 6.30294 4.09706 0.702943
      vertex 6.30294 11.9029 0.702943
    endloop
  endfacet
  facet normal 0.92388 0 0.382682
    outer loop
      vertex 6.30294 4.09706 0.702943
      vertex 5.6 13.6 2.4
      vertex 5.6 2.4 2.4
    endloop
  endfacet
  facet normal -0.382676 0 0.923883
    outer loop
      vertex 9.5 11.8213 0.62132
      vertex 9.69706 4.09706 0.702943
      vertex 9.69706 11.9029 0.702943
    endloop
  endfacet
  facet normal -0.382676 0 0.923883
    outer loop
      vertex 9.69706 4.09706 0.702943
      vertex 9.5 11.8213 0.62132
      vertex 9.5 4.17868 0.62132
    endloop
  endfacet
  facet normal 1 0 0
    outer loop
      vertex 5.6 13.6 2.4
      vertex 5.6 16 4.8
      vertex 5.6 13.6 4.8
    endloop
  endfacet
  facet normal 1 0 0
    outer loop
      vertex 5.6 16 4.8
      vertex 5.6 13.6 2.4
      vertex 5.6 16 0
    endloop
  endfacet
  facet normal 1 0 0
    outer loop
      vertex 5.6 16 0
      vertex 5.6 13.6 2.4
      vertex 5.6 13.6 0
    endloop
  endfacet
  facet normal 0 0 -1
    outer loop
      vertex 9.69706 15.2971 4.8
      vertex 10.4 16 4.8
      vertex 10.4 13.6 4.8
    endloop
  endfacet
  facet normal 0 0 -1
    outer loop
      vertex 9.5 16 4.8
      vertex 9.69706 15.2971 4.8
      vertex 9.5 15.3787 4.8
    endloop
  endfacet
  facet normal 0 0 -1
    outer loop
      vertex 9.69706 15.2971 4.8
      vertex 9.5 16 4.8
      vertex 10.4 16 4.8
    endloop
  endfacet
  facet normal 0 0 -1
    outer loop
      vertex 6.30294 15.2971 4.8
      vertex 6.5 16 4.8
      vertex 6.5 15.3787 4.8
    endloop
  endfacet
  facet normal 0 0 -1
    outer loop
      vertex 5.6 16 4.8
      vertex 6.30294 15.2971 4.8
      vertex 5.6 13.6 4.8
    endloop
  endfacet
  facet normal 0 0 -1
    outer loop
      vertex 6.30294 15.2971 4.8
      vertex 5.6 16 4.8
      vertex 6.5 16 4.8
    endloop
  endfacet
  facet normal -1 0 0
    outer loop
      vertex 10.4 13.6 2.4
      vertex 10.4 16 0
      vertex 10.4 13.6 0
    endloop
  endfacet
  facet normal -1 0 0
    outer loop
      vertex 10.4 16 0
      vertex 10.4 13.6 2.4
      vertex 10.4 16 4.8
    endloop
  endfacet
  facet normal -1 -0 0
    outer loop
      vertex 10.4 16 4.8
      vertex 10.4 13.6 2.4
      vertex 10.4 13.6 4.8
    endloop
  endfacet
  facet normal 1 -0 0
    outer loop
      vertex 5.6 0 4.8
      vertex 5.6 2.4 2.4
      vertex 5.6 2.4 4.8
    endloop
  endfacet
  facet normal 1 0 0
    outer loop
      vertex 5.6 0 0
      vertex 5.6 2.4 2.4
      vertex 5.6 0 4.8
    endloop
  endfacet
  facet normal 1 0 0
    outer loop
      vertex 5.6 2.4 2.4
      vertex 5.6 0 0
      vertex 5.6 2.4 0
    endloop
  endfacet
  facet normal 0 0 -1
    outer loop
      vertex 10.4 0 4.8
      vertex 9.69706 0.702943 4.8
      vertex 10.4 2.4 4.8
    endloop
  endfacet
  facet normal 0 0 -1
    outer loop
      vertex 9.5 0 4.8
      vertex 9.69706 0.702943 4.8
      vertex 10.4 0 4.8
    endloop
  endfacet
  facet normal 0 0 -1
    outer loop
      vertex 9.69706 0.702943 4.8
      vertex 9.5 0 4.8
      vertex 9.5 0.62132 4.8
    endloop
  endfacet
  facet normal 0 0 -1
    outer loop
      vertex 6.5 0 4.8
      vertex 6.30294 0.702943 4.8
      vertex 6.5 0.621319 4.8
    endloop
  endfacet
  facet normal 0 0 -1
    outer loop
      vertex 5.6 0 4.8
      vertex 6.30294 0.702943 4.8
      vertex 6.5 0 4.8
    endloop
  endfacet
  facet normal -0 0 -1
    outer loop
      vertex 6.30294 0.702943 4.8
      vertex 5.6 0 4.8
      vertex 5.6 2.4 4.8
    endloop
  endfacet
  facet normal -1 0 0
    outer loop
      vertex 10.4 0 0
      vertex 10.4 2.4 2.4
      vertex 10.4 2.4 0
    endloop
  endfacet
  facet normal -1 0 0
    outer loop
      vertex 10.4 0 4.8
      vertex 10.4 2.4 2.4
      vertex 10.4 0 0
    endloop
  endfacet
  facet normal -1 0 0
    outer loop
      vertex 10.4 2.4 2.4
      vertex 10.4 0 4.8
      vertex 10.4 2.4 4.8
    endloop
  endfacet
  facet normal -1 0 0
    outer loop
      vertex 9.5 4.17868 0
      vertex 9.5 11.8213 0.62132
      vertex 9.5 11.8213 0
    endloop
  endfacet
  facet normal -1 -0 0
    outer loop
      vertex 9.5 11.8213 0.62132
      vertex 9.5 4.17868 0
      vertex 9.5 4.17868 0.62132
    endloop
  endfacet
  facet normal 1 -0 0
    outer loop
      vertex 6.5 4.17868 0.621319
      vertex 6.5 11.8213 0
      vertex 6.5 11.8213 0.621319
    endloop
  endfacet
  facet normal 1 0 0
    outer loop
      vertex 6.5 11.8213 0
      vertex 6.5 4.17868 0.621319
      vertex 6.5 4.17868 0
    endloop
  endfacet
  facet normal -1 0 0
    outer loop
      vertex 1 1 30
      vertex 1 4.10481 60
      vertex 1 4.10481 30
    endloop
  endfacet
  facet normal -1 -0 0
    outer loop
      vertex 1 4.10481 60
      vertex 1 1 30
      vertex 1 1 60
    endloop
  endfacet
  facet normal -1 0 0
    outer loop
      vertex 1 10.8952 30
      vertex 1 14 60
      vertex 1 14 30
    endloop
  endfacet
  facet normal -1 -0 0
    outer loop
      vertex 1 14 60
      vertex 1 10.8952 30
      vertex 1 10.8952 60
    endloop
  endfacet
  facet normal -0 0 1
    outer loop
      vertex 10.9168 14 60
      vertex 14 10.8386 60
      vertex 14 14 60
    endloop
  endfacet
  facet normal 0 0 1
    outer loop
      vertex 14 10.8386 60
      vertex 10.9168 14 60
      vertex 13.006 10.1525 60
    endloop
  endfacet
  facet normal 0 0 1
    outer loop
      vertex 13.006 10.1525 60
      vertex 9.77226 12.7081 60
      vertex 12.1162 8.45726 60
    endloop
  endfacet
  facet normal 0 0 1
    outer loop
      vertex 13.006 10.1525 60
      vertex 10.9168 14 60
      vertex 9.77226 12.7081 60
    endloop
  endfacet
  facet normal 0 0 1
    outer loop
      vertex 10.9168 1 60
      vertex 14 4.16137 60
      vertex 13.006 4.84751 60
    endloop
  endfacet
  facet normal 0 0 1
    outer loop
      vertex 9.77226 2.29193 60
      vertex 13.006 4.84751 60
      vertex 12.1162 6.54274 60
    endloop
  endfacet
  facet normal 0 -0 1
    outer loop
      vertex 10.9168 1 60
      vertex 13.006 4.84751 60
      vertex 9.77226 2.29193 60
    endloop
  endfacet
  facet normal -0 0 1
    outer loop
      vertex 7.98215 12.0292 60
      vertex 12.1162 8.45726 60
      vertex 9.77226 12.7081 60
    endloop
  endfacet
  facet normal 0 0 1
    outer loop
      vertex 12.1162 8.45726 60
      vertex 7.98215 12.0292 60
      vertex 12.1162 6.54274 60
    endloop
  endfacet
  facet normal 0 0 1
    outer loop
      vertex 14 4.16137 60
      vertex 10.9168 1 60
      vertex 14 1 60
    endloop
  endfacet
  facet normal 0 0 1
    outer loop
      vertex 7.98215 2.97083 60
      vertex 12.1162 6.54274 60
      vertex 7.98215 12.0292 60
    endloop
  endfacet
  facet normal 0 0 1
    outer loop
      vertex 12.1162 6.54274 60
      vertex 7.98215 2.97083 60
      vertex 9.77226 2.29193 60
    endloop
  endfacet
  facet normal 0 0 1
    outer loop
      vertex 3 7.5 60
      vertex 7.98215 12.0292 60
      vertex 6.08158 12.2599 60
    endloop
  endfacet
  facet normal 0 0 1
    outer loop
      vertex 7.98215 12.0292 60
      vertex 3 7.5 60
      vertex 7.98215 2.97083 60
    endloop
  endfacet
  facet normal 0 0 1
    outer loop
      vertex 2.54182 9.35889 60
      vertex 6.08158 12.2599 60
      vertex 4.50596 13.3475 60
    endloop
  endfacet
  facet normal 0 0 1
    outer loop
      vertex 7.98215 2.97083 60
      vertex 3 7.5 60
      vertex 6.08158 2.74006 60
    endloop
  endfacet
  facet normal -0 0 1
    outer loop
      vertex 1 14 60
      vertex 4.50596 13.3475 60
      vertex 4.1635 14 60
    endloop
  endfacet
  facet normal -0 0 1
    outer loop
      vertex 2.54182 5.64111 60
      vertex 6.08158 2.74006 60
      vertex 3 7.5 60
    endloop
  endfacet
  facet normal 0 0 1
    outer loop
      vertex 6.08158 2.74006 60
      vertex 2.54182 5.64111 60
      vertex 4.50596 1.65249 60
    endloop
  endfacet
  facet normal 0 0 1
    outer loop
      vertex 6.08158 12.2599 60
      vertex 2.54182 9.35889 60
      vertex 3 7.5 60
    endloop
  endfacet
  facet normal 0 0 1
    outer loop
      vertex 4.50596 13.3475 60
      vertex 1.27226 10.7919 60
      vertex 2.54182 9.35889 60
    endloop
  endfacet
  facet normal 0 0 1
    outer loop
      vertex 4.50596 13.3475 60
      vertex 1 14 60
      vertex 1.27226 10.7919 60
    endloop
  endfacet
  facet normal 0 0 1
    outer loop
      vertex 1.27226 10.7919 60
      vertex 1 14 60
      vertex 1 10.8952 60
    endloop
  endfacet
  facet normal -0 0 1
    outer loop
      vertex 1.27226 4.20806 60
      vertex 4.50596 1.65249 60
      vertex 2.54182 5.64111 60
    endloop
  endfacet
  facet normal 0 0 1
    outer loop
      vertex 1 1 60
      vertex 4.50596 1.65249 60
      vertex 1.27226 4.20806 60
    endloop
  endfacet
  facet normal 0 0 1
    outer loop
      vertex 1 1 60
      vertex 1.27226 4.20806 60
      vertex 1 4.10481 60
    endloop
  endfacet
  facet normal 0 0 1
    outer loop
      vertex 4.50596 1.65249 60
      vertex 1 1 60
      vertex 4.1635 1 60
    endloop
  endfacet
  facet normal 1 -0 0
    outer loop
      vertex 14 1 60
      vertex 14 4.16137 30
      vertex 14 4.16137 60
    endloop
  endfacet
  facet normal 1 0 0
    outer loop
      vertex 14 4.16137 30
      vertex 14 1 60
      vertex 14 1 30
    endloop
  endfacet
  facet normal 1 -0 0
    outer loop
      vertex 14 10.8386 60
      vertex 14 14 30
      vertex 14 14 60
    endloop
  endfacet
  facet normal 1 0 0
    outer loop
      vertex 14 14 30
      vertex 14 10.8386 60
      vertex 14 10.8386 30
    endloop
  endfacet
  facet normal 0 1 -0
    outer loop
      vertex 14 14 30
      vertex 10.9168 14 60
      vertex 14 14 60
    endloop
  endfacet
  facet normal 0 1 0
    outer loop
      vertex 10.9168 14 60
      vertex 14 14 30
      vertex 10.9168 14 30
    endloop
  endfacet
  facet normal 0 1 -0
    outer loop
      vertex 4.1635 14 30
      vertex 1 14 60
      vertex 4.1635 14 60
    endloop
  endfacet
  facet normal 0 1 0
    outer loop
      vertex 1 14 60
      vertex 4.1635 14 30
      vertex 1 14 30
    endloop
  endfacet
  facet normal 0 -1 0
    outer loop
      vertex 10.9168 1 30
      vertex 14 1 60
      vertex 10.9168 1 60
    endloop
  endfacet
  facet normal 0 -1 -0
    outer loop
      vertex 14 1 60
      vertex 10.9168 1 30
      vertex 14 1 30
    endloop
  endfacet
  facet normal 0 -1 0
    outer loop
      vertex 1 1 30
      vertex 4.1635 1 60
      vertex 1 1 60
    endloop
  endfacet
  facet normal 0 -1 -0
    outer loop
      vertex 4.1635 1 60
      vertex 1 1 30
      vertex 4.1635 1 30
    endloop
  endfacet
  facet normal 0.120536 -0.992709 0
    outer loop
      vertex 6.08158 2.74006 30
      vertex 7.98215 2.97083 60
      vertex 6.08158 2.74006 60
    endloop
  endfacet
  facet normal 0.120536 -0.992709 0
    outer loop
      vertex 7.98215 2.97083 60
      vertex 6.08158 2.74006 30
      vertex 7.98215 2.97083 30
    endloop
  endfacet
  facet normal -0.74851 -0.663124 0
    outer loop
      vertex 10.1695 1.84354 30
      vertex 9.77226 2.29193 60
      vertex 9.77226 2.29193 30
    endloop
  endfacet
  facet normal -0.748516 -0.663117 -0
    outer loop
      vertex 10.9168 1 60
      vertex 10.1695 1.84354 30
      vertex 10.9168 1 30
    endloop
  endfacet
  facet normal -0.748514 -0.663119 -1.15539e-07
    outer loop
      vertex 10.1695 1.84354 30
      vertex 10.9168 1 60
      vertex 9.77226 2.29193 60
    endloop
  endfacet
  facet normal -0.354605 -0.935016 0
    outer loop
      vertex 7.98215 2.97083 30
      vertex 9.77226 2.29193 60
      vertex 7.98215 2.97083 60
    endloop
  endfacet
  facet normal -0.354605 -0.935016 -0
    outer loop
      vertex 9.77226 2.29193 60
      vertex 7.98215 2.97083 30
      vertex 9.77226 2.29193 30
    endloop
  endfacet
  facet normal 0.885452 -0.46473 0
    outer loop
      vertex 4.1635 1 60
      vertex 4.50596 1.65249 30
      vertex 4.50596 1.65249 60
    endloop
  endfacet
  facet normal 0.885452 -0.46473 0
    outer loop
      vertex 4.50596 1.65249 30
      vertex 4.1635 1 60
      vertex 4.1635 1 30
    endloop
  endfacet
  facet normal 0.568067 -0.822982 0
    outer loop
      vertex 5.60444 2.41072 30
      vertex 4.50596 1.65249 60
      vertex 4.50596 1.65249 30
    endloop
  endfacet
  facet normal 0.568064 -0.822984 -1.47278e-07
    outer loop
      vertex 4.50596 1.65249 60
      vertex 5.60444 2.41072 30
      vertex 6.08158 2.74006 60
    endloop
  endfacet
  facet normal 0.568058 -0.822989 0
    outer loop
      vertex 6.08158 2.74006 60
      vertex 5.60444 2.41072 30
      vertex 6.08158 2.74006 30
    endloop
  endfacet
  facet normal -0.354605 0.935016 0
    outer loop
      vertex 9.77226 12.7081 30
      vertex 7.98215 12.0292 60
      vertex 9.77226 12.7081 60
    endloop
  endfacet
  facet normal -0.354605 0.935016 0
    outer loop
      vertex 7.98215 12.0292 60
      vertex 9.77226 12.7081 30
      vertex 7.98215 12.0292 30
    endloop
  endfacet
  facet normal 0.885455 0.464725 0
    outer loop
      vertex 4.50596 13.3475 60
      vertex 4.1635 14 30
      vertex 4.1635 14 60
    endloop
  endfacet
  facet normal 0.885455 0.464725 0
    outer loop
      vertex 4.1635 14 30
      vertex 4.50596 13.3475 60
      vertex 4.50596 13.3475 30
    endloop
  endfacet
  facet normal -0.748551 0.663077 0
    outer loop
      vertex 10.2574 13.2556 30
      vertex 10.9168 14 60
      vertex 10.9168 14 30
    endloop
  endfacet
  facet normal -0.748445 0.663197 0
    outer loop
      vertex 9.77226 12.7081 60
      vertex 10.2574 13.2556 30
      vertex 9.77226 12.7081 30
    endloop
  endfacet
  facet normal -0.748506 0.663128 -2.25411e-06
    outer loop
      vertex 10.2574 13.2556 30
      vertex 9.77226 12.7081 60
      vertex 10.9168 14 60
    endloop
  endfacet
  facet normal 0.1205 0.992713 -0
    outer loop
      vertex 7.98215 12.0292 30
      vertex 6.08158 12.2599 60
      vertex 7.98215 12.0292 60
    endloop
  endfacet
  facet normal 0.120496 0.992714 -2.50321e-07
    outer loop
      vertex 6.15896 12.2505 30
      vertex 6.08158 12.2599 60
      vertex 7.98215 12.0292 30
    endloop
  endfacet
  facet normal 0.120592 0.992702 0
    outer loop
      vertex 6.08158 12.2599 60
      vertex 6.15896 12.2505 30
      vertex 6.08158 12.2599 30
    endloop
  endfacet
  facet normal 0.568075 0.822977 -0
    outer loop
      vertex 6.08158 12.2599 30
      vertex 4.50596 13.3475 60
      vertex 6.08158 12.2599 60
    endloop
  endfacet
  facet normal 0.568075 0.822977 0
    outer loop
      vertex 4.50596 13.3475 60
      vertex 6.08158 12.2599 30
      vertex 4.50596 13.3475 30
    endloop
  endfacet
  facet normal 1 -0 0
    outer loop
      vertex 12.1162 6.54274 60
      vertex 12.1162 8.45726 30
      vertex 12.1162 8.45726 60
    endloop
  endfacet
  facet normal 1 0 0
    outer loop
      vertex 12.1162 8.45726 30
      vertex 12.1162 6.54274 60
      vertex 12.1162 6.54274 30
    endloop
  endfacet
  facet normal 0.56921 -0.822192 0
    outer loop
      vertex 13.0112 10.1561 30
      vertex 13.006 10.1525 60
      vertex 13.006 10.1525 30
    endloop
  endfacet
  facet normal 0.56806 -0.822987 -2.94752e-07
    outer loop
      vertex 13.006 10.1525 60
      vertex 13.0112 10.1561 30
      vertex 14 10.8386 60
    endloop
  endfacet
  facet normal 0.568054 -0.822991 0
    outer loop
      vertex 14 10.8386 60
      vertex 13.0112 10.1561 30
      vertex 14 10.8386 30
    endloop
  endfacet
  facet normal 0.885441 -0.464752 0
    outer loop
      vertex 12.1162 8.45726 60
      vertex 13.006 10.1525 30
      vertex 13.006 10.1525 60
    endloop
  endfacet
  facet normal 0.885441 -0.464752 0
    outer loop
      vertex 13.006 10.1525 30
      vertex 12.1162 8.45726 60
      vertex 12.1162 8.45726 30
    endloop
  endfacet
  facet normal 0.885426 0.46478 0
    outer loop
      vertex 12.1162 6.54274 60
      vertex 12.3363 6.12344 30
      vertex 12.1162 6.54274 30
    endloop
  endfacet
  facet normal 0.88544 0.464754 4.69785e-07
    outer loop
      vertex 13.006 4.84751 60
      vertex 12.3363 6.12344 30
      vertex 12.1162 6.54274 60
    endloop
  endfacet
  facet normal 0.885445 0.464745 0
    outer loop
      vertex 12.3363 6.12344 30
      vertex 13.006 4.84751 60
      vertex 13.006 4.84751 30
    endloop
  endfacet
  facet normal 0.568082 0.822972 -0
    outer loop
      vertex 14 4.16137 30
      vertex 13.006 4.84751 60
      vertex 14 4.16137 60
    endloop
  endfacet
  facet normal 0.568082 0.822972 0
    outer loop
      vertex 13.006 4.84751 60
      vertex 14 4.16137 30
      vertex 13.006 4.84751 30
    endloop
  endfacet
  facet normal -0.970941 -0.239318 0
    outer loop
      vertex 3 7.5 30
      vertex 2.54182 9.35889 60
      vertex 2.54182 9.35889 30
    endloop
  endfacet
  facet normal -0.970941 -0.239318 0
    outer loop
      vertex 2.54182 9.35889 60
      vertex 3 7.5 30
      vertex 3 7.5 60
    endloop
  endfacet
  facet normal -0.748489 -0.663147 0
    outer loop
      vertex 1.82901 10.1635 30
      vertex 1.27226 10.7919 60
      vertex 1.27226 10.7919 30
    endloop
  endfacet
  facet normal -0.748516 -0.663116 -0
    outer loop
      vertex 2.54182 9.35889 60
      vertex 1.82901 10.1635 30
      vertex 2.54182 9.35889 30
    endloop
  endfacet
  facet normal -0.748505 -0.66313 -6.4096e-07
    outer loop
      vertex 1.82901 10.1635 30
      vertex 2.54182 9.35889 60
      vertex 1.27226 10.7919 60
    endloop
  endfacet
  facet normal -0.354591 0.935021 0
    outer loop
      vertex 1.27226 4.20806 30
      vertex 1 4.10481 60
      vertex 1.27226 4.20806 60
    endloop
  endfacet
  facet normal -0.354591 0.935021 0
    outer loop
      vertex 1 4.10481 60
      vertex 1.27226 4.20806 30
      vertex 1 4.10481 30
    endloop
  endfacet
  facet normal -0.354741 -0.934965 0
    outer loop
      vertex 1 10.8952 30
      vertex 1.27226 10.7919 60
      vertex 1 10.8952 60
    endloop
  endfacet
  facet normal -0.354741 -0.934965 -0
    outer loop
      vertex 1.27226 10.7919 60
      vertex 1 10.8952 30
      vertex 1.27226 10.7919 30
    endloop
  endfacet
  facet normal -0.748514 0.663119 0
    outer loop
      vertex 1.27226 4.20806 30
      vertex 2.54182 5.64111 60
      vertex 2.54182 5.64111 30
    endloop
  endfacet
  facet normal -0.748514 0.663119 0
    outer loop
      vertex 2.54182 5.64111 60
      vertex 1.27226 4.20806 30
      vertex 1.27226 4.20806 60
    endloop
  endfacet
  facet normal -0.970942 0.239313 0
    outer loop
      vertex 2.54667 5.66075 30
      vertex 3 7.5 60
      vertex 3 7.5 30
    endloop
  endfacet
  facet normal -0.970836 0.239743 0
    outer loop
      vertex 2.54182 5.64111 60
      vertex 2.54667 5.66075 30
      vertex 2.54182 5.64111 30
    endloop
  endfacet
  facet normal -0.970941 0.239318 -2.95309e-07
    outer loop
      vertex 2.54667 5.66075 30
      vertex 2.54182 5.64111 60
      vertex 3 7.5 60
    endloop
  endfacet
endsolid OpenSCAD_Model
