solid OpenSCAD_Model
  facet normal -1 0 0
    outer loop
      vertex 0 0 0
      vertex 0 6.25 15
      vertex 0 6.25 0
    endloop
  endfacet
  facet normal -1 -0 0
    outer loop
      vertex 0 6.25 15
      vertex 0 0 0
      vertex 0 0 15
    endloop
  endfacet
  facet normal -1 0 0
    outer loop
      vertex 0 8.75 0
      vertex 0 15 15
      vertex 0 15 0
    endloop
  endfacet
  facet normal -1 -0 0
    outer loop
      vertex 0 15 15
      vertex 0 8.75 0
      vertex 0 8.75 15
    endloop
  endfacet
  facet normal 0 0 1
    outer loop
      vertex 1.55496 5.55014 15
      vertex 2.54182 5.64111 15
      vertex 2.57689 5.78339 15
    endloop
  endfacet
  facet normal -0 0 1
    outer loop
      vertex 1.55496 5.55014 15
      vertex 1.27226 4.20806 15
      vertex 2.54182 5.64111 15
    endloop
  endfacet
  facet normal 0 0 1
    outer loop
      vertex 1.55496 5.55014 15
      vertex 1 4.10481 15
      vertex 1.27226 4.20806 15
    endloop
  endfacet
  facet normal -0 0 1
    outer loop
      vertex 0 6.25 15
      vertex 1 4.10481 15
      vertex 0.677365 6.25 15
    endloop
  endfacet
  facet normal 0 0 1
    outer loop
      vertex 0.677365 6.25 15
      vertex 1 4.10481 15
      vertex 1.55496 5.55014 15
    endloop
  endfacet
  facet normal 0 0 1
    outer loop
      vertex 5.69806 2.47534 15
      vertex 4.50596 1.65249 15
      vertex 5.69806 1.13223 15
    endloop
  endfacet
  facet normal 0 0 1
    outer loop
      vertex 5.69806 1.13223 15
      vertex 6.25 0 15
      vertex 6.25 0.692076 15
    endloop
  endfacet
  facet normal 0 0 1
    outer loop
      vertex 4.1635 1 15
      vertex 5.69806 1.13223 15
      vertex 4.50596 1.65249 15
    endloop
  endfacet
  facet normal 0 0 1
    outer loop
      vertex 5.69806 1.13223 15
      vertex 4.1635 1 15
      vertex 6.25 0 15
    endloop
  endfacet
  facet normal 0 0 1
    outer loop
      vertex 0 0 15
      vertex 4.1635 1 15
      vertex 1 1 15
    endloop
  endfacet
  facet normal 0 0 1
    outer loop
      vertex 0 0 15
      vertex 1 4.10481 15
      vertex 0 6.25 15
    endloop
  endfacet
  facet normal 0 0 1
    outer loop
      vertex 4.1635 1 15
      vertex 0 0 15
      vertex 6.25 0 15
    endloop
  endfacet
  facet normal 0 0 1
    outer loop
      vertex 1 4.10481 15
      vertex 0 0 15
      vertex 1 1 15
    endloop
  endfacet
  facet normal -0 0 1
    outer loop
      vertex 14 10.8386 15
      vertex 15 8.75 15
      vertex 15 15 15
    endloop
  endfacet
  facet normal -0 -0 1
    outer loop
      vertex 14.247 9.06366 15
      vertex 15 8.75 15
      vertex 14 10.8386 15
    endloop
  endfacet
  facet normal 0 0 1
    outer loop
      vertex 14 10.8386 15
      vertex 15 15 15
      vertex 14 14 15
    endloop
  endfacet
  facet normal 0 0 1
    outer loop
      vertex 15 15 15
      vertex 10.9168 14 15
      vertex 14 14 15
    endloop
  endfacet
  facet normal 0 0 1
    outer loop
      vertex 10.9168 14 15
      vertex 9.5 13 15
      vertex 9.77226 12.7081 15
    endloop
  endfacet
  facet normal 0 0 1
    outer loop
      vertex 10.9168 14 15
      vertex 8.74698 14.5637 15
      vertex 9.5 13 15
    endloop
  endfacet
  facet normal -0 0 1
    outer loop
      vertex 8.25 15 15
      vertex 10.9168 14 15
      vertex 15 15 15
    endloop
  endfacet
  facet normal 0 0 1
    outer loop
      vertex 10.9168 14 15
      vertex 8.25 15 15
      vertex 8.74698 14.5637 15
    endloop
  endfacet
  facet normal 0 0 1
    outer loop
      vertex 8.74698 14.5637 15
      vertex 8.25 15 15
      vertex 8.25 14.6771 15
    endloop
  endfacet
  facet normal 0 0 1
    outer loop
      vertex 15 8.75 15
      vertex 14.247 9.06366 15
      vertex 14.398 8.75 15
    endloop
  endfacet
  facet normal -0 0 1
    outer loop
      vertex 13.006 10.1525 15
      vertex 14.247 9.06366 15
      vertex 14 10.8386 15
    endloop
  endfacet
  facet normal 0 0 1
    outer loop
      vertex 14.247 9.06366 15
      vertex 13.006 10.1525 15
      vertex 12.6284 9.4331 15
    endloop
  endfacet
  facet normal 0 0 1
    outer loop
      vertex 9.77226 12.7081 15
      vertex 9.5 13 15
      vertex 9.26716 12.5165 15
    endloop
  endfacet
  facet normal 0 0 1
    outer loop
      vertex 6.25 15 15
      vertex 5.69806 13.8678 15
      vertex 6.25 14.3079 15
    endloop
  endfacet
  facet normal 0 0 1
    outer loop
      vertex 5.69806 13.8678 15
      vertex 4.50596 13.3475 15
      vertex 5.69806 12.5247 15
    endloop
  endfacet
  facet normal -0 0 1
    outer loop
      vertex 4.1635 14 15
      vertex 5.69806 13.8678 15
      vertex 6.25 15 15
    endloop
  endfacet
  facet normal 0 0 1
    outer loop
      vertex 5.69806 13.8678 15
      vertex 4.1635 14 15
      vertex 4.50596 13.3475 15
    endloop
  endfacet
  facet normal -0 0 1
    outer loop
      vertex 0 15 15
      vertex 4.1635 14 15
      vertex 6.25 15 15
    endloop
  endfacet
  facet normal 0 0 1
    outer loop
      vertex 0 15 15
      vertex 1 10.8952 15
      vertex 1 14 15
    endloop
  endfacet
  facet normal 0 0 1
    outer loop
      vertex 4.1635 14 15
      vertex 0 15 15
      vertex 1 14 15
    endloop
  endfacet
  facet normal 0 0 1
    outer loop
      vertex 1 10.8952 15
      vertex 0 15 15
      vertex 0 8.75 15
    endloop
  endfacet
  facet normal 0 0 1
    outer loop
      vertex 1 10.8952 15
      vertex 0 8.75 15
      vertex 0.677366 8.75 15
    endloop
  endfacet
  facet normal 0 0 1
    outer loop
      vertex 2.54182 9.35889 15
      vertex 1.55496 9.44986 15
      vertex 2.57689 9.21661 15
    endloop
  endfacet
  facet normal 0 0 1
    outer loop
      vertex 1.27226 10.7919 15
      vertex 1.55496 9.44986 15
      vertex 2.54182 9.35889 15
    endloop
  endfacet
  facet normal 0 0 1
    outer loop
      vertex 1 10.8952 15
      vertex 1.55496 9.44986 15
      vertex 1.27226 10.7919 15
    endloop
  endfacet
  facet normal 0 0 1
    outer loop
      vertex 1.55496 9.44986 15
      vertex 1 10.8952 15
      vertex 0.677366 8.75 15
    endloop
  endfacet
  facet normal 0 0 1
    outer loop
      vertex 9.77226 2.29193 15
      vertex 9.26716 2.48349 15
      vertex 9.5 2 15
    endloop
  endfacet
  facet normal 0 0 1
    outer loop
      vertex 14.247 5.93634 15
      vertex 13.006 4.84751 15
      vertex 14 4.16137 15
    endloop
  endfacet
  facet normal 0 -0 1
    outer loop
      vertex 13.006 4.84751 15
      vertex 14.247 5.93634 15
      vertex 12.6284 5.5669 15
    endloop
  endfacet
  facet normal 0 0 1
    outer loop
      vertex 14.247 5.93634 15
      vertex 15 6.25 15
      vertex 14.398 6.25 15
    endloop
  endfacet
  facet normal 0 0 1
    outer loop
      vertex 15 6.25 15
      vertex 14.247 5.93634 15
      vertex 14 4.16137 15
    endloop
  endfacet
  facet normal 0 0 1
    outer loop
      vertex 15 6.25 15
      vertex 14 4.16137 15
      vertex 15 0 15
    endloop
  endfacet
  facet normal -0 0 1
    outer loop
      vertex 14 1 15
      vertex 15 0 15
      vertex 14 4.16137 15
    endloop
  endfacet
  facet normal -0 0 1
    outer loop
      vertex 10.9168 1 15
      vertex 15 0 15
      vertex 14 1 15
    endloop
  endfacet
  facet normal -0 0 1
    outer loop
      vertex 9.5 2 15
      vertex 10.9168 1 15
      vertex 9.77226 2.29193 15
    endloop
  endfacet
  facet normal 0 0 1
    outer loop
      vertex 8.75 0.44261 15
      vertex 10.9168 1 15
      vertex 9.5 2 15
    endloop
  endfacet
  facet normal 0 0 1
    outer loop
      vertex 8.75 0 15
      vertex 10.9168 1 15
      vertex 8.75 0.44261 15
    endloop
  endfacet
  facet normal 0 0 1
    outer loop
      vertex 10.9168 1 15
      vertex 8.75 0 15
      vertex 15 0 15
    endloop
  endfacet
  facet normal 0 0 -1
    outer loop
      vertex 7.98215 2.97083 15
      vertex 8.74698 3.56366 15
      vertex 9.26716 2.48349 15
    endloop
  endfacet
  facet normal 0 0 -1
    outer loop
      vertex 7.98215 2.97083 15
      vertex 7.05496 3.94986 15
      vertex 8.74698 3.56366 15
    endloop
  endfacet
  facet normal 0 0 -1
    outer loop
      vertex 6.08158 2.74006 15
      vertex 7.05496 3.94986 15
      vertex 7.98215 2.97083 15
    endloop
  endfacet
  facet normal 0 0 -1
    outer loop
      vertex 5.69806 2.86777 15
      vertex 6.08158 2.74006 15
      vertex 5.69806 2.47534 15
    endloop
  endfacet
  facet normal 0 0 -1
    outer loop
      vertex 6.08158 2.74006 15
      vertex 5.69806 2.86777 15
      vertex 7.05496 3.94986 15
    endloop
  endfacet
  facet normal 0 0 -1
    outer loop
      vertex 8.74698 11.4363 15
      vertex 7.98215 12.0292 15
      vertex 9.26716 12.5165 15
    endloop
  endfacet
  facet normal 0 0 -1
    outer loop
      vertex 7.05496 11.0501 15
      vertex 7.98215 12.0292 15
      vertex 8.74698 11.4363 15
    endloop
  endfacet
  facet normal 0 0 -1
    outer loop
      vertex 7.05496 11.0501 15
      vertex 6.08158 12.2599 15
      vertex 7.98215 12.0292 15
    endloop
  endfacet
  facet normal 0 0 -1
    outer loop
      vertex 5.69806 12.1322 15
      vertex 6.08158 12.2599 15
      vertex 7.05496 11.0501 15
    endloop
  endfacet
  facet normal -0 0 -1
    outer loop
      vertex 6.08158 12.2599 15
      vertex 5.69806 12.1322 15
      vertex 5.69806 12.5247 15
    endloop
  endfacet
  facet normal 0 0 -1
    outer loop
      vertex 12.555 5.55014 15
      vertex 12.1162 6.54274 15
      vertex 12.6284 5.5669 15
    endloop
  endfacet
  facet normal 0 0 -1
    outer loop
      vertex 12.1162 6.54274 15
      vertex 11.1981 6.63223 15
      vertex 12.1162 8.45726 15
    endloop
  endfacet
  facet normal 0 0 -1
    outer loop
      vertex 11.1981 6.63223 15
      vertex 12.1162 6.54274 15
      vertex 12.555 5.55014 15
    endloop
  endfacet
  facet normal 0 0 -1
    outer loop
      vertex 12.1162 8.45726 15
      vertex 12.555 9.44986 15
      vertex 12.6284 9.4331 15
    endloop
  endfacet
  facet normal 0 0 -1
    outer loop
      vertex 11.1981 8.36777 15
      vertex 12.1162 8.45726 15
      vertex 11.1981 6.63223 15
    endloop
  endfacet
  facet normal -0 0 -1
    outer loop
      vertex 12.1162 8.45726 15
      vertex 11.1981 8.36777 15
      vertex 12.555 9.44986 15
    endloop
  endfacet
  facet normal 0 0 -1
    outer loop
      vertex 3 7.5 15
      vertex 4 7.5 15
      vertex 3.24698 5.93634 15
    endloop
  endfacet
  facet normal 0 0 -1
    outer loop
      vertex 4 7.5 15
      vertex 3 7.5 15
      vertex 3.24698 9.06366 15
    endloop
  endfacet
  facet normal 0 -0 -1
    outer loop
      vertex 3 7.5 15
      vertex 3.24698 5.93634 15
      vertex 2.57689 5.78339 15
    endloop
  endfacet
  facet normal -0 0 -1
    outer loop
      vertex 3.24698 9.06366 15
      vertex 3 7.5 15
      vertex 2.57689 9.21661 15
    endloop
  endfacet
  facet normal 1 -0 0
    outer loop
      vertex 15 0 15
      vertex 15 6.25 0
      vertex 15 6.25 15
    endloop
  endfacet
  facet normal 1 0 0
    outer loop
      vertex 15 6.25 0
      vertex 15 0 15
      vertex 15 0 0
    endloop
  endfacet
  facet normal 1 -0 0
    outer loop
      vertex 15 8.75 15
      vertex 15 15 0
      vertex 15 15 15
    endloop
  endfacet
  facet normal 1 0 0
    outer loop
      vertex 15 15 0
      vertex 15 8.75 15
      vertex 15 8.75 0
    endloop
  endfacet
  facet normal 0 0 -1
    outer loop
      vertex 0 0 0
      vertex 5.5 2 0
      vertex 5.5 0 0
    endloop
  endfacet
  facet normal 0 0 -1
    outer loop
      vertex 5.5 2 0
      vertex 4 7.5 0
      vertex 5.5 13 0
    endloop
  endfacet
  facet normal 0 0 -1
    outer loop
      vertex 3.24698 9.06366 0
      vertex 5.5 13 0
      vertex 4 7.5 0
    endloop
  endfacet
  facet normal 0 0 -1
    outer loop
      vertex 5.5 2 0
      vertex 3.24698 5.93634 0
      vertex 4 7.5 0
    endloop
  endfacet
  facet normal 0 0 -1
    outer loop
      vertex 5.5 2 0
      vertex 1.55496 5.55014 0
      vertex 3.24698 5.93634 0
    endloop
  endfacet
  facet normal -0 0 -1
    outer loop
      vertex 5.5 2 0
      vertex 0 0 0
      vertex 1.55496 5.55014 0
    endloop
  endfacet
  facet normal 0 0 -1
    outer loop
      vertex 0 6.25 0
      vertex 1.55496 5.55014 0
      vertex 0 0 0
    endloop
  endfacet
  facet normal 0 0 -1
    outer loop
      vertex 1.55496 5.55014 0
      vertex 0 6.25 0
      vertex 0.677365 6.25 0
    endloop
  endfacet
  facet normal 0 0 -1
    outer loop
      vertex 5.5 2 0
      vertex 5.69806 2.86777 0
      vertex 5.69806 2 0
    endloop
  endfacet
  facet normal -0 0 -1
    outer loop
      vertex 5.69806 2.86777 0
      vertex 5.5 2 0
      vertex 5.69806 12.1322 0
    endloop
  endfacet
  facet normal 0 0 -1
    outer loop
      vertex 5.5 13 0
      vertex 5.69806 12.1322 0
      vertex 5.5 2 0
    endloop
  endfacet
  facet normal 0 0 -1
    outer loop
      vertex 5.69806 12.1322 0
      vertex 5.5 13 0
      vertex 5.69806 13 0
    endloop
  endfacet
  facet normal 0 0 -1
    outer loop
      vertex 5.69806 2.86777 0
      vertex 6.25 11.6921 0
      vertex 6.25 3.30792 0
    endloop
  endfacet
  facet normal -0 0 -1
    outer loop
      vertex 6.25 11.6921 0
      vertex 5.69806 2.86777 0
      vertex 5.69806 12.1322 0
    endloop
  endfacet
  facet normal 0 0 -1
    outer loop
      vertex 1.55496 9.44986 0
      vertex 5.5 13 0
      vertex 3.24698 9.06366 0
    endloop
  endfacet
  facet normal 0 0 -1
    outer loop
      vertex 0 15 0
      vertex 5.5 13 0
      vertex 1.55496 9.44986 0
    endloop
  endfacet
  facet normal 0 0 -1
    outer loop
      vertex 0 8.75 0
      vertex 1.55496 9.44986 0
      vertex 0.677366 8.75 0
    endloop
  endfacet
  facet normal -0 0 -1
    outer loop
      vertex 1.55496 9.44986 0
      vertex 0 8.75 0
      vertex 0 15 0
    endloop
  endfacet
  facet normal 0 0 -1
    outer loop
      vertex 5.5 13 0
      vertex 0 15 0
      vertex 5.5 15 0
    endloop
  endfacet
  facet normal 0 0 -1
    outer loop
      vertex 14.247 5.93634 0
      vertex 15 6.25 0
      vertex 15 0 0
    endloop
  endfacet
  facet normal -0 0 -1
    outer loop
      vertex 15 6.25 0
      vertex 14.247 5.93634 0
      vertex 14.398 6.25 0
    endloop
  endfacet
  facet normal 0 0 -1
    outer loop
      vertex 15 0 0
      vertex 12.555 5.55014 0
      vertex 14.247 5.93634 0
    endloop
  endfacet
  facet normal 0 0 -1
    outer loop
      vertex 9.5 2 0
      vertex 12.555 5.55014 0
      vertex 15 0 0
    endloop
  endfacet
  facet normal 0 0 -1
    outer loop
      vertex 8.75 3.55739 0
      vertex 12.555 5.55014 0
      vertex 9.5 2 0
    endloop
  endfacet
  facet normal 0 0 -1
    outer loop
      vertex 9.5 2 0
      vertex 15 0 0
      vertex 9.5 0 0
    endloop
  endfacet
  facet normal 0 0 -1
    outer loop
      vertex 14.247 9.06366 0
      vertex 15 8.75 0
      vertex 14.398 8.75 0
    endloop
  endfacet
  facet normal 0 0 -1
    outer loop
      vertex 15 8.75 0
      vertex 14.247 9.06366 0
      vertex 15 15 0
    endloop
  endfacet
  facet normal 0 0 -1
    outer loop
      vertex 12.555 9.44986 0
      vertex 15 15 0
      vertex 14.247 9.06366 0
    endloop
  endfacet
  facet normal 0 0 -1
    outer loop
      vertex 8.75 11.4426 0
      vertex 12.555 9.44986 0
      vertex 11.1981 8.36777 0
    endloop
  endfacet
  facet normal -0 0 -1
    outer loop
      vertex 12.555 5.55014 0
      vertex 8.75 3.55739 0
      vertex 11.1981 6.63223 0
    endloop
  endfacet
  facet normal -0 0 -1
    outer loop
      vertex 11.1981 6.63223 0
      vertex 8.75 3.55739 0
      vertex 11.1981 8.36777 0
    endloop
  endfacet
  facet normal 0 0 -1
    outer loop
      vertex 12.555 9.44986 0
      vertex 9.5 13 0
      vertex 15 15 0
    endloop
  endfacet
  facet normal -0 0 -1
    outer loop
      vertex 15 15 0
      vertex 9.5 13 0
      vertex 9.5 15 0
    endloop
  endfacet
  facet normal 0 0 -1
    outer loop
      vertex 8.75 11.4426 0
      vertex 11.1981 8.36777 0
      vertex 8.75 3.55739 0
    endloop
  endfacet
  facet normal 0 0 -1
    outer loop
      vertex 12.555 9.44986 0
      vertex 8.75 11.4426 0
      vertex 9.5 13 0
    endloop
  endfacet
  facet normal 0 -1 0
    outer loop
      vertex 9.5 0 4
      vertex 8.75 0 15
      vertex 8.75 0 4
    endloop
  endfacet
  facet normal 0 -1 0
    outer loop
      vertex 8.75 0 15
      vertex 9.5 0 4
      vertex 15 0 15
    endloop
  endfacet
  facet normal 0 -1 0
    outer loop
      vertex 15 0 0
      vertex 9.5 0 4
      vertex 9.5 0 0
    endloop
  endfacet
  facet normal 0 -1 0
    outer loop
      vertex 9.5 0 4
      vertex 15 0 0
      vertex 15 0 15
    endloop
  endfacet
  facet normal 0 -1 0
    outer loop
      vertex 0 0 15
      vertex 5.5 0 4
      vertex 6.25 0 15
    endloop
  endfacet
  facet normal 0 -1 0
    outer loop
      vertex 0 0 0
      vertex 5.5 0 4
      vertex 0 0 15
    endloop
  endfacet
  facet normal 0 -1 -0
    outer loop
      vertex 5.5 0 4
      vertex 0 0 0
      vertex 5.5 0 0
    endloop
  endfacet
  facet normal 0 -1 -0
    outer loop
      vertex 6.25 0 15
      vertex 5.5 0 4
      vertex 6.25 0 4
    endloop
  endfacet
  facet normal 0 1 0
    outer loop
      vertex 15 15 15
      vertex 9.5 15 4
      vertex 8.25 15 15
    endloop
  endfacet
  facet normal 0 1 -0
    outer loop
      vertex 15 15 0
      vertex 9.5 15 4
      vertex 15 15 15
    endloop
  endfacet
  facet normal 0 1 0
    outer loop
      vertex 9.5 15 4
      vertex 15 15 0
      vertex 9.5 15 0
    endloop
  endfacet
  facet normal 0 1 0
    outer loop
      vertex 8.25 15 15
      vertex 9.5 15 4
      vertex 8.25 15 4
    endloop
  endfacet
  facet normal 0 1 0
    outer loop
      vertex 5.5 15 4
      vertex 6.25 15 15
      vertex 6.25 15 4
    endloop
  endfacet
  facet normal 0 1 0
    outer loop
      vertex 6.25 15 15
      vertex 5.5 15 4
      vertex 0 15 15
    endloop
  endfacet
  facet normal 0 1 0
    outer loop
      vertex 0 15 0
      vertex 5.5 15 4
      vertex 5.5 15 0
    endloop
  endfacet
  facet normal 0 1 0
    outer loop
      vertex 5.5 15 4
      vertex 0 15 0
      vertex 0 15 15
    endloop
  endfacet
  facet normal -0.900969 -0.433884 0
    outer loop
      vertex 9.5 2 4
      vertex 8.74698 3.56366 15
      vertex 8.74698 3.56366 3.56366
    endloop
  endfacet
  facet normal -0.900969 -0.433884 -0
    outer loop
      vertex 9.5 2 4
      vertex 8.74698 3.56366 3.56366
      vertex 9.5 2 2
    endloop
  endfacet
  facet normal -0.90097 -0.433882 -3.75694e-07
    outer loop
      vertex 8.74698 3.56366 15
      vertex 9.5 2 4
      vertex 9.26716 2.48349 15
    endloop
  endfacet
  facet normal -0.900966 -0.433889 0
    outer loop
      vertex 9.26716 2.48349 15
      vertex 9.5 2 4
      vertex 9.5 2 15
    endloop
  endfacet
  facet normal -0.900969 -0.433884 0
    outer loop
      vertex 9.5 2 0
      vertex 8.75 3.55739 0.44261
      vertex 8.75 3.55739 0
    endloop
  endfacet
  facet normal -0.900969 -0.433884 0
    outer loop
      vertex 8.75 3.55739 0.44261
      vertex 9.5 2 0
      vertex 9.5 2 2
    endloop
  endfacet
  facet normal 1 -0 0
    outer loop
      vertex 5.69806 1.13223 15
      vertex 5.69806 2 4
      vertex 5.69806 2.47534 15
    endloop
  endfacet
  facet normal 1 0 0
    outer loop
      vertex 5.69806 2 4
      vertex 5.69806 1.13223 15
      vertex 5.69806 1.13223 4
    endloop
  endfacet
  facet normal 1 -0 0
    outer loop
      vertex 5.69806 2 4
      vertex 5.69806 2.86777 2.86777
      vertex 5.69806 2.86777 15
    endloop
  endfacet
  facet normal 1 0 0
    outer loop
      vertex 5.69806 2.86777 2.86777
      vertex 5.69806 2 4
      vertex 5.69806 2.86777 1.13223
    endloop
  endfacet
  facet normal 1 0 0
    outer loop
      vertex 5.69806 2 4
      vertex 5.69806 2.86777 15
      vertex 5.69806 2.47534 15
    endloop
  endfacet
  facet normal 1 0 0
    outer loop
      vertex 5.69806 2 0
      vertex 5.69806 2.86777 1.13223
      vertex 5.69806 2 4
    endloop
  endfacet
  facet normal 1 0 0
    outer loop
      vertex 5.69806 2.86777 1.13223
      vertex 5.69806 2 0
      vertex 5.69806 2.86777 0
    endloop
  endfacet
  facet normal 1 -0 0
    outer loop
      vertex 5.69806 2.86777 2.86777
      vertex 5.69806 12.1322 1.13223
      vertex 5.69806 12.1322 2.86777
    endloop
  endfacet
  facet normal 1 0 0
    outer loop
      vertex 5.69806 12.1322 1.13223
      vertex 5.69806 2.86777 2.86777
      vertex 5.69806 2.86777 1.13223
    endloop
  endfacet
  facet normal 1 0 0
    outer loop
      vertex 5.69806 13.8678 15
      vertex 5.69806 13 4
      vertex 5.69806 13.8678 4
    endloop
  endfacet
  facet normal 1 -0 0
    outer loop
      vertex 5.69806 12.5247 15
      vertex 5.69806 13 4
      vertex 5.69806 13.8678 15
    endloop
  endfacet
  facet normal 1 -0 0
    outer loop
      vertex 5.69806 12.1322 15
      vertex 5.69806 13 4
      vertex 5.69806 12.5247 15
    endloop
  endfacet
  facet normal 1 0 0
    outer loop
      vertex 5.69806 13 4
      vertex 5.69806 12.1322 15
      vertex 5.69806 12.1322 2.86777
    endloop
  endfacet
  facet normal 1 0 0
    outer loop
      vertex 5.69806 13 4
      vertex 5.69806 12.1322 2.86777
      vertex 5.69806 13 0
    endloop
  endfacet
  facet normal 1 -0 0
    outer loop
      vertex 5.69806 12.1322 1.13223
      vertex 5.69806 13 0
      vertex 5.69806 12.1322 2.86777
    endloop
  endfacet
  facet normal 1 0 0
    outer loop
      vertex 5.69806 13 0
      vertex 5.69806 12.1322 1.13223
      vertex 5.69806 12.1322 0
    endloop
  endfacet
  facet normal -0.222525 -0.974927 0
    outer loop
      vertex 7.05496 3.94986 3.94986
      vertex 8.74698 3.56366 15
      vertex 7.05496 3.94986 15
    endloop
  endfacet
  facet normal -0.222525 -0.974927 -0
    outer loop
      vertex 8.74698 3.56366 15
      vertex 7.05496 3.94986 3.94986
      vertex 8.74698 3.56366 3.56366
    endloop
  endfacet
  facet normal 0.623487 0.781834 -0
    outer loop
      vertex 6.25 0.692076 4
      vertex 5.69806 1.13223 15
      vertex 6.25 0.692076 15
    endloop
  endfacet
  facet normal 0.623487 0.781834 0
    outer loop
      vertex 5.69806 1.13223 15
      vertex 6.25 0.692076 4
      vertex 5.69806 1.13223 4
    endloop
  endfacet
  facet normal 0.623483 -0.781837 0
    outer loop
      vertex 5.69806 2.86777 0
      vertex 6.25 3.30792 0.692076
      vertex 5.69806 2.86777 1.13223
    endloop
  endfacet
  facet normal 0.623483 -0.781837 0
    outer loop
      vertex 6.25 3.30792 0.692076
      vertex 5.69806 2.86777 0
      vertex 6.25 3.30792 0
    endloop
  endfacet
  facet normal 0.623489 -0.781832 0
    outer loop
      vertex 5.69806 2.86777 15
      vertex 7.05496 3.94986 3.94986
      vertex 7.05496 3.94986 15
    endloop
  endfacet
  facet normal 0.623489 -0.781832 0
    outer loop
      vertex 7.05496 3.94986 3.94986
      vertex 5.69806 2.86777 15
      vertex 5.69806 2.86777 2.86777
    endloop
  endfacet
  facet normal -0.900969 0.433884 0
    outer loop
      vertex 8.75 0.44261 4
      vertex 9.5 2 15
      vertex 9.5 2 4
    endloop
  endfacet
  facet normal -0.900969 0.433884 0
    outer loop
      vertex 9.5 2 15
      vertex 8.75 0.44261 4
      vertex 8.75 0.44261 15
    endloop
  endfacet
  facet normal -0.900973 -0.433875 0
    outer loop
      vertex 9.5 13 4
      vertex 8.74698 14.5637 15
      vertex 8.74698 14.5637 4
    endloop
  endfacet
  facet normal -0.900973 -0.433875 0
    outer loop
      vertex 8.74698 14.5637 15
      vertex 9.5 13 4
      vertex 9.5 13 15
    endloop
  endfacet
  facet normal -0.22246 -0.974942 0
    outer loop
      vertex 8.25 14.6771 4
      vertex 8.74698 14.5637 15
      vertex 8.25 14.6771 15
    endloop
  endfacet
  facet normal -0.22246 -0.974942 -0
    outer loop
      vertex 8.74698 14.5637 15
      vertex 8.25 14.6771 4
      vertex 8.74698 14.5637 4
    endloop
  endfacet
  facet normal 0.62344 0.781871 0
    outer loop
      vertex 5.69806 12.1322 0
      vertex 6.25 11.6921 0.692076
      vertex 6.25 11.6921 0
    endloop
  endfacet
  facet normal 0.62344 0.781871 0
    outer loop
      vertex 6.25 11.6921 0.692076
      vertex 5.69806 12.1322 0
      vertex 5.69806 12.1322 1.13223
    endloop
  endfacet
  facet normal 0.623493 0.781829 -0
    outer loop
      vertex 7.05496 11.0501 3.94986
      vertex 5.69806 12.1322 15
      vertex 7.05496 11.0501 15
    endloop
  endfacet
  facet normal 0.623493 0.781829 0
    outer loop
      vertex 5.69806 12.1322 15
      vertex 7.05496 11.0501 3.94986
      vertex 5.69806 12.1322 2.86777
    endloop
  endfacet
  facet normal 0.62344 -0.781871 0
    outer loop
      vertex 5.69806 13.8678 4
      vertex 6.25 14.3079 15
      vertex 5.69806 13.8678 15
    endloop
  endfacet
  facet normal 0.62344 -0.781871 0
    outer loop
      vertex 6.25 14.3079 15
      vertex 5.69806 13.8678 4
      vertex 6.25 14.3079 4
    endloop
  endfacet
  facet normal -0.222525 0.974927 0
    outer loop
      vertex 8.74698 11.4363 15
      vertex 7.05496 11.0501 3.94986
      vertex 7.05496 11.0501 15
    endloop
  endfacet
  facet normal -0.222525 0.974927 0
    outer loop
      vertex 7.05496 11.0501 3.94986
      vertex 8.74698 11.4363 15
      vertex 8.74698 11.4363 3.56366
    endloop
  endfacet
  facet normal -0.90097 0.433882 0
    outer loop
      vertex 8.75 11.4426 0.44261
      vertex 9.5 13 0
      vertex 8.75 11.4426 0
    endloop
  endfacet
  facet normal -0.90097 0.433882 0
    outer loop
      vertex 9.5 13 0
      vertex 8.75 11.4426 0.44261
      vertex 9.5 13 2
    endloop
  endfacet
  facet normal -0.900973 0.433875 0
    outer loop
      vertex 8.74698 11.4363 3.56366
      vertex 9.5 13 4
      vertex 9.5 13 2
    endloop
  endfacet
  facet normal -0.900973 0.433875 0
    outer loop
      vertex 8.74698 11.4363 15
      vertex 9.5 13 4
      vertex 8.74698 11.4363 3.56366
    endloop
  endfacet
  facet normal -0.90097 0.433882 0
    outer loop
      vertex 9.5 13 4
      vertex 9.26716 12.5165 15
      vertex 9.5 13 15
    endloop
  endfacet
  facet normal -0.900974 0.433872 -5.10913e-07
    outer loop
      vertex 9.5 13 4
      vertex 8.74698 11.4363 15
      vertex 9.26716 12.5165 15
    endloop
  endfacet
  facet normal -0.901026 -0.433766 0
    outer loop
      vertex 14.398 8.75 0
      vertex 14.247 9.06366 15
      vertex 14.247 9.06366 0
    endloop
  endfacet
  facet normal -0.901026 -0.433766 0
    outer loop
      vertex 14.247 9.06366 15
      vertex 14.398 8.75 0
      vertex 14.398 8.75 15
    endloop
  endfacet
  facet normal 1 -0 0
    outer loop
      vertex 11.1981 6.63223 15
      vertex 11.1981 8.36777 0
      vertex 11.1981 8.36777 15
    endloop
  endfacet
  facet normal 1 0 0
    outer loop
      vertex 11.1981 8.36777 0
      vertex 11.1981 6.63223 15
      vertex 11.1981 6.63223 0
    endloop
  endfacet
  facet normal -0.222608 -0.974908 0
    outer loop
      vertex 12.555 9.44986 0
      vertex 12.6284 9.4331 15
      vertex 12.555 9.44986 15
    endloop
  endfacet
  facet normal -0.222524 -0.974927 -4.35282e-07
    outer loop
      vertex 12.6284 9.4331 15
      vertex 12.555 9.44986 0
      vertex 14.247 9.06366 15
    endloop
  endfacet
  facet normal -0.222528 -0.974926 -0
    outer loop
      vertex 14.247 9.06366 15
      vertex 12.555 9.44986 0
      vertex 14.247 9.06366 0
    endloop
  endfacet
  facet normal 0.623489 -0.781832 0
    outer loop
      vertex 11.1981 8.36777 0
      vertex 12.555 9.44986 15
      vertex 11.1981 8.36777 15
    endloop
  endfacet
  facet normal 0.623489 -0.781832 0
    outer loop
      vertex 12.555 9.44986 15
      vertex 11.1981 8.36777 0
      vertex 12.555 9.44986 0
    endloop
  endfacet
  facet normal -0.901026 0.433766 0
    outer loop
      vertex 14.247 5.93634 0
      vertex 14.398 6.25 15
      vertex 14.398 6.25 0
    endloop
  endfacet
  facet normal -0.901026 0.433766 0
    outer loop
      vertex 14.398 6.25 15
      vertex 14.247 5.93634 0
      vertex 14.247 5.93634 15
    endloop
  endfacet
  facet normal -0.222524 0.974927 0
    outer loop
      vertex 14.247 5.93634 0
      vertex 12.6284 5.5669 15
      vertex 14.247 5.93634 15
    endloop
  endfacet
  facet normal -0.222528 0.974926 -4.16399e-07
    outer loop
      vertex 12.555 5.55014 0
      vertex 12.6284 5.5669 15
      vertex 14.247 5.93634 0
    endloop
  endfacet
  facet normal -0.222608 0.974908 0
    outer loop
      vertex 12.6284 5.5669 15
      vertex 12.555 5.55014 0
      vertex 12.555 5.55014 15
    endloop
  endfacet
  facet normal 0.623489 0.781832 -0
    outer loop
      vertex 12.555 5.55014 0
      vertex 11.1981 6.63223 15
      vertex 12.555 5.55014 15
    endloop
  endfacet
  facet normal 0.623489 0.781832 0
    outer loop
      vertex 11.1981 6.63223 15
      vertex 12.555 5.55014 0
      vertex 11.1981 6.63223 0
    endloop
  endfacet
  facet normal -0.900969 -0.433884 0
    outer loop
      vertex 4 7.5 0
      vertex 3.24698 9.06366 15
      vertex 3.24698 9.06366 0
    endloop
  endfacet
  facet normal -0.900969 -0.433884 0
    outer loop
      vertex 3.24698 9.06366 15
      vertex 4 7.5 0
      vertex 4 7.5 15
    endloop
  endfacet
  facet normal -0.222522 -0.974928 0
    outer loop
      vertex 1.55496 9.44986 0
      vertex 2.57689 9.21661 15
      vertex 1.55496 9.44986 15
    endloop
  endfacet
  facet normal -0.222525 -0.974927 2.18991e-07
    outer loop
      vertex 3.24698 9.06366 0
      vertex 2.57689 9.21661 15
      vertex 1.55496 9.44986 0
    endloop
  endfacet
  facet normal -0.22253 -0.974926 0
    outer loop
      vertex 2.57689 9.21661 15
      vertex 3.24698 9.06366 0
      vertex 3.24698 9.06366 15
    endloop
  endfacet
  facet normal 0.623491 -0.781831 0
    outer loop
      vertex 0.677366 8.75 0
      vertex 1.55496 9.44986 15
      vertex 0.677366 8.75 15
    endloop
  endfacet
  facet normal 0.623491 -0.781831 0
    outer loop
      vertex 1.55496 9.44986 15
      vertex 0.677366 8.75 0
      vertex 1.55496 9.44986 0
    endloop
  endfacet
  facet normal -0.900969 0.433884 0
    outer loop
      vertex 3.24698 5.93634 0
      vertex 4 7.5 15
      vertex 4 7.5 0
    endloop
  endfacet
  facet normal -0.900969 0.433884 0
    outer loop
      vertex 4 7.5 15
      vertex 3.24698 5.93634 0
      vertex 3.24698 5.93634 15
    endloop
  endfacet
  facet normal -0.22253 0.974926 0
    outer loop
      vertex 3.24698 5.93634 0
      vertex 2.57689 5.78339 15
      vertex 3.24698 5.93634 15
    endloop
  endfacet
  facet normal -0.222525 0.974927 2.18991e-07
    outer loop
      vertex 1.55496 5.55014 0
      vertex 2.57689 5.78339 15
      vertex 3.24698 5.93634 0
    endloop
  endfacet
  facet normal -0.222522 0.974928 0
    outer loop
      vertex 2.57689 5.78339 15
      vertex 1.55496 5.55014 0
      vertex 1.55496 5.55014 15
    endloop
  endfacet
  facet normal 0.623491 0.781831 -0
    outer loop
      vertex 1.55496 5.55014 0
      vertex 0.677365 6.25 15
      vertex 1.55496 5.55014 15
    endloop
  endfacet
  facet normal 0.623491 0.781831 0
    outer loop
      vertex 0.677365 6.25 15
      vertex 1.55496 5.55014 0
      vertex 0.677365 6.25 0
    endloop
  endfacet
  facet normal 1 -0 0
    outer loop
      vertex 6.25 0 15
      vertex 6.25 0.692076 4
      vertex 6.25 0.692076 15
    endloop
  endfacet
  facet normal 1 0 0
    outer loop
      vertex 6.25 0.692076 4
      vertex 6.25 0 15
      vertex 6.25 0 4
    endloop
  endfacet
  facet normal -1 0 0
    outer loop
      vertex 8.75 0 4
      vertex 8.75 0.44261 15
      vertex 8.75 0.44261 4
    endloop
  endfacet
  facet normal -1 -0 0
    outer loop
      vertex 8.75 0.44261 15
      vertex 8.75 0 4
      vertex 8.75 0 15
    endloop
  endfacet
  facet normal 1 -0 0
    outer loop
      vertex 6.25 14.3079 15
      vertex 6.25 15 4
      vertex 6.25 15 15
    endloop
  endfacet
  facet normal 1 0 0
    outer loop
      vertex 6.25 15 4
      vertex 6.25 14.3079 15
      vertex 6.25 14.3079 4
    endloop
  endfacet
  facet normal -1 0 0
    outer loop
      vertex 8.25 14.6771 4
      vertex 8.25 15 15
      vertex 8.25 15 4
    endloop
  endfacet
  facet normal -1 -0 0
    outer loop
      vertex 8.25 15 15
      vertex 8.25 14.6771 4
      vertex 8.25 14.6771 15
    endloop
  endfacet
  facet normal 0 -1 0
    outer loop
      vertex 14.398 8.75 0
      vertex 15 8.75 15
      vertex 14.398 8.75 15
    endloop
  endfacet
  facet normal 0 -1 -0
    outer loop
      vertex 15 8.75 15
      vertex 14.398 8.75 0
      vertex 15 8.75 0
    endloop
  endfacet
  facet normal 0 1 -0
    outer loop
      vertex 15 6.25 0
      vertex 14.398 6.25 15
      vertex 15 6.25 15
    endloop
  endfacet
  facet normal 0 1 0
    outer loop
      vertex 14.398 6.25 15
      vertex 15 6.25 0
      vertex 14.398 6.25 0
    endloop
  endfacet
  facet normal 0 -1 0
    outer loop
      vertex 0 8.75 0
      vertex 0.677366 8.75 15
      vertex 0 8.75 15
    endloop
  endfacet
  facet normal 0 -1 -0
    outer loop
      vertex 0.677366 8.75 15
      vertex 0 8.75 0
      vertex 0.677366 8.75 0
    endloop
  endfacet
  facet normal 0 1 -0
    outer loop
      vertex 0.677365 6.25 0
      vertex 0 6.25 15
      vertex 0.677365 6.25 15
    endloop
  endfacet
  facet normal 0 1 0
    outer loop
      vertex 0 6.25 15
      vertex 0.677365 6.25 0
      vertex 0 6.25 0
    endloop
  endfacet
  facet normal -0.900969 0 -0.433884
    outer loop
      vertex 9.5 13 2
      vertex 8.74698 3.56366 3.56366
      vertex 8.74698 11.4363 3.56366
    endloop
  endfacet
  facet normal -0.900969 0 -0.433884
    outer loop
      vertex 8.74698 3.56366 3.56366
      vertex 9.5 13 2
      vertex 9.5 2 2
    endloop
  endfacet
  facet normal -0.222525 0 -0.974927
    outer loop
      vertex 7.05496 3.94986 3.94986
      vertex 8.74698 11.4363 3.56366
      vertex 8.74698 3.56366 3.56366
    endloop
  endfacet
  facet normal -0.222525 0 -0.974927
    outer loop
      vertex 8.74698 11.4363 3.56366
      vertex 7.05496 3.94986 3.94986
      vertex 7.05496 11.0501 3.94986
    endloop
  endfacet
  facet normal 0.623487 0 0.781834
    outer loop
      vertex 5.69806 12.1322 1.13223
      vertex 6.25 3.30792 0.692076
      vertex 6.25 11.6921 0.692076
    endloop
  endfacet
  facet normal 0.623487 0 0.781834
    outer loop
      vertex 6.25 3.30792 0.692076
      vertex 5.69806 12.1322 1.13223
      vertex 5.69806 2.86777 1.13223
    endloop
  endfacet
  facet normal 0.623489 0 -0.781832
    outer loop
      vertex 5.69806 2.86777 2.86777
      vertex 7.05496 11.0501 3.94986
      vertex 7.05496 3.94986 3.94986
    endloop
  endfacet
  facet normal 0.623489 0 -0.781832
    outer loop
      vertex 7.05496 11.0501 3.94986
      vertex 5.69806 2.86777 2.86777
      vertex 5.69806 12.1322 2.86777
    endloop
  endfacet
  facet normal -0.900969 0 0.433884
    outer loop
      vertex 8.75 3.55739 0.44261
      vertex 9.5 13 2
      vertex 8.75 11.4426 0.44261
    endloop
  endfacet
  facet normal -0.900969 0 0.433884
    outer loop
      vertex 9.5 13 2
      vertex 8.75 3.55739 0.44261
      vertex 9.5 2 2
    endloop
  endfacet
  facet normal 1 -0 0
    outer loop
      vertex 5.5 13 4
      vertex 5.5 15 0
      vertex 5.5 15 4
    endloop
  endfacet
  facet normal 1 0 0
    outer loop
      vertex 5.5 15 0
      vertex 5.5 13 4
      vertex 5.5 13 0
    endloop
  endfacet
  facet normal 0 0 -1
    outer loop
      vertex 8.74698 14.5637 4
      vertex 9.5 15 4
      vertex 9.5 13 4
    endloop
  endfacet
  facet normal 0 0 -1
    outer loop
      vertex 8.25 15 4
      vertex 8.74698 14.5637 4
      vertex 8.25 14.6771 4
    endloop
  endfacet
  facet normal 0 0 -1
    outer loop
      vertex 8.74698 14.5637 4
      vertex 8.25 15 4
      vertex 9.5 15 4
    endloop
  endfacet
  facet normal 0 0 -1
    outer loop
      vertex 5.69806 13 4
      vertex 5.5 13 4
      vertex 5.69806 13.8678 4
    endloop
  endfacet
  facet normal 0 0 -1
    outer loop
      vertex 5.5 15 4
      vertex 6.25 14.3079 4
      vertex 5.69806 13.8678 4
    endloop
  endfacet
  facet normal 0 0 -1
    outer loop
      vertex 6.25 14.3079 4
      vertex 5.5 15 4
      vertex 6.25 15 4
    endloop
  endfacet
  facet normal 0 0 -1
    outer loop
      vertex 5.5 15 4
      vertex 5.69806 13.8678 4
      vertex 5.5 13 4
    endloop
  endfacet
  facet normal -1 0 0
    outer loop
      vertex 9.5 13 2
      vertex 9.5 15 0
      vertex 9.5 13 0
    endloop
  endfacet
  facet normal -1 0 0
    outer loop
      vertex 9.5 15 0
      vertex 9.5 13 2
      vertex 9.5 15 4
    endloop
  endfacet
  facet normal -1 -0 0
    outer loop
      vertex 9.5 15 4
      vertex 9.5 13 2
      vertex 9.5 13 4
    endloop
  endfacet
  facet normal 0 1 -0
    outer loop
      vertex 5.69806 13 0
      vertex 5.5 13 4
      vertex 5.69806 13 4
    endloop
  endfacet
  facet normal 0 1 0
    outer loop
      vertex 5.5 13 4
      vertex 5.69806 13 0
      vertex 5.5 13 0
    endloop
  endfacet
  facet normal 1 -0 0
    outer loop
      vertex 5.5 0 4
      vertex 5.5 2 0
      vertex 5.5 2 4
    endloop
  endfacet
  facet normal 1 0 0
    outer loop
      vertex 5.5 2 0
      vertex 5.5 0 4
      vertex 5.5 0 0
    endloop
  endfacet
  facet normal 0 0 -1
    outer loop
      vertex 8.75 0.44261 4
      vertex 9.5 0 4
      vertex 8.75 0 4
    endloop
  endfacet
  facet normal 0 0 -1
    outer loop
      vertex 9.5 0 4
      vertex 8.75 0.44261 4
      vertex 9.5 2 4
    endloop
  endfacet
  facet normal 0 0 -1
    outer loop
      vertex 5.5 0 4
      vertex 6.25 0.692076 4
      vertex 6.25 0 4
    endloop
  endfacet
  facet normal -0 0 -1
    outer loop
      vertex 6.25 0.692076 4
      vertex 5.5 0 4
      vertex 5.69806 1.13223 4
    endloop
  endfacet
  facet normal 0 0 -1
    outer loop
      vertex 5.5 2 4
      vertex 5.69806 1.13223 4
      vertex 5.5 0 4
    endloop
  endfacet
  facet normal 0 0 -1
    outer loop
      vertex 5.69806 1.13223 4
      vertex 5.5 2 4
      vertex 5.69806 2 4
    endloop
  endfacet
  facet normal -1 0 0
    outer loop
      vertex 9.5 0 0
      vertex 9.5 2 2
      vertex 9.5 2 0
    endloop
  endfacet
  facet normal -1 0 0
    outer loop
      vertex 9.5 0 4
      vertex 9.5 2 2
      vertex 9.5 0 0
    endloop
  endfacet
  facet normal -1 0 0
    outer loop
      vertex 9.5 2 2
      vertex 9.5 0 4
      vertex 9.5 2 4
    endloop
  endfacet
  facet normal 0 -1 0
    outer loop
      vertex 5.5 2 0
      vertex 5.69806 2 4
      vertex 5.5 2 4
    endloop
  endfacet
  facet normal 0 -1 -0
    outer loop
      vertex 5.69806 2 4
      vertex 5.5 2 0
      vertex 5.69806 2 0
    endloop
  endfacet
  facet normal -1 0 0
    outer loop
      vertex 8.75 3.55739 0
      vertex 8.75 11.4426 0.44261
      vertex 8.75 11.4426 0
    endloop
  endfacet
  facet normal -1 -0 0
    outer loop
      vertex 8.75 11.4426 0.44261
      vertex 8.75 3.55739 0
      vertex 8.75 3.55739 0.44261
    endloop
  endfacet
  facet normal 1 -0 0
    outer loop
      vertex 6.25 3.30792 0.692076
      vertex 6.25 11.6921 0
      vertex 6.25 11.6921 0.692076
    endloop
  endfacet
  facet normal 1 0 0
    outer loop
      vertex 6.25 11.6921 0
      vertex 6.25 3.30792 0.692076
      vertex 6.25 3.30792 0
    endloop
  endfacet
  facet normal -1 0 0
    outer loop
      vertex 1 1 15
      vertex 1 4.10481 45
      vertex 1 4.10481 15
    endloop
  endfacet
  facet normal -1 -0 0
    outer loop
      vertex 1 4.10481 45
      vertex 1 1 15
      vertex 1 1 45
    endloop
  endfacet
  facet normal -1 0 0
    outer loop
      vertex 1 10.8952 15
      vertex 1 14 45
      vertex 1 14 15
    endloop
  endfacet
  facet normal -1 -0 0
    outer loop
      vertex 1 14 45
      vertex 1 10.8952 15
      vertex 1 10.8952 45
    endloop
  endfacet
  facet normal -0 0 1
    outer loop
      vertex 10.9168 14 45
      vertex 14 10.8386 45
      vertex 14 14 45
    endloop
  endfacet
  facet normal 0 0 1
    outer loop
      vertex 14 10.8386 45
      vertex 10.9168 14 45
      vertex 13.006 10.1525 45
    endloop
  endfacet
  facet normal 0 0 1
    outer loop
      vertex 13.006 10.1525 45
      vertex 9.77226 12.7081 45
      vertex 12.1162 8.45726 45
    endloop
  endfacet
  facet normal 0 0 1
    outer loop
      vertex 13.006 10.1525 45
      vertex 10.9168 14 45
      vertex 9.77226 12.7081 45
    endloop
  endfacet
  facet normal 0 0 1
    outer loop
      vertex 10.9168 1 45
      vertex 14 4.16137 45
      vertex 13.006 4.84751 45
    endloop
  endfacet
  facet normal 0 0 1
    outer loop
      vertex 9.77226 2.29193 45
      vertex 13.006 4.84751 45
      vertex 12.1162 6.54274 45
    endloop
  endfacet
  facet normal 0 -0 1
    outer loop
      vertex 10.9168 1 45
      vertex 13.006 4.84751 45
      vertex 9.77226 2.29193 45
    endloop
  endfacet
  facet normal -0 0 1
    outer loop
      vertex 7.98215 12.0292 45
      vertex 12.1162 8.45726 45
      vertex 9.77226 12.7081 45
    endloop
  endfacet
  facet normal 0 0 1
    outer loop
      vertex 12.1162 8.45726 45
      vertex 7.98215 12.0292 45
      vertex 12.1162 6.54274 45
    endloop
  endfacet
  facet normal 0 0 1
    outer loop
      vertex 14 4.16137 45
      vertex 10.9168 1 45
      vertex 14 1 45
    endloop
  endfacet
  facet normal 0 0 1
    outer loop
      vertex 7.98215 2.97083 45
      vertex 12.1162 6.54274 45
      vertex 7.98215 12.0292 45
    endloop
  endfacet
  facet normal 0 0 1
    outer loop
      vertex 12.1162 6.54274 45
      vertex 7.98215 2.97083 45
      vertex 9.77226 2.29193 45
    endloop
  endfacet
  facet normal 0 0 1
    outer loop
      vertex 3 7.5 45
      vertex 7.98215 12.0292 45
      vertex 6.08158 12.2599 45
    endloop
  endfacet
  facet normal 0 0 1
    outer loop
      vertex 7.98215 12.0292 45
      vertex 3 7.5 45
      vertex 7.98215 2.97083 45
    endloop
  endfacet
  facet normal 0 0 1
    outer loop
      vertex 2.54182 9.35889 45
      vertex 6.08158 12.2599 45
      vertex 4.50596 13.3475 45
    endloop
  endfacet
  facet normal 0 0 1
    outer loop
      vertex 7.98215 2.97083 45
      vertex 3 7.5 45
      vertex 6.08158 2.74006 45
    endloop
  endfacet
  facet normal -0 0 1
    outer loop
      vertex 1 14 45
      vertex 4.50596 13.3475 45
      vertex 4.1635 14 45
    endloop
  endfacet
  facet normal -0 0 1
    outer loop
      vertex 2.54182 5.64111 45
      vertex 6.08158 2.74006 45
      vertex 3 7.5 45
    endloop
  endfacet
  facet normal 0 0 1
    outer loop
      vertex 6.08158 2.74006 45
      vertex 2.54182 5.64111 45
      vertex 4.50596 1.65249 45
    endloop
  endfacet
  facet normal 0 0 1
    outer loop
      vertex 6.08158 12.2599 45
      vertex 2.54182 9.35889 45
      vertex 3 7.5 45
    endloop
  endfacet
  facet normal 0 0 1
    outer loop
      vertex 4.50596 13.3475 45
      vertex 1.27226 10.7919 45
      vertex 2.54182 9.35889 45
    endloop
  endfacet
  facet normal 0 0 1
    outer loop
      vertex 4.50596 13.3475 45
      vertex 1 14 45
      vertex 1.27226 10.7919 45
    endloop
  endfacet
  facet normal 0 0 1
    outer loop
      vertex 1.27226 10.7919 45
      vertex 1 14 45
      vertex 1 10.8952 45
    endloop
  endfacet
  facet normal -0 0 1
    outer loop
      vertex 1.27226 4.20806 45
      vertex 4.50596 1.65249 45
      vertex 2.54182 5.64111 45
    endloop
  endfacet
  facet normal 0 0 1
    outer loop
      vertex 1 1 45
      vertex 4.50596 1.65249 45
      vertex 1.27226 4.20806 45
    endloop
  endfacet
  facet normal 0 0 1
    outer loop
      vertex 1 1 45
      vertex 1.27226 4.20806 45
      vertex 1 4.10481 45
    endloop
  endfacet
  facet normal 0 0 1
    outer loop
      vertex 4.50596 1.65249 45
      vertex 1 1 45
      vertex 4.1635 1 45
    endloop
  endfacet
  facet normal 1 -0 0
    outer loop
      vertex 14 1 45
      vertex 14 4.16137 15
      vertex 14 4.16137 45
    endloop
  endfacet
  facet normal 1 0 0
    outer loop
      vertex 14 4.16137 15
      vertex 14 1 45
      vertex 14 1 15
    endloop
  endfacet
  facet normal 1 -0 0
    outer loop
      vertex 14 10.8386 45
      vertex 14 14 15
      vertex 14 14 45
    endloop
  endfacet
  facet normal 1 0 0
    outer loop
      vertex 14 14 15
      vertex 14 10.8386 45
      vertex 14 10.8386 15
    endloop
  endfacet
  facet normal 0 1 -0
    outer loop
      vertex 14 14 15
      vertex 10.9168 14 45
      vertex 14 14 45
    endloop
  endfacet
  facet normal 0 1 0
    outer loop
      vertex 10.9168 14 45
      vertex 14 14 15
      vertex 10.9168 14 15
    endloop
  endfacet
  facet normal 0 1 -0
    outer loop
      vertex 4.1635 14 15
      vertex 1 14 45
      vertex 4.1635 14 45
    endloop
  endfacet
  facet normal 0 1 0
    outer loop
      vertex 1 14 45
      vertex 4.1635 14 15
      vertex 1 14 15
    endloop
  endfacet
  facet normal 0 -1 0
    outer loop
      vertex 10.9168 1 15
      vertex 14 1 45
      vertex 10.9168 1 45
    endloop
  endfacet
  facet normal 0 -1 -0
    outer loop
      vertex 14 1 45
      vertex 10.9168 1 15
      vertex 14 1 15
    endloop
  endfacet
  facet normal 0 -1 0
    outer loop
      vertex 1 1 15
      vertex 4.1635 1 45
      vertex 1 1 45
    endloop
  endfacet
  facet normal 0 -1 -0
    outer loop
      vertex 4.1635 1 45
      vertex 1 1 15
      vertex 4.1635 1 15
    endloop
  endfacet
  facet normal 0.120536 -0.992709 0
    outer loop
      vertex 6.08158 2.74006 15
      vertex 7.98215 2.97083 45
      vertex 6.08158 2.74006 45
    endloop
  endfacet
  facet normal 0.120536 -0.992709 0
    outer loop
      vertex 7.98215 2.97083 45
      vertex 6.08158 2.74006 15
      vertex 7.98215 2.97083 15
    endloop
  endfacet
  facet normal -0.748514 -0.663119 0
    outer loop
      vertex 10.9168 1 15
      vertex 9.77226 2.29193 45
      vertex 9.77226 2.29193 15
    endloop
  endfacet
  facet normal -0.748514 -0.663119 0
    outer loop
      vertex 9.77226 2.29193 45
      vertex 10.9168 1 15
      vertex 10.9168 1 45
    endloop
  endfacet
  facet normal -0.354605 -0.935016 0
    outer loop
      vertex 9.26716 2.48349 15
      vertex 7.98215 2.97083 45
      vertex 7.98215 2.97083 15
    endloop
  endfacet
  facet normal -0.354605 -0.935016 -1.88315e-08
    outer loop
      vertex 7.98215 2.97083 45
      vertex 9.26716 2.48349 15
      vertex 9.77226 2.29193 45
    endloop
  endfacet
  facet normal -0.354606 -0.935016 -0
    outer loop
      vertex 9.77226 2.29193 45
      vertex 9.26716 2.48349 15
      vertex 9.77226 2.29193 15
    endloop
  endfacet
  facet normal 0.885452 -0.46473 0
    outer loop
      vertex 4.1635 1 45
      vertex 4.50596 1.65249 15
      vertex 4.50596 1.65249 45
    endloop
  endfacet
  facet normal 0.885452 -0.46473 0
    outer loop
      vertex 4.50596 1.65249 15
      vertex 4.1635 1 45
      vertex 4.1635 1 15
    endloop
  endfacet
  facet normal 0.568066 -0.822983 0
    outer loop
      vertex 5.69806 2.47534 15
      vertex 4.50596 1.65249 45
      vertex 4.50596 1.65249 15
    endloop
  endfacet
  facet normal 0.568064 -0.822984 -1.17001e-07
    outer loop
      vertex 4.50596 1.65249 45
      vertex 5.69806 2.47534 15
      vertex 6.08158 2.74006 45
    endloop
  endfacet
  facet normal 0.568058 -0.822989 0
    outer loop
      vertex 6.08158 2.74006 45
      vertex 5.69806 2.47534 15
      vertex 6.08158 2.74006 15
    endloop
  endfacet
  facet normal -0.354671 0.934991 0
    outer loop
      vertex 9.26716 12.5165 15
      vertex 9.77226 12.7081 45
      vertex 9.77226 12.7081 15
    endloop
  endfacet
  facet normal -0.354605 0.935016 -1.26552e-06
    outer loop
      vertex 9.77226 12.7081 45
      vertex 9.26716 12.5165 15
      vertex 7.98215 12.0292 45
    endloop
  endfacet
  facet normal -0.354579 0.935026 0
    outer loop
      vertex 7.98215 12.0292 45
      vertex 9.26716 12.5165 15
      vertex 7.98215 12.0292 15
    endloop
  endfacet
  facet normal -0.748506 0.663128 0
    outer loop
      vertex 9.77226 12.7081 15
      vertex 10.9168 14 45
      vertex 10.9168 14 15
    endloop
  endfacet
  facet normal -0.748506 0.663128 0
    outer loop
      vertex 10.9168 14 45
      vertex 9.77226 12.7081 15
      vertex 9.77226 12.7081 45
    endloop
  endfacet
  facet normal 0.1205 0.992713 -0
    outer loop
      vertex 7.98215 12.0292 15
      vertex 6.08158 12.2599 45
      vertex 7.98215 12.0292 45
    endloop
  endfacet
  facet normal 0.1205 0.992713 0
    outer loop
      vertex 6.08158 12.2599 45
      vertex 7.98215 12.0292 15
      vertex 6.08158 12.2599 15
    endloop
  endfacet
  facet normal 0.568174 0.822908 0
    outer loop
      vertex 5.69806 12.5247 15
      vertex 6.08158 12.2599 45
      vertex 6.08158 12.2599 15
    endloop
  endfacet
  facet normal 0.568075 0.822977 1.87729e-06
    outer loop
      vertex 6.08158 12.2599 45
      vertex 5.69806 12.5247 15
      vertex 4.50596 13.3475 45
    endloop
  endfacet
  facet normal 0.568043 0.822999 0
    outer loop
      vertex 4.50596 13.3475 45
      vertex 5.69806 12.5247 15
      vertex 4.50596 13.3475 15
    endloop
  endfacet
  facet normal 0.885455 0.464725 0
    outer loop
      vertex 4.50596 13.3475 45
      vertex 4.1635 14 15
      vertex 4.1635 14 45
    endloop
  endfacet
  facet normal 0.885455 0.464725 0
    outer loop
      vertex 4.1635 14 15
      vertex 4.50596 13.3475 45
      vertex 4.50596 13.3475 15
    endloop
  endfacet
  facet normal 1 -0 0
    outer loop
      vertex 12.1162 6.54274 45
      vertex 12.1162 8.45726 15
      vertex 12.1162 8.45726 45
    endloop
  endfacet
  facet normal 1 0 0
    outer loop
      vertex 12.1162 8.45726 15
      vertex 12.1162 6.54274 45
      vertex 12.1162 6.54274 15
    endloop
  endfacet
  facet normal 0.56806 -0.822987 0
    outer loop
      vertex 13.006 10.1525 15
      vertex 14 10.8386 45
      vertex 13.006 10.1525 45
    endloop
  endfacet
  facet normal 0.56806 -0.822987 0
    outer loop
      vertex 14 10.8386 45
      vertex 13.006 10.1525 15
      vertex 14 10.8386 15
    endloop
  endfacet
  facet normal 0.885441 -0.464752 0
    outer loop
      vertex 13.006 10.1525 45
      vertex 12.6284 9.4331 15
      vertex 13.006 10.1525 15
    endloop
  endfacet
  facet normal 0.885441 -0.464752 -8.77481e-09
    outer loop
      vertex 12.1162 8.45726 45
      vertex 12.6284 9.4331 15
      vertex 13.006 10.1525 45
    endloop
  endfacet
  facet normal 0.885441 -0.464751 0
    outer loop
      vertex 12.6284 9.4331 15
      vertex 12.1162 8.45726 45
      vertex 12.1162 8.45726 15
    endloop
  endfacet
  facet normal 0.568082 0.822972 -0
    outer loop
      vertex 14 4.16137 15
      vertex 13.006 4.84751 45
      vertex 14 4.16137 45
    endloop
  endfacet
  facet normal 0.568082 0.822972 0
    outer loop
      vertex 13.006 4.84751 45
      vertex 14 4.16137 15
      vertex 13.006 4.84751 15
    endloop
  endfacet
  facet normal 0.885441 0.464751 0
    outer loop
      vertex 12.1162 6.54274 45
      vertex 12.6284 5.5669 15
      vertex 12.1162 6.54274 15
    endloop
  endfacet
  facet normal 0.88544 0.464754 -9.7951e-08
    outer loop
      vertex 13.006 4.84751 45
      vertex 12.6284 5.5669 15
      vertex 12.1162 6.54274 45
    endloop
  endfacet
  facet normal 0.885438 0.464757 0
    outer loop
      vertex 12.6284 5.5669 15
      vertex 13.006 4.84751 45
      vertex 13.006 4.84751 15
    endloop
  endfacet
  facet normal -0.97094 -0.239323 0
    outer loop
      vertex 2.57689 9.21661 15
      vertex 2.54182 9.35889 45
      vertex 2.54182 9.35889 15
    endloop
  endfacet
  facet normal -0.970941 -0.239318 -2.68083e-08
    outer loop
      vertex 3 7.5 15
      vertex 2.54182 9.35889 45
      vertex 2.57689 9.21661 15
    endloop
  endfacet
  facet normal -0.970941 -0.239318 0
    outer loop
      vertex 2.54182 9.35889 45
      vertex 3 7.5 15
      vertex 3 7.5 45
    endloop
  endfacet
  facet normal -0.748505 -0.66313 0
    outer loop
      vertex 2.54182 9.35889 15
      vertex 1.27226 10.7919 45
      vertex 1.27226 10.7919 15
    endloop
  endfacet
  facet normal -0.748505 -0.66313 0
    outer loop
      vertex 1.27226 10.7919 45
      vertex 2.54182 9.35889 15
      vertex 2.54182 9.35889 45
    endloop
  endfacet
  facet normal -0.354591 0.935021 0
    outer loop
      vertex 1.27226 4.20806 15
      vertex 1 4.10481 45
      vertex 1.27226 4.20806 45
    endloop
  endfacet
  facet normal -0.354591 0.935021 0
    outer loop
      vertex 1 4.10481 45
      vertex 1.27226 4.20806 15
      vertex 1 4.10481 15
    endloop
  endfacet
  facet normal -0.354741 -0.934965 0
    outer loop
      vertex 1 10.8952 15
      vertex 1.27226 10.7919 45
      vertex 1 10.8952 45
    endloop
  endfacet
  facet normal -0.354741 -0.934965 -0
    outer loop
      vertex 1.27226 10.7919 45
      vertex 1 10.8952 15
      vertex 1.27226 10.7919 15
    endloop
  endfacet
  facet normal -0.970941 0.239318 0
    outer loop
      vertex 2.57689 5.78339 15
      vertex 3 7.5 45
      vertex 3 7.5 15
    endloop
  endfacet
  facet normal -0.97094 0.239323 0
    outer loop
      vertex 2.54182 5.64111 45
      vertex 2.57689 5.78339 15
      vertex 2.54182 5.64111 15
    endloop
  endfacet
  facet normal -0.970941 0.239318 -2.47564e-08
    outer loop
      vertex 2.57689 5.78339 15
      vertex 2.54182 5.64111 45
      vertex 3 7.5 45
    endloop
  endfacet
  facet normal -0.748514 0.663119 0
    outer loop
      vertex 1.27226 4.20806 15
      vertex 2.54182 5.64111 45
      vertex 2.54182 5.64111 15
    endloop
  endfacet
  facet normal -0.748514 0.663119 0
    outer loop
      vertex 2.54182 5.64111 45
      vertex 1.27226 4.20806 15
      vertex 1.27226 4.20806 45
    endloop
  endfacet
endsolid OpenSCAD_Model
