solid OpenSCAD_Model
  facet normal -1 0 0
    outer loop
      vertex 0 0 0
      vertex 0 6.5 15
      vertex 0 6.5 0
    endloop
  endfacet
  facet normal -1 -0 0
    outer loop
      vertex 0 6.5 15
      vertex 0 0 0
      vertex 0 0 15
    endloop
  endfacet
  facet normal -1 0 0
    outer loop
      vertex 0 9.5 0
      vertex 0 16 15
      vertex 0 16 0
    endloop
  endfacet
  facet normal -1 -0 0
    outer loop
      vertex 0 16 15
      vertex 0 9.5 0
      vertex 0 9.5 15
    endloop
  endfacet
  facet normal 0 0 1
    outer loop
      vertex 0.702943 6.30294 15
      vertex 1.27226 4.45806 15
      vertex 2.31509 5.63517 15
    endloop
  endfacet
  facet normal 0 0 1
    outer loop
      vertex 0 6.5 15
      vertex 1 4.35481 15
      vertex 0.702943 6.30294 15
    endloop
  endfacet
  facet normal 0 0 1
    outer loop
      vertex 1.27226 4.45806 15
      vertex 0.702943 6.30294 15
      vertex 1 4.35481 15
    endloop
  endfacet
  facet normal 0 0 1
    outer loop
      vertex 6.30294 0.702943 15
      vertex 6.5 0 15
      vertex 6.5 0.621319 15
    endloop
  endfacet
  facet normal -0 0 1
    outer loop
      vertex 4.75596 1.65249 15
      vertex 6.30294 0.702943 15
      vertex 5.65312 2.27176 15
    endloop
  endfacet
  facet normal -0 0 1
    outer loop
      vertex 4.4135 1 15
      vertex 6.30294 0.702943 15
      vertex 4.75596 1.65249 15
    endloop
  endfacet
  facet normal 0 0 1
    outer loop
      vertex 6.30294 0.702943 15
      vertex 4.4135 1 15
      vertex 6.5 0 15
    endloop
  endfacet
  facet normal 0 0 1
    outer loop
      vertex 0 0 15
      vertex 4.4135 1 15
      vertex 1 1 15
    endloop
  endfacet
  facet normal -0 0 1
    outer loop
      vertex 0 6.5 15
      vertex 0.702943 6.30294 15
      vertex 0.621319 6.5 15
    endloop
  endfacet
  facet normal 0 0 1
    outer loop
      vertex 0 0 15
      vertex 1 4.35481 15
      vertex 0 6.5 15
    endloop
  endfacet
  facet normal 0 0 1
    outer loop
      vertex 4.4135 1 15
      vertex 0 0 15
      vertex 6.5 0 15
    endloop
  endfacet
  facet normal 0 0 1
    outer loop
      vertex 1 4.35481 15
      vertex 0 0 15
      vertex 1 1 15
    endloop
  endfacet
  facet normal -0 0 1
    outer loop
      vertex 14.5 11.0886 15
      vertex 16 9.5 15
      vertex 16 16 15
    endloop
  endfacet
  facet normal 0 0 1
    outer loop
      vertex 16 9.5 15
      vertex 15.2971 9.69706 15
      vertex 15.3787 9.5 15
    endloop
  endfacet
  facet normal 0 0 1
    outer loop
      vertex 14.5 11.0886 15
      vertex 16 16 15
      vertex 14.5 14.5 15
    endloop
  endfacet
  facet normal 0 0 1
    outer loop
      vertex 16 16 15
      vertex 11.1668 14.5 15
      vertex 14.5 14.5 15
    endloop
  endfacet
  facet normal 0 0 1
    outer loop
      vertex 11.1668 14.5 15
      vertex 9.69706 15.2971 15
      vertex 10.3903 13.6235 15
    endloop
  endfacet
  facet normal -0 0 1
    outer loop
      vertex 9.5 16 15
      vertex 11.1668 14.5 15
      vertex 16 16 15
    endloop
  endfacet
  facet normal 0 0 1
    outer loop
      vertex 11.1668 14.5 15
      vertex 9.5 16 15
      vertex 9.69706 15.2971 15
    endloop
  endfacet
  facet normal 0 0 1
    outer loop
      vertex 9.69706 15.2971 15
      vertex 9.5 16 15
      vertex 9.5 15.3787 15
    endloop
  endfacet
  facet normal 0 0 1
    outer loop
      vertex 16 9.5 15
      vertex 14.5 11.0886 15
      vertex 15.2971 9.69706 15
    endloop
  endfacet
  facet normal 0 0 1
    outer loop
      vertex 14.5 11.0886 15
      vertex 13.6 10.4 15
      vertex 15.2971 9.69706 15
    endloop
  endfacet
  facet normal -0 0 1
    outer loop
      vertex 13.506 10.4025 15
      vertex 13.6 10.4 15
      vertex 14.5 11.0886 15
    endloop
  endfacet
  facet normal 0 0 1
    outer loop
      vertex 13.6 10.4 15
      vertex 13.506 10.4025 15
      vertex 13.4782 10.3495 15
    endloop
  endfacet
  facet normal 0 0 1
    outer loop
      vertex 6.5 16 15
      vertex 6.30294 15.2971 15
      vertex 6.5 15.3787 15
    endloop
  endfacet
  facet normal 0 0 1
    outer loop
      vertex 4.4135 14.5 15
      vertex 6.30294 15.2971 15
      vertex 6.5 16 15
    endloop
  endfacet
  facet normal 0 0 1
    outer loop
      vertex 6.30294 15.2971 15
      vertex 4.4135 14.5 15
      vertex 5.6 13.6 15
    endloop
  endfacet
  facet normal 0 0 1
    outer loop
      vertex 5.6 13.6 15
      vertex 4.4135 14.5 15
      vertex 4.75596 13.8475 15
    endloop
  endfacet
  facet normal -0 0 1
    outer loop
      vertex 0 16 15
      vertex 4.4135 14.5 15
      vertex 6.5 16 15
    endloop
  endfacet
  facet normal 0 0 1
    outer loop
      vertex 0 16 15
      vertex 1 11.1452 15
      vertex 1 14.5 15
    endloop
  endfacet
  facet normal 0 0 1
    outer loop
      vertex 1 11.1452 15
      vertex 0 9.5 15
      vertex 0.702943 9.69706 15
    endloop
  endfacet
  facet normal 0 0 1
    outer loop
      vertex 4.4135 14.5 15
      vertex 0 16 15
      vertex 1 14.5 15
    endloop
  endfacet
  facet normal 0 0 1
    outer loop
      vertex 1 11.1452 15
      vertex 0 16 15
      vertex 0 9.5 15
    endloop
  endfacet
  facet normal 0 0 1
    outer loop
      vertex 0.702943 9.69706 15
      vertex 0 9.5 15
      vertex 0.62132 9.5 15
    endloop
  endfacet
  facet normal 0 0 1
    outer loop
      vertex 5.79437 13.1307 15
      vertex 5.6 13.6 15
      vertex 4.75596 13.8475 15
    endloop
  endfacet
  facet normal 0 0 1
    outer loop
      vertex 0.702943 9.69706 15
      vertex 1.27226 11.0419 15
      vertex 1 11.1452 15
    endloop
  endfacet
  facet normal 0 0 1
    outer loop
      vertex 1.27226 11.0419 15
      vertex 0.702943 9.69706 15
      vertex 1.99104 10.2306 15
    endloop
  endfacet
  facet normal -0 0 1
    outer loop
      vertex 13.6 5.6 15
      vertex 14.5 4.41137 15
      vertex 15.2971 6.30294 15
    endloop
  endfacet
  facet normal 0 0 1
    outer loop
      vertex 13.6 5.6 15
      vertex 13.506 5.09751 15
      vertex 14.5 4.41137 15
    endloop
  endfacet
  facet normal 0 -0 1
    outer loop
      vertex 13.506 5.09751 15
      vertex 13.6 5.6 15
      vertex 13.1428 5.78936 15
    endloop
  endfacet
  facet normal 0 0 1
    outer loop
      vertex 15.2971 6.30294 15
      vertex 16 6.5 15
      vertex 15.3787 6.5 15
    endloop
  endfacet
  facet normal 0 0 1
    outer loop
      vertex 14.5 4.41137 15
      vertex 16 6.5 15
      vertex 15.2971 6.30294 15
    endloop
  endfacet
  facet normal 0 0 1
    outer loop
      vertex 16 6.5 15
      vertex 14.5 4.41137 15
      vertex 16 0 15
    endloop
  endfacet
  facet normal -0 0 1
    outer loop
      vertex 14.5 1 15
      vertex 16 0 15
      vertex 14.5 4.41137 15
    endloop
  endfacet
  facet normal -0 0 1
    outer loop
      vertex 11.1668 1 15
      vertex 16 0 15
      vertex 14.5 1 15
    endloop
  endfacet
  facet normal 0 0 1
    outer loop
      vertex 9.69706 0.702943 15
      vertex 11.1668 1 15
      vertex 10.2492 2.03582 15
    endloop
  endfacet
  facet normal 0 0 1
    outer loop
      vertex 9.5 0 15
      vertex 11.1668 1 15
      vertex 9.69706 0.702943 15
    endloop
  endfacet
  facet normal 0 0 1
    outer loop
      vertex 9.5 0 15
      vertex 9.69706 0.702943 15
      vertex 9.5 0.62132 15
    endloop
  endfacet
  facet normal 0 0 1
    outer loop
      vertex 11.1668 1 15
      vertex 9.5 0 15
      vertex 16 0 15
    endloop
  endfacet
  facet normal 0 0 -1
    outer loop
      vertex 10.0223 2.29193 15
      vertex 10.4 2.4 15
      vertex 10.2492 2.03582 15
    endloop
  endfacet
  facet normal 0 0 -1
    outer loop
      vertex 10.0223 2.29193 15
      vertex 9.69706 4.09706 15
      vertex 10.4 2.4 15
    endloop
  endfacet
  facet normal 0 0 -1
    outer loop
      vertex 8.23215 2.97083 15
      vertex 9.69706 4.09706 15
      vertex 10.0223 2.29193 15
    endloop
  endfacet
  facet normal 0 0 -1
    outer loop
      vertex 8.23215 2.97083 15
      vertex 8 4.8 15
      vertex 9.69706 4.09706 15
    endloop
  endfacet
  facet normal 0 0 -1
    outer loop
      vertex 6.30294 4.09706 15
      vertex 8.23215 2.97083 15
      vertex 6.33158 2.74006 15
    endloop
  endfacet
  facet normal 0 0 -1
    outer loop
      vertex 8.23215 2.97083 15
      vertex 6.30294 4.09706 15
      vertex 8 4.8 15
    endloop
  endfacet
  facet normal 0 0 -1
    outer loop
      vertex 5.6 2.4 15
      vertex 6.33158 2.74006 15
      vertex 5.65312 2.27176 15
    endloop
  endfacet
  facet normal -0 0 -1
    outer loop
      vertex 6.33158 2.74006 15
      vertex 5.6 2.4 15
      vertex 6.30294 4.09706 15
    endloop
  endfacet
  facet normal -0 0 -1
    outer loop
      vertex 10.4 13.6 15
      vertex 10.0223 13.2081 15
      vertex 10.3903 13.6235 15
    endloop
  endfacet
  facet normal 0 0 -1
    outer loop
      vertex 9.69706 11.9029 15
      vertex 10.0223 13.2081 15
      vertex 10.4 13.6 15
    endloop
  endfacet
  facet normal 0 0 -1
    outer loop
      vertex 9.69706 11.9029 15
      vertex 8.23215 12.5292 15
      vertex 10.0223 13.2081 15
    endloop
  endfacet
  facet normal 0 0 -1
    outer loop
      vertex 8 11.2 15
      vertex 8.23215 12.5292 15
      vertex 9.69706 11.9029 15
    endloop
  endfacet
  facet normal 0 0 -1
    outer loop
      vertex 6.30294 11.9029 15
      vertex 8.23215 12.5292 15
      vertex 8 11.2 15
    endloop
  endfacet
  facet normal -0 0 -1
    outer loop
      vertex 8.23215 12.5292 15
      vertex 6.30294 11.9029 15
      vertex 6.33158 12.7599 15
    endloop
  endfacet
  facet normal -0 0 -1
    outer loop
      vertex 6.33158 12.7599 15
      vertex 6.30294 11.9029 15
      vertex 5.79437 13.1307 15
    endloop
  endfacet
  facet normal 0 0 -1
    outer loop
      vertex 11.2 8 15
      vertex 12.6162 6.79274 15
      vertex 11.9029 6.30294 15
    endloop
  endfacet
  facet normal 0 0 -1
    outer loop
      vertex 11.9029 6.30294 15
      vertex 12.6162 6.79274 15
      vertex 13.1428 5.78936 15
    endloop
  endfacet
  facet normal 0 0 -1
    outer loop
      vertex 12.6162 8.70726 15
      vertex 11.9029 9.69706 15
      vertex 13.4782 10.3495 15
    endloop
  endfacet
  facet normal 0 0 -1
    outer loop
      vertex 12.6162 6.79274 15
      vertex 11.2 8 15
      vertex 12.6162 8.70726 15
    endloop
  endfacet
  facet normal -0 0 -1
    outer loop
      vertex 12.6162 8.70726 15
      vertex 11.2 8 15
      vertex 11.9029 9.69706 15
    endloop
  endfacet
  facet normal 0 0 -1
    outer loop
      vertex 3 7.75 15
      vertex 4.8 8 15
      vertex 4.09706 6.30294 15
    endloop
  endfacet
  facet normal -0 0 -1
    outer loop
      vertex 4.8 8 15
      vertex 3 7.75 15
      vertex 4.09706 9.69706 15
    endloop
  endfacet
  facet normal -0 0 -1
    outer loop
      vertex 4.09706 6.30294 15
      vertex 2.54182 5.89111 15
      vertex 3 7.75 15
    endloop
  endfacet
  facet normal 0 0 -1
    outer loop
      vertex 2.4 5.6 15
      vertex 2.54182 5.89111 15
      vertex 4.09706 6.30294 15
    endloop
  endfacet
  facet normal 0 0 -1
    outer loop
      vertex 2.54182 5.89111 15
      vertex 2.4 5.6 15
      vertex 2.31509 5.63517 15
    endloop
  endfacet
  facet normal 0 0 -1
    outer loop
      vertex 2.54182 9.60889 15
      vertex 4.09706 9.69706 15
      vertex 3 7.75 15
    endloop
  endfacet
  facet normal 0 0 -1
    outer loop
      vertex 2.54182 9.60889 15
      vertex 2.4 10.4 15
      vertex 4.09706 9.69706 15
    endloop
  endfacet
  facet normal 0 -0 -1
    outer loop
      vertex 2.4 10.4 15
      vertex 2.54182 9.60889 15
      vertex 1.99104 10.2306 15
    endloop
  endfacet
  facet normal 1 -0 0
    outer loop
      vertex 16 0 15
      vertex 16 6.5 0
      vertex 16 6.5 15
    endloop
  endfacet
  facet normal 1 0 0
    outer loop
      vertex 16 6.5 0
      vertex 16 0 15
      vertex 16 0 0
    endloop
  endfacet
  facet normal 1 -0 0
    outer loop
      vertex 16 9.5 15
      vertex 16 16 0
      vertex 16 16 15
    endloop
  endfacet
  facet normal 1 0 0
    outer loop
      vertex 16 16 0
      vertex 16 9.5 15
      vertex 16 9.5 0
    endloop
  endfacet
  facet normal 0 1 0
    outer loop
      vertex 16 16 15
      vertex 10.4 16 4.8
      vertex 9.5 16 15
    endloop
  endfacet
  facet normal 0 1 -0
    outer loop
      vertex 16 16 0
      vertex 10.4 16 4.8
      vertex 16 16 15
    endloop
  endfacet
  facet normal 0 1 0
    outer loop
      vertex 10.4 16 4.8
      vertex 16 16 0
      vertex 10.4 16 0
    endloop
  endfacet
  facet normal 0 1 0
    outer loop
      vertex 9.5 16 15
      vertex 10.4 16 4.8
      vertex 9.5 16 4.8
    endloop
  endfacet
  facet normal 0 1 0
    outer loop
      vertex 5.6 16 4.8
      vertex 6.5 16 15
      vertex 6.5 16 4.8
    endloop
  endfacet
  facet normal 0 1 0
    outer loop
      vertex 6.5 16 15
      vertex 5.6 16 4.8
      vertex 0 16 15
    endloop
  endfacet
  facet normal 0 1 0
    outer loop
      vertex 0 16 0
      vertex 5.6 16 4.8
      vertex 5.6 16 0
    endloop
  endfacet
  facet normal 0 1 0
    outer loop
      vertex 5.6 16 4.8
      vertex 0 16 0
      vertex 0 16 15
    endloop
  endfacet
  facet normal 0 0 -1
    outer loop
      vertex 0 0 0
      vertex 5.6 2.4 0
      vertex 5.6 0 0
    endloop
  endfacet
  facet normal 0 0 -1
    outer loop
      vertex 5.6 2.4 0
      vertex 4.8 8 0
      vertex 5.6 13.6 0
    endloop
  endfacet
  facet normal 0 0 -1
    outer loop
      vertex 4.09706 9.69706 0
      vertex 5.6 13.6 0
      vertex 4.8 8 0
    endloop
  endfacet
  facet normal 0 0 -1
    outer loop
      vertex 5.6 2.4 0
      vertex 4.09706 6.30294 0
      vertex 4.8 8 0
    endloop
  endfacet
  facet normal 0 0 -1
    outer loop
      vertex 5.6 2.4 0
      vertex 2.4 5.6 0
      vertex 4.09706 6.30294 0
    endloop
  endfacet
  facet normal -0 0 -1
    outer loop
      vertex 5.6 2.4 0
      vertex 0 0 0
      vertex 2.4 5.6 0
    endloop
  endfacet
  facet normal -0 0 -1
    outer loop
      vertex 2.4 5.6 0
      vertex 0 0 0
      vertex 0.702943 6.30294 0
    endloop
  endfacet
  facet normal 0 0 -1
    outer loop
      vertex 0 6.5 0
      vertex 0.702943 6.30294 0
      vertex 0 0 0
    endloop
  endfacet
  facet normal 0 0 -1
    outer loop
      vertex 0.702943 6.30294 0
      vertex 0 6.5 0
      vertex 0.621319 6.5 0
    endloop
  endfacet
  facet normal 0 0 -1
    outer loop
      vertex 6.30294 4.09706 0
      vertex 6.5 11.8213 0
      vertex 6.5 4.17868 0
    endloop
  endfacet
  facet normal 0 0 -1
    outer loop
      vertex 6.30294 4.09706 0
      vertex 6.30294 11.9029 0
      vertex 6.5 11.8213 0
    endloop
  endfacet
  facet normal 0 0 -1
    outer loop
      vertex 5.6 2.4 0
      vertex 6.30294 11.9029 0
      vertex 6.30294 4.09706 0
    endloop
  endfacet
  facet normal -0 0 -1
    outer loop
      vertex 6.30294 11.9029 0
      vertex 5.6 2.4 0
      vertex 5.6 13.6 0
    endloop
  endfacet
  facet normal 0 0 -1
    outer loop
      vertex 2.4 10.4 0
      vertex 5.6 13.6 0
      vertex 4.09706 9.69706 0
    endloop
  endfacet
  facet normal 0 0 -1
    outer loop
      vertex 0 16 0
      vertex 5.6 13.6 0
      vertex 2.4 10.4 0
    endloop
  endfacet
  facet normal 0 0 -1
    outer loop
      vertex 0 16 0
      vertex 2.4 10.4 0
      vertex 0.702943 9.69706 0
    endloop
  endfacet
  facet normal 0 0 -1
    outer loop
      vertex 0 9.5 0
      vertex 0.702943 9.69706 0
      vertex 0.62132 9.5 0
    endloop
  endfacet
  facet normal 0 0 -1
    outer loop
      vertex 0 16 0
      vertex 0.702943 9.69706 0
      vertex 0 9.5 0
    endloop
  endfacet
  facet normal 0 0 -1
    outer loop
      vertex 5.6 13.6 0
      vertex 0 16 0
      vertex 5.6 16 0
    endloop
  endfacet
  facet normal 0 0 -1
    outer loop
      vertex 15.2971 6.30294 0
      vertex 16 6.5 0
      vertex 16 0 0
    endloop
  endfacet
  facet normal -0 0 -1
    outer loop
      vertex 16 6.5 0
      vertex 15.2971 6.30294 0
      vertex 15.3787 6.5 0
    endloop
  endfacet
  facet normal 0 0 -1
    outer loop
      vertex 16 0 0
      vertex 13.6 5.6 0
      vertex 15.2971 6.30294 0
    endloop
  endfacet
  facet normal 0 0 -1
    outer loop
      vertex 10.4 2.4 0
      vertex 13.6 5.6 0
      vertex 16 0 0
    endloop
  endfacet
  facet normal -0 0 -1
    outer loop
      vertex 13.6 5.6 0
      vertex 10.4 2.4 0
      vertex 11.9029 6.30294 0
    endloop
  endfacet
  facet normal 0 0 -1
    outer loop
      vertex 10.4 2.4 0
      vertex 16 0 0
      vertex 10.4 0 0
    endloop
  endfacet
  facet normal 0 0 -1
    outer loop
      vertex 15.2971 9.69706 0
      vertex 16 9.5 0
      vertex 15.3787 9.5 0
    endloop
  endfacet
  facet normal 0 0 -1
    outer loop
      vertex 16 9.5 0
      vertex 15.2971 9.69706 0
      vertex 16 16 0
    endloop
  endfacet
  facet normal 0 0 -1
    outer loop
      vertex 13.6 10.4 0
      vertex 16 16 0
      vertex 15.2971 9.69706 0
    endloop
  endfacet
  facet normal 0 0 -1
    outer loop
      vertex 10.4 13.6 0
      vertex 13.6 10.4 0
      vertex 11.9029 9.69706 0
    endloop
  endfacet
  facet normal 0 0 -1
    outer loop
      vertex 9.69706 4.09706 0
      vertex 11.9029 6.30294 0
      vertex 10.4 2.4 0
    endloop
  endfacet
  facet normal 0 0 -1
    outer loop
      vertex 9.5 4.17868 0
      vertex 11.9029 6.30294 0
      vertex 9.69706 4.09706 0
    endloop
  endfacet
  facet normal 0 0 -1
    outer loop
      vertex 9.69706 11.9029 0
      vertex 11.9029 9.69706 0
      vertex 11.2 8 0
    endloop
  endfacet
  facet normal 0 0 -1
    outer loop
      vertex 13.6 10.4 0
      vertex 10.4 13.6 0
      vertex 16 16 0
    endloop
  endfacet
  facet normal -0 0 -1
    outer loop
      vertex 16 16 0
      vertex 10.4 13.6 0
      vertex 10.4 16 0
    endloop
  endfacet
  facet normal -0 0 -1
    outer loop
      vertex 11.9029 6.30294 0
      vertex 9.5 4.17868 0
      vertex 11.2 8 0
    endloop
  endfacet
  facet normal 0 0 -1
    outer loop
      vertex 11.9029 9.69706 0
      vertex 9.69706 11.9029 0
      vertex 10.4 13.6 0
    endloop
  endfacet
  facet normal 0 0 -1
    outer loop
      vertex 9.5 11.8213 0
      vertex 11.2 8 0
      vertex 9.5 4.17868 0
    endloop
  endfacet
  facet normal 0 0 -1
    outer loop
      vertex 11.2 8 0
      vertex 9.5 11.8213 0
      vertex 9.69706 11.9029 0
    endloop
  endfacet
  facet normal 0 -1 0
    outer loop
      vertex 10.4 0 4.8
      vertex 9.5 0 15
      vertex 9.5 0 4.8
    endloop
  endfacet
  facet normal 0 -1 0
    outer loop
      vertex 9.5 0 15
      vertex 10.4 0 4.8
      vertex 16 0 15
    endloop
  endfacet
  facet normal 0 -1 0
    outer loop
      vertex 16 0 0
      vertex 10.4 0 4.8
      vertex 10.4 0 0
    endloop
  endfacet
  facet normal 0 -1 0
    outer loop
      vertex 10.4 0 4.8
      vertex 16 0 0
      vertex 16 0 15
    endloop
  endfacet
  facet normal 0 -1 0
    outer loop
      vertex 0 0 15
      vertex 5.6 0 4.8
      vertex 6.5 0 15
    endloop
  endfacet
  facet normal 0 -1 0
    outer loop
      vertex 0 0 0
      vertex 5.6 0 4.8
      vertex 0 0 15
    endloop
  endfacet
  facet normal 0 -1 -0
    outer loop
      vertex 5.6 0 4.8
      vertex 0 0 0
      vertex 5.6 0 0
    endloop
  endfacet
  facet normal 0 -1 -0
    outer loop
      vertex 6.5 0 15
      vertex 5.6 0 4.8
      vertex 6.5 0 4.8
    endloop
  endfacet
  facet normal -0.923881 -0.382681 0
    outer loop
      vertex 10.4 2.4 0
      vertex 9.69706 4.09706 0.702943
      vertex 9.69706 4.09706 0
    endloop
  endfacet
  facet normal -0.923881 -0.382681 0
    outer loop
      vertex 9.69706 4.09706 0.702943
      vertex 10.4 2.4 0
      vertex 10.4 2.4 2.4
    endloop
  endfacet
  facet normal -0.923881 -0.382681 -0
    outer loop
      vertex 10.4 2.4 4.8
      vertex 9.69706 4.09706 4.09706
      vertex 10.4 2.4 2.4
    endloop
  endfacet
  facet normal -0.923881 -0.382681 0
    outer loop
      vertex 9.69706 4.09706 4.09706
      vertex 10.4 2.4 4.8
      vertex 9.69706 4.09706 15
    endloop
  endfacet
  facet normal -0.923881 -0.382681 0
    outer loop
      vertex 9.69706 4.09706 15
      vertex 10.4 2.4 4.8
      vertex 10.4 2.4 15
    endloop
  endfacet
  facet normal 0.382681 -0.923881 0
    outer loop
      vertex 6.30294 4.09706 15
      vertex 8 4.8 4.8
      vertex 8 4.8 15
    endloop
  endfacet
  facet normal 0.382681 -0.923881 0
    outer loop
      vertex 8 4.8 4.8
      vertex 6.30294 4.09706 15
      vertex 6.30294 4.09706 4.09706
    endloop
  endfacet
  facet normal 0.382664 -0.923888 0
    outer loop
      vertex 6.30294 4.09706 0
      vertex 6.5 4.17868 0.621319
      vertex 6.30294 4.09706 0.702943
    endloop
  endfacet
  facet normal 0.382664 -0.923888 0
    outer loop
      vertex 6.5 4.17868 0.621319
      vertex 6.30294 4.09706 0
      vertex 6.5 4.17868 0
    endloop
  endfacet
  facet normal -0.382664 -0.923888 0
    outer loop
      vertex 9.69706 4.09706 0
      vertex 9.5 4.17868 0.62132
      vertex 9.5 4.17868 0
    endloop
  endfacet
  facet normal -0.382664 -0.923888 0
    outer loop
      vertex 9.5 4.17868 0.62132
      vertex 9.69706 4.09706 0
      vertex 9.69706 4.09706 0.702943
    endloop
  endfacet
  facet normal -0.382681 -0.923881 0
    outer loop
      vertex 8 4.8 4.8
      vertex 9.69706 4.09706 15
      vertex 8 4.8 15
    endloop
  endfacet
  facet normal -0.382681 -0.923881 -0
    outer loop
      vertex 9.69706 4.09706 15
      vertex 8 4.8 4.8
      vertex 9.69706 4.09706 4.09706
    endloop
  endfacet
  facet normal 0.923881 -0.382681 0
    outer loop
      vertex 5.6 2.4 4.8
      vertex 6.30294 4.09706 15
      vertex 5.6 2.4 15
    endloop
  endfacet
  facet normal 0.923881 -0.382681 0
    outer loop
      vertex 6.30294 4.09706 15
      vertex 5.6 2.4 4.8
      vertex 6.30294 4.09706 4.09706
    endloop
  endfacet
  facet normal 0.923881 -0.382681 0
    outer loop
      vertex 6.30294 4.09706 4.09706
      vertex 5.6 2.4 4.8
      vertex 5.6 2.4 2.4
    endloop
  endfacet
  facet normal 0.923881 -0.382681 0
    outer loop
      vertex 5.6 2.4 0
      vertex 6.30294 4.09706 0.702943
      vertex 5.6 2.4 2.4
    endloop
  endfacet
  facet normal 0.923881 -0.382681 0
    outer loop
      vertex 6.30294 4.09706 0.702943
      vertex 5.6 2.4 0
      vertex 6.30294 4.09706 0
    endloop
  endfacet
  facet normal -0.923923 0.382579 0
    outer loop
      vertex 10.4 2.4 4.8
      vertex 10.2492 2.03582 15
      vertex 10.4 2.4 15
    endloop
  endfacet
  facet normal -0.92388 0.382682 4.29616e-06
    outer loop
      vertex 9.69706 0.702943 4.8
      vertex 10.2492 2.03582 15
      vertex 10.4 2.4 4.8
    endloop
  endfacet
  facet normal -0.923869 0.38271 0
    outer loop
      vertex 10.2492 2.03582 15
      vertex 9.69706 0.702943 4.8
      vertex 9.69706 0.702943 15
    endloop
  endfacet
  facet normal 0.38268 0.923881 -0
    outer loop
      vertex 6.5 0.621319 4.8
      vertex 6.30294 0.702943 15
      vertex 6.5 0.621319 15
    endloop
  endfacet
  facet normal 0.38268 0.923881 0
    outer loop
      vertex 6.30294 0.702943 15
      vertex 6.5 0.621319 4.8
      vertex 6.30294 0.702943 4.8
    endloop
  endfacet
  facet normal 0.923876 0.382691 0
    outer loop
      vertex 5.65312 2.27176 15
      vertex 5.6 2.4 4.8
      vertex 5.6 2.4 15
    endloop
  endfacet
  facet normal 0.923881 0.382681 -0
    outer loop
      vertex 6.30294 0.702943 4.8
      vertex 5.65312 2.27176 15
      vertex 6.30294 0.702943 15
    endloop
  endfacet
  facet normal 0.92388 0.382682 -1.41023e-07
    outer loop
      vertex 5.65312 2.27176 15
      vertex 6.30294 0.702943 4.8
      vertex 5.6 2.4 4.8
    endloop
  endfacet
  facet normal -0.382676 0.923883 0
    outer loop
      vertex 9.69706 0.702943 4.8
      vertex 9.5 0.62132 15
      vertex 9.69706 0.702943 15
    endloop
  endfacet
  facet normal -0.382676 0.923883 0
    outer loop
      vertex 9.5 0.62132 15
      vertex 9.69706 0.702943 4.8
      vertex 9.5 0.62132 4.8
    endloop
  endfacet
  facet normal -0.923877 -0.382689 0
    outer loop
      vertex 9.69706 15.2971 4.8
      vertex 10.3903 13.6235 15
      vertex 9.69706 15.2971 15
    endloop
  endfacet
  facet normal -0.923884 -0.382673 3.05392e-06
    outer loop
      vertex 10.4 13.6 4.8
      vertex 10.3903 13.6235 15
      vertex 9.69706 15.2971 4.8
    endloop
  endfacet
  facet normal -0.924352 -0.381541 0
    outer loop
      vertex 10.3903 13.6235 15
      vertex 10.4 13.6 4.8
      vertex 10.4 13.6 15
    endloop
  endfacet
  facet normal 0.923884 -0.382673 0
    outer loop
      vertex 5.6 13.6 15
      vertex 6.30294 15.2971 4.8
      vertex 6.30294 15.2971 15
    endloop
  endfacet
  facet normal 0.923884 -0.382673 0
    outer loop
      vertex 6.30294 15.2971 4.8
      vertex 5.6 13.6 15
      vertex 5.6 13.6 4.8
    endloop
  endfacet
  facet normal 0.382584 -0.923921 0
    outer loop
      vertex 6.30294 15.2971 4.8
      vertex 6.5 15.3787 15
      vertex 6.30294 15.2971 15
    endloop
  endfacet
  facet normal 0.382584 -0.923921 0
    outer loop
      vertex 6.5 15.3787 15
      vertex 6.30294 15.2971 4.8
      vertex 6.5 15.3787 4.8
    endloop
  endfacet
  facet normal -0.382584 -0.923921 0
    outer loop
      vertex 9.5 15.3787 4.8
      vertex 9.69706 15.2971 15
      vertex 9.5 15.3787 15
    endloop
  endfacet
  facet normal -0.382584 -0.923921 -0
    outer loop
      vertex 9.69706 15.2971 15
      vertex 9.5 15.3787 4.8
      vertex 9.69706 15.2971 4.8
    endloop
  endfacet
  facet normal -0.382662 0.923888 0
    outer loop
      vertex 9.69706 11.9029 15
      vertex 8 11.2 4.8
      vertex 8 11.2 15
    endloop
  endfacet
  facet normal -0.382662 0.923888 0
    outer loop
      vertex 8 11.2 4.8
      vertex 9.69706 11.9029 15
      vertex 9.69706 11.9029 4.09706
    endloop
  endfacet
  facet normal -0.382584 0.923921 0
    outer loop
      vertex 9.69706 11.9029 0
      vertex 9.5 11.8213 0.62132
      vertex 9.69706 11.9029 0.702943
    endloop
  endfacet
  facet normal -0.382584 0.923921 0
    outer loop
      vertex 9.5 11.8213 0.62132
      vertex 9.69706 11.9029 0
      vertex 9.5 11.8213 0
    endloop
  endfacet
  facet normal 0.923884 0.382673 0
    outer loop
      vertex 6.30294 11.9029 0.702943
      vertex 5.6 13.6 0
      vertex 5.6 13.6 2.4
    endloop
  endfacet
  facet normal 0.923884 0.382673 0
    outer loop
      vertex 5.6 13.6 0
      vertex 6.30294 11.9029 0.702943
      vertex 6.30294 11.9029 0
    endloop
  endfacet
  facet normal 0.923894 0.382649 0
    outer loop
      vertex 5.79437 13.1307 15
      vertex 5.6 13.6 4.8
      vertex 5.6 13.6 15
    endloop
  endfacet
  facet normal 0.92388 0.382683 1.80113e-06
    outer loop
      vertex 6.30294 11.9029 15
      vertex 5.6 13.6 4.8
      vertex 5.79437 13.1307 15
    endloop
  endfacet
  facet normal 0.923884 0.382673 0
    outer loop
      vertex 5.6 13.6 4.8
      vertex 6.30294 11.9029 15
      vertex 6.30294 11.9029 4.09706
    endloop
  endfacet
  facet normal 0.923884 0.382673 0
    outer loop
      vertex 5.6 13.6 4.8
      vertex 6.30294 11.9029 4.09706
      vertex 5.6 13.6 2.4
    endloop
  endfacet
  facet normal -0.923884 0.382673 0
    outer loop
      vertex 9.69706 11.9029 0.702943
      vertex 10.4 13.6 0
      vertex 9.69706 11.9029 0
    endloop
  endfacet
  facet normal -0.923884 0.382673 0
    outer loop
      vertex 10.4 13.6 0
      vertex 9.69706 11.9029 0.702943
      vertex 10.4 13.6 2.4
    endloop
  endfacet
  facet normal -0.923884 0.382673 0
    outer loop
      vertex 9.69706 11.9029 4.09706
      vertex 10.4 13.6 4.8
      vertex 10.4 13.6 2.4
    endloop
  endfacet
  facet normal -0.923884 0.382673 0
    outer loop
      vertex 9.69706 11.9029 15
      vertex 10.4 13.6 4.8
      vertex 9.69706 11.9029 4.09706
    endloop
  endfacet
  facet normal -0.923884 0.382673 0
    outer loop
      vertex 10.4 13.6 4.8
      vertex 9.69706 11.9029 15
      vertex 10.4 13.6 15
    endloop
  endfacet
  facet normal 0.382584 0.923921 0
    outer loop
      vertex 6.30294 11.9029 0
      vertex 6.5 11.8213 0.621319
      vertex 6.5 11.8213 0
    endloop
  endfacet
  facet normal 0.382584 0.923921 0
    outer loop
      vertex 6.5 11.8213 0.621319
      vertex 6.30294 11.9029 0
      vertex 6.30294 11.9029 0.702943
    endloop
  endfacet
  facet normal 0.382662 0.923888 -0
    outer loop
      vertex 8 11.2 4.8
      vertex 6.30294 11.9029 15
      vertex 8 11.2 15
    endloop
  endfacet
  facet normal 0.382662 0.923888 0
    outer loop
      vertex 6.30294 11.9029 15
      vertex 8 11.2 4.8
      vertex 6.30294 11.9029 4.09706
    endloop
  endfacet
  facet normal -0.923921 -0.382584 0
    outer loop
      vertex 15.3787 9.5 0
      vertex 15.2971 9.69706 15
      vertex 15.2971 9.69706 0
    endloop
  endfacet
  facet normal -0.923921 -0.382584 0
    outer loop
      vertex 15.2971 9.69706 15
      vertex 15.3787 9.5 0
      vertex 15.3787 9.5 15
    endloop
  endfacet
  facet normal 0.382648 -0.923894 0
    outer loop
      vertex 11.9029 9.69706 0
      vertex 13.4782 10.3495 15
      vertex 11.9029 9.69706 15
    endloop
  endfacet
  facet normal 0.382673 -0.923884 -3.1015e-06
    outer loop
      vertex 13.6 10.4 0
      vertex 13.4782 10.3495 15
      vertex 11.9029 9.69706 0
    endloop
  endfacet
  facet normal 0.382999 -0.923749 0
    outer loop
      vertex 13.4782 10.3495 15
      vertex 13.6 10.4 0
      vertex 13.6 10.4 15
    endloop
  endfacet
  facet normal -0.382673 -0.923884 0
    outer loop
      vertex 13.6 10.4 0
      vertex 15.2971 9.69706 15
      vertex 13.6 10.4 15
    endloop
  endfacet
  facet normal -0.382673 -0.923884 -0
    outer loop
      vertex 15.2971 9.69706 15
      vertex 13.6 10.4 0
      vertex 15.2971 9.69706 0
    endloop
  endfacet
  facet normal 0.923888 -0.382662 0
    outer loop
      vertex 11.2 8 15
      vertex 11.9029 9.69706 0
      vertex 11.9029 9.69706 15
    endloop
  endfacet
  facet normal 0.923888 -0.382662 0
    outer loop
      vertex 11.9029 9.69706 0
      vertex 11.2 8 15
      vertex 11.2 8 0
    endloop
  endfacet
  facet normal -0.923921 0.382584 0
    outer loop
      vertex 15.2971 6.30294 0
      vertex 15.3787 6.5 15
      vertex 15.3787 6.5 0
    endloop
  endfacet
  facet normal -0.923921 0.382584 0
    outer loop
      vertex 15.3787 6.5 15
      vertex 15.2971 6.30294 0
      vertex 15.2971 6.30294 15
    endloop
  endfacet
  facet normal 0.382652 0.923893 -0
    outer loop
      vertex 13.6 5.6 0
      vertex 13.1428 5.78936 15
      vertex 13.6 5.6 15
    endloop
  endfacet
  facet normal 0.382673 0.923884 7.73469e-07
    outer loop
      vertex 11.9029 6.30294 0
      vertex 13.1428 5.78936 15
      vertex 13.6 5.6 0
    endloop
  endfacet
  facet normal 0.382681 0.92388 0
    outer loop
      vertex 13.1428 5.78936 15
      vertex 11.9029 6.30294 0
      vertex 11.9029 6.30294 15
    endloop
  endfacet
  facet normal 0.923888 0.382662 0
    outer loop
      vertex 11.9029 6.30294 15
      vertex 11.2 8 0
      vertex 11.2 8 15
    endloop
  endfacet
  facet normal 0.923888 0.382662 0
    outer loop
      vertex 11.2 8 0
      vertex 11.9029 6.30294 15
      vertex 11.9029 6.30294 0
    endloop
  endfacet
  facet normal -0.382673 0.923884 0
    outer loop
      vertex 15.2971 6.30294 0
      vertex 13.6 5.6 15
      vertex 15.2971 6.30294 15
    endloop
  endfacet
  facet normal -0.382673 0.923884 0
    outer loop
      vertex 13.6 5.6 15
      vertex 15.2971 6.30294 0
      vertex 13.6 5.6 0
    endloop
  endfacet
  facet normal -0.923881 -0.382681 0
    outer loop
      vertex 4.8 8 0
      vertex 4.09706 9.69706 15
      vertex 4.09706 9.69706 0
    endloop
  endfacet
  facet normal -0.923881 -0.382681 0
    outer loop
      vertex 4.09706 9.69706 15
      vertex 4.8 8 0
      vertex 4.8 8 15
    endloop
  endfacet
  facet normal 0.382679 -0.923881 0
    outer loop
      vertex 0.702943 9.69706 0
      vertex 1.99104 10.2306 15
      vertex 0.702943 9.69706 15
    endloop
  endfacet
  facet normal 0.382682 -0.92388 -2.5817e-07
    outer loop
      vertex 2.4 10.4 0
      vertex 1.99104 10.2306 15
      vertex 0.702943 9.69706 0
    endloop
  endfacet
  facet normal 0.38269 -0.923877 0
    outer loop
      vertex 1.99104 10.2306 15
      vertex 2.4 10.4 0
      vertex 2.4 10.4 15
    endloop
  endfacet
  facet normal -0.382681 -0.923881 0
    outer loop
      vertex 2.4 10.4 0
      vertex 4.09706 9.69706 15
      vertex 2.4 10.4 15
    endloop
  endfacet
  facet normal -0.382681 -0.923881 -0
    outer loop
      vertex 4.09706 9.69706 15
      vertex 2.4 10.4 0
      vertex 4.09706 9.69706 0
    endloop
  endfacet
  facet normal 0.923883 -0.382676 0
    outer loop
      vertex 0.62132 9.5 15
      vertex 0.702943 9.69706 0
      vertex 0.702943 9.69706 15
    endloop
  endfacet
  facet normal 0.923883 -0.382676 0
    outer loop
      vertex 0.702943 9.69706 0
      vertex 0.62132 9.5 15
      vertex 0.62132 9.5 0
    endloop
  endfacet
  facet normal -0.923881 0.382681 0
    outer loop
      vertex 4.09706 6.30294 0
      vertex 4.8 8 15
      vertex 4.8 8 0
    endloop
  endfacet
  facet normal -0.923881 0.382681 0
    outer loop
      vertex 4.8 8 15
      vertex 4.09706 6.30294 0
      vertex 4.09706 6.30294 15
    endloop
  endfacet
  facet normal 0.923881 0.38268 0
    outer loop
      vertex 0.702943 6.30294 15
      vertex 0.621319 6.5 0
      vertex 0.621319 6.5 15
    endloop
  endfacet
  facet normal 0.923881 0.38268 0
    outer loop
      vertex 0.621319 6.5 0
      vertex 0.702943 6.30294 15
      vertex 0.702943 6.30294 0
    endloop
  endfacet
  facet normal -0.382681 0.923881 0
    outer loop
      vertex 4.09706 6.30294 0
      vertex 2.4 5.6 15
      vertex 4.09706 6.30294 15
    endloop
  endfacet
  facet normal -0.382681 0.923881 0
    outer loop
      vertex 2.4 5.6 15
      vertex 4.09706 6.30294 0
      vertex 2.4 5.6 0
    endloop
  endfacet
  facet normal 0.382675 0.923883 -0
    outer loop
      vertex 2.4 5.6 0
      vertex 2.31509 5.63517 15
      vertex 2.4 5.6 15
    endloop
  endfacet
  facet normal 0.382682 0.92388 4.35808e-08
    outer loop
      vertex 2.31509 5.63517 15
      vertex 2.4 5.6 0
      vertex 0.702943 6.30294 15
    endloop
  endfacet
  facet normal 0.382682 0.92388 0
    outer loop
      vertex 0.702943 6.30294 15
      vertex 2.4 5.6 0
      vertex 0.702943 6.30294 0
    endloop
  endfacet
  facet normal 1 -0 0
    outer loop
      vertex 6.5 0 15
      vertex 6.5 0.621319 4.8
      vertex 6.5 0.621319 15
    endloop
  endfacet
  facet normal 1 0 0
    outer loop
      vertex 6.5 0.621319 4.8
      vertex 6.5 0 15
      vertex 6.5 0 4.8
    endloop
  endfacet
  facet normal -1 0 0
    outer loop
      vertex 9.5 0 4.8
      vertex 9.5 0.62132 15
      vertex 9.5 0.62132 4.8
    endloop
  endfacet
  facet normal -1 -0 0
    outer loop
      vertex 9.5 0.62132 15
      vertex 9.5 0 4.8
      vertex 9.5 0 15
    endloop
  endfacet
  facet normal 1 -0 0
    outer loop
      vertex 6.5 15.3787 15
      vertex 6.5 16 4.8
      vertex 6.5 16 15
    endloop
  endfacet
  facet normal 1 0 0
    outer loop
      vertex 6.5 16 4.8
      vertex 6.5 15.3787 15
      vertex 6.5 15.3787 4.8
    endloop
  endfacet
  facet normal -1 0 0
    outer loop
      vertex 9.5 15.3787 4.8
      vertex 9.5 16 15
      vertex 9.5 16 4.8
    endloop
  endfacet
  facet normal -1 -0 0
    outer loop
      vertex 9.5 16 15
      vertex 9.5 15.3787 4.8
      vertex 9.5 15.3787 15
    endloop
  endfacet
  facet normal 0 -1 0
    outer loop
      vertex 15.3787 9.5 0
      vertex 16 9.5 15
      vertex 15.3787 9.5 15
    endloop
  endfacet
  facet normal 0 -1 -0
    outer loop
      vertex 16 9.5 15
      vertex 15.3787 9.5 0
      vertex 16 9.5 0
    endloop
  endfacet
  facet normal 0 1 -0
    outer loop
      vertex 16 6.5 0
      vertex 15.3787 6.5 15
      vertex 16 6.5 15
    endloop
  endfacet
  facet normal 0 1 0
    outer loop
      vertex 15.3787 6.5 15
      vertex 16 6.5 0
      vertex 15.3787 6.5 0
    endloop
  endfacet
  facet normal 0 -1 0
    outer loop
      vertex 0 9.5 0
      vertex 0.62132 9.5 15
      vertex 0 9.5 15
    endloop
  endfacet
  facet normal 0 -1 -0
    outer loop
      vertex 0.62132 9.5 15
      vertex 0 9.5 0
      vertex 0.62132 9.5 0
    endloop
  endfacet
  facet normal 0 1 -0
    outer loop
      vertex 0.621319 6.5 0
      vertex 0 6.5 15
      vertex 0.621319 6.5 15
    endloop
  endfacet
  facet normal 0 1 0
    outer loop
      vertex 0 6.5 15
      vertex 0.621319 6.5 0
      vertex 0 6.5 0
    endloop
  endfacet
  facet normal -0.923881 0 -0.382681
    outer loop
      vertex 10.4 13.6 2.4
      vertex 9.69706 4.09706 4.09706
      vertex 9.69706 11.9029 4.09706
    endloop
  endfacet
  facet normal -0.923881 0 -0.382681
    outer loop
      vertex 9.69706 4.09706 4.09706
      vertex 10.4 13.6 2.4
      vertex 10.4 2.4 2.4
    endloop
  endfacet
  facet normal -0.382681 0 -0.923881
    outer loop
      vertex 8 4.8 4.8
      vertex 9.69706 11.9029 4.09706
      vertex 9.69706 4.09706 4.09706
    endloop
  endfacet
  facet normal -0.382681 0 -0.923881
    outer loop
      vertex 9.69706 11.9029 4.09706
      vertex 8 4.8 4.8
      vertex 8 11.2 4.8
    endloop
  endfacet
  facet normal 0.382681 0 -0.923881
    outer loop
      vertex 6.30294 4.09706 4.09706
      vertex 8 11.2 4.8
      vertex 8 4.8 4.8
    endloop
  endfacet
  facet normal 0.382681 0 -0.923881
    outer loop
      vertex 8 11.2 4.8
      vertex 6.30294 4.09706 4.09706
      vertex 6.30294 11.9029 4.09706
    endloop
  endfacet
  facet normal -0.92388 0 0.382682
    outer loop
      vertex 9.69706 4.09706 0.702943
      vertex 10.4 13.6 2.4
      vertex 9.69706 11.9029 0.702943
    endloop
  endfacet
  facet normal -0.92388 0 0.382682
    outer loop
      vertex 10.4 13.6 2.4
      vertex 9.69706 4.09706 0.702943
      vertex 10.4 2.4 2.4
    endloop
  endfacet
  facet normal 0.38268 0 0.923881
    outer loop
      vertex 6.30294 11.9029 0.702943
      vertex 6.5 4.17868 0.621319
      vertex 6.5 11.8213 0.621319
    endloop
  endfacet
  facet normal 0.38268 0 0.923881
    outer loop
      vertex 6.5 4.17868 0.621319
      vertex 6.30294 11.9029 0.702943
      vertex 6.30294 4.09706 0.702943
    endloop
  endfacet
  facet normal 0.923881 0 -0.382681
    outer loop
      vertex 6.30294 4.09706 4.09706
      vertex 5.6 13.6 2.4
      vertex 6.30294 11.9029 4.09706
    endloop
  endfacet
  facet normal 0.923881 0 -0.382681
    outer loop
      vertex 5.6 13.6 2.4
      vertex 6.30294 4.09706 4.09706
      vertex 5.6 2.4 2.4
    endloop
  endfacet
  facet normal 0.92388 0 0.382682
    outer loop
      vertex 5.6 13.6 2.4
      vertex 6.30294 4.09706 0.702943
      vertex 6.30294 11.9029 0.702943
    endloop
  endfacet
  facet normal 0.92388 0 0.382682
    outer loop
      vertex 6.30294 4.09706 0.702943
      vertex 5.6 13.6 2.4
      vertex 5.6 2.4 2.4
    endloop
  endfacet
  facet normal -0.382676 0 0.923883
    outer loop
      vertex 9.5 11.8213 0.62132
      vertex 9.69706 4.09706 0.702943
      vertex 9.69706 11.9029 0.702943
    endloop
  endfacet
  facet normal -0.382676 0 0.923883
    outer loop
      vertex 9.69706 4.09706 0.702943
      vertex 9.5 11.8213 0.62132
      vertex 9.5 4.17868 0.62132
    endloop
  endfacet
  facet normal 1 0 0
    outer loop
      vertex 5.6 13.6 2.4
      vertex 5.6 16 4.8
      vertex 5.6 13.6 4.8
    endloop
  endfacet
  facet normal 1 0 0
    outer loop
      vertex 5.6 16 4.8
      vertex 5.6 13.6 2.4
      vertex 5.6 16 0
    endloop
  endfacet
  facet normal 1 0 0
    outer loop
      vertex 5.6 16 0
      vertex 5.6 13.6 2.4
      vertex 5.6 13.6 0
    endloop
  endfacet
  facet normal 0 0 -1
    outer loop
      vertex 9.69706 15.2971 4.8
      vertex 10.4 16 4.8
      vertex 10.4 13.6 4.8
    endloop
  endfacet
  facet normal 0 0 -1
    outer loop
      vertex 9.5 16 4.8
      vertex 9.69706 15.2971 4.8
      vertex 9.5 15.3787 4.8
    endloop
  endfacet
  facet normal 0 0 -1
    outer loop
      vertex 9.69706 15.2971 4.8
      vertex 9.5 16 4.8
      vertex 10.4 16 4.8
    endloop
  endfacet
  facet normal 0 0 -1
    outer loop
      vertex 6.30294 15.2971 4.8
      vertex 6.5 16 4.8
      vertex 6.5 15.3787 4.8
    endloop
  endfacet
  facet normal 0 0 -1
    outer loop
      vertex 5.6 16 4.8
      vertex 6.30294 15.2971 4.8
      vertex 5.6 13.6 4.8
    endloop
  endfacet
  facet normal 0 0 -1
    outer loop
      vertex 6.30294 15.2971 4.8
      vertex 5.6 16 4.8
      vertex 6.5 16 4.8
    endloop
  endfacet
  facet normal -1 0 0
    outer loop
      vertex 10.4 13.6 2.4
      vertex 10.4 16 0
      vertex 10.4 13.6 0
    endloop
  endfacet
  facet normal -1 0 0
    outer loop
      vertex 10.4 16 0
      vertex 10.4 13.6 2.4
      vertex 10.4 16 4.8
    endloop
  endfacet
  facet normal -1 -0 0
    outer loop
      vertex 10.4 16 4.8
      vertex 10.4 13.6 2.4
      vertex 10.4 13.6 4.8
    endloop
  endfacet
  facet normal 1 -0 0
    outer loop
      vertex 5.6 0 4.8
      vertex 5.6 2.4 2.4
      vertex 5.6 2.4 4.8
    endloop
  endfacet
  facet normal 1 0 0
    outer loop
      vertex 5.6 0 0
      vertex 5.6 2.4 2.4
      vertex 5.6 0 4.8
    endloop
  endfacet
  facet normal 1 0 0
    outer loop
      vertex 5.6 2.4 2.4
      vertex 5.6 0 0
      vertex 5.6 2.4 0
    endloop
  endfacet
  facet normal 0 0 -1
    outer loop
      vertex 10.4 0 4.8
      vertex 9.69706 0.702943 4.8
      vertex 10.4 2.4 4.8
    endloop
  endfacet
  facet normal 0 0 -1
    outer loop
      vertex 9.5 0 4.8
      vertex 9.69706 0.702943 4.8
      vertex 10.4 0 4.8
    endloop
  endfacet
  facet normal 0 0 -1
    outer loop
      vertex 9.69706 0.702943 4.8
      vertex 9.5 0 4.8
      vertex 9.5 0.62132 4.8
    endloop
  endfacet
  facet normal 0 0 -1
    outer loop
      vertex 6.5 0 4.8
      vertex 6.30294 0.702943 4.8
      vertex 6.5 0.621319 4.8
    endloop
  endfacet
  facet normal 0 0 -1
    outer loop
      vertex 5.6 0 4.8
      vertex 6.30294 0.702943 4.8
      vertex 6.5 0 4.8
    endloop
  endfacet
  facet normal -0 0 -1
    outer loop
      vertex 6.30294 0.702943 4.8
      vertex 5.6 0 4.8
      vertex 5.6 2.4 4.8
    endloop
  endfacet
  facet normal -1 0 0
    outer loop
      vertex 10.4 0 0
      vertex 10.4 2.4 2.4
      vertex 10.4 2.4 0
    endloop
  endfacet
  facet normal -1 0 0
    outer loop
      vertex 10.4 0 4.8
      vertex 10.4 2.4 2.4
      vertex 10.4 0 0
    endloop
  endfacet
  facet normal -1 0 0
    outer loop
      vertex 10.4 2.4 2.4
      vertex 10.4 0 4.8
      vertex 10.4 2.4 4.8
    endloop
  endfacet
  facet normal -1 0 0
    outer loop
      vertex 9.5 4.17868 0
      vertex 9.5 11.8213 0.62132
      vertex 9.5 11.8213 0
    endloop
  endfacet
  facet normal -1 -0 0
    outer loop
      vertex 9.5 11.8213 0.62132
      vertex 9.5 4.17868 0
      vertex 9.5 4.17868 0.62132
    endloop
  endfacet
  facet normal 1 -0 0
    outer loop
      vertex 6.5 4.17868 0.621319
      vertex 6.5 11.8213 0
      vertex 6.5 11.8213 0.621319
    endloop
  endfacet
  facet normal 1 0 0
    outer loop
      vertex 6.5 11.8213 0
      vertex 6.5 4.17868 0.621319
      vertex 6.5 4.17868 0
    endloop
  endfacet
  facet normal -1 0 0
    outer loop
      vertex 1 1 15
      vertex 1 4.35481 45
      vertex 1 4.35481 15
    endloop
  endfacet
  facet normal -1 -0 0
    outer loop
      vertex 1 4.35481 45
      vertex 1 1 15
      vertex 1 1 45
    endloop
  endfacet
  facet normal -1 0 0
    outer loop
      vertex 1 11.1452 15
      vertex 1 14.5 45
      vertex 1 14.5 15
    endloop
  endfacet
  facet normal -1 -0 0
    outer loop
      vertex 1 14.5 45
      vertex 1 11.1452 15
      vertex 1 11.1452 45
    endloop
  endfacet
  facet normal -0 0 1
    outer loop
      vertex 11.1668 14.5 45
      vertex 14.5 11.0886 45
      vertex 14.5 14.5 45
    endloop
  endfacet
  facet normal 0 0 1
    outer loop
      vertex 14.5 11.0886 45
      vertex 11.1668 14.5 45
      vertex 13.506 10.4025 45
    endloop
  endfacet
  facet normal 0 0 1
    outer loop
      vertex 13.506 10.4025 45
      vertex 10.0223 13.2081 45
      vertex 12.6162 8.70726 45
    endloop
  endfacet
  facet normal -0 0 1
    outer loop
      vertex 10.0223 13.2081 45
      vertex 13.506 10.4025 45
      vertex 11.1668 14.5 45
    endloop
  endfacet
  facet normal 0 0 1
    outer loop
      vertex 11.1668 1 45
      vertex 14.5 4.41137 45
      vertex 13.506 5.09751 45
    endloop
  endfacet
  facet normal 0 0 1
    outer loop
      vertex 10.0223 2.29193 45
      vertex 13.506 5.09751 45
      vertex 12.6162 6.79274 45
    endloop
  endfacet
  facet normal 0 0 1
    outer loop
      vertex 14.5 4.41137 45
      vertex 11.1668 1 45
      vertex 14.5 1 45
    endloop
  endfacet
  facet normal -0 0 1
    outer loop
      vertex 8.23215 12.5292 45
      vertex 12.6162 8.70726 45
      vertex 10.0223 13.2081 45
    endloop
  endfacet
  facet normal 0 0 1
    outer loop
      vertex 12.6162 8.70726 45
      vertex 8.23215 12.5292 45
      vertex 12.6162 6.79274 45
    endloop
  endfacet
  facet normal 0 0 1
    outer loop
      vertex 13.506 5.09751 45
      vertex 10.0223 2.29193 45
      vertex 11.1668 1 45
    endloop
  endfacet
  facet normal 0 0 1
    outer loop
      vertex 8.23215 2.97083 45
      vertex 12.6162 6.79274 45
      vertex 8.23215 12.5292 45
    endloop
  endfacet
  facet normal 0 0 1
    outer loop
      vertex 12.6162 6.79274 45
      vertex 8.23215 2.97083 45
      vertex 10.0223 2.29193 45
    endloop
  endfacet
  facet normal 0 0 1
    outer loop
      vertex 3 7.75 45
      vertex 8.23215 12.5292 45
      vertex 6.33158 12.7599 45
    endloop
  endfacet
  facet normal 0 0 1
    outer loop
      vertex 8.23215 12.5292 45
      vertex 3 7.75 45
      vertex 8.23215 2.97083 45
    endloop
  endfacet
  facet normal 0 0 1
    outer loop
      vertex 2.54182 9.60889 45
      vertex 6.33158 12.7599 45
      vertex 4.75596 13.8475 45
    endloop
  endfacet
  facet normal 0 0 1
    outer loop
      vertex 8.23215 2.97083 45
      vertex 3 7.75 45
      vertex 6.33158 2.74006 45
    endloop
  endfacet
  facet normal -0 0 1
    outer loop
      vertex 1 14.5 45
      vertex 4.75596 13.8475 45
      vertex 4.4135 14.5 45
    endloop
  endfacet
  facet normal -0 0 1
    outer loop
      vertex 2.54182 5.89111 45
      vertex 6.33158 2.74006 45
      vertex 3 7.75 45
    endloop
  endfacet
  facet normal 0 0 1
    outer loop
      vertex 6.33158 2.74006 45
      vertex 2.54182 5.89111 45
      vertex 4.75596 1.65249 45
    endloop
  endfacet
  facet normal 0 0 1
    outer loop
      vertex 6.33158 12.7599 45
      vertex 2.54182 9.60889 45
      vertex 3 7.75 45
    endloop
  endfacet
  facet normal 0 0 1
    outer loop
      vertex 4.75596 13.8475 45
      vertex 1.27226 11.0419 45
      vertex 2.54182 9.60889 45
    endloop
  endfacet
  facet normal 0 0 1
    outer loop
      vertex 4.75596 13.8475 45
      vertex 1 14.5 45
      vertex 1.27226 11.0419 45
    endloop
  endfacet
  facet normal 0 0 1
    outer loop
      vertex 1.27226 11.0419 45
      vertex 1 14.5 45
      vertex 1 11.1452 45
    endloop
  endfacet
  facet normal -0 0 1
    outer loop
      vertex 1.27226 4.45806 45
      vertex 4.75596 1.65249 45
      vertex 2.54182 5.89111 45
    endloop
  endfacet
  facet normal 0 0 1
    outer loop
      vertex 1 1 45
      vertex 4.75596 1.65249 45
      vertex 1.27226 4.45806 45
    endloop
  endfacet
  facet normal 0 0 1
    outer loop
      vertex 1 1 45
      vertex 1.27226 4.45806 45
      vertex 1 4.35481 45
    endloop
  endfacet
  facet normal 0 0 1
    outer loop
      vertex 4.75596 1.65249 45
      vertex 1 1 45
      vertex 4.4135 1 45
    endloop
  endfacet
  facet normal 1 -0 0
    outer loop
      vertex 14.5 1 45
      vertex 14.5 4.41137 15
      vertex 14.5 4.41137 45
    endloop
  endfacet
  facet normal 1 0 0
    outer loop
      vertex 14.5 4.41137 15
      vertex 14.5 1 45
      vertex 14.5 1 15
    endloop
  endfacet
  facet normal 1 -0 0
    outer loop
      vertex 14.5 11.0886 45
      vertex 14.5 14.5 15
      vertex 14.5 14.5 45
    endloop
  endfacet
  facet normal 1 0 0
    outer loop
      vertex 14.5 14.5 15
      vertex 14.5 11.0886 45
      vertex 14.5 11.0886 15
    endloop
  endfacet
  facet normal 0 1 -0
    outer loop
      vertex 14.5 14.5 15
      vertex 11.1668 14.5 45
      vertex 14.5 14.5 45
    endloop
  endfacet
  facet normal 0 1 0
    outer loop
      vertex 11.1668 14.5 45
      vertex 14.5 14.5 15
      vertex 11.1668 14.5 15
    endloop
  endfacet
  facet normal 0 1 -0
    outer loop
      vertex 4.4135 14.5 15
      vertex 1 14.5 45
      vertex 4.4135 14.5 45
    endloop
  endfacet
  facet normal 0 1 0
    outer loop
      vertex 1 14.5 45
      vertex 4.4135 14.5 15
      vertex 1 14.5 15
    endloop
  endfacet
  facet normal 0 -1 0
    outer loop
      vertex 11.1668 1 15
      vertex 14.5 1 45
      vertex 11.1668 1 45
    endloop
  endfacet
  facet normal 0 -1 -0
    outer loop
      vertex 14.5 1 45
      vertex 11.1668 1 15
      vertex 14.5 1 15
    endloop
  endfacet
  facet normal 0 -1 0
    outer loop
      vertex 1 1 15
      vertex 4.4135 1 45
      vertex 1 1 45
    endloop
  endfacet
  facet normal 0 -1 -0
    outer loop
      vertex 4.4135 1 45
      vertex 1 1 15
      vertex 4.4135 1 15
    endloop
  endfacet
  facet normal 0.120536 -0.992709 0
    outer loop
      vertex 6.33158 2.74006 15
      vertex 8.23215 2.97083 45
      vertex 6.33158 2.74006 45
    endloop
  endfacet
  facet normal 0.120536 -0.992709 0
    outer loop
      vertex 8.23215 2.97083 45
      vertex 6.33158 2.74006 15
      vertex 8.23215 2.97083 15
    endloop
  endfacet
  facet normal -0.748502 -0.663133 0
    outer loop
      vertex 10.2492 2.03582 15
      vertex 10.0223 2.29193 45
      vertex 10.0223 2.29193 15
    endloop
  endfacet
  facet normal -0.748531 -0.6631 -5.06382e-07
    outer loop
      vertex 11.1668 1 15
      vertex 10.0223 2.29193 45
      vertex 10.2492 2.03582 15
    endloop
  endfacet
  facet normal -0.748525 -0.663106 0
    outer loop
      vertex 10.0223 2.29193 45
      vertex 11.1668 1 15
      vertex 11.1668 1 45
    endloop
  endfacet
  facet normal -0.354598 -0.935019 0
    outer loop
      vertex 8.23215 2.97083 15
      vertex 10.0223 2.29193 45
      vertex 8.23215 2.97083 45
    endloop
  endfacet
  facet normal -0.354598 -0.935019 -0
    outer loop
      vertex 10.0223 2.29193 45
      vertex 8.23215 2.97083 15
      vertex 10.0223 2.29193 15
    endloop
  endfacet
  facet normal 0.885452 -0.46473 0
    outer loop
      vertex 4.4135 1 45
      vertex 4.75596 1.65249 15
      vertex 4.75596 1.65249 45
    endloop
  endfacet
  facet normal 0.885452 -0.46473 0
    outer loop
      vertex 4.75596 1.65249 15
      vertex 4.4135 1 45
      vertex 4.4135 1 15
    endloop
  endfacet
  facet normal 0.568068 -0.822982 0
    outer loop
      vertex 5.65312 2.27176 15
      vertex 4.75596 1.65249 45
      vertex 4.75596 1.65249 15
    endloop
  endfacet
  facet normal 0.568064 -0.822984 -1.72301e-07
    outer loop
      vertex 4.75596 1.65249 45
      vertex 5.65312 2.27176 15
      vertex 6.33158 2.74006 45
    endloop
  endfacet
  facet normal 0.568059 -0.822988 0
    outer loop
      vertex 6.33158 2.74006 45
      vertex 5.65312 2.27176 15
      vertex 6.33158 2.74006 15
    endloop
  endfacet
  facet normal -0.354598 0.935019 0
    outer loop
      vertex 10.0223 13.2081 15
      vertex 8.23215 12.5292 45
      vertex 10.0223 13.2081 45
    endloop
  endfacet
  facet normal -0.354598 0.935019 0
    outer loop
      vertex 8.23215 12.5292 45
      vertex 10.0223 13.2081 15
      vertex 8.23215 12.5292 15
    endloop
  endfacet
  facet normal 0.885455 0.464725 0
    outer loop
      vertex 4.75596 13.8475 45
      vertex 4.4135 14.5 15
      vertex 4.4135 14.5 45
    endloop
  endfacet
  facet normal 0.885455 0.464725 0
    outer loop
      vertex 4.4135 14.5 15
      vertex 4.75596 13.8475 45
      vertex 4.75596 13.8475 15
    endloop
  endfacet
  facet normal -0.748516 0.663117 0
    outer loop
      vertex 10.3903 13.6235 15
      vertex 11.1668 14.5 45
      vertex 11.1668 14.5 15
    endloop
  endfacet
  facet normal -0.748522 0.66311 0
    outer loop
      vertex 10.0223 13.2081 45
      vertex 10.3903 13.6235 15
      vertex 10.0223 13.2081 15
    endloop
  endfacet
  facet normal -0.748518 0.663115 1.1781e-07
    outer loop
      vertex 10.3903 13.6235 15
      vertex 10.0223 13.2081 45
      vertex 11.1668 14.5 45
    endloop
  endfacet
  facet normal 0.1205 0.992713 -0
    outer loop
      vertex 8.23215 12.5292 15
      vertex 6.33158 12.7599 45
      vertex 8.23215 12.5292 45
    endloop
  endfacet
  facet normal 0.1205 0.992713 0
    outer loop
      vertex 6.33158 12.7599 45
      vertex 8.23215 12.5292 15
      vertex 6.33158 12.7599 15
    endloop
  endfacet
  facet normal 0.568055 0.822991 0
    outer loop
      vertex 5.79437 13.1307 15
      vertex 6.33158 12.7599 45
      vertex 6.33158 12.7599 15
    endloop
  endfacet
  facet normal 0.568075 0.822977 -5.17096e-07
    outer loop
      vertex 6.33158 12.7599 45
      vertex 5.79437 13.1307 15
      vertex 4.75596 13.8475 45
    endloop
  endfacet
  facet normal 0.568085 0.82297 0
    outer loop
      vertex 4.75596 13.8475 45
      vertex 5.79437 13.1307 15
      vertex 4.75596 13.8475 15
    endloop
  endfacet
  facet normal 1 -0 0
    outer loop
      vertex 12.6162 6.79274 45
      vertex 12.6162 8.70726 15
      vertex 12.6162 8.70726 45
    endloop
  endfacet
  facet normal 1 0 0
    outer loop
      vertex 12.6162 8.70726 15
      vertex 12.6162 6.79274 45
      vertex 12.6162 6.79274 15
    endloop
  endfacet
  facet normal 0.56806 -0.822987 0
    outer loop
      vertex 13.506 10.4025 15
      vertex 14.5 11.0886 45
      vertex 13.506 10.4025 45
    endloop
  endfacet
  facet normal 0.56806 -0.822987 0
    outer loop
      vertex 14.5 11.0886 45
      vertex 13.506 10.4025 15
      vertex 14.5 11.0886 15
    endloop
  endfacet
  facet normal 0.88557 -0.464506 0
    outer loop
      vertex 13.506 10.4025 45
      vertex 13.4782 10.3495 15
      vertex 13.506 10.4025 15
    endloop
  endfacet
  facet normal 0.885441 -0.464752 5.52395e-07
    outer loop
      vertex 12.6162 8.70726 45
      vertex 13.4782 10.3495 15
      vertex 13.506 10.4025 45
    endloop
  endfacet
  facet normal 0.885437 -0.46476 0
    outer loop
      vertex 13.4782 10.3495 15
      vertex 12.6162 8.70726 45
      vertex 12.6162 8.70726 15
    endloop
  endfacet
  facet normal 0.885461 0.464713 0
    outer loop
      vertex 12.6162 6.79274 45
      vertex 13.1428 5.78936 15
      vertex 12.6162 6.79274 15
    endloop
  endfacet
  facet normal 0.88544 0.464754 -1.7307e-06
    outer loop
      vertex 13.506 5.09751 45
      vertex 13.1428 5.78936 15
      vertex 12.6162 6.79274 45
    endloop
  endfacet
  facet normal 0.885409 0.464813 0
    outer loop
      vertex 13.1428 5.78936 15
      vertex 13.506 5.09751 45
      vertex 13.506 5.09751 15
    endloop
  endfacet
  facet normal 0.568082 0.822972 -0
    outer loop
      vertex 14.5 4.41137 15
      vertex 13.506 5.09751 45
      vertex 14.5 4.41137 45
    endloop
  endfacet
  facet normal 0.568082 0.822972 0
    outer loop
      vertex 13.506 5.09751 45
      vertex 14.5 4.41137 15
      vertex 13.506 5.09751 15
    endloop
  endfacet
  facet normal -0.970941 -0.239318 0
    outer loop
      vertex 3 7.75 15
      vertex 2.54182 9.60889 45
      vertex 2.54182 9.60889 15
    endloop
  endfacet
  facet normal -0.970941 -0.239318 0
    outer loop
      vertex 2.54182 9.60889 45
      vertex 3 7.75 15
      vertex 3 7.75 45
    endloop
  endfacet
  facet normal -0.748497 -0.663139 0
    outer loop
      vertex 1.99104 10.2306 15
      vertex 1.27226 11.0419 45
      vertex 1.27226 11.0419 15
    endloop
  endfacet
  facet normal -0.748515 -0.663118 -0
    outer loop
      vertex 2.54182 9.60889 45
      vertex 1.99104 10.2306 15
      vertex 2.54182 9.60889 15
    endloop
  endfacet
  facet normal -0.748505 -0.66313 -4.33531e-07
    outer loop
      vertex 1.99104 10.2306 15
      vertex 2.54182 9.60889 45
      vertex 1.27226 11.0419 45
    endloop
  endfacet
  facet normal -0.354591 0.935021 0
    outer loop
      vertex 1.27226 4.45806 15
      vertex 1 4.35481 45
      vertex 1.27226 4.45806 45
    endloop
  endfacet
  facet normal -0.354591 0.935021 0
    outer loop
      vertex 1 4.35481 45
      vertex 1.27226 4.45806 15
      vertex 1 4.35481 15
    endloop
  endfacet
  facet normal -0.354741 -0.934965 0
    outer loop
      vertex 1 11.1452 15
      vertex 1.27226 11.0419 45
      vertex 1 11.1452 45
    endloop
  endfacet
  facet normal -0.354741 -0.934965 -0
    outer loop
      vertex 1.27226 11.0419 45
      vertex 1 11.1452 15
      vertex 1.27226 11.0419 15
    endloop
  endfacet
  facet normal -0.970941 0.239318 0
    outer loop
      vertex 2.54182 5.89111 15
      vertex 3 7.75 45
      vertex 3 7.75 15
    endloop
  endfacet
  facet normal -0.970941 0.239318 0
    outer loop
      vertex 3 7.75 45
      vertex 2.54182 5.89111 15
      vertex 2.54182 5.89111 45
    endloop
  endfacet
  facet normal -0.74853 0.663101 0
    outer loop
      vertex 2.31509 5.63517 15
      vertex 2.54182 5.89111 45
      vertex 2.54182 5.89111 15
    endloop
  endfacet
  facet normal -0.74851 0.663123 -3.34051e-07
    outer loop
      vertex 1.27226 4.45806 15
      vertex 2.54182 5.89111 45
      vertex 2.31509 5.63517 15
    endloop
  endfacet
  facet normal -0.748514 0.663119 0
    outer loop
      vertex 2.54182 5.89111 45
      vertex 1.27226 4.45806 15
      vertex 1.27226 4.45806 45
    endloop
  endfacet
endsolid OpenSCAD_Model
