solid OpenSCAD_Model
  facet normal -1 0 0
    outer loop
      vertex 0 0 0
      vertex 0 6.25 90
      vertex 0 6.25 0
    endloop
  endfacet
  facet normal -1 -0 0
    outer loop
      vertex 0 6.25 90
      vertex 0 0 0
      vertex 0 0 90
    endloop
  endfacet
  facet normal -1 0 0
    outer loop
      vertex 0 8.75 0
      vertex 0 15 90
      vertex 0 15 0
    endloop
  endfacet
  facet normal -1 -0 0
    outer loop
      vertex 0 15 90
      vertex 0 8.75 0
      vertex 0 8.75 90
    endloop
  endfacet
  facet normal -0 0 1
    outer loop
      vertex 14.247 9.06366 90
      vertex 15 8.75 90
      vertex 15 15 90
    endloop
  endfacet
  facet normal 0 0 1
    outer loop
      vertex 15 8.75 90
      vertex 14.247 9.06366 90
      vertex 14.398 8.75 90
    endloop
  endfacet
  facet normal 0 0 1
    outer loop
      vertex 15 15 90
      vertex 12.555 9.44986 90
      vertex 14.247 9.06366 90
    endloop
  endfacet
  facet normal -0 0 1
    outer loop
      vertex 9.5 13 90
      vertex 12.555 9.44986 90
      vertex 15 15 90
    endloop
  endfacet
  facet normal -0 0 1
    outer loop
      vertex 8.75 11.4426 90
      vertex 12.555 9.44986 90
      vertex 9.5 13 90
    endloop
  endfacet
  facet normal 0 0 1
    outer loop
      vertex 9.5 13 90
      vertex 15 15 90
      vertex 9.5 15 90
    endloop
  endfacet
  facet normal 0 0 1
    outer loop
      vertex 14.247 5.93634 90
      vertex 15 6.25 90
      vertex 14.398 6.25 90
    endloop
  endfacet
  facet normal 0 0 1
    outer loop
      vertex 15 6.25 90
      vertex 14.247 5.93634 90
      vertex 15 0 90
    endloop
  endfacet
  facet normal -0 0 1
    outer loop
      vertex 12.555 5.55014 90
      vertex 15 0 90
      vertex 14.247 5.93634 90
    endloop
  endfacet
  facet normal 0 0 1
    outer loop
      vertex 8.75 3.55739 90
      vertex 12.555 5.55014 90
      vertex 11.1981 6.63223 90
    endloop
  endfacet
  facet normal 0 0 1
    outer loop
      vertex 12.555 9.44986 90
      vertex 8.75 11.4426 90
      vertex 11.1981 8.36777 90
    endloop
  endfacet
  facet normal 0 0 1
    outer loop
      vertex 11.1981 8.36777 90
      vertex 8.75 11.4426 90
      vertex 11.1981 6.63223 90
    endloop
  endfacet
  facet normal 0 0 1
    outer loop
      vertex 12.555 5.55014 90
      vertex 9.5 2 90
      vertex 15 0 90
    endloop
  endfacet
  facet normal 0 0 1
    outer loop
      vertex 15 0 90
      vertex 9.5 2 90
      vertex 9.5 0 90
    endloop
  endfacet
  facet normal 0 0 1
    outer loop
      vertex 8.75 3.55739 90
      vertex 11.1981 6.63223 90
      vertex 8.75 11.4426 90
    endloop
  endfacet
  facet normal 0 0 1
    outer loop
      vertex 12.555 5.55014 90
      vertex 8.75 3.55739 90
      vertex 9.5 2 90
    endloop
  endfacet
  facet normal -0 0 1
    outer loop
      vertex 0 15 90
      vertex 5.5 13 90
      vertex 5.5 15 90
    endloop
  endfacet
  facet normal 0 0 1
    outer loop
      vertex 5.5 13 90
      vertex 4 7.5 90
      vertex 5.5 2 90
    endloop
  endfacet
  facet normal -0 0 1
    outer loop
      vertex 3.24698 5.93634 90
      vertex 5.5 2 90
      vertex 4 7.5 90
    endloop
  endfacet
  facet normal 0 0 1
    outer loop
      vertex 5.5 13 90
      vertex 3.24698 9.06366 90
      vertex 4 7.5 90
    endloop
  endfacet
  facet normal 0 0 1
    outer loop
      vertex 5.5 13 90
      vertex 1.55496 9.44986 90
      vertex 3.24698 9.06366 90
    endloop
  endfacet
  facet normal 0 0 1
    outer loop
      vertex 5.5 13 90
      vertex 0 15 90
      vertex 1.55496 9.44986 90
    endloop
  endfacet
  facet normal 0 0 1
    outer loop
      vertex 0 8.75 90
      vertex 1.55496 9.44986 90
      vertex 0 15 90
    endloop
  endfacet
  facet normal 0 0 1
    outer loop
      vertex 1.55496 9.44986 90
      vertex 0 8.75 90
      vertex 0.677366 8.75 90
    endloop
  endfacet
  facet normal -0 0 1
    outer loop
      vertex 5.5 13 90
      vertex 5.69806 12.1322 90
      vertex 5.69806 13 90
    endloop
  endfacet
  facet normal 0 0 1
    outer loop
      vertex 5.69806 12.1322 90
      vertex 5.5 13 90
      vertex 5.69806 2.86777 90
    endloop
  endfacet
  facet normal 0 0 1
    outer loop
      vertex 5.5 2 90
      vertex 5.69806 2.86777 90
      vertex 5.5 13 90
    endloop
  endfacet
  facet normal 0 0 1
    outer loop
      vertex 5.69806 2.86777 90
      vertex 5.5 2 90
      vertex 5.69806 2 90
    endloop
  endfacet
  facet normal 0 0 1
    outer loop
      vertex 5.69806 12.1322 90
      vertex 6.25 3.30792 90
      vertex 6.25 11.6921 90
    endloop
  endfacet
  facet normal 0 0 1
    outer loop
      vertex 6.25 3.30792 90
      vertex 5.69806 12.1322 90
      vertex 5.69806 2.86777 90
    endloop
  endfacet
  facet normal -0 0 1
    outer loop
      vertex 1.55496 5.55014 90
      vertex 5.5 2 90
      vertex 3.24698 5.93634 90
    endloop
  endfacet
  facet normal 0 0 1
    outer loop
      vertex 0 0 90
      vertex 5.5 2 90
      vertex 1.55496 5.55014 90
    endloop
  endfacet
  facet normal -0 0 1
    outer loop
      vertex 0 6.25 90
      vertex 1.55496 5.55014 90
      vertex 0.677365 6.25 90
    endloop
  endfacet
  facet normal 0 0 1
    outer loop
      vertex 1.55496 5.55014 90
      vertex 0 6.25 90
      vertex 0 0 90
    endloop
  endfacet
  facet normal 0 0 1
    outer loop
      vertex 5.5 2 90
      vertex 0 0 90
      vertex 5.5 0 90
    endloop
  endfacet
  facet normal 1 -0 0
    outer loop
      vertex 15 0 90
      vertex 15 6.25 0
      vertex 15 6.25 90
    endloop
  endfacet
  facet normal 1 0 0
    outer loop
      vertex 15 6.25 0
      vertex 15 0 90
      vertex 15 0 0
    endloop
  endfacet
  facet normal 1 -0 0
    outer loop
      vertex 15 8.75 90
      vertex 15 15 0
      vertex 15 15 90
    endloop
  endfacet
  facet normal 1 0 0
    outer loop
      vertex 15 15 0
      vertex 15 8.75 90
      vertex 15 8.75 0
    endloop
  endfacet
  facet normal 0 1 0
    outer loop
      vertex 15 15 90
      vertex 9.5 15 86
      vertex 9.5 15 90
    endloop
  endfacet
  facet normal 0 1 0
    outer loop
      vertex 9.5 15 86
      vertex 8.25 15 46.6771
      vertex 8.25 15 86
    endloop
  endfacet
  facet normal 0 1 0
    outer loop
      vertex 8.74698 15 46.5637
      vertex 9.5 15 86
      vertex 15 15 90
    endloop
  endfacet
  facet normal 0 1 0
    outer loop
      vertex 9.5 15 86
      vertex 8.74698 15 46.5637
      vertex 8.25 15 46.6771
    endloop
  endfacet
  facet normal 0 1 0
    outer loop
      vertex 15 15 90
      vertex 9.5 15 45
      vertex 8.74698 15 46.5637
    endloop
  endfacet
  facet normal 0 1 0
    outer loop
      vertex 8.74698 15 43.4363
      vertex 9.5 15 4
      vertex 8.25 15 43.3229
    endloop
  endfacet
  facet normal 0 1 0
    outer loop
      vertex 15 15 0
      vertex 8.74698 15 43.4363
      vertex 9.5 15 45
    endloop
  endfacet
  facet normal 0 1 -0
    outer loop
      vertex 15 15 0
      vertex 9.5 15 45
      vertex 15 15 90
    endloop
  endfacet
  facet normal 0 1 0
    outer loop
      vertex 8.74698 15 43.4363
      vertex 15 15 0
      vertex 9.5 15 4
    endloop
  endfacet
  facet normal 0 1 0
    outer loop
      vertex 9.5 15 4
      vertex 15 15 0
      vertex 9.5 15 0
    endloop
  endfacet
  facet normal 0 1 0
    outer loop
      vertex 8.25 15 43.3229
      vertex 9.5 15 4
      vertex 8.25 15 4
    endloop
  endfacet
  facet normal 0 1 0
    outer loop
      vertex 6.25 15 86
      vertex 6.25 15 46.3079
      vertex 5.5 15 86
    endloop
  endfacet
  facet normal 0 1 -0
    outer loop
      vertex 5.5 15 86
      vertex 0 15 90
      vertex 5.5 15 90
    endloop
  endfacet
  facet normal 0 1 -0
    outer loop
      vertex 5.69806 15 45.8678
      vertex 5.5 15 86
      vertex 6.25 15 46.3079
    endloop
  endfacet
  facet normal 0 1 0
    outer loop
      vertex 5.5 15 86
      vertex 5.69806 15 45.8678
      vertex 0 15 90
    endloop
  endfacet
  facet normal 0 1 -0
    outer loop
      vertex 5.69806 15 44.1322
      vertex 0 15 90
      vertex 5.69806 15 45.8678
    endloop
  endfacet
  facet normal 0 1 0
    outer loop
      vertex 5.5 15 4
      vertex 6.25 15 43.6921
      vertex 6.25 15 4
    endloop
  endfacet
  facet normal 0 1 0
    outer loop
      vertex 6.25 15 43.6921
      vertex 5.5 15 4
      vertex 5.69806 15 44.1322
    endloop
  endfacet
  facet normal 0 1 0
    outer loop
      vertex 0 15 0
      vertex 5.69806 15 44.1322
      vertex 5.5 15 4
    endloop
  endfacet
  facet normal 0 1 0
    outer loop
      vertex 0 15 0
      vertex 5.5 15 4
      vertex 5.5 15 0
    endloop
  endfacet
  facet normal 0 1 0
    outer loop
      vertex 5.69806 15 44.1322
      vertex 0 15 0
      vertex 0 15 90
    endloop
  endfacet
  facet normal 0 0 -1
    outer loop
      vertex 0 0 0
      vertex 5.5 2 0
      vertex 5.5 0 0
    endloop
  endfacet
  facet normal 0 0 -1
    outer loop
      vertex 5.5 2 0
      vertex 4 7.5 0
      vertex 5.5 13 0
    endloop
  endfacet
  facet normal 0 0 -1
    outer loop
      vertex 3.24698 9.06366 0
      vertex 5.5 13 0
      vertex 4 7.5 0
    endloop
  endfacet
  facet normal 0 0 -1
    outer loop
      vertex 5.5 2 0
      vertex 3.24698 5.93634 0
      vertex 4 7.5 0
    endloop
  endfacet
  facet normal 0 0 -1
    outer loop
      vertex 5.5 2 0
      vertex 1.55496 5.55014 0
      vertex 3.24698 5.93634 0
    endloop
  endfacet
  facet normal -0 0 -1
    outer loop
      vertex 5.5 2 0
      vertex 0 0 0
      vertex 1.55496 5.55014 0
    endloop
  endfacet
  facet normal 0 0 -1
    outer loop
      vertex 0 6.25 0
      vertex 1.55496 5.55014 0
      vertex 0 0 0
    endloop
  endfacet
  facet normal 0 0 -1
    outer loop
      vertex 1.55496 5.55014 0
      vertex 0 6.25 0
      vertex 0.677365 6.25 0
    endloop
  endfacet
  facet normal 0 0 -1
    outer loop
      vertex 5.5 2 0
      vertex 5.69806 2.86777 0
      vertex 5.69806 2 0
    endloop
  endfacet
  facet normal -0 0 -1
    outer loop
      vertex 5.69806 2.86777 0
      vertex 5.5 2 0
      vertex 5.69806 12.1322 0
    endloop
  endfacet
  facet normal 0 0 -1
    outer loop
      vertex 5.5 13 0
      vertex 5.69806 12.1322 0
      vertex 5.5 2 0
    endloop
  endfacet
  facet normal 0 0 -1
    outer loop
      vertex 5.69806 12.1322 0
      vertex 5.5 13 0
      vertex 5.69806 13 0
    endloop
  endfacet
  facet normal 0 0 -1
    outer loop
      vertex 5.69806 2.86777 0
      vertex 6.25 11.6921 0
      vertex 6.25 3.30792 0
    endloop
  endfacet
  facet normal -0 0 -1
    outer loop
      vertex 6.25 11.6921 0
      vertex 5.69806 2.86777 0
      vertex 5.69806 12.1322 0
    endloop
  endfacet
  facet normal 0 0 -1
    outer loop
      vertex 1.55496 9.44986 0
      vertex 5.5 13 0
      vertex 3.24698 9.06366 0
    endloop
  endfacet
  facet normal 0 0 -1
    outer loop
      vertex 0 15 0
      vertex 5.5 13 0
      vertex 1.55496 9.44986 0
    endloop
  endfacet
  facet normal 0 0 -1
    outer loop
      vertex 0 8.75 0
      vertex 1.55496 9.44986 0
      vertex 0.677366 8.75 0
    endloop
  endfacet
  facet normal -0 0 -1
    outer loop
      vertex 1.55496 9.44986 0
      vertex 0 8.75 0
      vertex 0 15 0
    endloop
  endfacet
  facet normal 0 0 -1
    outer loop
      vertex 5.5 13 0
      vertex 0 15 0
      vertex 5.5 15 0
    endloop
  endfacet
  facet normal 0 0 -1
    outer loop
      vertex 14.247 5.93634 0
      vertex 15 6.25 0
      vertex 15 0 0
    endloop
  endfacet
  facet normal -0 0 -1
    outer loop
      vertex 15 6.25 0
      vertex 14.247 5.93634 0
      vertex 14.398 6.25 0
    endloop
  endfacet
  facet normal 0 0 -1
    outer loop
      vertex 15 0 0
      vertex 12.555 5.55014 0
      vertex 14.247 5.93634 0
    endloop
  endfacet
  facet normal 0 0 -1
    outer loop
      vertex 9.5 2 0
      vertex 12.555 5.55014 0
      vertex 15 0 0
    endloop
  endfacet
  facet normal 0 0 -1
    outer loop
      vertex 8.75 3.55739 0
      vertex 12.555 5.55014 0
      vertex 9.5 2 0
    endloop
  endfacet
  facet normal 0 0 -1
    outer loop
      vertex 9.5 2 0
      vertex 15 0 0
      vertex 9.5 0 0
    endloop
  endfacet
  facet normal 0 0 -1
    outer loop
      vertex 14.247 9.06366 0
      vertex 15 8.75 0
      vertex 14.398 8.75 0
    endloop
  endfacet
  facet normal 0 0 -1
    outer loop
      vertex 15 8.75 0
      vertex 14.247 9.06366 0
      vertex 15 15 0
    endloop
  endfacet
  facet normal 0 0 -1
    outer loop
      vertex 12.555 9.44986 0
      vertex 15 15 0
      vertex 14.247 9.06366 0
    endloop
  endfacet
  facet normal 0 0 -1
    outer loop
      vertex 8.75 11.4426 0
      vertex 12.555 9.44986 0
      vertex 11.1981 8.36777 0
    endloop
  endfacet
  facet normal -0 0 -1
    outer loop
      vertex 12.555 5.55014 0
      vertex 8.75 3.55739 0
      vertex 11.1981 6.63223 0
    endloop
  endfacet
  facet normal -0 0 -1
    outer loop
      vertex 11.1981 6.63223 0
      vertex 8.75 3.55739 0
      vertex 11.1981 8.36777 0
    endloop
  endfacet
  facet normal 0 0 -1
    outer loop
      vertex 12.555 9.44986 0
      vertex 9.5 13 0
      vertex 15 15 0
    endloop
  endfacet
  facet normal -0 0 -1
    outer loop
      vertex 15 15 0
      vertex 9.5 13 0
      vertex 9.5 15 0
    endloop
  endfacet
  facet normal 0 0 -1
    outer loop
      vertex 8.75 11.4426 0
      vertex 11.1981 8.36777 0
      vertex 8.75 3.55739 0
    endloop
  endfacet
  facet normal 0 0 -1
    outer loop
      vertex 12.555 9.44986 0
      vertex 8.75 11.4426 0
      vertex 9.5 13 0
    endloop
  endfacet
  facet normal 0 -1 0
    outer loop
      vertex 8.75 0 86
      vertex 8.75 0 46.5574
      vertex 9.5 0 86
    endloop
  endfacet
  facet normal 0 -1 0
    outer loop
      vertex 9.5 0 86
      vertex 15 0 90
      vertex 9.5 0 90
    endloop
  endfacet
  facet normal 0 -1 0
    outer loop
      vertex 8.75 0 46.5574
      vertex 15 0 90
      vertex 9.5 0 86
    endloop
  endfacet
  facet normal 0 -1 0
    outer loop
      vertex 9.5 0 45
      vertex 15 0 90
      vertex 8.75 0 46.5574
    endloop
  endfacet
  facet normal 0 -1 0
    outer loop
      vertex 9.5 0 4
      vertex 8.75 0 43.4426
      vertex 8.75 0 4
    endloop
  endfacet
  facet normal 0 -1 0
    outer loop
      vertex 15 0 0
      vertex 8.75 0 43.4426
      vertex 9.5 0 4
    endloop
  endfacet
  facet normal 0 -1 0
    outer loop
      vertex 8.75 0 43.4426
      vertex 15 0 0
      vertex 9.5 0 45
    endloop
  endfacet
  facet normal 0 -1 0
    outer loop
      vertex 15 0 0
      vertex 9.5 0 4
      vertex 9.5 0 0
    endloop
  endfacet
  facet normal 0 -1 0
    outer loop
      vertex 9.5 0 45
      vertex 15 0 0
      vertex 15 0 90
    endloop
  endfacet
  facet normal 0 -1 0
    outer loop
      vertex 0 0 90
      vertex 5.5 0 86
      vertex 5.5 0 90
    endloop
  endfacet
  facet normal 0 -1 0
    outer loop
      vertex 5.5 0 86
      vertex 6.25 0 46.3079
      vertex 6.25 0 86
    endloop
  endfacet
  facet normal 0 -1 0
    outer loop
      vertex 5.69806 0 45.8678
      vertex 5.5 0 86
      vertex 0 0 90
    endloop
  endfacet
  facet normal 0 -1 0
    outer loop
      vertex 5.5 0 86
      vertex 5.69806 0 45.8678
      vertex 6.25 0 46.3079
    endloop
  endfacet
  facet normal 0 -1 0
    outer loop
      vertex 0 0 90
      vertex 5.69806 0 44.1322
      vertex 5.69806 0 45.8678
    endloop
  endfacet
  facet normal 0 -1 -0
    outer loop
      vertex 5.69806 0 44.1322
      vertex 5.5 0 4
      vertex 6.25 0 43.6921
    endloop
  endfacet
  facet normal 0 -1 0
    outer loop
      vertex 0 0 0
      vertex 5.69806 0 44.1322
      vertex 0 0 90
    endloop
  endfacet
  facet normal 0 -1 0
    outer loop
      vertex 5.69806 0 44.1322
      vertex 0 0 0
      vertex 5.5 0 4
    endloop
  endfacet
  facet normal 0 -1 -0
    outer loop
      vertex 5.5 0 4
      vertex 0 0 0
      vertex 5.5 0 0
    endloop
  endfacet
  facet normal 0 -1 -0
    outer loop
      vertex 6.25 0 43.6921
      vertex 5.5 0 4
      vertex 6.25 0 4
    endloop
  endfacet
  facet normal -0.900969 -0.433884 0
    outer loop
      vertex 9.5 2 0
      vertex 8.75 3.55739 0.44261
      vertex 8.75 3.55739 0
    endloop
  endfacet
  facet normal -0.900969 -0.433884 0
    outer loop
      vertex 8.75 3.55739 0.44261
      vertex 9.5 2 0
      vertex 9.5 2 2
    endloop
  endfacet
  facet normal -0.900969 -0.433884 -0
    outer loop
      vertex 9.5 2 90
      vertex 8.75 3.55739 89.5574
      vertex 9.5 2 88
    endloop
  endfacet
  facet normal -0.900969 -0.433884 0
    outer loop
      vertex 8.75 3.55739 89.5574
      vertex 9.5 2 90
      vertex 8.75 3.55739 90
    endloop
  endfacet
  facet normal -0.900969 -0.433884 -0
    outer loop
      vertex 9.5 2 4
      vertex 8.74698 3.56366 3.56366
      vertex 9.5 2 2
    endloop
  endfacet
  facet normal -0.900969 -0.433884 0
    outer loop
      vertex 8.74698 3.56366 3.56366
      vertex 9.5 2 4
      vertex 8.74698 3.56366 43.4363
    endloop
  endfacet
  facet normal -0.900969 -0.433884 0
    outer loop
      vertex 8.74698 3.56366 43.4363
      vertex 9.5 2 4
      vertex 9.5 2 45
    endloop
  endfacet
  facet normal -0.900969 -0.433884 -0
    outer loop
      vertex 9.5 2 86
      vertex 8.74698 3.56366 46.5637
      vertex 9.5 2 45
    endloop
  endfacet
  facet normal -0.900969 -0.433884 0
    outer loop
      vertex 8.74698 3.56366 46.5637
      vertex 9.5 2 86
      vertex 8.74698 3.56366 86.4363
    endloop
  endfacet
  facet normal -0.900969 -0.433884 0
    outer loop
      vertex 8.74698 3.56366 86.4363
      vertex 9.5 2 86
      vertex 9.5 2 88
    endloop
  endfacet
  facet normal 1 -0 0
    outer loop
      vertex 5.69806 0 45.8678
      vertex 5.69806 1.13223 44.1322
      vertex 5.69806 1.13223 45.8678
    endloop
  endfacet
  facet normal 1 0 0
    outer loop
      vertex 5.69806 1.13223 44.1322
      vertex 5.69806 0 45.8678
      vertex 5.69806 0 44.1322
    endloop
  endfacet
  facet normal 1 0 0
    outer loop
      vertex 5.69806 2.86777 45.8678
      vertex 5.69806 1.13223 45.8678
      vertex 5.69806 2.86777 44.1322
    endloop
  endfacet
  facet normal 1 0 0
    outer loop
      vertex 5.69806 1.13223 44.1322
      vertex 5.69806 2.86777 44.1322
      vertex 5.69806 1.13223 45.8678
    endloop
  endfacet
  facet normal 1 0 0
    outer loop
      vertex 5.69806 2.86777 44.1322
      vertex 5.69806 1.13223 44.1322
      vertex 5.69806 2 4
    endloop
  endfacet
  facet normal 1 0 0
    outer loop
      vertex 5.69806 2 4
      vertex 5.69806 1.13223 44.1322
      vertex 5.69806 1.13223 4
    endloop
  endfacet
  facet normal 1 -0 0
    outer loop
      vertex 5.69806 2 90
      vertex 5.69806 2.86777 88.8678
      vertex 5.69806 2.86777 90
    endloop
  endfacet
  facet normal 1 0 0
    outer loop
      vertex 5.69806 2.86777 88.8678
      vertex 5.69806 2 90
      vertex 5.69806 2.86777 87.1322
    endloop
  endfacet
  facet normal 1 0 0
    outer loop
      vertex 5.69806 2.86777 87.1322
      vertex 5.69806 2 86
      vertex 5.69806 2.86777 45.8678
    endloop
  endfacet
  facet normal 1 0 0
    outer loop
      vertex 5.69806 1.13223 45.8678
      vertex 5.69806 2 86
      vertex 5.69806 1.13223 86
    endloop
  endfacet
  facet normal 1 0 0
    outer loop
      vertex 5.69806 2 86
      vertex 5.69806 1.13223 45.8678
      vertex 5.69806 2.86777 45.8678
    endloop
  endfacet
  facet normal 1 0 0
    outer loop
      vertex 5.69806 2.86777 44.1322
      vertex 5.69806 2 4
      vertex 5.69806 2.86777 2.86777
    endloop
  endfacet
  facet normal 1 0 0
    outer loop
      vertex 5.69806 2.86777 87.1322
      vertex 5.69806 2 90
      vertex 5.69806 2 86
    endloop
  endfacet
  facet normal 1 0 0
    outer loop
      vertex 5.69806 2.86777 2.86777
      vertex 5.69806 2 4
      vertex 5.69806 2.86777 1.13223
    endloop
  endfacet
  facet normal 1 0 0
    outer loop
      vertex 5.69806 2 0
      vertex 5.69806 2.86777 1.13223
      vertex 5.69806 2 4
    endloop
  endfacet
  facet normal 1 0 0
    outer loop
      vertex 5.69806 2.86777 1.13223
      vertex 5.69806 2 0
      vertex 5.69806 2.86777 0
    endloop
  endfacet
  facet normal 1 -0 0
    outer loop
      vertex 5.69806 2.86777 2.86777
      vertex 5.69806 12.1322 1.13223
      vertex 5.69806 12.1322 2.86777
    endloop
  endfacet
  facet normal 1 0 0
    outer loop
      vertex 5.69806 12.1322 1.13223
      vertex 5.69806 2.86777 2.86777
      vertex 5.69806 2.86777 1.13223
    endloop
  endfacet
  facet normal 1 -0 0
    outer loop
      vertex 5.69806 2.86777 45.8678
      vertex 5.69806 12.1322 44.1322
      vertex 5.69806 12.1322 45.8678
    endloop
  endfacet
  facet normal 1 0 0
    outer loop
      vertex 5.69806 12.1322 44.1322
      vertex 5.69806 2.86777 45.8678
      vertex 5.69806 2.86777 44.1322
    endloop
  endfacet
  facet normal 1 -0 0
    outer loop
      vertex 5.69806 2.86777 88.8678
      vertex 5.69806 12.1322 87.1322
      vertex 5.69806 12.1322 88.8678
    endloop
  endfacet
  facet normal 1 0 0
    outer loop
      vertex 5.69806 12.1322 87.1322
      vertex 5.69806 2.86777 88.8678
      vertex 5.69806 2.86777 87.1322
    endloop
  endfacet
  facet normal 1 -0 0
    outer loop
      vertex 5.69806 12.1322 87.1322
      vertex 5.69806 13 86
      vertex 5.69806 13 90
    endloop
  endfacet
  facet normal 1 0 0
    outer loop
      vertex 5.69806 13 86
      vertex 5.69806 12.1322 45.8678
      vertex 5.69806 13 4
    endloop
  endfacet
  facet normal 1 0 0
    outer loop
      vertex 5.69806 12.1322 88.8678
      vertex 5.69806 13 90
      vertex 5.69806 12.1322 90
    endloop
  endfacet
  facet normal 1 0 0
    outer loop
      vertex 5.69806 12.1322 87.1322
      vertex 5.69806 13 90
      vertex 5.69806 12.1322 88.8678
    endloop
  endfacet
  facet normal 1 0 0
    outer loop
      vertex 5.69806 13 86
      vertex 5.69806 12.1322 87.1322
      vertex 5.69806 12.1322 45.8678
    endloop
  endfacet
  facet normal 1 -0 0
    outer loop
      vertex 5.69806 12.1322 44.1322
      vertex 5.69806 13 4
      vertex 5.69806 12.1322 45.8678
    endloop
  endfacet
  facet normal 1 0 0
    outer loop
      vertex 5.69806 12.1322 2.86777
      vertex 5.69806 13 4
      vertex 5.69806 12.1322 44.1322
    endloop
  endfacet
  facet normal 1 0 0
    outer loop
      vertex 5.69806 13 4
      vertex 5.69806 12.1322 2.86777
      vertex 5.69806 13 0
    endloop
  endfacet
  facet normal 1 -0 0
    outer loop
      vertex 5.69806 12.1322 1.13223
      vertex 5.69806 13 0
      vertex 5.69806 12.1322 2.86777
    endloop
  endfacet
  facet normal 1 0 0
    outer loop
      vertex 5.69806 13 0
      vertex 5.69806 12.1322 1.13223
      vertex 5.69806 12.1322 0
    endloop
  endfacet
  facet normal 1 -0 0
    outer loop
      vertex 5.69806 13 86
      vertex 5.69806 13.8678 45.8678
      vertex 5.69806 13.8678 86
    endloop
  endfacet
  facet normal 1 0 0
    outer loop
      vertex 5.69806 13.8678 45.8678
      vertex 5.69806 13 86
      vertex 5.69806 13.8678 44.1322
    endloop
  endfacet
  facet normal 1 0 0
    outer loop
      vertex 5.69806 13 4
      vertex 5.69806 13.8678 44.1322
      vertex 5.69806 13 86
    endloop
  endfacet
  facet normal 1 0 0
    outer loop
      vertex 5.69806 13.8678 44.1322
      vertex 5.69806 13 4
      vertex 5.69806 13.8678 4
    endloop
  endfacet
  facet normal 1 -0 0
    outer loop
      vertex 5.69806 13.8678 45.8678
      vertex 5.69806 15 44.1322
      vertex 5.69806 15 45.8678
    endloop
  endfacet
  facet normal 1 0 0
    outer loop
      vertex 5.69806 15 44.1322
      vertex 5.69806 13.8678 45.8678
      vertex 5.69806 13.8678 44.1322
    endloop
  endfacet
  facet normal -0.222525 -0.974927 0
    outer loop
      vertex 7.05496 3.94986 3.94986
      vertex 8.74698 3.56366 43.4363
      vertex 7.05496 3.94986 43.0501
    endloop
  endfacet
  facet normal -0.222525 -0.974927 -0
    outer loop
      vertex 8.74698 3.56366 43.4363
      vertex 7.05496 3.94986 3.94986
      vertex 8.74698 3.56366 3.56366
    endloop
  endfacet
  facet normal -0.222525 -0.974927 0
    outer loop
      vertex 7.05496 3.94986 46.9499
      vertex 8.74698 3.56366 86.4363
      vertex 7.05496 3.94986 86.0501
    endloop
  endfacet
  facet normal -0.222525 -0.974927 -0
    outer loop
      vertex 8.74698 3.56366 86.4363
      vertex 7.05496 3.94986 46.9499
      vertex 8.74698 3.56366 46.5637
    endloop
  endfacet
  facet normal 0.623483 -0.781837 0
    outer loop
      vertex 5.69806 2.86777 0
      vertex 6.25 3.30792 0.692076
      vertex 5.69806 2.86777 1.13223
    endloop
  endfacet
  facet normal 0.623483 -0.781837 0
    outer loop
      vertex 6.25 3.30792 0.692076
      vertex 5.69806 2.86777 0
      vertex 6.25 3.30792 0
    endloop
  endfacet
  facet normal 0.623483 -0.781837 0
    outer loop
      vertex 5.69806 2.86777 90
      vertex 6.25 3.30792 89.3079
      vertex 6.25 3.30792 90
    endloop
  endfacet
  facet normal 0.623483 -0.781837 0
    outer loop
      vertex 6.25 3.30792 89.3079
      vertex 5.69806 2.86777 90
      vertex 5.69806 2.86777 88.8678
    endloop
  endfacet
  facet normal 0.623489 -0.781832 0
    outer loop
      vertex 5.69806 2.86777 44.1322
      vertex 7.05496 3.94986 3.94986
      vertex 7.05496 3.94986 43.0501
    endloop
  endfacet
  facet normal 0.623489 -0.781832 0
    outer loop
      vertex 7.05496 3.94986 3.94986
      vertex 5.69806 2.86777 44.1322
      vertex 5.69806 2.86777 2.86777
    endloop
  endfacet
  facet normal 0.623489 -0.781832 0
    outer loop
      vertex 5.69806 2.86777 87.1322
      vertex 7.05496 3.94986 46.9499
      vertex 7.05496 3.94986 86.0501
    endloop
  endfacet
  facet normal 0.623489 -0.781832 0
    outer loop
      vertex 7.05496 3.94986 46.9499
      vertex 5.69806 2.86777 87.1322
      vertex 5.69806 2.86777 45.8678
    endloop
  endfacet
  facet normal -0.900969 0.433884 0
    outer loop
      vertex 8.75 0.44261 43.4426
      vertex 9.5 2 4
      vertex 8.75 0.44261 4
    endloop
  endfacet
  facet normal -0.900969 0.433884 0
    outer loop
      vertex 9.5 2 4
      vertex 8.75 0.44261 43.4426
      vertex 9.5 2 45
    endloop
  endfacet
  facet normal -0.900969 0.433884 0
    outer loop
      vertex 8.75 0.44261 46.5574
      vertex 9.5 2 86
      vertex 9.5 2 45
    endloop
  endfacet
  facet normal -0.900969 0.433884 0
    outer loop
      vertex 9.5 2 86
      vertex 8.75 0.44261 46.5574
      vertex 8.75 0.44261 86
    endloop
  endfacet
  facet normal 0.623487 0.781834 0
    outer loop
      vertex 5.69806 1.13223 4
      vertex 6.25 0.692076 43.6921
      vertex 6.25 0.692076 4
    endloop
  endfacet
  facet normal 0.623487 0.781834 0
    outer loop
      vertex 6.25 0.692076 43.6921
      vertex 5.69806 1.13223 4
      vertex 5.69806 1.13223 44.1322
    endloop
  endfacet
  facet normal 0.623487 0.781834 -0
    outer loop
      vertex 6.25 0.692076 46.3079
      vertex 5.69806 1.13223 86
      vertex 6.25 0.692076 86
    endloop
  endfacet
  facet normal 0.623487 0.781834 0
    outer loop
      vertex 5.69806 1.13223 86
      vertex 6.25 0.692076 46.3079
      vertex 5.69806 1.13223 45.8678
    endloop
  endfacet
  facet normal -0.900973 -0.433875 0
    outer loop
      vertex 9.5 13 4
      vertex 8.74698 14.5637 43.4363
      vertex 8.74698 14.5637 4
    endloop
  endfacet
  facet normal -0.900973 -0.433875 0
    outer loop
      vertex 8.74698 14.5637 43.4363
      vertex 9.5 13 4
      vertex 9.5 13 45
    endloop
  endfacet
  facet normal -0.900973 -0.433875 -0
    outer loop
      vertex 9.5 13 86
      vertex 8.74698 14.5637 46.5637
      vertex 9.5 13 45
    endloop
  endfacet
  facet normal -0.900973 -0.433875 0
    outer loop
      vertex 8.74698 14.5637 46.5637
      vertex 9.5 13 86
      vertex 8.74698 14.5637 86
    endloop
  endfacet
  facet normal -0.22246 -0.974942 0
    outer loop
      vertex 8.74698 14.5637 4
      vertex 8.25 14.6771 43.3229
      vertex 8.25 14.6771 4
    endloop
  endfacet
  facet normal -0.22246 -0.974942 0
    outer loop
      vertex 8.25 14.6771 43.3229
      vertex 8.74698 14.5637 4
      vertex 8.74698 14.5637 43.4363
    endloop
  endfacet
  facet normal -0.22246 -0.974942 0
    outer loop
      vertex 8.25 14.6771 46.6771
      vertex 8.74698 14.5637 86
      vertex 8.25 14.6771 86
    endloop
  endfacet
  facet normal -0.22246 -0.974942 -0
    outer loop
      vertex 8.74698 14.5637 86
      vertex 8.25 14.6771 46.6771
      vertex 8.74698 14.5637 46.5637
    endloop
  endfacet
  facet normal 0.62344 -0.781871 0
    outer loop
      vertex 5.69806 13.8678 4
      vertex 6.25 14.3079 43.6921
      vertex 5.69806 13.8678 44.1322
    endloop
  endfacet
  facet normal 0.62344 -0.781871 0
    outer loop
      vertex 6.25 14.3079 43.6921
      vertex 5.69806 13.8678 4
      vertex 6.25 14.3079 4
    endloop
  endfacet
  facet normal 0.62344 -0.781871 0
    outer loop
      vertex 5.69806 13.8678 86
      vertex 6.25 14.3079 46.3079
      vertex 6.25 14.3079 86
    endloop
  endfacet
  facet normal 0.62344 -0.781871 0
    outer loop
      vertex 6.25 14.3079 46.3079
      vertex 5.69806 13.8678 86
      vertex 5.69806 13.8678 45.8678
    endloop
  endfacet
  facet normal -0.222525 0.974927 0
    outer loop
      vertex 8.74698 11.4363 43.4363
      vertex 7.05496 11.0501 3.94986
      vertex 7.05496 11.0501 43.0501
    endloop
  endfacet
  facet normal -0.222525 0.974927 0
    outer loop
      vertex 7.05496 11.0501 3.94986
      vertex 8.74698 11.4363 43.4363
      vertex 8.74698 11.4363 3.56366
    endloop
  endfacet
  facet normal -0.222525 0.974927 0
    outer loop
      vertex 8.74698 11.4363 86.4363
      vertex 7.05496 11.0501 46.9499
      vertex 7.05496 11.0501 86.0501
    endloop
  endfacet
  facet normal -0.222525 0.974927 0
    outer loop
      vertex 7.05496 11.0501 46.9499
      vertex 8.74698 11.4363 86.4363
      vertex 8.74698 11.4363 46.5637
    endloop
  endfacet
  facet normal 0.62344 0.781871 0
    outer loop
      vertex 5.69806 12.1322 0
      vertex 6.25 11.6921 0.692076
      vertex 6.25 11.6921 0
    endloop
  endfacet
  facet normal 0.62344 0.781871 0
    outer loop
      vertex 6.25 11.6921 0.692076
      vertex 5.69806 12.1322 0
      vertex 5.69806 12.1322 1.13223
    endloop
  endfacet
  facet normal 0.62344 0.781871 -0
    outer loop
      vertex 6.25 11.6921 89.3079
      vertex 5.69806 12.1322 90
      vertex 6.25 11.6921 90
    endloop
  endfacet
  facet normal 0.62344 0.781871 0
    outer loop
      vertex 5.69806 12.1322 90
      vertex 6.25 11.6921 89.3079
      vertex 5.69806 12.1322 88.8678
    endloop
  endfacet
  facet normal 0.623493 0.781829 -0
    outer loop
      vertex 7.05496 11.0501 3.94986
      vertex 5.69806 12.1322 44.1322
      vertex 7.05496 11.0501 43.0501
    endloop
  endfacet
  facet normal 0.623493 0.781829 0
    outer loop
      vertex 5.69806 12.1322 44.1322
      vertex 7.05496 11.0501 3.94986
      vertex 5.69806 12.1322 2.86777
    endloop
  endfacet
  facet normal 0.623493 0.781829 -0
    outer loop
      vertex 7.05496 11.0501 46.9499
      vertex 5.69806 12.1322 87.1322
      vertex 7.05496 11.0501 86.0501
    endloop
  endfacet
  facet normal 0.623493 0.781829 0
    outer loop
      vertex 5.69806 12.1322 87.1322
      vertex 7.05496 11.0501 46.9499
      vertex 5.69806 12.1322 45.8678
    endloop
  endfacet
  facet normal -0.90097 0.433882 0
    outer loop
      vertex 8.75 11.4426 0.44261
      vertex 9.5 13 0
      vertex 8.75 11.4426 0
    endloop
  endfacet
  facet normal -0.90097 0.433882 0
    outer loop
      vertex 9.5 13 0
      vertex 8.75 11.4426 0.44261
      vertex 9.5 13 2
    endloop
  endfacet
  facet normal -0.90097 0.433882 0
    outer loop
      vertex 8.75 11.4426 89.5574
      vertex 9.5 13 90
      vertex 9.5 13 88
    endloop
  endfacet
  facet normal -0.90097 0.433882 0
    outer loop
      vertex 9.5 13 90
      vertex 8.75 11.4426 89.5574
      vertex 8.75 11.4426 90
    endloop
  endfacet
  facet normal -0.900973 0.433875 0
    outer loop
      vertex 8.74698 11.4363 3.56366
      vertex 9.5 13 4
      vertex 9.5 13 2
    endloop
  endfacet
  facet normal -0.900973 0.433875 0
    outer loop
      vertex 8.74698 11.4363 43.4363
      vertex 9.5 13 4
      vertex 8.74698 11.4363 3.56366
    endloop
  endfacet
  facet normal -0.900973 0.433875 0
    outer loop
      vertex 9.5 13 4
      vertex 8.74698 11.4363 43.4363
      vertex 9.5 13 45
    endloop
  endfacet
  facet normal -0.900973 0.433875 0
    outer loop
      vertex 8.74698 11.4363 46.5637
      vertex 9.5 13 86
      vertex 9.5 13 45
    endloop
  endfacet
  facet normal -0.900973 0.433875 0
    outer loop
      vertex 8.74698 11.4363 86.4363
      vertex 9.5 13 86
      vertex 8.74698 11.4363 46.5637
    endloop
  endfacet
  facet normal -0.900973 0.433875 0
    outer loop
      vertex 9.5 13 86
      vertex 8.74698 11.4363 86.4363
      vertex 9.5 13 88
    endloop
  endfacet
  facet normal -0.901026 -0.433766 0
    outer loop
      vertex 14.398 8.75 0
      vertex 14.247 9.06366 90
      vertex 14.247 9.06366 0
    endloop
  endfacet
  facet normal -0.901026 -0.433766 0
    outer loop
      vertex 14.247 9.06366 90
      vertex 14.398 8.75 0
      vertex 14.398 8.75 90
    endloop
  endfacet
  facet normal 1 -0 0
    outer loop
      vertex 11.1981 6.63223 90
      vertex 11.1981 8.36777 0
      vertex 11.1981 8.36777 90
    endloop
  endfacet
  facet normal 1 0 0
    outer loop
      vertex 11.1981 8.36777 0
      vertex 11.1981 6.63223 90
      vertex 11.1981 6.63223 0
    endloop
  endfacet
  facet normal -0.222528 -0.974926 0
    outer loop
      vertex 12.555 9.44986 0
      vertex 14.247 9.06366 90
      vertex 12.555 9.44986 90
    endloop
  endfacet
  facet normal -0.222528 -0.974926 -0
    outer loop
      vertex 14.247 9.06366 90
      vertex 12.555 9.44986 0
      vertex 14.247 9.06366 0
    endloop
  endfacet
  facet normal 0.623489 0.781832 -0
    outer loop
      vertex 12.555 5.55014 0
      vertex 11.1981 6.63223 90
      vertex 12.555 5.55014 90
    endloop
  endfacet
  facet normal 0.623489 0.781832 0
    outer loop
      vertex 11.1981 6.63223 90
      vertex 12.555 5.55014 0
      vertex 11.1981 6.63223 0
    endloop
  endfacet
  facet normal 0.623489 -0.781832 0
    outer loop
      vertex 11.1981 8.36777 0
      vertex 12.555 9.44986 90
      vertex 11.1981 8.36777 90
    endloop
  endfacet
  facet normal 0.623489 -0.781832 0
    outer loop
      vertex 12.555 9.44986 90
      vertex 11.1981 8.36777 0
      vertex 12.555 9.44986 0
    endloop
  endfacet
  facet normal -0.222528 0.974926 0
    outer loop
      vertex 14.247 5.93634 0
      vertex 12.555 5.55014 90
      vertex 14.247 5.93634 90
    endloop
  endfacet
  facet normal -0.222528 0.974926 0
    outer loop
      vertex 12.555 5.55014 90
      vertex 14.247 5.93634 0
      vertex 12.555 5.55014 0
    endloop
  endfacet
  facet normal -0.901026 0.433766 0
    outer loop
      vertex 14.247 5.93634 0
      vertex 14.398 6.25 90
      vertex 14.398 6.25 0
    endloop
  endfacet
  facet normal -0.901026 0.433766 0
    outer loop
      vertex 14.398 6.25 90
      vertex 14.247 5.93634 0
      vertex 14.247 5.93634 90
    endloop
  endfacet
  facet normal -0.900969 -0.433884 0
    outer loop
      vertex 4 7.5 0
      vertex 3.24698 9.06366 90
      vertex 3.24698 9.06366 0
    endloop
  endfacet
  facet normal -0.900969 -0.433884 0
    outer loop
      vertex 3.24698 9.06366 90
      vertex 4 7.5 0
      vertex 4 7.5 90
    endloop
  endfacet
  facet normal -0.222525 -0.974927 0
    outer loop
      vertex 1.55496 9.44986 0
      vertex 3.24698 9.06366 90
      vertex 1.55496 9.44986 90
    endloop
  endfacet
  facet normal -0.222525 -0.974927 -0
    outer loop
      vertex 3.24698 9.06366 90
      vertex 1.55496 9.44986 0
      vertex 3.24698 9.06366 0
    endloop
  endfacet
  facet normal 0.623491 -0.781831 0
    outer loop
      vertex 0.677366 8.75 0
      vertex 1.55496 9.44986 90
      vertex 0.677366 8.75 90
    endloop
  endfacet
  facet normal 0.623491 -0.781831 0
    outer loop
      vertex 1.55496 9.44986 90
      vertex 0.677366 8.75 0
      vertex 1.55496 9.44986 0
    endloop
  endfacet
  facet normal -0.222525 0.974927 0
    outer loop
      vertex 3.24698 5.93634 0
      vertex 1.55496 5.55014 90
      vertex 3.24698 5.93634 90
    endloop
  endfacet
  facet normal -0.222525 0.974927 0
    outer loop
      vertex 1.55496 5.55014 90
      vertex 3.24698 5.93634 0
      vertex 1.55496 5.55014 0
    endloop
  endfacet
  facet normal 0.623491 0.781831 -0
    outer loop
      vertex 1.55496 5.55014 0
      vertex 0.677365 6.25 90
      vertex 1.55496 5.55014 90
    endloop
  endfacet
  facet normal 0.623491 0.781831 0
    outer loop
      vertex 0.677365 6.25 90
      vertex 1.55496 5.55014 0
      vertex 0.677365 6.25 0
    endloop
  endfacet
  facet normal -0.900969 0.433884 0
    outer loop
      vertex 3.24698 5.93634 0
      vertex 4 7.5 90
      vertex 4 7.5 0
    endloop
  endfacet
  facet normal -0.900969 0.433884 0
    outer loop
      vertex 4 7.5 90
      vertex 3.24698 5.93634 0
      vertex 3.24698 5.93634 90
    endloop
  endfacet
  facet normal 1 -0 0
    outer loop
      vertex 6.25 0 43.6921
      vertex 6.25 0.692076 4
      vertex 6.25 0.692076 43.6921
    endloop
  endfacet
  facet normal 1 0 0
    outer loop
      vertex 6.25 0.692076 4
      vertex 6.25 0 43.6921
      vertex 6.25 0 4
    endloop
  endfacet
  facet normal 1 -0 0
    outer loop
      vertex 6.25 0 86
      vertex 6.25 0.692076 46.3079
      vertex 6.25 0.692076 86
    endloop
  endfacet
  facet normal 1 0 0
    outer loop
      vertex 6.25 0.692076 46.3079
      vertex 6.25 0 86
      vertex 6.25 0 46.3079
    endloop
  endfacet
  facet normal -1 0 0
    outer loop
      vertex 8.75 0 4
      vertex 8.75 0.44261 43.4426
      vertex 8.75 0.44261 4
    endloop
  endfacet
  facet normal -1 -0 0
    outer loop
      vertex 8.75 0.44261 43.4426
      vertex 8.75 0 4
      vertex 8.75 0 43.4426
    endloop
  endfacet
  facet normal -1 0 0
    outer loop
      vertex 8.75 0 46.5574
      vertex 8.75 0.44261 86
      vertex 8.75 0.44261 46.5574
    endloop
  endfacet
  facet normal -1 -0 0
    outer loop
      vertex 8.75 0.44261 86
      vertex 8.75 0 46.5574
      vertex 8.75 0 86
    endloop
  endfacet
  facet normal 1 -0 0
    outer loop
      vertex 6.25 14.3079 43.6921
      vertex 6.25 15 4
      vertex 6.25 15 43.6921
    endloop
  endfacet
  facet normal 1 0 0
    outer loop
      vertex 6.25 15 4
      vertex 6.25 14.3079 43.6921
      vertex 6.25 14.3079 4
    endloop
  endfacet
  facet normal 1 -0 0
    outer loop
      vertex 6.25 14.3079 86
      vertex 6.25 15 46.3079
      vertex 6.25 15 86
    endloop
  endfacet
  facet normal 1 0 0
    outer loop
      vertex 6.25 15 46.3079
      vertex 6.25 14.3079 86
      vertex 6.25 14.3079 46.3079
    endloop
  endfacet
  facet normal -1 0 0
    outer loop
      vertex 8.25 14.6771 4
      vertex 8.25 15 43.3229
      vertex 8.25 15 4
    endloop
  endfacet
  facet normal -1 -0 0
    outer loop
      vertex 8.25 15 43.3229
      vertex 8.25 14.6771 4
      vertex 8.25 14.6771 43.3229
    endloop
  endfacet
  facet normal -1 0 0
    outer loop
      vertex 8.25 14.6771 46.6771
      vertex 8.25 15 86
      vertex 8.25 15 46.6771
    endloop
  endfacet
  facet normal -1 -0 0
    outer loop
      vertex 8.25 15 86
      vertex 8.25 14.6771 46.6771
      vertex 8.25 14.6771 86
    endloop
  endfacet
  facet normal 0 1 -0
    outer loop
      vertex 15 6.25 0
      vertex 14.398 6.25 90
      vertex 15 6.25 90
    endloop
  endfacet
  facet normal 0 1 0
    outer loop
      vertex 14.398 6.25 90
      vertex 15 6.25 0
      vertex 14.398 6.25 0
    endloop
  endfacet
  facet normal 0 -1 0
    outer loop
      vertex 14.398 8.75 0
      vertex 15 8.75 90
      vertex 14.398 8.75 90
    endloop
  endfacet
  facet normal 0 -1 -0
    outer loop
      vertex 15 8.75 90
      vertex 14.398 8.75 0
      vertex 15 8.75 0
    endloop
  endfacet
  facet normal 0 1 -0
    outer loop
      vertex 0.677365 6.25 0
      vertex 0 6.25 90
      vertex 0.677365 6.25 90
    endloop
  endfacet
  facet normal 0 1 0
    outer loop
      vertex 0 6.25 90
      vertex 0.677365 6.25 0
      vertex 0 6.25 0
    endloop
  endfacet
  facet normal 0 -1 0
    outer loop
      vertex 0 8.75 0
      vertex 0.677366 8.75 90
      vertex 0 8.75 90
    endloop
  endfacet
  facet normal 0 -1 -0
    outer loop
      vertex 0.677366 8.75 90
      vertex 0 8.75 0
      vertex 0.677366 8.75 0
    endloop
  endfacet
  facet normal -0.900969 0 -0.433884
    outer loop
      vertex 9.5 13 2
      vertex 8.74698 3.56366 3.56366
      vertex 8.74698 11.4363 3.56366
    endloop
  endfacet
  facet normal -0.900969 0 -0.433884
    outer loop
      vertex 8.74698 3.56366 3.56366
      vertex 9.5 13 2
      vertex 9.5 2 2
    endloop
  endfacet
  facet normal -0.222525 0 -0.974927
    outer loop
      vertex 7.05496 3.94986 3.94986
      vertex 8.74698 11.4363 3.56366
      vertex 8.74698 3.56366 3.56366
    endloop
  endfacet
  facet normal -0.222525 0 -0.974927
    outer loop
      vertex 8.74698 11.4363 3.56366
      vertex 7.05496 3.94986 3.94986
      vertex 7.05496 11.0501 3.94986
    endloop
  endfacet
  facet normal 0.623487 0 0.781834
    outer loop
      vertex 5.69806 12.1322 1.13223
      vertex 6.25 3.30792 0.692076
      vertex 6.25 11.6921 0.692076
    endloop
  endfacet
  facet normal 0.623487 0 0.781834
    outer loop
      vertex 6.25 3.30792 0.692076
      vertex 5.69806 12.1322 1.13223
      vertex 5.69806 2.86777 1.13223
    endloop
  endfacet
  facet normal 0.623489 0 -0.781832
    outer loop
      vertex 5.69806 2.86777 2.86777
      vertex 7.05496 11.0501 3.94986
      vertex 7.05496 3.94986 3.94986
    endloop
  endfacet
  facet normal 0.623489 0 -0.781832
    outer loop
      vertex 7.05496 11.0501 3.94986
      vertex 5.69806 2.86777 2.86777
      vertex 5.69806 12.1322 2.86777
    endloop
  endfacet
  facet normal -0.900969 0 0.433884
    outer loop
      vertex 8.75 3.55739 0.44261
      vertex 9.5 13 2
      vertex 8.75 11.4426 0.44261
    endloop
  endfacet
  facet normal -0.900969 0 0.433884
    outer loop
      vertex 9.5 13 2
      vertex 8.75 3.55739 0.44261
      vertex 9.5 2 2
    endloop
  endfacet
  facet normal 1 -0 0
    outer loop
      vertex 5.5 13 4
      vertex 5.5 15 0
      vertex 5.5 15 4
    endloop
  endfacet
  facet normal 1 0 0
    outer loop
      vertex 5.5 15 0
      vertex 5.5 13 4
      vertex 5.5 13 0
    endloop
  endfacet
  facet normal 0 0 -1
    outer loop
      vertex 8.74698 14.5637 4
      vertex 9.5 15 4
      vertex 9.5 13 4
    endloop
  endfacet
  facet normal 0 0 -1
    outer loop
      vertex 8.25 15 4
      vertex 8.74698 14.5637 4
      vertex 8.25 14.6771 4
    endloop
  endfacet
  facet normal 0 0 -1
    outer loop
      vertex 8.74698 14.5637 4
      vertex 8.25 15 4
      vertex 9.5 15 4
    endloop
  endfacet
  facet normal 0 0 -1
    outer loop
      vertex 5.69806 13 4
      vertex 5.5 13 4
      vertex 5.69806 13.8678 4
    endloop
  endfacet
  facet normal 0 0 -1
    outer loop
      vertex 5.5 15 4
      vertex 6.25 14.3079 4
      vertex 5.69806 13.8678 4
    endloop
  endfacet
  facet normal 0 0 -1
    outer loop
      vertex 6.25 14.3079 4
      vertex 5.5 15 4
      vertex 6.25 15 4
    endloop
  endfacet
  facet normal 0 0 -1
    outer loop
      vertex 5.5 15 4
      vertex 5.69806 13.8678 4
      vertex 5.5 13 4
    endloop
  endfacet
  facet normal -1 0 0
    outer loop
      vertex 9.5 13 2
      vertex 9.5 15 0
      vertex 9.5 13 0
    endloop
  endfacet
  facet normal -1 0 0
    outer loop
      vertex 9.5 15 0
      vertex 9.5 13 2
      vertex 9.5 15 4
    endloop
  endfacet
  facet normal -1 -0 0
    outer loop
      vertex 9.5 15 4
      vertex 9.5 13 2
      vertex 9.5 13 4
    endloop
  endfacet
  facet normal 0 1 -0
    outer loop
      vertex 5.69806 13 0
      vertex 5.5 13 4
      vertex 5.69806 13 4
    endloop
  endfacet
  facet normal 0 1 0
    outer loop
      vertex 5.5 13 4
      vertex 5.69806 13 0
      vertex 5.5 13 0
    endloop
  endfacet
  facet normal 1 -0 0
    outer loop
      vertex 5.5 0 4
      vertex 5.5 2 0
      vertex 5.5 2 4
    endloop
  endfacet
  facet normal 1 0 0
    outer loop
      vertex 5.5 2 0
      vertex 5.5 0 4
      vertex 5.5 0 0
    endloop
  endfacet
  facet normal 0 0 -1
    outer loop
      vertex 8.75 0.44261 4
      vertex 9.5 0 4
      vertex 8.75 0 4
    endloop
  endfacet
  facet normal 0 0 -1
    outer loop
      vertex 9.5 0 4
      vertex 8.75 0.44261 4
      vertex 9.5 2 4
    endloop
  endfacet
  facet normal 0 0 -1
    outer loop
      vertex 5.5 0 4
      vertex 6.25 0.692076 4
      vertex 6.25 0 4
    endloop
  endfacet
  facet normal -0 0 -1
    outer loop
      vertex 6.25 0.692076 4
      vertex 5.5 0 4
      vertex 5.69806 1.13223 4
    endloop
  endfacet
  facet normal 0 0 -1
    outer loop
      vertex 5.5 2 4
      vertex 5.69806 1.13223 4
      vertex 5.5 0 4
    endloop
  endfacet
  facet normal 0 0 -1
    outer loop
      vertex 5.69806 1.13223 4
      vertex 5.5 2 4
      vertex 5.69806 2 4
    endloop
  endfacet
  facet normal -1 0 0
    outer loop
      vertex 9.5 0 0
      vertex 9.5 2 2
      vertex 9.5 2 0
    endloop
  endfacet
  facet normal -1 0 0
    outer loop
      vertex 9.5 0 4
      vertex 9.5 2 2
      vertex 9.5 0 0
    endloop
  endfacet
  facet normal -1 0 0
    outer loop
      vertex 9.5 2 2
      vertex 9.5 0 4
      vertex 9.5 2 4
    endloop
  endfacet
  facet normal 0 -1 0
    outer loop
      vertex 5.5 2 0
      vertex 5.69806 2 4
      vertex 5.5 2 4
    endloop
  endfacet
  facet normal 0 -1 -0
    outer loop
      vertex 5.69806 2 4
      vertex 5.5 2 0
      vertex 5.69806 2 0
    endloop
  endfacet
  facet normal -1 0 0
    outer loop
      vertex 8.75 3.55739 0
      vertex 8.75 11.4426 0.44261
      vertex 8.75 11.4426 0
    endloop
  endfacet
  facet normal -1 -0 0
    outer loop
      vertex 8.75 11.4426 0.44261
      vertex 8.75 3.55739 0
      vertex 8.75 3.55739 0.44261
    endloop
  endfacet
  facet normal 1 -0 0
    outer loop
      vertex 6.25 3.30792 0.692076
      vertex 6.25 11.6921 0
      vertex 6.25 11.6921 0.692076
    endloop
  endfacet
  facet normal 1 0 0
    outer loop
      vertex 6.25 11.6921 0
      vertex 6.25 3.30792 0.692076
      vertex 6.25 3.30792 0
    endloop
  endfacet
  facet normal -0.90097 0 -0.433882
    outer loop
      vertex 9.5 13 88
      vertex 8.75 3.55739 89.5574
      vertex 8.75 11.4426 89.5574
    endloop
  endfacet
  facet normal -0.90097 0 -0.433882
    outer loop
      vertex 8.75 3.55739 89.5574
      vertex 9.5 13 88
      vertex 9.5 2 88
    endloop
  endfacet
  facet normal 0.623493 0 0.781829
    outer loop
      vertex 5.69806 12.1322 87.1322
      vertex 7.05496 3.94986 86.0501
      vertex 7.05496 11.0501 86.0501
    endloop
  endfacet
  facet normal 0.623493 0 0.781829
    outer loop
      vertex 7.05496 3.94986 86.0501
      vertex 5.69806 12.1322 87.1322
      vertex 5.69806 2.86777 87.1322
    endloop
  endfacet
  facet normal 0.62344 0 -0.781871
    outer loop
      vertex 5.69806 2.86777 88.8678
      vertex 6.25 11.6921 89.3079
      vertex 6.25 3.30792 89.3079
    endloop
  endfacet
  facet normal 0.62344 0 -0.781871
    outer loop
      vertex 6.25 11.6921 89.3079
      vertex 5.69806 2.86777 88.8678
      vertex 5.69806 12.1322 88.8678
    endloop
  endfacet
  facet normal -0.222525 0 0.974927
    outer loop
      vertex 7.05496 11.0501 86.0501
      vertex 8.74698 3.56366 86.4363
      vertex 8.74698 11.4363 86.4363
    endloop
  endfacet
  facet normal -0.222525 0 0.974927
    outer loop
      vertex 8.74698 3.56366 86.4363
      vertex 7.05496 11.0501 86.0501
      vertex 7.05496 3.94986 86.0501
    endloop
  endfacet
  facet normal -0.900973 0 0.433875
    outer loop
      vertex 8.74698 3.56366 86.4363
      vertex 9.5 13 88
      vertex 8.74698 11.4363 86.4363
    endloop
  endfacet
  facet normal -0.900973 0 0.433875
    outer loop
      vertex 9.5 13 88
      vertex 8.74698 3.56366 86.4363
      vertex 9.5 2 88
    endloop
  endfacet
  facet normal 1 -0 0
    outer loop
      vertex 5.5 13 90
      vertex 5.5 15 86
      vertex 5.5 15 90
    endloop
  endfacet
  facet normal 1 0 0
    outer loop
      vertex 5.5 15 86
      vertex 5.5 13 90
      vertex 5.5 13 86
    endloop
  endfacet
  facet normal -1 0 0
    outer loop
      vertex 9.5 13 88
      vertex 9.5 15 86
      vertex 9.5 13 86
    endloop
  endfacet
  facet normal -1 0 0
    outer loop
      vertex 9.5 15 86
      vertex 9.5 13 88
      vertex 9.5 15 90
    endloop
  endfacet
  facet normal -1 -0 0
    outer loop
      vertex 9.5 15 90
      vertex 9.5 13 88
      vertex 9.5 13 90
    endloop
  endfacet
  facet normal -0 0 1
    outer loop
      vertex 5.5 15 86
      vertex 6.25 14.3079 86
      vertex 6.25 15 86
    endloop
  endfacet
  facet normal 0 0 1
    outer loop
      vertex 6.25 14.3079 86
      vertex 5.5 15 86
      vertex 5.69806 13.8678 86
    endloop
  endfacet
  facet normal 0 0 1
    outer loop
      vertex 5.5 13 86
      vertex 5.69806 13.8678 86
      vertex 5.5 15 86
    endloop
  endfacet
  facet normal 0 0 1
    outer loop
      vertex 5.69806 13.8678 86
      vertex 5.5 13 86
      vertex 5.69806 13 86
    endloop
  endfacet
  facet normal 0 0 1
    outer loop
      vertex 9.5 15 86
      vertex 8.74698 14.5637 86
      vertex 9.5 13 86
    endloop
  endfacet
  facet normal -0 0 1
    outer loop
      vertex 8.25 15 86
      vertex 8.74698 14.5637 86
      vertex 9.5 15 86
    endloop
  endfacet
  facet normal 0 0 1
    outer loop
      vertex 8.74698 14.5637 86
      vertex 8.25 15 86
      vertex 8.25 14.6771 86
    endloop
  endfacet
  facet normal 0 1 -0
    outer loop
      vertex 5.69806 13 86
      vertex 5.5 13 90
      vertex 5.69806 13 90
    endloop
  endfacet
  facet normal 0 1 0
    outer loop
      vertex 5.5 13 90
      vertex 5.69806 13 86
      vertex 5.5 13 86
    endloop
  endfacet
  facet normal 1 -0 0
    outer loop
      vertex 5.5 0 90
      vertex 5.5 2 86
      vertex 5.5 2 90
    endloop
  endfacet
  facet normal 1 0 0
    outer loop
      vertex 5.5 2 86
      vertex 5.5 0 90
      vertex 5.5 0 86
    endloop
  endfacet
  facet normal -1 0 0
    outer loop
      vertex 9.5 0 86
      vertex 9.5 2 88
      vertex 9.5 2 86
    endloop
  endfacet
  facet normal -1 0 0
    outer loop
      vertex 9.5 0 90
      vertex 9.5 2 88
      vertex 9.5 0 86
    endloop
  endfacet
  facet normal -1 0 0
    outer loop
      vertex 9.5 2 88
      vertex 9.5 0 90
      vertex 9.5 2 90
    endloop
  endfacet
  facet normal -0 0 1
    outer loop
      vertex 8.75 0.44261 86
      vertex 9.5 0 86
      vertex 9.5 2 86
    endloop
  endfacet
  facet normal 0 0 1
    outer loop
      vertex 9.5 0 86
      vertex 8.75 0.44261 86
      vertex 8.75 0 86
    endloop
  endfacet
  facet normal 0 0 1
    outer loop
      vertex 5.69806 2 86
      vertex 5.5 2 86
      vertex 5.69806 1.13223 86
    endloop
  endfacet
  facet normal 0 0 1
    outer loop
      vertex 5.5 0 86
      vertex 6.25 0.692076 86
      vertex 5.69806 1.13223 86
    endloop
  endfacet
  facet normal 0 0 1
    outer loop
      vertex 6.25 0.692076 86
      vertex 5.5 0 86
      vertex 6.25 0 86
    endloop
  endfacet
  facet normal 0 0 1
    outer loop
      vertex 5.5 0 86
      vertex 5.69806 1.13223 86
      vertex 5.5 2 86
    endloop
  endfacet
  facet normal 0 -1 0
    outer loop
      vertex 5.5 2 86
      vertex 5.69806 2 90
      vertex 5.5 2 90
    endloop
  endfacet
  facet normal 0 -1 -0
    outer loop
      vertex 5.69806 2 90
      vertex 5.5 2 86
      vertex 5.69806 2 86
    endloop
  endfacet
  facet normal -1 0 0
    outer loop
      vertex 8.75 3.55739 89.5574
      vertex 8.75 11.4426 90
      vertex 8.75 11.4426 89.5574
    endloop
  endfacet
  facet normal -1 -0 0
    outer loop
      vertex 8.75 11.4426 90
      vertex 8.75 3.55739 89.5574
      vertex 8.75 3.55739 90
    endloop
  endfacet
  facet normal 1 -0 0
    outer loop
      vertex 6.25 3.30792 90
      vertex 6.25 11.6921 89.3079
      vertex 6.25 11.6921 90
    endloop
  endfacet
  facet normal 1 0 0
    outer loop
      vertex 6.25 11.6921 89.3079
      vertex 6.25 3.30792 90
      vertex 6.25 3.30792 89.3079
    endloop
  endfacet
  facet normal -0.900973 0 -0.433875
    outer loop
      vertex 9.5 15 45
      vertex 8.74698 14.5637 46.5637
      vertex 8.74698 15 46.5637
    endloop
  endfacet
  facet normal -0.900973 0 -0.433875
    outer loop
      vertex 8.74698 14.5637 46.5637
      vertex 9.5 15 45
      vertex 9.5 13 45
    endloop
  endfacet
  facet normal -0.90097 0 -0.433882
    outer loop
      vertex 9.5 0 45
      vertex 8.75 0.44261 46.5574
      vertex 9.5 2 45
    endloop
  endfacet
  facet normal -0.90097 -0 -0.433882
    outer loop
      vertex 8.75 0.44261 46.5574
      vertex 9.5 0 45
      vertex 8.75 0 46.5574
    endloop
  endfacet
  facet normal -0.900973 0 -0.433875
    outer loop
      vertex 9.5 13 45
      vertex 8.74698 3.56366 46.5637
      vertex 8.74698 11.4363 46.5637
    endloop
  endfacet
  facet normal -0.900973 0 -0.433875
    outer loop
      vertex 8.74698 3.56366 46.5637
      vertex 9.5 13 45
      vertex 9.5 2 45
    endloop
  endfacet
  facet normal -0.22246 0 -0.974942
    outer loop
      vertex 8.25 14.6771 46.6771
      vertex 8.74698 15 46.5637
      vertex 8.74698 14.5637 46.5637
    endloop
  endfacet
  facet normal -0.22246 0 -0.974942
    outer loop
      vertex 8.74698 15 46.5637
      vertex 8.25 14.6771 46.6771
      vertex 8.25 15 46.6771
    endloop
  endfacet
  facet normal -0.222525 0 -0.974927
    outer loop
      vertex 7.05496 3.94986 46.9499
      vertex 8.74698 11.4363 46.5637
      vertex 8.74698 3.56366 46.5637
    endloop
  endfacet
  facet normal -0.222525 0 -0.974927
    outer loop
      vertex 8.74698 11.4363 46.5637
      vertex 7.05496 3.94986 46.9499
      vertex 7.05496 11.0501 46.9499
    endloop
  endfacet
  facet normal 0.62344 0 0.781871
    outer loop
      vertex 5.69806 15 44.1322
      vertex 6.25 14.3079 43.6921
      vertex 6.25 15 43.6921
    endloop
  endfacet
  facet normal 0.62344 0 0.781871
    outer loop
      vertex 6.25 14.3079 43.6921
      vertex 5.69806 15 44.1322
      vertex 5.69806 13.8678 44.1322
    endloop
  endfacet
  facet normal 0.62344 -0 0.781871
    outer loop
      vertex 5.69806 0 44.1322
      vertex 6.25 0.692076 43.6921
      vertex 5.69806 1.13223 44.1322
    endloop
  endfacet
  facet normal 0.62344 0 0.781871
    outer loop
      vertex 6.25 0.692076 43.6921
      vertex 5.69806 0 44.1322
      vertex 6.25 0 43.6921
    endloop
  endfacet
  facet normal 0.623493 0 0.781829
    outer loop
      vertex 5.69806 12.1322 44.1322
      vertex 7.05496 3.94986 43.0501
      vertex 7.05496 11.0501 43.0501
    endloop
  endfacet
  facet normal 0.623493 0 0.781829
    outer loop
      vertex 7.05496 3.94986 43.0501
      vertex 5.69806 12.1322 44.1322
      vertex 5.69806 2.86777 44.1322
    endloop
  endfacet
  facet normal 0.62344 0 -0.781871
    outer loop
      vertex 5.69806 15 45.8678
      vertex 6.25 14.3079 46.3079
      vertex 5.69806 13.8678 45.8678
    endloop
  endfacet
  facet normal 0.62344 0 -0.781871
    outer loop
      vertex 6.25 14.3079 46.3079
      vertex 5.69806 15 45.8678
      vertex 6.25 15 46.3079
    endloop
  endfacet
  facet normal 0.62344 0 -0.781871
    outer loop
      vertex 5.69806 0 45.8678
      vertex 6.25 0.692076 46.3079
      vertex 6.25 0 46.3079
    endloop
  endfacet
  facet normal 0.62344 0 -0.781871
    outer loop
      vertex 6.25 0.692076 46.3079
      vertex 5.69806 0 45.8678
      vertex 5.69806 1.13223 45.8678
    endloop
  endfacet
  facet normal 0.623493 0 -0.781829
    outer loop
      vertex 5.69806 2.86777 45.8678
      vertex 7.05496 11.0501 46.9499
      vertex 7.05496 3.94986 46.9499
    endloop
  endfacet
  facet normal 0.623493 0 -0.781829
    outer loop
      vertex 7.05496 11.0501 46.9499
      vertex 5.69806 2.86777 45.8678
      vertex 5.69806 12.1322 45.8678
    endloop
  endfacet
  facet normal -0.22246 0 0.974942
    outer loop
      vertex 8.25 14.6771 43.3229
      vertex 8.74698 15 43.4363
      vertex 8.25 15 43.3229
    endloop
  endfacet
  facet normal -0.22246 0 0.974942
    outer loop
      vertex 8.74698 15 43.4363
      vertex 8.25 14.6771 43.3229
      vertex 8.74698 14.5637 43.4363
    endloop
  endfacet
  facet normal -0.222525 0 0.974927
    outer loop
      vertex 7.05496 11.0501 43.0501
      vertex 8.74698 3.56366 43.4363
      vertex 8.74698 11.4363 43.4363
    endloop
  endfacet
  facet normal -0.222525 0 0.974927
    outer loop
      vertex 8.74698 3.56366 43.4363
      vertex 7.05496 11.0501 43.0501
      vertex 7.05496 3.94986 43.0501
    endloop
  endfacet
  facet normal -0.900973 0 0.433875
    outer loop
      vertex 8.74698 14.5637 43.4363
      vertex 9.5 15 45
      vertex 8.74698 15 43.4363
    endloop
  endfacet
  facet normal -0.900973 0 0.433875
    outer loop
      vertex 9.5 15 45
      vertex 8.74698 14.5637 43.4363
      vertex 9.5 13 45
    endloop
  endfacet
  facet normal -0.90097 0 0.433882
    outer loop
      vertex 9.5 0 45
      vertex 8.75 0.44261 43.4426
      vertex 8.75 0 43.4426
    endloop
  endfacet
  facet normal -0.90097 0 0.433882
    outer loop
      vertex 8.75 0.44261 43.4426
      vertex 9.5 0 45
      vertex 9.5 2 45
    endloop
  endfacet
  facet normal -0.900973 0 0.433875
    outer loop
      vertex 8.74698 3.56366 43.4363
      vertex 9.5 13 45
      vertex 8.74698 11.4363 43.4363
    endloop
  endfacet
  facet normal -0.900973 0 0.433875
    outer loop
      vertex 9.5 13 45
      vertex 8.74698 3.56366 43.4363
      vertex 9.5 2 45
    endloop
  endfacet
endsolid OpenSCAD_Model
