solid OpenSCAD_Model
  facet normal -1 0 0
    outer loop
      vertex 0 0 0
      vertex 0 6.25 90
      vertex 0 6.25 0
    endloop
  endfacet
  facet normal -1 -0 0
    outer loop
      vertex 0 6.25 90
      vertex 0 0 0
      vertex 0 0 90
    endloop
  endfacet
  facet normal -1 0 0
    outer loop
      vertex 0 9.25 0
      vertex 0 15.5 90
      vertex 0 15.5 0
    endloop
  endfacet
  facet normal -1 -0 0
    outer loop
      vertex 0 15.5 90
      vertex 0 9.25 0
      vertex 0 9.25 90
    endloop
  endfacet
  facet normal -0 0 1
    outer loop
      vertex 14.841 9.34099 90
      vertex 15.5 9.25 90
      vertex 15.5 15.5 90
    endloop
  endfacet
  facet normal 0 0 1
    outer loop
      vertex 15.5 9.25 90
      vertex 14.841 9.34099 90
      vertex 14.8787 9.25 90
    endloop
  endfacet
  facet normal 0 0 1
    outer loop
      vertex 15.5 15.5 90
      vertex 13.25 10 90
      vertex 14.841 9.34099 90
    endloop
  endfacet
  facet normal -0 0 1
    outer loop
      vertex 10 13.25 90
      vertex 13.25 10 90
      vertex 15.5 15.5 90
    endloop
  endfacet
  facet normal 0 0 1
    outer loop
      vertex 13.25 10 90
      vertex 10 13.25 90
      vertex 11.659 9.34099 90
    endloop
  endfacet
  facet normal 0 0 1
    outer loop
      vertex 10 13.25 90
      vertex 15.5 15.5 90
      vertex 10 15.5 90
    endloop
  endfacet
  facet normal 0 0 1
    outer loop
      vertex 14.841 6.15901 90
      vertex 15.5 6.25 90
      vertex 14.8787 6.25 90
    endloop
  endfacet
  facet normal 0 0 1
    outer loop
      vertex 15.5 6.25 90
      vertex 14.841 6.15901 90
      vertex 15.5 0 90
    endloop
  endfacet
  facet normal -0 0 1
    outer loop
      vertex 13.25 5.5 90
      vertex 15.5 0 90
      vertex 14.841 6.15901 90
    endloop
  endfacet
  facet normal 0 0 1
    outer loop
      vertex 10 2.25 90
      vertex 13.25 5.5 90
      vertex 11.659 6.15901 90
    endloop
  endfacet
  facet normal -0 0 1
    outer loop
      vertex 9.34099 11.659 90
      vertex 11.659 9.34099 90
      vertex 10 13.25 90
    endloop
  endfacet
  facet normal -0 0 1
    outer loop
      vertex 9.25 11.6213 90
      vertex 11.659 9.34099 90
      vertex 9.34099 11.659 90
    endloop
  endfacet
  facet normal 0 0 1
    outer loop
      vertex 9.34099 3.84099 90
      vertex 11.659 6.15901 90
      vertex 11 7.75 90
    endloop
  endfacet
  facet normal 0 0 1
    outer loop
      vertex 13.25 5.5 90
      vertex 10 2.25 90
      vertex 15.5 0 90
    endloop
  endfacet
  facet normal 0 0 1
    outer loop
      vertex 15.5 0 90
      vertex 10 2.25 90
      vertex 10 0 90
    endloop
  endfacet
  facet normal 0 0 1
    outer loop
      vertex 11.659 9.34099 90
      vertex 9.25 11.6213 90
      vertex 11 7.75 90
    endloop
  endfacet
  facet normal 0 0 1
    outer loop
      vertex 11.659 6.15901 90
      vertex 9.34099 3.84099 90
      vertex 10 2.25 90
    endloop
  endfacet
  facet normal 0 0 1
    outer loop
      vertex 9.25 3.87868 90
      vertex 11 7.75 90
      vertex 9.25 11.6213 90
    endloop
  endfacet
  facet normal 0 0 1
    outer loop
      vertex 11 7.75 90
      vertex 9.25 3.87868 90
      vertex 9.34099 3.84099 90
    endloop
  endfacet
  facet normal -0 0 1
    outer loop
      vertex 0 15.5 90
      vertex 5.5 13.25 90
      vertex 5.5 15.5 90
    endloop
  endfacet
  facet normal 0 0 1
    outer loop
      vertex 5.5 13.25 90
      vertex 4.5 7.75 90
      vertex 5.5 2.25 90
    endloop
  endfacet
  facet normal -0 0 1
    outer loop
      vertex 3.84099 6.15901 90
      vertex 5.5 2.25 90
      vertex 4.5 7.75 90
    endloop
  endfacet
  facet normal 0 0 1
    outer loop
      vertex 5.5 13.25 90
      vertex 3.84099 9.34099 90
      vertex 4.5 7.75 90
    endloop
  endfacet
  facet normal 0 0 1
    outer loop
      vertex 5.5 13.25 90
      vertex 2.25 10 90
      vertex 3.84099 9.34099 90
    endloop
  endfacet
  facet normal 0 0 1
    outer loop
      vertex 5.5 13.25 90
      vertex 0 15.5 90
      vertex 2.25 10 90
    endloop
  endfacet
  facet normal 0 0 1
    outer loop
      vertex 2.25 10 90
      vertex 0 15.5 90
      vertex 0.659009 9.34099 90
    endloop
  endfacet
  facet normal 0 0 1
    outer loop
      vertex 0 9.25 90
      vertex 0.659009 9.34099 90
      vertex 0 15.5 90
    endloop
  endfacet
  facet normal 0 0 1
    outer loop
      vertex 0.659009 9.34099 90
      vertex 0 9.25 90
      vertex 0.62132 9.25 90
    endloop
  endfacet
  facet normal 0 0 1
    outer loop
      vertex 6.15901 11.659 90
      vertex 6.25 3.87868 90
      vertex 6.25 11.6213 90
    endloop
  endfacet
  facet normal 0 0 1
    outer loop
      vertex 6.15901 11.659 90
      vertex 6.15901 3.84099 90
      vertex 6.25 3.87868 90
    endloop
  endfacet
  facet normal 0 0 1
    outer loop
      vertex 5.5 13.25 90
      vertex 6.15901 3.84099 90
      vertex 6.15901 11.659 90
    endloop
  endfacet
  facet normal 0 0 1
    outer loop
      vertex 6.15901 3.84099 90
      vertex 5.5 13.25 90
      vertex 5.5 2.25 90
    endloop
  endfacet
  facet normal -0 0 1
    outer loop
      vertex 2.25 5.5 90
      vertex 5.5 2.25 90
      vertex 3.84099 6.15901 90
    endloop
  endfacet
  facet normal 0 0 1
    outer loop
      vertex 0 0 90
      vertex 5.5 2.25 90
      vertex 2.25 5.5 90
    endloop
  endfacet
  facet normal 0 0 1
    outer loop
      vertex 0 0 90
      vertex 2.25 5.5 90
      vertex 0.659009 6.15901 90
    endloop
  endfacet
  facet normal -0 0 1
    outer loop
      vertex 0 6.25 90
      vertex 0.659009 6.15901 90
      vertex 0.621319 6.25 90
    endloop
  endfacet
  facet normal 0 0 1
    outer loop
      vertex 0 0 90
      vertex 0.659009 6.15901 90
      vertex 0 6.25 90
    endloop
  endfacet
  facet normal 0 0 1
    outer loop
      vertex 5.5 2.25 90
      vertex 0 0 90
      vertex 5.5 0 90
    endloop
  endfacet
  facet normal 1 -0 0
    outer loop
      vertex 15.5 0 90
      vertex 15.5 6.25 0
      vertex 15.5 6.25 90
    endloop
  endfacet
  facet normal 1 0 0
    outer loop
      vertex 15.5 6.25 0
      vertex 15.5 0 90
      vertex 15.5 0 0
    endloop
  endfacet
  facet normal 1 -0 0
    outer loop
      vertex 15.5 9.25 90
      vertex 15.5 15.5 0
      vertex 15.5 15.5 90
    endloop
  endfacet
  facet normal 1 0 0
    outer loop
      vertex 15.5 15.5 0
      vertex 15.5 9.25 90
      vertex 15.5 9.25 0
    endloop
  endfacet
  facet normal 0 1 0
    outer loop
      vertex 15.5 15.5 90
      vertex 10 15.5 85.5
      vertex 10 15.5 90
    endloop
  endfacet
  facet normal 0 1 0
    outer loop
      vertex 10 15.5 85.5
      vertex 9.25 15.5 46.6287
      vertex 9.25 15.5 85.5
    endloop
  endfacet
  facet normal 0 1 0
    outer loop
      vertex 9.34099 15.5 46.591
      vertex 10 15.5 85.5
      vertex 15.5 15.5 90
    endloop
  endfacet
  facet normal 0 1 0
    outer loop
      vertex 10 15.5 85.5
      vertex 9.34099 15.5 46.591
      vertex 9.25 15.5 46.6287
    endloop
  endfacet
  facet normal 0 1 0
    outer loop
      vertex 15.5 15.5 90
      vertex 10 15.5 45
      vertex 9.34099 15.5 46.591
    endloop
  endfacet
  facet normal 0 1 0
    outer loop
      vertex 9.34099 15.5 43.409
      vertex 10 15.5 4.5
      vertex 9.25 15.5 43.3713
    endloop
  endfacet
  facet normal 0 1 0
    outer loop
      vertex 15.5 15.5 0
      vertex 9.34099 15.5 43.409
      vertex 10 15.5 45
    endloop
  endfacet
  facet normal 0 1 -0
    outer loop
      vertex 15.5 15.5 0
      vertex 10 15.5 45
      vertex 15.5 15.5 90
    endloop
  endfacet
  facet normal 0 1 0
    outer loop
      vertex 9.34099 15.5 43.409
      vertex 15.5 15.5 0
      vertex 10 15.5 4.5
    endloop
  endfacet
  facet normal 0 1 0
    outer loop
      vertex 10 15.5 4.5
      vertex 15.5 15.5 0
      vertex 10 15.5 0
    endloop
  endfacet
  facet normal 0 1 0
    outer loop
      vertex 9.25 15.5 43.3713
      vertex 10 15.5 4.5
      vertex 9.25 15.5 4.5
    endloop
  endfacet
  facet normal 0 1 0
    outer loop
      vertex 6.25 15.5 85.5
      vertex 6.25 15.5 46.6287
      vertex 5.5 15.5 85.5
    endloop
  endfacet
  facet normal 0 1 -0
    outer loop
      vertex 5.5 15.5 85.5
      vertex 0 15.5 90
      vertex 5.5 15.5 90
    endloop
  endfacet
  facet normal 0 1 -0
    outer loop
      vertex 6.15901 15.5 46.591
      vertex 5.5 15.5 85.5
      vertex 6.25 15.5 46.6287
    endloop
  endfacet
  facet normal 0 1 0
    outer loop
      vertex 5.5 15.5 85.5
      vertex 6.15901 15.5 46.591
      vertex 0 15.5 90
    endloop
  endfacet
  facet normal 0 1 -0
    outer loop
      vertex 5.5 15.5 45
      vertex 0 15.5 90
      vertex 6.15901 15.5 46.591
    endloop
  endfacet
  facet normal 0 1 0
    outer loop
      vertex 5.5 15.5 4.5
      vertex 6.25 15.5 43.3713
      vertex 6.25 15.5 4.5
    endloop
  endfacet
  facet normal 0 1 0
    outer loop
      vertex 6.25 15.5 43.3713
      vertex 5.5 15.5 4.5
      vertex 6.15901 15.5 43.409
    endloop
  endfacet
  facet normal 0 1 0
    outer loop
      vertex 0 15.5 0
      vertex 6.15901 15.5 43.409
      vertex 5.5 15.5 4.5
    endloop
  endfacet
  facet normal 0 1 0
    outer loop
      vertex 6.15901 15.5 43.409
      vertex 0 15.5 0
      vertex 5.5 15.5 45
    endloop
  endfacet
  facet normal 0 1 0
    outer loop
      vertex 0 15.5 0
      vertex 5.5 15.5 4.5
      vertex 5.5 15.5 0
    endloop
  endfacet
  facet normal 0 1 0
    outer loop
      vertex 5.5 15.5 45
      vertex 0 15.5 0
      vertex 0 15.5 90
    endloop
  endfacet
  facet normal 0 0 -1
    outer loop
      vertex 0 0 0
      vertex 5.5 2.25 0
      vertex 5.5 0 0
    endloop
  endfacet
  facet normal 0 0 -1
    outer loop
      vertex 5.5 2.25 0
      vertex 4.5 7.75 0
      vertex 5.5 13.25 0
    endloop
  endfacet
  facet normal 0 0 -1
    outer loop
      vertex 3.84099 9.34099 0
      vertex 5.5 13.25 0
      vertex 4.5 7.75 0
    endloop
  endfacet
  facet normal 0 0 -1
    outer loop
      vertex 5.5 2.25 0
      vertex 3.84099 6.15901 0
      vertex 4.5 7.75 0
    endloop
  endfacet
  facet normal 0 0 -1
    outer loop
      vertex 5.5 2.25 0
      vertex 2.25 5.5 0
      vertex 3.84099 6.15901 0
    endloop
  endfacet
  facet normal -0 0 -1
    outer loop
      vertex 5.5 2.25 0
      vertex 0 0 0
      vertex 2.25 5.5 0
    endloop
  endfacet
  facet normal -0 0 -1
    outer loop
      vertex 2.25 5.5 0
      vertex 0 0 0
      vertex 0.659009 6.15901 0
    endloop
  endfacet
  facet normal 0 0 -1
    outer loop
      vertex 0 6.25 0
      vertex 0.659009 6.15901 0
      vertex 0 0 0
    endloop
  endfacet
  facet normal 0 0 -1
    outer loop
      vertex 0.659009 6.15901 0
      vertex 0 6.25 0
      vertex 0.621319 6.25 0
    endloop
  endfacet
  facet normal 0 0 -1
    outer loop
      vertex 6.15901 3.84099 0
      vertex 6.25 11.6213 0
      vertex 6.25 3.87868 0
    endloop
  endfacet
  facet normal 0 0 -1
    outer loop
      vertex 6.15901 3.84099 0
      vertex 6.15901 11.659 0
      vertex 6.25 11.6213 0
    endloop
  endfacet
  facet normal 0 0 -1
    outer loop
      vertex 5.5 2.25 0
      vertex 6.15901 11.659 0
      vertex 6.15901 3.84099 0
    endloop
  endfacet
  facet normal -0 0 -1
    outer loop
      vertex 6.15901 11.659 0
      vertex 5.5 2.25 0
      vertex 5.5 13.25 0
    endloop
  endfacet
  facet normal 0 0 -1
    outer loop
      vertex 2.25 10 0
      vertex 5.5 13.25 0
      vertex 3.84099 9.34099 0
    endloop
  endfacet
  facet normal 0 0 -1
    outer loop
      vertex 0 15.5 0
      vertex 5.5 13.25 0
      vertex 2.25 10 0
    endloop
  endfacet
  facet normal 0 0 -1
    outer loop
      vertex 0 15.5 0
      vertex 2.25 10 0
      vertex 0.659009 9.34099 0
    endloop
  endfacet
  facet normal 0 0 -1
    outer loop
      vertex 0 9.25 0
      vertex 0.659009 9.34099 0
      vertex 0.62132 9.25 0
    endloop
  endfacet
  facet normal 0 0 -1
    outer loop
      vertex 0 15.5 0
      vertex 0.659009 9.34099 0
      vertex 0 9.25 0
    endloop
  endfacet
  facet normal 0 0 -1
    outer loop
      vertex 5.5 13.25 0
      vertex 0 15.5 0
      vertex 5.5 15.5 0
    endloop
  endfacet
  facet normal 0 0 -1
    outer loop
      vertex 14.841 6.15901 0
      vertex 15.5 6.25 0
      vertex 15.5 0 0
    endloop
  endfacet
  facet normal -0 0 -1
    outer loop
      vertex 15.5 6.25 0
      vertex 14.841 6.15901 0
      vertex 14.8787 6.25 0
    endloop
  endfacet
  facet normal 0 0 -1
    outer loop
      vertex 15.5 0 0
      vertex 13.25 5.5 0
      vertex 14.841 6.15901 0
    endloop
  endfacet
  facet normal 0 0 -1
    outer loop
      vertex 10 2.25 0
      vertex 13.25 5.5 0
      vertex 15.5 0 0
    endloop
  endfacet
  facet normal -0 0 -1
    outer loop
      vertex 13.25 5.5 0
      vertex 10 2.25 0
      vertex 11.659 6.15901 0
    endloop
  endfacet
  facet normal 0 0 -1
    outer loop
      vertex 10 2.25 0
      vertex 15.5 0 0
      vertex 10 0 0
    endloop
  endfacet
  facet normal 0 0 -1
    outer loop
      vertex 14.841 9.34099 0
      vertex 15.5 9.25 0
      vertex 14.8787 9.25 0
    endloop
  endfacet
  facet normal 0 0 -1
    outer loop
      vertex 15.5 9.25 0
      vertex 14.841 9.34099 0
      vertex 15.5 15.5 0
    endloop
  endfacet
  facet normal 0 0 -1
    outer loop
      vertex 13.25 10 0
      vertex 15.5 15.5 0
      vertex 14.841 9.34099 0
    endloop
  endfacet
  facet normal 0 0 -1
    outer loop
      vertex 10 13.25 0
      vertex 13.25 10 0
      vertex 11.659 9.34099 0
    endloop
  endfacet
  facet normal 0 0 -1
    outer loop
      vertex 9.34099 3.84099 0
      vertex 11.659 6.15901 0
      vertex 10 2.25 0
    endloop
  endfacet
  facet normal 0 0 -1
    outer loop
      vertex 9.25 3.87868 0
      vertex 11.659 6.15901 0
      vertex 9.34099 3.84099 0
    endloop
  endfacet
  facet normal 0 0 -1
    outer loop
      vertex 9.34099 11.659 0
      vertex 11.659 9.34099 0
      vertex 11 7.75 0
    endloop
  endfacet
  facet normal 0 0 -1
    outer loop
      vertex 13.25 10 0
      vertex 10 13.25 0
      vertex 15.5 15.5 0
    endloop
  endfacet
  facet normal -0 0 -1
    outer loop
      vertex 15.5 15.5 0
      vertex 10 13.25 0
      vertex 10 15.5 0
    endloop
  endfacet
  facet normal -0 0 -1
    outer loop
      vertex 11.659 6.15901 0
      vertex 9.25 3.87868 0
      vertex 11 7.75 0
    endloop
  endfacet
  facet normal 0 0 -1
    outer loop
      vertex 11.659 9.34099 0
      vertex 9.34099 11.659 0
      vertex 10 13.25 0
    endloop
  endfacet
  facet normal 0 0 -1
    outer loop
      vertex 9.25 11.6213 0
      vertex 11 7.75 0
      vertex 9.25 3.87868 0
    endloop
  endfacet
  facet normal 0 0 -1
    outer loop
      vertex 11 7.75 0
      vertex 9.25 11.6213 0
      vertex 9.34099 11.659 0
    endloop
  endfacet
  facet normal 0 -1 0
    outer loop
      vertex 9.25 0 85.5
      vertex 9.25 0 46.6287
      vertex 10 0 85.5
    endloop
  endfacet
  facet normal 0 -1 0
    outer loop
      vertex 10 0 85.5
      vertex 15.5 0 90
      vertex 10 0 90
    endloop
  endfacet
  facet normal 0 -1 0
    outer loop
      vertex 9.34099 0 46.591
      vertex 10 0 85.5
      vertex 9.25 0 46.6287
    endloop
  endfacet
  facet normal 0 -1 -0
    outer loop
      vertex 10 0 85.5
      vertex 9.34099 0 46.591
      vertex 15.5 0 90
    endloop
  endfacet
  facet normal 0 -1 0
    outer loop
      vertex 10 0 45
      vertex 15.5 0 90
      vertex 9.34099 0 46.591
    endloop
  endfacet
  facet normal 0 -1 0
    outer loop
      vertex 10 0 4.5
      vertex 9.25 0 43.3713
      vertex 9.25 0 4.5
    endloop
  endfacet
  facet normal 0 -1 0
    outer loop
      vertex 9.25 0 43.3713
      vertex 10 0 4.5
      vertex 9.34099 0 43.409
    endloop
  endfacet
  facet normal 0 -1 0
    outer loop
      vertex 15.5 0 0
      vertex 9.34099 0 43.409
      vertex 10 0 4.5
    endloop
  endfacet
  facet normal 0 -1 0
    outer loop
      vertex 9.34099 0 43.409
      vertex 15.5 0 0
      vertex 10 0 45
    endloop
  endfacet
  facet normal 0 -1 0
    outer loop
      vertex 15.5 0 0
      vertex 10 0 4.5
      vertex 10 0 0
    endloop
  endfacet
  facet normal 0 -1 0
    outer loop
      vertex 10 0 45
      vertex 15.5 0 0
      vertex 15.5 0 90
    endloop
  endfacet
  facet normal 0 -1 0
    outer loop
      vertex 0 0 90
      vertex 5.5 0 85.5
      vertex 5.5 0 90
    endloop
  endfacet
  facet normal 0 -1 0
    outer loop
      vertex 5.5 0 85.5
      vertex 6.25 0 46.6287
      vertex 6.25 0 85.5
    endloop
  endfacet
  facet normal 0 -1 0
    outer loop
      vertex 6.15901 0 46.591
      vertex 5.5 0 85.5
      vertex 0 0 90
    endloop
  endfacet
  facet normal 0 -1 0
    outer loop
      vertex 5.5 0 85.5
      vertex 6.15901 0 46.591
      vertex 6.25 0 46.6287
    endloop
  endfacet
  facet normal 0 -1 0
    outer loop
      vertex 0 0 90
      vertex 5.5 0 45
      vertex 6.15901 0 46.591
    endloop
  endfacet
  facet normal 0 -1 -0
    outer loop
      vertex 6.15901 0 43.409
      vertex 5.5 0 4.5
      vertex 6.25 0 43.3713
    endloop
  endfacet
  facet normal 0 -1 0
    outer loop
      vertex 0 0 0
      vertex 6.15901 0 43.409
      vertex 5.5 0 45
    endloop
  endfacet
  facet normal 0 -1 0
    outer loop
      vertex 0 0 0
      vertex 5.5 0 45
      vertex 0 0 90
    endloop
  endfacet
  facet normal 0 -1 0
    outer loop
      vertex 6.15901 0 43.409
      vertex 0 0 0
      vertex 5.5 0 4.5
    endloop
  endfacet
  facet normal 0 -1 -0
    outer loop
      vertex 5.5 0 4.5
      vertex 0 0 0
      vertex 5.5 0 0
    endloop
  endfacet
  facet normal 0 -1 -0
    outer loop
      vertex 6.25 0 43.3713
      vertex 5.5 0 4.5
      vertex 6.25 0 4.5
    endloop
  endfacet
  facet normal -0.923879 -0.382684 0
    outer loop
      vertex 10 2.25 0
      vertex 9.34099 3.84099 0.659009
      vertex 9.34099 3.84099 0
    endloop
  endfacet
  facet normal -0.923879 -0.382684 0
    outer loop
      vertex 9.34099 3.84099 0.659009
      vertex 10 2.25 0
      vertex 10 2.25 2.25
    endloop
  endfacet
  facet normal -0.923879 -0.382684 -0
    outer loop
      vertex 10 2.25 90
      vertex 9.34099 3.84099 89.341
      vertex 10 2.25 87.75
    endloop
  endfacet
  facet normal -0.923879 -0.382684 0
    outer loop
      vertex 9.34099 3.84099 89.341
      vertex 10 2.25 90
      vertex 9.34099 3.84099 90
    endloop
  endfacet
  facet normal -0.923879 -0.382684 -0
    outer loop
      vertex 10 2.25 4.5
      vertex 9.34099 3.84099 3.84099
      vertex 10 2.25 2.25
    endloop
  endfacet
  facet normal -0.923879 -0.382684 0
    outer loop
      vertex 9.34099 3.84099 3.84099
      vertex 10 2.25 4.5
      vertex 9.34099 3.84099 43.409
    endloop
  endfacet
  facet normal -0.923879 -0.382684 0
    outer loop
      vertex 9.34099 3.84099 43.409
      vertex 10 2.25 4.5
      vertex 10 2.25 45
    endloop
  endfacet
  facet normal -0.923879 -0.382684 -0
    outer loop
      vertex 10 2.25 85.5
      vertex 9.34099 3.84099 46.591
      vertex 10 2.25 45
    endloop
  endfacet
  facet normal -0.923879 -0.382684 0
    outer loop
      vertex 9.34099 3.84099 46.591
      vertex 10 2.25 85.5
      vertex 9.34099 3.84099 86.159
    endloop
  endfacet
  facet normal -0.923879 -0.382684 0
    outer loop
      vertex 9.34099 3.84099 86.159
      vertex 10 2.25 85.5
      vertex 10 2.25 87.75
    endloop
  endfacet
  facet normal 0.38269 -0.923877 0
    outer loop
      vertex 6.15901 3.84099 0
      vertex 6.25 3.87868 0.621319
      vertex 6.15901 3.84099 0.659009
    endloop
  endfacet
  facet normal 0.38269 -0.923877 0
    outer loop
      vertex 6.25 3.87868 0.621319
      vertex 6.15901 3.84099 0
      vertex 6.25 3.87868 0
    endloop
  endfacet
  facet normal 0.38269 -0.923877 0
    outer loop
      vertex 6.15901 3.84099 90
      vertex 6.25 3.87868 89.3787
      vertex 6.25 3.87868 90
    endloop
  endfacet
  facet normal 0.38269 -0.923877 0
    outer loop
      vertex 6.25 3.87868 89.3787
      vertex 6.15901 3.84099 90
      vertex 6.15901 3.84099 89.341
    endloop
  endfacet
  facet normal 0.382684 -0.923879 0
    outer loop
      vertex 6.15901 3.84099 43.409
      vertex 7.75 4.5 4.5
      vertex 7.75 4.5 42.75
    endloop
  endfacet
  facet normal 0.382684 -0.923879 0
    outer loop
      vertex 7.75 4.5 4.5
      vertex 6.15901 3.84099 43.409
      vertex 6.15901 3.84099 3.84099
    endloop
  endfacet
  facet normal 0.382684 -0.923879 0
    outer loop
      vertex 6.15901 3.84099 86.159
      vertex 7.75 4.5 47.25
      vertex 7.75 4.5 85.5
    endloop
  endfacet
  facet normal 0.382684 -0.923879 0
    outer loop
      vertex 7.75 4.5 47.25
      vertex 6.15901 3.84099 86.159
      vertex 6.15901 3.84099 46.591
    endloop
  endfacet
  facet normal -0.38269 -0.923877 0
    outer loop
      vertex 9.34099 3.84099 0
      vertex 9.25 3.87868 0.62132
      vertex 9.25 3.87868 0
    endloop
  endfacet
  facet normal -0.38269 -0.923877 0
    outer loop
      vertex 9.25 3.87868 0.62132
      vertex 9.34099 3.84099 0
      vertex 9.34099 3.84099 0.659009
    endloop
  endfacet
  facet normal -0.38269 -0.923877 0
    outer loop
      vertex 9.25 3.87868 89.3787
      vertex 9.34099 3.84099 90
      vertex 9.25 3.87868 90
    endloop
  endfacet
  facet normal -0.38269 -0.923877 -0
    outer loop
      vertex 9.34099 3.84099 90
      vertex 9.25 3.87868 89.3787
      vertex 9.34099 3.84099 89.341
    endloop
  endfacet
  facet normal -0.382684 -0.923879 0
    outer loop
      vertex 7.75 4.5 4.5
      vertex 9.34099 3.84099 43.409
      vertex 7.75 4.5 42.75
    endloop
  endfacet
  facet normal -0.382684 -0.923879 -0
    outer loop
      vertex 9.34099 3.84099 43.409
      vertex 7.75 4.5 4.5
      vertex 9.34099 3.84099 3.84099
    endloop
  endfacet
  facet normal -0.382684 -0.923879 0
    outer loop
      vertex 7.75 4.5 47.25
      vertex 9.34099 3.84099 86.159
      vertex 7.75 4.5 85.5
    endloop
  endfacet
  facet normal -0.382684 -0.923879 -0
    outer loop
      vertex 9.34099 3.84099 86.159
      vertex 7.75 4.5 47.25
      vertex 9.34099 3.84099 46.591
    endloop
  endfacet
  facet normal 0.923879 -0.382684 0
    outer loop
      vertex 5.5 2.25 0
      vertex 6.15901 3.84099 0.659009
      vertex 5.5 2.25 2.25
    endloop
  endfacet
  facet normal 0.923879 -0.382684 0
    outer loop
      vertex 6.15901 3.84099 0.659009
      vertex 5.5 2.25 0
      vertex 6.15901 3.84099 0
    endloop
  endfacet
  facet normal 0.923879 -0.382684 0
    outer loop
      vertex 5.5 2.25 90
      vertex 6.15901 3.84099 89.341
      vertex 6.15901 3.84099 90
    endloop
  endfacet
  facet normal 0.923879 -0.382684 0
    outer loop
      vertex 6.15901 3.84099 89.341
      vertex 5.5 2.25 90
      vertex 5.5 2.25 87.75
    endloop
  endfacet
  facet normal 0.923879 -0.382684 0
    outer loop
      vertex 5.5 2.25 4.5
      vertex 6.15901 3.84099 43.409
      vertex 5.5 2.25 45
    endloop
  endfacet
  facet normal 0.923879 -0.382684 0
    outer loop
      vertex 6.15901 3.84099 43.409
      vertex 5.5 2.25 4.5
      vertex 6.15901 3.84099 3.84099
    endloop
  endfacet
  facet normal 0.923879 -0.382684 0
    outer loop
      vertex 6.15901 3.84099 3.84099
      vertex 5.5 2.25 4.5
      vertex 5.5 2.25 2.25
    endloop
  endfacet
  facet normal 0.923879 -0.382684 0
    outer loop
      vertex 5.5 2.25 85.5
      vertex 6.15901 3.84099 86.159
      vertex 5.5 2.25 87.75
    endloop
  endfacet
  facet normal 0.923879 -0.382684 0
    outer loop
      vertex 6.15901 3.84099 86.159
      vertex 5.5 2.25 85.5
      vertex 6.15901 3.84099 46.591
    endloop
  endfacet
  facet normal 0.923879 -0.382684 0
    outer loop
      vertex 6.15901 3.84099 46.591
      vertex 5.5 2.25 85.5
      vertex 5.5 2.25 45
    endloop
  endfacet
  facet normal -0.92388 0.382683 0
    outer loop
      vertex 9.34099 0.659009 43.409
      vertex 10 2.25 4.5
      vertex 9.34099 0.659009 4.5
    endloop
  endfacet
  facet normal -0.92388 0.382683 0
    outer loop
      vertex 10 2.25 4.5
      vertex 9.34099 0.659009 43.409
      vertex 10 2.25 45
    endloop
  endfacet
  facet normal -0.92388 0.382683 0
    outer loop
      vertex 9.34099 0.659009 46.591
      vertex 10 2.25 85.5
      vertex 10 2.25 45
    endloop
  endfacet
  facet normal -0.92388 0.382683 0
    outer loop
      vertex 10 2.25 85.5
      vertex 9.34099 0.659009 46.591
      vertex 9.34099 0.659009 85.5
    endloop
  endfacet
  facet normal 0.38269 0.923877 0
    outer loop
      vertex 6.15901 0.659009 4.5
      vertex 6.25 0.621319 43.3713
      vertex 6.25 0.621319 4.5
    endloop
  endfacet
  facet normal 0.38269 0.923877 0
    outer loop
      vertex 6.25 0.621319 43.3713
      vertex 6.15901 0.659009 4.5
      vertex 6.15901 0.659009 43.409
    endloop
  endfacet
  facet normal 0.38269 0.923877 -0
    outer loop
      vertex 6.25 0.621319 46.6287
      vertex 6.15901 0.659009 85.5
      vertex 6.25 0.621319 85.5
    endloop
  endfacet
  facet normal 0.38269 0.923877 0
    outer loop
      vertex 6.15901 0.659009 85.5
      vertex 6.25 0.621319 46.6287
      vertex 6.15901 0.659009 46.591
    endloop
  endfacet
  facet normal 0.92388 0.382683 0
    outer loop
      vertex 6.15901 0.659009 43.409
      vertex 5.5 2.25 4.5
      vertex 5.5 2.25 45
    endloop
  endfacet
  facet normal 0.92388 0.382683 0
    outer loop
      vertex 5.5 2.25 4.5
      vertex 6.15901 0.659009 43.409
      vertex 6.15901 0.659009 4.5
    endloop
  endfacet
  facet normal 0.92388 0.382683 -0
    outer loop
      vertex 6.15901 0.659009 46.591
      vertex 5.5 2.25 85.5
      vertex 6.15901 0.659009 85.5
    endloop
  endfacet
  facet normal 0.92388 0.382683 0
    outer loop
      vertex 5.5 2.25 85.5
      vertex 6.15901 0.659009 46.591
      vertex 5.5 2.25 45
    endloop
  endfacet
  facet normal -0.382681 0.923881 0
    outer loop
      vertex 9.34099 0.659009 4.5
      vertex 9.25 0.62132 43.3713
      vertex 9.34099 0.659009 43.409
    endloop
  endfacet
  facet normal -0.382681 0.923881 0
    outer loop
      vertex 9.25 0.62132 43.3713
      vertex 9.34099 0.659009 4.5
      vertex 9.25 0.62132 4.5
    endloop
  endfacet
  facet normal -0.382681 0.923881 0
    outer loop
      vertex 9.34099 0.659009 85.5
      vertex 9.25 0.62132 46.6287
      vertex 9.25 0.62132 85.5
    endloop
  endfacet
  facet normal -0.382681 0.923881 0
    outer loop
      vertex 9.25 0.62132 46.6287
      vertex 9.34099 0.659009 85.5
      vertex 9.34099 0.659009 46.591
    endloop
  endfacet
  facet normal -0.92388 -0.382682 0
    outer loop
      vertex 10 13.25 4.5
      vertex 9.34099 14.841 43.409
      vertex 9.34099 14.841 4.5
    endloop
  endfacet
  facet normal -0.92388 -0.382682 0
    outer loop
      vertex 9.34099 14.841 43.409
      vertex 10 13.25 4.5
      vertex 10 13.25 45
    endloop
  endfacet
  facet normal -0.92388 -0.382682 -0
    outer loop
      vertex 10 13.25 85.5
      vertex 9.34099 14.841 46.591
      vertex 10 13.25 45
    endloop
  endfacet
  facet normal -0.92388 -0.382682 0
    outer loop
      vertex 9.34099 14.841 46.591
      vertex 10 13.25 85.5
      vertex 9.34099 14.841 85.5
    endloop
  endfacet
  facet normal 0.382776 -0.923841 0
    outer loop
      vertex 6.15901 14.841 4.5
      vertex 6.25 14.8787 43.3713
      vertex 6.15901 14.841 43.409
    endloop
  endfacet
  facet normal 0.382776 -0.923841 0
    outer loop
      vertex 6.25 14.8787 43.3713
      vertex 6.15901 14.841 4.5
      vertex 6.25 14.8787 4.5
    endloop
  endfacet
  facet normal 0.382776 -0.923841 0
    outer loop
      vertex 6.15901 14.841 85.5
      vertex 6.25 14.8787 46.6287
      vertex 6.25 14.8787 85.5
    endloop
  endfacet
  facet normal 0.382776 -0.923841 0
    outer loop
      vertex 6.25 14.8787 46.6287
      vertex 6.15901 14.841 85.5
      vertex 6.15901 14.841 46.591
    endloop
  endfacet
  facet normal -0.382776 -0.923841 0
    outer loop
      vertex 9.34099 14.841 4.5
      vertex 9.25 14.8787 43.3713
      vertex 9.25 14.8787 4.5
    endloop
  endfacet
  facet normal -0.382776 -0.923841 0
    outer loop
      vertex 9.25 14.8787 43.3713
      vertex 9.34099 14.841 4.5
      vertex 9.34099 14.841 43.409
    endloop
  endfacet
  facet normal -0.382776 -0.923841 0
    outer loop
      vertex 9.25 14.8787 46.6287
      vertex 9.34099 14.841 85.5
      vertex 9.25 14.8787 85.5
    endloop
  endfacet
  facet normal -0.382776 -0.923841 -0
    outer loop
      vertex 9.34099 14.841 85.5
      vertex 9.25 14.8787 46.6287
      vertex 9.34099 14.841 46.591
    endloop
  endfacet
  facet normal 0.92388 -0.382682 0
    outer loop
      vertex 5.5 13.25 4.5
      vertex 6.15901 14.841 43.409
      vertex 5.5 13.25 45
    endloop
  endfacet
  facet normal 0.92388 -0.382682 0
    outer loop
      vertex 6.15901 14.841 43.409
      vertex 5.5 13.25 4.5
      vertex 6.15901 14.841 4.5
    endloop
  endfacet
  facet normal 0.92388 -0.382682 0
    outer loop
      vertex 5.5 13.25 85.5
      vertex 6.15901 14.841 46.591
      vertex 6.15901 14.841 85.5
    endloop
  endfacet
  facet normal 0.92388 -0.382682 0
    outer loop
      vertex 6.15901 14.841 46.591
      vertex 5.5 13.25 85.5
      vertex 5.5 13.25 45
    endloop
  endfacet
  facet normal -0.92388 0.382682 0
    outer loop
      vertex 9.34099 11.659 0.659009
      vertex 10 13.25 0
      vertex 9.34099 11.659 0
    endloop
  endfacet
  facet normal -0.92388 0.382682 0
    outer loop
      vertex 10 13.25 0
      vertex 9.34099 11.659 0.659009
      vertex 10 13.25 2.25
    endloop
  endfacet
  facet normal -0.92388 0.382682 0
    outer loop
      vertex 9.34099 11.659 89.341
      vertex 10 13.25 90
      vertex 10 13.25 87.75
    endloop
  endfacet
  facet normal -0.92388 0.382682 0
    outer loop
      vertex 10 13.25 90
      vertex 9.34099 11.659 89.341
      vertex 9.34099 11.659 90
    endloop
  endfacet
  facet normal -0.92388 0.382682 0
    outer loop
      vertex 9.34099 11.659 3.84099
      vertex 10 13.25 4.5
      vertex 10 13.25 2.25
    endloop
  endfacet
  facet normal -0.92388 0.382682 0
    outer loop
      vertex 9.34099 11.659 43.409
      vertex 10 13.25 4.5
      vertex 9.34099 11.659 3.84099
    endloop
  endfacet
  facet normal -0.92388 0.382682 0
    outer loop
      vertex 10 13.25 4.5
      vertex 9.34099 11.659 43.409
      vertex 10 13.25 45
    endloop
  endfacet
  facet normal -0.92388 0.382682 0
    outer loop
      vertex 9.34099 11.659 46.591
      vertex 10 13.25 85.5
      vertex 10 13.25 45
    endloop
  endfacet
  facet normal -0.92388 0.382682 0
    outer loop
      vertex 9.34099 11.659 86.159
      vertex 10 13.25 85.5
      vertex 9.34099 11.659 46.591
    endloop
  endfacet
  facet normal -0.92388 0.382682 0
    outer loop
      vertex 10 13.25 85.5
      vertex 9.34099 11.659 86.159
      vertex 10 13.25 87.75
    endloop
  endfacet
  facet normal 0.382776 0.923841 0
    outer loop
      vertex 6.15901 11.659 0
      vertex 6.25 11.6213 0.621319
      vertex 6.25 11.6213 0
    endloop
  endfacet
  facet normal 0.382776 0.923841 0
    outer loop
      vertex 6.25 11.6213 0.621319
      vertex 6.15901 11.659 0
      vertex 6.15901 11.659 0.659009
    endloop
  endfacet
  facet normal 0.382776 0.923841 -0
    outer loop
      vertex 6.25 11.6213 89.3787
      vertex 6.15901 11.659 90
      vertex 6.25 11.6213 90
    endloop
  endfacet
  facet normal 0.382776 0.923841 0
    outer loop
      vertex 6.15901 11.659 90
      vertex 6.25 11.6213 89.3787
      vertex 6.15901 11.659 89.341
    endloop
  endfacet
  facet normal 0.382679 0.923882 -0
    outer loop
      vertex 7.75 11 4.5
      vertex 6.15901 11.659 43.409
      vertex 7.75 11 42.75
    endloop
  endfacet
  facet normal 0.382679 0.923882 0
    outer loop
      vertex 6.15901 11.659 43.409
      vertex 7.75 11 4.5
      vertex 6.15901 11.659 3.84099
    endloop
  endfacet
  facet normal 0.382679 0.923882 -0
    outer loop
      vertex 7.75 11 47.25
      vertex 6.15901 11.659 86.159
      vertex 7.75 11 85.5
    endloop
  endfacet
  facet normal 0.382679 0.923882 0
    outer loop
      vertex 6.15901 11.659 86.159
      vertex 7.75 11 47.25
      vertex 6.15901 11.659 46.591
    endloop
  endfacet
  facet normal 0.92388 0.382682 0
    outer loop
      vertex 6.15901 11.659 0.659009
      vertex 5.5 13.25 0
      vertex 5.5 13.25 2.25
    endloop
  endfacet
  facet normal 0.92388 0.382682 0
    outer loop
      vertex 5.5 13.25 0
      vertex 6.15901 11.659 0.659009
      vertex 6.15901 11.659 0
    endloop
  endfacet
  facet normal 0.92388 0.382682 -0
    outer loop
      vertex 6.15901 11.659 89.341
      vertex 5.5 13.25 90
      vertex 6.15901 11.659 90
    endloop
  endfacet
  facet normal 0.92388 0.382682 0
    outer loop
      vertex 5.5 13.25 90
      vertex 6.15901 11.659 89.341
      vertex 5.5 13.25 87.75
    endloop
  endfacet
  facet normal 0.92388 0.382682 0
    outer loop
      vertex 6.15901 11.659 43.409
      vertex 5.5 13.25 4.5
      vertex 5.5 13.25 45
    endloop
  endfacet
  facet normal 0.92388 0.382682 -0
    outer loop
      vertex 6.15901 11.659 3.84099
      vertex 5.5 13.25 4.5
      vertex 6.15901 11.659 43.409
    endloop
  endfacet
  facet normal 0.92388 0.382682 0
    outer loop
      vertex 5.5 13.25 4.5
      vertex 6.15901 11.659 3.84099
      vertex 5.5 13.25 2.25
    endloop
  endfacet
  facet normal 0.92388 0.382682 0
    outer loop
      vertex 6.15901 11.659 86.159
      vertex 5.5 13.25 85.5
      vertex 5.5 13.25 87.75
    endloop
  endfacet
  facet normal 0.92388 0.382682 -0
    outer loop
      vertex 6.15901 11.659 46.591
      vertex 5.5 13.25 85.5
      vertex 6.15901 11.659 86.159
    endloop
  endfacet
  facet normal 0.92388 0.382682 0
    outer loop
      vertex 5.5 13.25 85.5
      vertex 6.15901 11.659 46.591
      vertex 5.5 13.25 45
    endloop
  endfacet
  facet normal -0.382776 0.923841 0
    outer loop
      vertex 9.34099 11.659 90
      vertex 9.25 11.6213 89.3787
      vertex 9.25 11.6213 90
    endloop
  endfacet
  facet normal -0.382776 0.923841 0
    outer loop
      vertex 9.25 11.6213 89.3787
      vertex 9.34099 11.659 90
      vertex 9.34099 11.659 89.341
    endloop
  endfacet
  facet normal -0.382776 0.923841 0
    outer loop
      vertex 9.34099 11.659 0
      vertex 9.25 11.6213 0.62132
      vertex 9.34099 11.659 0.659009
    endloop
  endfacet
  facet normal -0.382776 0.923841 0
    outer loop
      vertex 9.25 11.6213 0.62132
      vertex 9.34099 11.659 0
      vertex 9.25 11.6213 0
    endloop
  endfacet
  facet normal -0.382679 0.923882 0
    outer loop
      vertex 9.34099 11.659 43.409
      vertex 7.75 11 4.5
      vertex 7.75 11 42.75
    endloop
  endfacet
  facet normal -0.382679 0.923882 0
    outer loop
      vertex 7.75 11 4.5
      vertex 9.34099 11.659 43.409
      vertex 9.34099 11.659 3.84099
    endloop
  endfacet
  facet normal -0.382679 0.923882 0
    outer loop
      vertex 9.34099 11.659 86.159
      vertex 7.75 11 47.25
      vertex 7.75 11 85.5
    endloop
  endfacet
  facet normal -0.382679 0.923882 0
    outer loop
      vertex 7.75 11 47.25
      vertex 9.34099 11.659 86.159
      vertex 9.34099 11.659 46.591
    endloop
  endfacet
  facet normal -0.923841 -0.382776 0
    outer loop
      vertex 14.8787 9.25 0
      vertex 14.841 9.34099 90
      vertex 14.841 9.34099 0
    endloop
  endfacet
  facet normal -0.923841 -0.382776 0
    outer loop
      vertex 14.841 9.34099 90
      vertex 14.8787 9.25 0
      vertex 14.8787 9.25 90
    endloop
  endfacet
  facet normal 0.382682 -0.92388 0
    outer loop
      vertex 11.659 9.34099 0
      vertex 13.25 10 90
      vertex 11.659 9.34099 90
    endloop
  endfacet
  facet normal 0.382682 -0.92388 0
    outer loop
      vertex 13.25 10 90
      vertex 11.659 9.34099 0
      vertex 13.25 10 0
    endloop
  endfacet
  facet normal -0.382682 -0.92388 0
    outer loop
      vertex 13.25 10 0
      vertex 14.841 9.34099 90
      vertex 13.25 10 90
    endloop
  endfacet
  facet normal -0.382682 -0.92388 -0
    outer loop
      vertex 14.841 9.34099 90
      vertex 13.25 10 0
      vertex 14.841 9.34099 0
    endloop
  endfacet
  facet normal 0.923882 -0.382679 0
    outer loop
      vertex 11 7.75 90
      vertex 11.659 9.34099 0
      vertex 11.659 9.34099 90
    endloop
  endfacet
  facet normal 0.923882 -0.382679 0
    outer loop
      vertex 11.659 9.34099 0
      vertex 11 7.75 90
      vertex 11 7.75 0
    endloop
  endfacet
  facet normal -0.923841 0.382776 0
    outer loop
      vertex 14.841 6.15901 0
      vertex 14.8787 6.25 90
      vertex 14.8787 6.25 0
    endloop
  endfacet
  facet normal -0.923841 0.382776 0
    outer loop
      vertex 14.8787 6.25 90
      vertex 14.841 6.15901 0
      vertex 14.841 6.15901 90
    endloop
  endfacet
  facet normal 0.382682 0.92388 -0
    outer loop
      vertex 13.25 5.5 0
      vertex 11.659 6.15901 90
      vertex 13.25 5.5 90
    endloop
  endfacet
  facet normal 0.382682 0.92388 0
    outer loop
      vertex 11.659 6.15901 90
      vertex 13.25 5.5 0
      vertex 11.659 6.15901 0
    endloop
  endfacet
  facet normal 0.923882 0.382679 0
    outer loop
      vertex 11.659 6.15901 90
      vertex 11 7.75 0
      vertex 11 7.75 90
    endloop
  endfacet
  facet normal 0.923882 0.382679 0
    outer loop
      vertex 11 7.75 0
      vertex 11.659 6.15901 90
      vertex 11.659 6.15901 0
    endloop
  endfacet
  facet normal -0.382682 0.92388 0
    outer loop
      vertex 14.841 6.15901 0
      vertex 13.25 5.5 90
      vertex 14.841 6.15901 90
    endloop
  endfacet
  facet normal -0.382682 0.92388 0
    outer loop
      vertex 13.25 5.5 90
      vertex 14.841 6.15901 0
      vertex 13.25 5.5 0
    endloop
  endfacet
  facet normal -0.923879 -0.382684 0
    outer loop
      vertex 4.5 7.75 0
      vertex 3.84099 9.34099 90
      vertex 3.84099 9.34099 0
    endloop
  endfacet
  facet normal -0.923879 -0.382684 0
    outer loop
      vertex 3.84099 9.34099 90
      vertex 4.5 7.75 0
      vertex 4.5 7.75 90
    endloop
  endfacet
  facet normal 0.382683 -0.92388 0
    outer loop
      vertex 0.659009 9.34099 0
      vertex 2.25 10 90
      vertex 0.659009 9.34099 90
    endloop
  endfacet
  facet normal 0.382683 -0.92388 0
    outer loop
      vertex 2.25 10 90
      vertex 0.659009 9.34099 0
      vertex 2.25 10 0
    endloop
  endfacet
  facet normal -0.382684 -0.923879 0
    outer loop
      vertex 2.25 10 0
      vertex 3.84099 9.34099 90
      vertex 2.25 10 90
    endloop
  endfacet
  facet normal -0.382684 -0.923879 -0
    outer loop
      vertex 3.84099 9.34099 90
      vertex 2.25 10 0
      vertex 3.84099 9.34099 0
    endloop
  endfacet
  facet normal 0.923881 -0.382681 0
    outer loop
      vertex 0.62132 9.25 90
      vertex 0.659009 9.34099 0
      vertex 0.659009 9.34099 90
    endloop
  endfacet
  facet normal 0.923881 -0.382681 0
    outer loop
      vertex 0.659009 9.34099 0
      vertex 0.62132 9.25 90
      vertex 0.62132 9.25 0
    endloop
  endfacet
  facet normal -0.923879 0.382684 0
    outer loop
      vertex 3.84099 6.15901 0
      vertex 4.5 7.75 90
      vertex 4.5 7.75 0
    endloop
  endfacet
  facet normal -0.923879 0.382684 0
    outer loop
      vertex 4.5 7.75 90
      vertex 3.84099 6.15901 0
      vertex 3.84099 6.15901 90
    endloop
  endfacet
  facet normal 0.382683 0.92388 -0
    outer loop
      vertex 2.25 5.5 0
      vertex 0.659009 6.15901 90
      vertex 2.25 5.5 90
    endloop
  endfacet
  facet normal 0.382683 0.92388 0
    outer loop
      vertex 0.659009 6.15901 90
      vertex 2.25 5.5 0
      vertex 0.659009 6.15901 0
    endloop
  endfacet
  facet normal 0.923877 0.38269 0
    outer loop
      vertex 0.659009 6.15901 90
      vertex 0.621319 6.25 0
      vertex 0.621319 6.25 90
    endloop
  endfacet
  facet normal 0.923877 0.38269 0
    outer loop
      vertex 0.621319 6.25 0
      vertex 0.659009 6.15901 90
      vertex 0.659009 6.15901 0
    endloop
  endfacet
  facet normal -0.382684 0.923879 0
    outer loop
      vertex 3.84099 6.15901 0
      vertex 2.25 5.5 90
      vertex 3.84099 6.15901 90
    endloop
  endfacet
  facet normal -0.382684 0.923879 0
    outer loop
      vertex 2.25 5.5 90
      vertex 3.84099 6.15901 0
      vertex 2.25 5.5 0
    endloop
  endfacet
  facet normal 1 -0 0
    outer loop
      vertex 6.25 0 43.3713
      vertex 6.25 0.621319 4.5
      vertex 6.25 0.621319 43.3713
    endloop
  endfacet
  facet normal 1 0 0
    outer loop
      vertex 6.25 0.621319 4.5
      vertex 6.25 0 43.3713
      vertex 6.25 0 4.5
    endloop
  endfacet
  facet normal 1 -0 0
    outer loop
      vertex 6.25 0 85.5
      vertex 6.25 0.621319 46.6287
      vertex 6.25 0.621319 85.5
    endloop
  endfacet
  facet normal 1 0 0
    outer loop
      vertex 6.25 0.621319 46.6287
      vertex 6.25 0 85.5
      vertex 6.25 0 46.6287
    endloop
  endfacet
  facet normal -1 0 0
    outer loop
      vertex 9.25 0 4.5
      vertex 9.25 0.62132 43.3713
      vertex 9.25 0.62132 4.5
    endloop
  endfacet
  facet normal -1 -0 0
    outer loop
      vertex 9.25 0.62132 43.3713
      vertex 9.25 0 4.5
      vertex 9.25 0 43.3713
    endloop
  endfacet
  facet normal -1 0 0
    outer loop
      vertex 9.25 0 46.6287
      vertex 9.25 0.62132 85.5
      vertex 9.25 0.62132 46.6287
    endloop
  endfacet
  facet normal -1 -0 0
    outer loop
      vertex 9.25 0.62132 85.5
      vertex 9.25 0 46.6287
      vertex 9.25 0 85.5
    endloop
  endfacet
  facet normal 1 -0 0
    outer loop
      vertex 6.25 14.8787 43.3713
      vertex 6.25 15.5 4.5
      vertex 6.25 15.5 43.3713
    endloop
  endfacet
  facet normal 1 0 0
    outer loop
      vertex 6.25 15.5 4.5
      vertex 6.25 14.8787 43.3713
      vertex 6.25 14.8787 4.5
    endloop
  endfacet
  facet normal 1 -0 0
    outer loop
      vertex 6.25 14.8787 85.5
      vertex 6.25 15.5 46.6287
      vertex 6.25 15.5 85.5
    endloop
  endfacet
  facet normal 1 0 0
    outer loop
      vertex 6.25 15.5 46.6287
      vertex 6.25 14.8787 85.5
      vertex 6.25 14.8787 46.6287
    endloop
  endfacet
  facet normal -1 0 0
    outer loop
      vertex 9.25 14.8787 4.5
      vertex 9.25 15.5 43.3713
      vertex 9.25 15.5 4.5
    endloop
  endfacet
  facet normal -1 -0 0
    outer loop
      vertex 9.25 15.5 43.3713
      vertex 9.25 14.8787 4.5
      vertex 9.25 14.8787 43.3713
    endloop
  endfacet
  facet normal -1 0 0
    outer loop
      vertex 9.25 14.8787 46.6287
      vertex 9.25 15.5 85.5
      vertex 9.25 15.5 46.6287
    endloop
  endfacet
  facet normal -1 -0 0
    outer loop
      vertex 9.25 15.5 85.5
      vertex 9.25 14.8787 46.6287
      vertex 9.25 14.8787 85.5
    endloop
  endfacet
  facet normal 0 1 -0
    outer loop
      vertex 15.5 6.25 0
      vertex 14.8787 6.25 90
      vertex 15.5 6.25 90
    endloop
  endfacet
  facet normal 0 1 0
    outer loop
      vertex 14.8787 6.25 90
      vertex 15.5 6.25 0
      vertex 14.8787 6.25 0
    endloop
  endfacet
  facet normal 0 -1 0
    outer loop
      vertex 14.8787 9.25 0
      vertex 15.5 9.25 90
      vertex 14.8787 9.25 90
    endloop
  endfacet
  facet normal 0 -1 -0
    outer loop
      vertex 15.5 9.25 90
      vertex 14.8787 9.25 0
      vertex 15.5 9.25 0
    endloop
  endfacet
  facet normal 0 1 -0
    outer loop
      vertex 0.621319 6.25 0
      vertex 0 6.25 90
      vertex 0.621319 6.25 90
    endloop
  endfacet
  facet normal 0 1 0
    outer loop
      vertex 0 6.25 90
      vertex 0.621319 6.25 0
      vertex 0 6.25 0
    endloop
  endfacet
  facet normal 0 -1 0
    outer loop
      vertex 0 9.25 0
      vertex 0.62132 9.25 90
      vertex 0 9.25 90
    endloop
  endfacet
  facet normal 0 -1 -0
    outer loop
      vertex 0.62132 9.25 90
      vertex 0 9.25 0
      vertex 0.62132 9.25 0
    endloop
  endfacet
  facet normal -0.923879 0 -0.382684
    outer loop
      vertex 10 13.25 2.25
      vertex 9.34099 3.84099 3.84099
      vertex 9.34099 11.659 3.84099
    endloop
  endfacet
  facet normal -0.923879 0 -0.382684
    outer loop
      vertex 9.34099 3.84099 3.84099
      vertex 10 13.25 2.25
      vertex 10 2.25 2.25
    endloop
  endfacet
  facet normal -0.382684 0 -0.923879
    outer loop
      vertex 7.75 4.5 4.5
      vertex 9.34099 11.659 3.84099
      vertex 9.34099 3.84099 3.84099
    endloop
  endfacet
  facet normal -0.382684 0 -0.923879
    outer loop
      vertex 9.34099 11.659 3.84099
      vertex 7.75 4.5 4.5
      vertex 7.75 11 4.5
    endloop
  endfacet
  facet normal 0.382684 0 -0.923879
    outer loop
      vertex 6.15901 3.84099 3.84099
      vertex 7.75 11 4.5
      vertex 7.75 4.5 4.5
    endloop
  endfacet
  facet normal 0.382684 0 -0.923879
    outer loop
      vertex 7.75 11 4.5
      vertex 6.15901 3.84099 3.84099
      vertex 6.15901 11.659 3.84099
    endloop
  endfacet
  facet normal -0.92388 0 0.382683
    outer loop
      vertex 9.34099 3.84099 0.659009
      vertex 10 13.25 2.25
      vertex 9.34099 11.659 0.659009
    endloop
  endfacet
  facet normal -0.92388 0 0.382683
    outer loop
      vertex 10 13.25 2.25
      vertex 9.34099 3.84099 0.659009
      vertex 10 2.25 2.25
    endloop
  endfacet
  facet normal 0.38269 0 0.923877
    outer loop
      vertex 6.15901 11.659 0.659009
      vertex 6.25 3.87868 0.621319
      vertex 6.25 11.6213 0.621319
    endloop
  endfacet
  facet normal 0.38269 0 0.923877
    outer loop
      vertex 6.25 3.87868 0.621319
      vertex 6.15901 11.659 0.659009
      vertex 6.15901 3.84099 0.659009
    endloop
  endfacet
  facet normal 0.923879 0 -0.382684
    outer loop
      vertex 6.15901 3.84099 3.84099
      vertex 5.5 13.25 2.25
      vertex 6.15901 11.659 3.84099
    endloop
  endfacet
  facet normal 0.923879 0 -0.382684
    outer loop
      vertex 5.5 13.25 2.25
      vertex 6.15901 3.84099 3.84099
      vertex 5.5 2.25 2.25
    endloop
  endfacet
  facet normal 0.92388 0 0.382683
    outer loop
      vertex 5.5 13.25 2.25
      vertex 6.15901 3.84099 0.659009
      vertex 6.15901 11.659 0.659009
    endloop
  endfacet
  facet normal 0.92388 0 0.382683
    outer loop
      vertex 6.15901 3.84099 0.659009
      vertex 5.5 13.25 2.25
      vertex 5.5 2.25 2.25
    endloop
  endfacet
  facet normal -0.382681 0 0.923881
    outer loop
      vertex 9.25 11.6213 0.62132
      vertex 9.34099 3.84099 0.659009
      vertex 9.34099 11.659 0.659009
    endloop
  endfacet
  facet normal -0.382681 0 0.923881
    outer loop
      vertex 9.34099 3.84099 0.659009
      vertex 9.25 11.6213 0.62132
      vertex 9.25 3.87868 0.62132
    endloop
  endfacet
  facet normal 1 0 0
    outer loop
      vertex 5.5 13.25 2.25
      vertex 5.5 15.5 4.5
      vertex 5.5 13.25 4.5
    endloop
  endfacet
  facet normal 1 0 0
    outer loop
      vertex 5.5 15.5 4.5
      vertex 5.5 13.25 2.25
      vertex 5.5 15.5 0
    endloop
  endfacet
  facet normal 1 0 0
    outer loop
      vertex 5.5 15.5 0
      vertex 5.5 13.25 2.25
      vertex 5.5 13.25 0
    endloop
  endfacet
  facet normal 0 0 -1
    outer loop
      vertex 9.34099 14.841 4.5
      vertex 10 15.5 4.5
      vertex 10 13.25 4.5
    endloop
  endfacet
  facet normal 0 0 -1
    outer loop
      vertex 9.25 15.5 4.5
      vertex 9.34099 14.841 4.5
      vertex 9.25 14.8787 4.5
    endloop
  endfacet
  facet normal 0 0 -1
    outer loop
      vertex 9.34099 14.841 4.5
      vertex 9.25 15.5 4.5
      vertex 10 15.5 4.5
    endloop
  endfacet
  facet normal 0 0 -1
    outer loop
      vertex 6.15901 14.841 4.5
      vertex 6.25 15.5 4.5
      vertex 6.25 14.8787 4.5
    endloop
  endfacet
  facet normal 0 0 -1
    outer loop
      vertex 5.5 15.5 4.5
      vertex 6.15901 14.841 4.5
      vertex 5.5 13.25 4.5
    endloop
  endfacet
  facet normal 0 0 -1
    outer loop
      vertex 6.15901 14.841 4.5
      vertex 5.5 15.5 4.5
      vertex 6.25 15.5 4.5
    endloop
  endfacet
  facet normal -1 0 0
    outer loop
      vertex 10 13.25 2.25
      vertex 10 15.5 0
      vertex 10 13.25 0
    endloop
  endfacet
  facet normal -1 0 0
    outer loop
      vertex 10 15.5 0
      vertex 10 13.25 2.25
      vertex 10 15.5 4.5
    endloop
  endfacet
  facet normal -1 -0 0
    outer loop
      vertex 10 15.5 4.5
      vertex 10 13.25 2.25
      vertex 10 13.25 4.5
    endloop
  endfacet
  facet normal 1 -0 0
    outer loop
      vertex 5.5 0 4.5
      vertex 5.5 2.25 2.25
      vertex 5.5 2.25 4.5
    endloop
  endfacet
  facet normal 1 0 0
    outer loop
      vertex 5.5 0 0
      vertex 5.5 2.25 2.25
      vertex 5.5 0 4.5
    endloop
  endfacet
  facet normal 1 0 0
    outer loop
      vertex 5.5 2.25 2.25
      vertex 5.5 0 0
      vertex 5.5 2.25 0
    endloop
  endfacet
  facet normal 0 0 -1
    outer loop
      vertex 10 0 4.5
      vertex 9.34099 0.659009 4.5
      vertex 10 2.25 4.5
    endloop
  endfacet
  facet normal 0 0 -1
    outer loop
      vertex 9.25 0 4.5
      vertex 9.34099 0.659009 4.5
      vertex 10 0 4.5
    endloop
  endfacet
  facet normal 0 0 -1
    outer loop
      vertex 9.34099 0.659009 4.5
      vertex 9.25 0 4.5
      vertex 9.25 0.62132 4.5
    endloop
  endfacet
  facet normal 0 0 -1
    outer loop
      vertex 6.25 0 4.5
      vertex 6.15901 0.659009 4.5
      vertex 6.25 0.621319 4.5
    endloop
  endfacet
  facet normal 0 0 -1
    outer loop
      vertex 5.5 0 4.5
      vertex 6.15901 0.659009 4.5
      vertex 6.25 0 4.5
    endloop
  endfacet
  facet normal -0 0 -1
    outer loop
      vertex 6.15901 0.659009 4.5
      vertex 5.5 0 4.5
      vertex 5.5 2.25 4.5
    endloop
  endfacet
  facet normal -1 0 0
    outer loop
      vertex 10 0 0
      vertex 10 2.25 2.25
      vertex 10 2.25 0
    endloop
  endfacet
  facet normal -1 0 0
    outer loop
      vertex 10 0 4.5
      vertex 10 2.25 2.25
      vertex 10 0 0
    endloop
  endfacet
  facet normal -1 0 0
    outer loop
      vertex 10 2.25 2.25
      vertex 10 0 4.5
      vertex 10 2.25 4.5
    endloop
  endfacet
  facet normal -1 0 0
    outer loop
      vertex 9.25 3.87868 0
      vertex 9.25 11.6213 0.62132
      vertex 9.25 11.6213 0
    endloop
  endfacet
  facet normal -1 -0 0
    outer loop
      vertex 9.25 11.6213 0.62132
      vertex 9.25 3.87868 0
      vertex 9.25 3.87868 0.62132
    endloop
  endfacet
  facet normal 1 -0 0
    outer loop
      vertex 6.25 3.87868 0.621319
      vertex 6.25 11.6213 0
      vertex 6.25 11.6213 0.621319
    endloop
  endfacet
  facet normal 1 0 0
    outer loop
      vertex 6.25 11.6213 0
      vertex 6.25 3.87868 0.621319
      vertex 6.25 3.87868 0
    endloop
  endfacet
  facet normal -0.92388 0 -0.382682
    outer loop
      vertex 10 13.25 87.75
      vertex 9.34099 3.84099 89.341
      vertex 9.34099 11.659 89.341
    endloop
  endfacet
  facet normal -0.92388 0 -0.382682
    outer loop
      vertex 9.34099 3.84099 89.341
      vertex 10 13.25 87.75
      vertex 10 2.25 87.75
    endloop
  endfacet
  facet normal -0.382776 0 -0.923841
    outer loop
      vertex 9.25 3.87868 89.3787
      vertex 9.34099 11.659 89.341
      vertex 9.34099 3.84099 89.341
    endloop
  endfacet
  facet normal -0.382776 0 -0.923841
    outer loop
      vertex 9.34099 11.659 89.341
      vertex 9.25 3.87868 89.3787
      vertex 9.25 11.6213 89.3787
    endloop
  endfacet
  facet normal 0.382776 0 -0.923841
    outer loop
      vertex 6.15901 3.84099 89.341
      vertex 6.25 11.6213 89.3787
      vertex 6.25 3.87868 89.3787
    endloop
  endfacet
  facet normal 0.382776 0 -0.923841
    outer loop
      vertex 6.25 11.6213 89.3787
      vertex 6.15901 3.84099 89.341
      vertex 6.15901 11.659 89.341
    endloop
  endfacet
  facet normal -0.92388 0 0.382682
    outer loop
      vertex 9.34099 3.84099 86.159
      vertex 10 13.25 87.75
      vertex 9.34099 11.659 86.159
    endloop
  endfacet
  facet normal -0.92388 0 0.382682
    outer loop
      vertex 10 13.25 87.75
      vertex 9.34099 3.84099 86.159
      vertex 10 2.25 87.75
    endloop
  endfacet
  facet normal 0.382679 0 0.923882
    outer loop
      vertex 6.15901 11.659 86.159
      vertex 7.75 4.5 85.5
      vertex 7.75 11 85.5
    endloop
  endfacet
  facet normal 0.382679 0 0.923882
    outer loop
      vertex 7.75 4.5 85.5
      vertex 6.15901 11.659 86.159
      vertex 6.15901 3.84099 86.159
    endloop
  endfacet
  facet normal 0.92388 0 -0.382682
    outer loop
      vertex 6.15901 3.84099 89.341
      vertex 5.5 13.25 87.75
      vertex 6.15901 11.659 89.341
    endloop
  endfacet
  facet normal 0.92388 0 -0.382682
    outer loop
      vertex 5.5 13.25 87.75
      vertex 6.15901 3.84099 89.341
      vertex 5.5 2.25 87.75
    endloop
  endfacet
  facet normal 0.92388 0 0.382682
    outer loop
      vertex 5.5 13.25 87.75
      vertex 6.15901 3.84099 86.159
      vertex 6.15901 11.659 86.159
    endloop
  endfacet
  facet normal 0.92388 0 0.382682
    outer loop
      vertex 6.15901 3.84099 86.159
      vertex 5.5 13.25 87.75
      vertex 5.5 2.25 87.75
    endloop
  endfacet
  facet normal -0.382679 0 0.923882
    outer loop
      vertex 7.75 11 85.5
      vertex 9.34099 3.84099 86.159
      vertex 9.34099 11.659 86.159
    endloop
  endfacet
  facet normal -0.382679 0 0.923882
    outer loop
      vertex 9.34099 3.84099 86.159
      vertex 7.75 11 85.5
      vertex 7.75 4.5 85.5
    endloop
  endfacet
  facet normal 1 0 0
    outer loop
      vertex 5.5 13.25 87.75
      vertex 5.5 15.5 90
      vertex 5.5 13.25 90
    endloop
  endfacet
  facet normal 1 0 0
    outer loop
      vertex 5.5 15.5 90
      vertex 5.5 13.25 87.75
      vertex 5.5 15.5 85.5
    endloop
  endfacet
  facet normal 1 0 0
    outer loop
      vertex 5.5 15.5 85.5
      vertex 5.5 13.25 87.75
      vertex 5.5 13.25 85.5
    endloop
  endfacet
  facet normal -1 0 0
    outer loop
      vertex 10 13.25 87.75
      vertex 10 15.5 85.5
      vertex 10 13.25 85.5
    endloop
  endfacet
  facet normal -1 0 0
    outer loop
      vertex 10 15.5 85.5
      vertex 10 13.25 87.75
      vertex 10 15.5 90
    endloop
  endfacet
  facet normal -1 -0 0
    outer loop
      vertex 10 15.5 90
      vertex 10 13.25 87.75
      vertex 10 13.25 90
    endloop
  endfacet
  facet normal 0 0 1
    outer loop
      vertex 6.25 15.5 85.5
      vertex 6.15901 14.841 85.5
      vertex 6.25 14.8787 85.5
    endloop
  endfacet
  facet normal -0 0 1
    outer loop
      vertex 5.5 15.5 85.5
      vertex 6.15901 14.841 85.5
      vertex 6.25 15.5 85.5
    endloop
  endfacet
  facet normal 0 0 1
    outer loop
      vertex 6.15901 14.841 85.5
      vertex 5.5 15.5 85.5
      vertex 5.5 13.25 85.5
    endloop
  endfacet
  facet normal 0 0 1
    outer loop
      vertex 10 15.5 85.5
      vertex 9.34099 14.841 85.5
      vertex 10 13.25 85.5
    endloop
  endfacet
  facet normal -0 0 1
    outer loop
      vertex 9.25 15.5 85.5
      vertex 9.34099 14.841 85.5
      vertex 10 15.5 85.5
    endloop
  endfacet
  facet normal 0 0 1
    outer loop
      vertex 9.34099 14.841 85.5
      vertex 9.25 15.5 85.5
      vertex 9.25 14.8787 85.5
    endloop
  endfacet
  facet normal 1 -0 0
    outer loop
      vertex 5.5 0 90
      vertex 5.5 2.25 87.75
      vertex 5.5 2.25 90
    endloop
  endfacet
  facet normal 1 0 0
    outer loop
      vertex 5.5 0 85.5
      vertex 5.5 2.25 87.75
      vertex 5.5 0 90
    endloop
  endfacet
  facet normal 1 0 0
    outer loop
      vertex 5.5 2.25 87.75
      vertex 5.5 0 85.5
      vertex 5.5 2.25 85.5
    endloop
  endfacet
  facet normal -1 0 0
    outer loop
      vertex 10 0 85.5
      vertex 10 2.25 87.75
      vertex 10 2.25 85.5
    endloop
  endfacet
  facet normal -1 0 0
    outer loop
      vertex 10 0 90
      vertex 10 2.25 87.75
      vertex 10 0 85.5
    endloop
  endfacet
  facet normal -1 0 0
    outer loop
      vertex 10 2.25 87.75
      vertex 10 0 90
      vertex 10 2.25 90
    endloop
  endfacet
  facet normal -0 0 1
    outer loop
      vertex 9.34099 0.659009 85.5
      vertex 10 0 85.5
      vertex 10 2.25 85.5
    endloop
  endfacet
  facet normal 0 0 1
    outer loop
      vertex 9.25 0 85.5
      vertex 9.34099 0.659009 85.5
      vertex 9.25 0.62132 85.5
    endloop
  endfacet
  facet normal 0 0 1
    outer loop
      vertex 9.34099 0.659009 85.5
      vertex 9.25 0 85.5
      vertex 10 0 85.5
    endloop
  endfacet
  facet normal 0 0 1
    outer loop
      vertex 6.15901 0.659009 85.5
      vertex 6.25 0 85.5
      vertex 6.25 0.621319 85.5
    endloop
  endfacet
  facet normal 0 0 1
    outer loop
      vertex 5.5 0 85.5
      vertex 6.15901 0.659009 85.5
      vertex 5.5 2.25 85.5
    endloop
  endfacet
  facet normal 0 0 1
    outer loop
      vertex 6.15901 0.659009 85.5
      vertex 5.5 0 85.5
      vertex 6.25 0 85.5
    endloop
  endfacet
  facet normal -1 0 0
    outer loop
      vertex 9.25 3.87868 89.3787
      vertex 9.25 11.6213 90
      vertex 9.25 11.6213 89.3787
    endloop
  endfacet
  facet normal -1 -0 0
    outer loop
      vertex 9.25 11.6213 90
      vertex 9.25 3.87868 89.3787
      vertex 9.25 3.87868 90
    endloop
  endfacet
  facet normal 1 -0 0
    outer loop
      vertex 6.25 3.87868 90
      vertex 6.25 11.6213 89.3787
      vertex 6.25 11.6213 90
    endloop
  endfacet
  facet normal 1 0 0
    outer loop
      vertex 6.25 11.6213 89.3787
      vertex 6.25 3.87868 90
      vertex 6.25 3.87868 89.3787
    endloop
  endfacet
  facet normal -0.92388 0 -0.382682
    outer loop
      vertex 10 15.5 45
      vertex 9.34099 14.841 46.591
      vertex 9.34099 15.5 46.591
    endloop
  endfacet
  facet normal -0.92388 0 -0.382682
    outer loop
      vertex 9.34099 14.841 46.591
      vertex 10 15.5 45
      vertex 10 13.25 45
    endloop
  endfacet
  facet normal -0.92388 0 -0.382682
    outer loop
      vertex 10 0 45
      vertex 9.34099 0.659009 46.591
      vertex 10 2.25 45
    endloop
  endfacet
  facet normal -0.92388 -0 -0.382682
    outer loop
      vertex 9.34099 0.659009 46.591
      vertex 10 0 45
      vertex 9.34099 0 46.591
    endloop
  endfacet
  facet normal -0.92388 0 -0.382682
    outer loop
      vertex 10 13.25 45
      vertex 9.34099 3.84099 46.591
      vertex 9.34099 11.659 46.591
    endloop
  endfacet
  facet normal -0.92388 0 -0.382682
    outer loop
      vertex 9.34099 3.84099 46.591
      vertex 10 13.25 45
      vertex 10 2.25 45
    endloop
  endfacet
  facet normal -0.382776 0 -0.923841
    outer loop
      vertex 9.25 14.8787 46.6287
      vertex 9.34099 15.5 46.591
      vertex 9.34099 14.841 46.591
    endloop
  endfacet
  facet normal -0.382776 0 -0.923841
    outer loop
      vertex 9.34099 15.5 46.591
      vertex 9.25 14.8787 46.6287
      vertex 9.25 15.5 46.6287
    endloop
  endfacet
  facet normal -0.382776 -0 -0.923841
    outer loop
      vertex 9.25 0.62132 46.6287
      vertex 9.34099 0 46.591
      vertex 9.25 0 46.6287
    endloop
  endfacet
  facet normal -0.382776 0 -0.923841
    outer loop
      vertex 9.34099 0 46.591
      vertex 9.25 0.62132 46.6287
      vertex 9.34099 0.659009 46.591
    endloop
  endfacet
  facet normal -0.382679 0 -0.923882
    outer loop
      vertex 7.75 4.5 47.25
      vertex 9.34099 11.659 46.591
      vertex 9.34099 3.84099 46.591
    endloop
  endfacet
  facet normal -0.382679 0 -0.923882
    outer loop
      vertex 9.34099 11.659 46.591
      vertex 7.75 4.5 47.25
      vertex 7.75 11 47.25
    endloop
  endfacet
  facet normal 0.382776 0 -0.923841
    outer loop
      vertex 6.15901 15.5 46.591
      vertex 6.25 14.8787 46.6287
      vertex 6.15901 14.841 46.591
    endloop
  endfacet
  facet normal 0.382776 0 -0.923841
    outer loop
      vertex 6.25 14.8787 46.6287
      vertex 6.15901 15.5 46.591
      vertex 6.25 15.5 46.6287
    endloop
  endfacet
  facet normal 0.382776 0 -0.923841
    outer loop
      vertex 6.15901 0 46.591
      vertex 6.25 0.621319 46.6287
      vertex 6.25 0 46.6287
    endloop
  endfacet
  facet normal 0.382776 0 -0.923841
    outer loop
      vertex 6.25 0.621319 46.6287
      vertex 6.15901 0 46.591
      vertex 6.15901 0.659009 46.591
    endloop
  endfacet
  facet normal 0.382679 0 -0.923882
    outer loop
      vertex 6.15901 3.84099 46.591
      vertex 7.75 11 47.25
      vertex 7.75 4.5 47.25
    endloop
  endfacet
  facet normal 0.382679 0 -0.923882
    outer loop
      vertex 7.75 11 47.25
      vertex 6.15901 3.84099 46.591
      vertex 6.15901 11.659 46.591
    endloop
  endfacet
  facet normal -0.92388 0 0.382682
    outer loop
      vertex 9.34099 14.841 43.409
      vertex 10 15.5 45
      vertex 9.34099 15.5 43.409
    endloop
  endfacet
  facet normal -0.92388 0 0.382682
    outer loop
      vertex 10 15.5 45
      vertex 9.34099 14.841 43.409
      vertex 10 13.25 45
    endloop
  endfacet
  facet normal -0.92388 0 0.382682
    outer loop
      vertex 10 0 45
      vertex 9.34099 0.659009 43.409
      vertex 9.34099 0 43.409
    endloop
  endfacet
  facet normal -0.92388 0 0.382682
    outer loop
      vertex 9.34099 0.659009 43.409
      vertex 10 0 45
      vertex 10 2.25 45
    endloop
  endfacet
  facet normal -0.92388 0 0.382682
    outer loop
      vertex 9.34099 3.84099 43.409
      vertex 10 13.25 45
      vertex 9.34099 11.659 43.409
    endloop
  endfacet
  facet normal -0.92388 0 0.382682
    outer loop
      vertex 10 13.25 45
      vertex 9.34099 3.84099 43.409
      vertex 10 2.25 45
    endloop
  endfacet
  facet normal 0.382776 0 0.923841
    outer loop
      vertex 6.15901 15.5 43.409
      vertex 6.25 14.8787 43.3713
      vertex 6.25 15.5 43.3713
    endloop
  endfacet
  facet normal 0.382776 0 0.923841
    outer loop
      vertex 6.25 14.8787 43.3713
      vertex 6.15901 15.5 43.409
      vertex 6.15901 14.841 43.409
    endloop
  endfacet
  facet normal 0.382776 -0 0.923841
    outer loop
      vertex 6.15901 0 43.409
      vertex 6.25 0.621319 43.3713
      vertex 6.15901 0.659009 43.409
    endloop
  endfacet
  facet normal 0.382776 0 0.923841
    outer loop
      vertex 6.25 0.621319 43.3713
      vertex 6.15901 0 43.409
      vertex 6.25 0 43.3713
    endloop
  endfacet
  facet normal 0.382679 0 0.923882
    outer loop
      vertex 6.15901 11.659 43.409
      vertex 7.75 4.5 42.75
      vertex 7.75 11 42.75
    endloop
  endfacet
  facet normal 0.382679 0 0.923882
    outer loop
      vertex 7.75 4.5 42.75
      vertex 6.15901 11.659 43.409
      vertex 6.15901 3.84099 43.409
    endloop
  endfacet
  facet normal 0.92388 0 -0.382682
    outer loop
      vertex 6.15901 14.841 46.591
      vertex 5.5 15.5 45
      vertex 6.15901 15.5 46.591
    endloop
  endfacet
  facet normal 0.92388 0 -0.382682
    outer loop
      vertex 5.5 15.5 45
      vertex 6.15901 14.841 46.591
      vertex 5.5 13.25 45
    endloop
  endfacet
  facet normal 0.92388 0 -0.382682
    outer loop
      vertex 5.5 0 45
      vertex 6.15901 0.659009 46.591
      vertex 6.15901 0 46.591
    endloop
  endfacet
  facet normal 0.92388 0 -0.382682
    outer loop
      vertex 6.15901 0.659009 46.591
      vertex 5.5 0 45
      vertex 5.5 2.25 45
    endloop
  endfacet
  facet normal 0.92388 0 -0.382682
    outer loop
      vertex 6.15901 3.84099 46.591
      vertex 5.5 13.25 45
      vertex 6.15901 11.659 46.591
    endloop
  endfacet
  facet normal 0.92388 0 -0.382682
    outer loop
      vertex 5.5 13.25 45
      vertex 6.15901 3.84099 46.591
      vertex 5.5 2.25 45
    endloop
  endfacet
  facet normal 0.92388 0 0.382682
    outer loop
      vertex 5.5 15.5 45
      vertex 6.15901 14.841 43.409
      vertex 6.15901 15.5 43.409
    endloop
  endfacet
  facet normal 0.92388 0 0.382682
    outer loop
      vertex 6.15901 14.841 43.409
      vertex 5.5 15.5 45
      vertex 5.5 13.25 45
    endloop
  endfacet
  facet normal 0.92388 -0 0.382682
    outer loop
      vertex 5.5 0 45
      vertex 6.15901 0.659009 43.409
      vertex 5.5 2.25 45
    endloop
  endfacet
  facet normal 0.92388 0 0.382682
    outer loop
      vertex 6.15901 0.659009 43.409
      vertex 5.5 0 45
      vertex 6.15901 0 43.409
    endloop
  endfacet
  facet normal 0.92388 0 0.382682
    outer loop
      vertex 5.5 13.25 45
      vertex 6.15901 3.84099 43.409
      vertex 6.15901 11.659 43.409
    endloop
  endfacet
  facet normal 0.92388 0 0.382682
    outer loop
      vertex 6.15901 3.84099 43.409
      vertex 5.5 13.25 45
      vertex 5.5 2.25 45
    endloop
  endfacet
  facet normal -0.382776 0 0.923841
    outer loop
      vertex 9.25 0.62132 43.3713
      vertex 9.34099 0 43.409
      vertex 9.34099 0.659009 43.409
    endloop
  endfacet
  facet normal -0.382776 0 0.923841
    outer loop
      vertex 9.34099 0 43.409
      vertex 9.25 0.62132 43.3713
      vertex 9.25 0 43.3713
    endloop
  endfacet
  facet normal -0.382776 0 0.923841
    outer loop
      vertex 9.25 14.8787 43.3713
      vertex 9.34099 15.5 43.409
      vertex 9.25 15.5 43.3713
    endloop
  endfacet
  facet normal -0.382776 0 0.923841
    outer loop
      vertex 9.34099 15.5 43.409
      vertex 9.25 14.8787 43.3713
      vertex 9.34099 14.841 43.409
    endloop
  endfacet
  facet normal -0.382679 0 0.923882
    outer loop
      vertex 7.75 11 42.75
      vertex 9.34099 3.84099 43.409
      vertex 9.34099 11.659 43.409
    endloop
  endfacet
  facet normal -0.382679 0 0.923882
    outer loop
      vertex 9.34099 3.84099 43.409
      vertex 7.75 11 42.75
      vertex 7.75 4.5 42.75
    endloop
  endfacet
endsolid OpenSCAD_Model
