solid OpenSCAD_Model
  facet normal -1 0 0
    outer loop
      vertex 0 0 0
      vertex 0 6 30
      vertex 0 6 0
    endloop
  endfacet
  facet normal -1 -0 0
    outer loop
      vertex 0 6 30
      vertex 0 0 0
      vertex 0 0 30
    endloop
  endfacet
  facet normal -1 0 0
    outer loop
      vertex 0 9 0
      vertex 0 15 30
      vertex 0 15 0
    endloop
  endfacet
  facet normal -1 -0 0
    outer loop
      vertex 0 15 30
      vertex 0 9 0
      vertex 0 9 30
    endloop
  endfacet
  facet normal 0 0 1
    outer loop
      vertex 1.53271 5.45265 30
      vertex 2.54182 5.64111 30
      vertex 2.55276 5.68547 30
    endloop
  endfacet
  facet normal -0 0 1
    outer loop
      vertex 1.53271 5.45265 30
      vertex 1.27226 4.20806 30
      vertex 2.54182 5.64111 30
    endloop
  endfacet
  facet normal 0 0 1
    outer loop
      vertex 1.53271 5.45265 30
      vertex 1 4.10481 30
      vertex 1.27226 4.20806 30
    endloop
  endfacet
  facet normal -0 0 1
    outer loop
      vertex 0 6 30
      vertex 1 4.10481 30
      vertex 0.846351 6 30
    endloop
  endfacet
  facet normal 0 0 1
    outer loop
      vertex 0.846351 6 30
      vertex 1 4.10481 30
      vertex 1.53271 5.45265 30
    endloop
  endfacet
  facet normal 0 0 1
    outer loop
      vertex 5.60796 2.41315 30
      vertex 4.50596 1.65249 30
      vertex 5.60796 1.08884 30
    endloop
  endfacet
  facet normal 0 0 1
    outer loop
      vertex 5.60796 1.08884 30
      vertex 6 0 30
      vertex 6 0.776206 30
    endloop
  endfacet
  facet normal 0 0 1
    outer loop
      vertex 4.1635 1 30
      vertex 5.60796 1.08884 30
      vertex 4.50596 1.65249 30
    endloop
  endfacet
  facet normal 0 0 1
    outer loop
      vertex 5.60796 1.08884 30
      vertex 4.1635 1 30
      vertex 6 0 30
    endloop
  endfacet
  facet normal 0 0 1
    outer loop
      vertex 0 0 30
      vertex 4.1635 1 30
      vertex 1 1 30
    endloop
  endfacet
  facet normal 0 0 1
    outer loop
      vertex 0 0 30
      vertex 1 4.10481 30
      vertex 0 6 30
    endloop
  endfacet
  facet normal 0 0 1
    outer loop
      vertex 4.1635 1 30
      vertex 0 0 30
      vertex 6 0 30
    endloop
  endfacet
  facet normal 0 0 1
    outer loop
      vertex 1 4.10481 30
      vertex 0 0 30
      vertex 1 1 30
    endloop
  endfacet
  facet normal -0 0 1
    outer loop
      vertex 14 10.8386 30
      vertex 15 9 30
      vertex 15 15 30
    endloop
  endfacet
  facet normal -0 -0 1
    outer loop
      vertex 14.3093 9.14185 30
      vertex 15 9 30
      vertex 14 10.8386 30
    endloop
  endfacet
  facet normal 0 0 1
    outer loop
      vertex 14 10.8386 30
      vertex 15 15 30
      vertex 14 14 30
    endloop
  endfacet
  facet normal 0 0 1
    outer loop
      vertex 15 15 30
      vertex 10.9168 14 30
      vertex 14 14 30
    endloop
  endfacet
  facet normal 0 0 1
    outer loop
      vertex 10.9168 14 30
      vertex 9.6 13 30
      vertex 9.77226 12.7081 30
    endloop
  endfacet
  facet normal -0 0 1
    outer loop
      vertex 9 15 30
      vertex 10.9168 14 30
      vertex 15 15 30
    endloop
  endfacet
  facet normal -0 0 1
    outer loop
      vertex 9 14.2459 30
      vertex 10.9168 14 30
      vertex 9 15 30
    endloop
  endfacet
  facet normal 0 0 1
    outer loop
      vertex 10.9168 14 30
      vertex 9 14.2459 30
      vertex 9.6 13 30
    endloop
  endfacet
  facet normal 0 0 1
    outer loop
      vertex 15 9 30
      vertex 14.3093 9.14185 30
      vertex 14.3776 9 30
    endloop
  endfacet
  facet normal -0 0 1
    outer loop
      vertex 13.006 10.1525 30
      vertex 14.3093 9.14185 30
      vertex 14 10.8386 30
    endloop
  endfacet
  facet normal 0 0 1
    outer loop
      vertex 14.3093 9.14185 30
      vertex 13.006 10.1525 30
      vertex 12.6717 9.51562 30
    endloop
  endfacet
  facet normal 0 0 1
    outer loop
      vertex 9.77226 12.7081 30
      vertex 9.6 13 30
      vertex 9.38951 12.5629 30
    endloop
  endfacet
  facet normal 0 0 1
    outer loop
      vertex 6 15 30
      vertex 5.60796 13.9112 30
      vertex 6 14.2238 30
    endloop
  endfacet
  facet normal 0 0 1
    outer loop
      vertex 5.60796 13.9112 30
      vertex 4.50596 13.3475 30
      vertex 5.60796 12.5868 30
    endloop
  endfacet
  facet normal -0 0 1
    outer loop
      vertex 4.1635 14 30
      vertex 5.60796 13.9112 30
      vertex 6 15 30
    endloop
  endfacet
  facet normal 0 0 1
    outer loop
      vertex 5.60796 13.9112 30
      vertex 4.1635 14 30
      vertex 4.50596 13.3475 30
    endloop
  endfacet
  facet normal -0 0 1
    outer loop
      vertex 0 15 30
      vertex 4.1635 14 30
      vertex 6 15 30
    endloop
  endfacet
  facet normal 0 0 1
    outer loop
      vertex 0 15 30
      vertex 1 10.8952 30
      vertex 1 14 30
    endloop
  endfacet
  facet normal 0 0 1
    outer loop
      vertex 4.1635 14 30
      vertex 0 15 30
      vertex 1 14 30
    endloop
  endfacet
  facet normal 0 0 1
    outer loop
      vertex 1 10.8952 30
      vertex 0 15 30
      vertex 0 9 30
    endloop
  endfacet
  facet normal 0 0 1
    outer loop
      vertex 1 10.8952 30
      vertex 0 9 30
      vertex 0.846352 9 30
    endloop
  endfacet
  facet normal 0 0 1
    outer loop
      vertex 2.54182 9.35889 30
      vertex 1.53271 9.54735 30
      vertex 2.55276 9.31453 30
    endloop
  endfacet
  facet normal 0 0 1
    outer loop
      vertex 1.27226 10.7919 30
      vertex 1.53271 9.54735 30
      vertex 2.54182 9.35889 30
    endloop
  endfacet
  facet normal 0 0 1
    outer loop
      vertex 1 10.8952 30
      vertex 1.53271 9.54735 30
      vertex 1.27226 10.7919 30
    endloop
  endfacet
  facet normal 0 0 1
    outer loop
      vertex 1.53271 9.54735 30
      vertex 1 10.8952 30
      vertex 0.846352 9 30
    endloop
  endfacet
  facet normal 0 0 1
    outer loop
      vertex 9.77226 2.29193 30
      vertex 9.38951 2.43709 30
      vertex 9.6 2 30
    endloop
  endfacet
  facet normal 0 0 1
    outer loop
      vertex 14.3093 5.85815 30
      vertex 13.006 4.84751 30
      vertex 14 4.16137 30
    endloop
  endfacet
  facet normal 0 -0 1
    outer loop
      vertex 13.006 4.84751 30
      vertex 14.3093 5.85815 30
      vertex 12.6717 5.48438 30
    endloop
  endfacet
  facet normal 0 0 1
    outer loop
      vertex 14.3093 5.85815 30
      vertex 15 6 30
      vertex 14.3776 6 30
    endloop
  endfacet
  facet normal 0 0 1
    outer loop
      vertex 15 6 30
      vertex 14.3093 5.85815 30
      vertex 14 4.16137 30
    endloop
  endfacet
  facet normal 0 0 1
    outer loop
      vertex 15 6 30
      vertex 14 4.16137 30
      vertex 15 0 30
    endloop
  endfacet
  facet normal -0 0 1
    outer loop
      vertex 14 1 30
      vertex 15 0 30
      vertex 14 4.16137 30
    endloop
  endfacet
  facet normal -0 0 1
    outer loop
      vertex 10.9168 1 30
      vertex 15 0 30
      vertex 14 1 30
    endloop
  endfacet
  facet normal -0 0 1
    outer loop
      vertex 9.6 2 30
      vertex 10.9168 1 30
      vertex 9.77226 2.29193 30
    endloop
  endfacet
  facet normal 0 0 1
    outer loop
      vertex 9 0.754088 30
      vertex 10.9168 1 30
      vertex 9.6 2 30
    endloop
  endfacet
  facet normal 0 0 1
    outer loop
      vertex 9 0 30
      vertex 10.9168 1 30
      vertex 9 0.754088 30
    endloop
  endfacet
  facet normal 0 0 1
    outer loop
      vertex 10.9168 1 30
      vertex 9 0 30
      vertex 15 0 30
    endloop
  endfacet
  facet normal 0 0 -1
    outer loop
      vertex 7.98215 2.97083 30
      vertex 8.80933 3.64185 30
      vertex 9.38951 2.43709 30
    endloop
  endfacet
  facet normal 0 0 -1
    outer loop
      vertex 7.98215 2.97083 30
      vertex 7.03271 4.04735 30
      vertex 8.80933 3.64185 30
    endloop
  endfacet
  facet normal 0 0 -1
    outer loop
      vertex 6.08158 2.74006 30
      vertex 7.03271 4.04735 30
      vertex 7.98215 2.97083 30
    endloop
  endfacet
  facet normal 0 0 -1
    outer loop
      vertex 5.60796 2.91116 30
      vertex 6.08158 2.74006 30
      vertex 5.60796 2.41315 30
    endloop
  endfacet
  facet normal 0 0 -1
    outer loop
      vertex 6.08158 2.74006 30
      vertex 5.60796 2.91116 30
      vertex 7.03271 4.04735 30
    endloop
  endfacet
  facet normal 0 0 -1
    outer loop
      vertex 8.80933 11.3582 30
      vertex 7.98215 12.0292 30
      vertex 9.38951 12.5629 30
    endloop
  endfacet
  facet normal 0 0 -1
    outer loop
      vertex 7.03271 10.9527 30
      vertex 7.98215 12.0292 30
      vertex 8.80933 11.3582 30
    endloop
  endfacet
  facet normal 0 0 -1
    outer loop
      vertex 7.03271 10.9527 30
      vertex 6.08158 12.2599 30
      vertex 7.98215 12.0292 30
    endloop
  endfacet
  facet normal 0 0 -1
    outer loop
      vertex 5.60796 12.0888 30
      vertex 6.08158 12.2599 30
      vertex 7.03271 10.9527 30
    endloop
  endfacet
  facet normal -0 0 -1
    outer loop
      vertex 6.08158 12.2599 30
      vertex 5.60796 12.0888 30
      vertex 5.60796 12.5868 30
    endloop
  endfacet
  facet normal 0 0 -1
    outer loop
      vertex 12.5327 5.45265 30
      vertex 12.1162 6.54274 30
      vertex 12.6717 5.48438 30
    endloop
  endfacet
  facet normal 0 0 -1
    outer loop
      vertex 12.1162 6.54274 30
      vertex 11.108 6.58884 30
      vertex 12.1162 8.45726 30
    endloop
  endfacet
  facet normal 0 0 -1
    outer loop
      vertex 11.108 6.58884 30
      vertex 12.1162 6.54274 30
      vertex 12.5327 5.45265 30
    endloop
  endfacet
  facet normal 0 0 -1
    outer loop
      vertex 12.1162 8.45726 30
      vertex 12.5327 9.54735 30
      vertex 12.6717 9.51562 30
    endloop
  endfacet
  facet normal 0 0 -1
    outer loop
      vertex 11.108 8.41116 30
      vertex 12.1162 8.45726 30
      vertex 11.108 6.58884 30
    endloop
  endfacet
  facet normal -0 0 -1
    outer loop
      vertex 12.1162 8.45726 30
      vertex 11.108 8.41116 30
      vertex 12.5327 9.54735 30
    endloop
  endfacet
  facet normal 0 0 -1
    outer loop
      vertex 3 7.5 30
      vertex 4.1 7.5 30
      vertex 3.30933 5.85815 30
    endloop
  endfacet
  facet normal 0 0 -1
    outer loop
      vertex 4.1 7.5 30
      vertex 3 7.5 30
      vertex 3.30933 9.14185 30
    endloop
  endfacet
  facet normal 0 -0 -1
    outer loop
      vertex 3 7.5 30
      vertex 3.30933 5.85815 30
      vertex 2.55276 5.68547 30
    endloop
  endfacet
  facet normal -0 0 -1
    outer loop
      vertex 3.30933 9.14185 30
      vertex 3 7.5 30
      vertex 2.55276 9.31453 30
    endloop
  endfacet
  facet normal 1 -0 0
    outer loop
      vertex 15 0 30
      vertex 15 6 0
      vertex 15 6 30
    endloop
  endfacet
  facet normal 1 0 0
    outer loop
      vertex 15 6 0
      vertex 15 0 30
      vertex 15 0 0
    endloop
  endfacet
  facet normal 1 -0 0
    outer loop
      vertex 15 9 30
      vertex 15 15 0
      vertex 15 15 30
    endloop
  endfacet
  facet normal 1 0 0
    outer loop
      vertex 15 15 0
      vertex 15 9 30
      vertex 15 9 0
    endloop
  endfacet
  facet normal 0 0 -1
    outer loop
      vertex 0 0 0
      vertex 5.5 2.2 0
      vertex 5.5 0 0
    endloop
  endfacet
  facet normal 0 0 -1
    outer loop
      vertex 5.5 2.2 0
      vertex 4.1 7.5 0
      vertex 5.5 13 0
    endloop
  endfacet
  facet normal 0 0 -1
    outer loop
      vertex 3.30933 9.14185 0
      vertex 5.5 13 0
      vertex 4.1 7.5 0
    endloop
  endfacet
  facet normal 0 0 -1
    outer loop
      vertex 5.5 2.2 0
      vertex 3.30933 5.85815 0
      vertex 4.1 7.5 0
    endloop
  endfacet
  facet normal 0 0 -1
    outer loop
      vertex 5.5 2.2 0
      vertex 1.53271 5.45265 0
      vertex 3.30933 5.85815 0
    endloop
  endfacet
  facet normal -0 0 -1
    outer loop
      vertex 5.5 2.2 0
      vertex 0 0 0
      vertex 1.53271 5.45265 0
    endloop
  endfacet
  facet normal 0 0 -1
    outer loop
      vertex 0 6 0
      vertex 1.53271 5.45265 0
      vertex 0 0 0
    endloop
  endfacet
  facet normal 0 0 -1
    outer loop
      vertex 1.53271 5.45265 0
      vertex 0 6 0
      vertex 0.846351 6 0
    endloop
  endfacet
  facet normal 0 0 -1
    outer loop
      vertex 5.5 2.2 0
      vertex 5.60796 2.91116 0
      vertex 5.60796 2.2 0
    endloop
  endfacet
  facet normal -0 0 -1
    outer loop
      vertex 5.60796 2.91116 0
      vertex 5.5 2.2 0
      vertex 5.60796 12.0888 0
    endloop
  endfacet
  facet normal 0 0 -1
    outer loop
      vertex 5.5 13 0
      vertex 5.60796 12.0888 0
      vertex 5.5 2.2 0
    endloop
  endfacet
  facet normal 0 0 -1
    outer loop
      vertex 5.60796 12.0888 0
      vertex 5.5 13 0
      vertex 5.60796 13 0
    endloop
  endfacet
  facet normal 0 0 -1
    outer loop
      vertex 5.60796 2.91116 0
      vertex 6 11.7762 0
      vertex 6 3.22379 0
    endloop
  endfacet
  facet normal -0 0 -1
    outer loop
      vertex 6 11.7762 0
      vertex 5.60796 2.91116 0
      vertex 5.60796 12.0888 0
    endloop
  endfacet
  facet normal 0 0 -1
    outer loop
      vertex 1.53271 9.54735 0
      vertex 5.5 13 0
      vertex 3.30933 9.14185 0
    endloop
  endfacet
  facet normal 0 0 -1
    outer loop
      vertex 0 15 0
      vertex 5.5 13 0
      vertex 1.53271 9.54735 0
    endloop
  endfacet
  facet normal 0 0 -1
    outer loop
      vertex 0 9 0
      vertex 1.53271 9.54735 0
      vertex 0.846352 9 0
    endloop
  endfacet
  facet normal -0 0 -1
    outer loop
      vertex 1.53271 9.54735 0
      vertex 0 9 0
      vertex 0 15 0
    endloop
  endfacet
  facet normal 0 0 -1
    outer loop
      vertex 5.5 13 0
      vertex 0 15 0
      vertex 5.5 15 0
    endloop
  endfacet
  facet normal 0 0 -1
    outer loop
      vertex 14.3093 5.85815 0
      vertex 15 6 0
      vertex 15 0 0
    endloop
  endfacet
  facet normal -0 0 -1
    outer loop
      vertex 15 6 0
      vertex 14.3093 5.85815 0
      vertex 14.3776 6 0
    endloop
  endfacet
  facet normal 0 0 -1
    outer loop
      vertex 15 0 0
      vertex 12.5327 5.45265 0
      vertex 14.3093 5.85815 0
    endloop
  endfacet
  facet normal 0 0 -1
    outer loop
      vertex 9.7 2.2 0
      vertex 12.5327 5.45265 0
      vertex 15 0 0
    endloop
  endfacet
  facet normal 0 0 -1
    outer loop
      vertex 9 3.24591 0
      vertex 12.5327 5.45265 0
      vertex 9.7 2.2 0
    endloop
  endfacet
  facet normal 0 0 -1
    outer loop
      vertex 9.7 2.2 0
      vertex 15 0 0
      vertex 9.7 0 0
    endloop
  endfacet
  facet normal 0 0 -1
    outer loop
      vertex 14.3093 9.14185 0
      vertex 15 9 0
      vertex 14.3776 9 0
    endloop
  endfacet
  facet normal 0 0 -1
    outer loop
      vertex 15 9 0
      vertex 14.3093 9.14185 0
      vertex 15 15 0
    endloop
  endfacet
  facet normal 0 0 -1
    outer loop
      vertex 12.5327 9.54735 0
      vertex 15 15 0
      vertex 14.3093 9.14185 0
    endloop
  endfacet
  facet normal 0 0 -1
    outer loop
      vertex 9 11.7541 0
      vertex 12.5327 9.54735 0
      vertex 11.108 8.41116 0
    endloop
  endfacet
  facet normal -0 0 -1
    outer loop
      vertex 12.5327 5.45265 0
      vertex 9 3.24591 0
      vertex 11.108 6.58884 0
    endloop
  endfacet
  facet normal -0 0 -1
    outer loop
      vertex 11.108 6.58884 0
      vertex 9 3.24591 0
      vertex 11.108 8.41116 0
    endloop
  endfacet
  facet normal 0 0 -1
    outer loop
      vertex 12.5327 9.54735 0
      vertex 9.7 13 0
      vertex 15 15 0
    endloop
  endfacet
  facet normal -0 0 -1
    outer loop
      vertex 15 15 0
      vertex 9.7 13 0
      vertex 9.7 15 0
    endloop
  endfacet
  facet normal 0 0 -1
    outer loop
      vertex 12.5327 9.54735 0
      vertex 9 11.7541 0
      vertex 9.7 13 0
    endloop
  endfacet
  facet normal 0 0 -1
    outer loop
      vertex 9 3.24591 0
      vertex 9.7 2.2 0
      vertex 9.50368 2.2 0
    endloop
  endfacet
  facet normal -0 0 -1
    outer loop
      vertex 11.108 8.41116 0
      vertex 9 3.24591 0
      vertex 9 11.7541 0
    endloop
  endfacet
  facet normal -0 0 -1
    outer loop
      vertex 9.7 13 0
      vertex 9 11.7541 0
      vertex 9.6 13 0
    endloop
  endfacet
  facet normal 0 -1 0
    outer loop
      vertex 9.7 0 4.2
      vertex 9 0 30
      vertex 9 0 4.2
    endloop
  endfacet
  facet normal 0 -1 0
    outer loop
      vertex 9 0 30
      vertex 9.7 0 4.2
      vertex 15 0 30
    endloop
  endfacet
  facet normal 0 -1 0
    outer loop
      vertex 15 0 0
      vertex 9.7 0 4.2
      vertex 9.7 0 0
    endloop
  endfacet
  facet normal 0 -1 0
    outer loop
      vertex 9.7 0 4.2
      vertex 15 0 0
      vertex 15 0 30
    endloop
  endfacet
  facet normal 0 -1 0
    outer loop
      vertex 0 0 30
      vertex 5.5 0 4.2
      vertex 6 0 30
    endloop
  endfacet
  facet normal 0 -1 0
    outer loop
      vertex 0 0 0
      vertex 5.5 0 4.2
      vertex 0 0 30
    endloop
  endfacet
  facet normal 0 -1 -0
    outer loop
      vertex 5.5 0 4.2
      vertex 0 0 0
      vertex 5.5 0 0
    endloop
  endfacet
  facet normal 0 -1 -0
    outer loop
      vertex 6 0 30
      vertex 5.5 0 4.2
      vertex 6 0 4.2
    endloop
  endfacet
  facet normal 0 1 0
    outer loop
      vertex 15 15 30
      vertex 9.7 15 4.2
      vertex 9 15 30
    endloop
  endfacet
  facet normal 0 1 -0
    outer loop
      vertex 15 15 0
      vertex 9.7 15 4.2
      vertex 15 15 30
    endloop
  endfacet
  facet normal 0 1 0
    outer loop
      vertex 9.7 15 4.2
      vertex 15 15 0
      vertex 9.7 15 0
    endloop
  endfacet
  facet normal 0 1 0
    outer loop
      vertex 9 15 30
      vertex 9.7 15 4.2
      vertex 9 15 4.2
    endloop
  endfacet
  facet normal 0 1 0
    outer loop
      vertex 5.5 15 4.2
      vertex 6 15 30
      vertex 6 15 4.2
    endloop
  endfacet
  facet normal 0 1 0
    outer loop
      vertex 6 15 30
      vertex 5.5 15 4.2
      vertex 0 15 30
    endloop
  endfacet
  facet normal 0 1 0
    outer loop
      vertex 0 15 0
      vertex 5.5 15 4.2
      vertex 5.5 15 0
    endloop
  endfacet
  facet normal 0 1 0
    outer loop
      vertex 5.5 15 4.2
      vertex 0 15 0
      vertex 0 15 30
    endloop
  endfacet
  facet normal -0.900971 -0.433879 0
    outer loop
      vertex 9.50368 2.2 4.2
      vertex 8.80933 3.64185 30
      vertex 8.80933 3.64185 3.64185
    endloop
  endfacet
  facet normal -0.900971 -0.433879 -0
    outer loop
      vertex 9.50368 2.2 4.2
      vertex 8.80933 3.64185 3.64185
      vertex 9.50368 2.2 2.2
    endloop
  endfacet
  facet normal -0.900969 -0.433883 2.1528e-07
    outer loop
      vertex 8.80933 3.64185 30
      vertex 9.50368 2.2 4.2
      vertex 9.38951 2.43709 30
    endloop
  endfacet
  facet normal -0.90096 -0.433902 4.38048e-07
    outer loop
      vertex 9.6 2 4.2
      vertex 9.38951 2.43709 30
      vertex 9.50368 2.2 4.2
    endloop
  endfacet
  facet normal -0.90097 -0.433881 0
    outer loop
      vertex 9.38951 2.43709 30
      vertex 9.6 2 4.2
      vertex 9.6 2 30
    endloop
  endfacet
  facet normal -0.90097 -0.433881 0
    outer loop
      vertex 9.50368 2.2 0
      vertex 9 3.24591 0.754088
      vertex 9 3.24591 0
    endloop
  endfacet
  facet normal -0.90097 -0.433881 0
    outer loop
      vertex 9 3.24591 0.754088
      vertex 9.50368 2.2 0
      vertex 9.50368 2.2 1.8
    endloop
  endfacet
  facet normal 1 -0 0
    outer loop
      vertex 5.60796 1.08884 30
      vertex 5.60796 2.2 4.2
      vertex 5.60796 2.41315 30
    endloop
  endfacet
  facet normal 1 0 0
    outer loop
      vertex 5.60796 2.2 4.2
      vertex 5.60796 1.08884 30
      vertex 5.60796 1.08884 4.2
    endloop
  endfacet
  facet normal 1 -0 0
    outer loop
      vertex 5.60796 2.2 4.2
      vertex 5.60796 2.91116 2.91116
      vertex 5.60796 2.91116 30
    endloop
  endfacet
  facet normal 1 0 0
    outer loop
      vertex 5.60796 2.2 0
      vertex 5.60796 2.91116 2.91116
      vertex 5.60796 2.2 4.2
    endloop
  endfacet
  facet normal 1 0 0
    outer loop
      vertex 5.60796 2.2 4.2
      vertex 5.60796 2.91116 30
      vertex 5.60796 2.41315 30
    endloop
  endfacet
  facet normal 1 0 0
    outer loop
      vertex 5.60796 2.91116 2.91116
      vertex 5.60796 2.2 0
      vertex 5.60796 2.91116 1.08884
    endloop
  endfacet
  facet normal 1 0 0
    outer loop
      vertex 5.60796 2.91116 1.08884
      vertex 5.60796 2.2 0
      vertex 5.60796 2.91116 0
    endloop
  endfacet
  facet normal 1 -0 0
    outer loop
      vertex 5.60796 2.91116 2.91116
      vertex 5.60796 12.0888 1.08884
      vertex 5.60796 12.0888 2.91116
    endloop
  endfacet
  facet normal 1 0 0
    outer loop
      vertex 5.60796 12.0888 1.08884
      vertex 5.60796 2.91116 2.91116
      vertex 5.60796 2.91116 1.08884
    endloop
  endfacet
  facet normal 1 0 0
    outer loop
      vertex 5.60796 13.9112 30
      vertex 5.60796 13 4.2
      vertex 5.60796 13.9112 4.2
    endloop
  endfacet
  facet normal 1 -0 0
    outer loop
      vertex 5.60796 12.5868 30
      vertex 5.60796 13 4.2
      vertex 5.60796 13.9112 30
    endloop
  endfacet
  facet normal 1 -0 0
    outer loop
      vertex 5.60796 12.0888 30
      vertex 5.60796 13 4.2
      vertex 5.60796 12.5868 30
    endloop
  endfacet
  facet normal 1 0 0
    outer loop
      vertex 5.60796 13 4.2
      vertex 5.60796 12.0888 30
      vertex 5.60796 12.0888 2.91116
    endloop
  endfacet
  facet normal 1 0 0
    outer loop
      vertex 5.60796 13 4.2
      vertex 5.60796 12.0888 2.91116
      vertex 5.60796 13 0
    endloop
  endfacet
  facet normal 1 -0 0
    outer loop
      vertex 5.60796 12.0888 1.08884
      vertex 5.60796 13 0
      vertex 5.60796 12.0888 2.91116
    endloop
  endfacet
  facet normal 1 0 0
    outer loop
      vertex 5.60796 13 0
      vertex 5.60796 12.0888 1.08884
      vertex 5.60796 12.0888 0
    endloop
  endfacet
  facet normal 0.623486 -0.781834 0
    outer loop
      vertex 5.60796 2.91116 30
      vertex 7.03271 4.04735 4.04735
      vertex 7.03271 4.04735 30
    endloop
  endfacet
  facet normal 0.623486 -0.781834 0
    outer loop
      vertex 7.03271 4.04735 4.04735
      vertex 5.60796 2.91116 30
      vertex 5.60796 2.91116 2.91116
    endloop
  endfacet
  facet normal 0.623476 -0.781843 0
    outer loop
      vertex 5.60796 2.91116 0
      vertex 6 3.22379 0.776206
      vertex 5.60796 2.91116 1.08884
    endloop
  endfacet
  facet normal 0.623476 -0.781843 0
    outer loop
      vertex 6 3.22379 0.776206
      vertex 5.60796 2.91116 0
      vertex 6 3.22379 0
    endloop
  endfacet
  facet normal -0.22252 -0.974928 0
    outer loop
      vertex 7.03271 4.04735 4.04735
      vertex 8.80933 3.64185 30
      vertex 7.03271 4.04735 30
    endloop
  endfacet
  facet normal -0.22252 -0.974928 -0
    outer loop
      vertex 8.80933 3.64185 30
      vertex 7.03271 4.04735 4.04735
      vertex 8.80933 3.64185 3.64185
    endloop
  endfacet
  facet normal -0.900969 0.433884 0
    outer loop
      vertex 9 0.754088 4.2
      vertex 9.6 2 30
      vertex 9.6 2 4.2
    endloop
  endfacet
  facet normal -0.900969 0.433884 0
    outer loop
      vertex 9.6 2 30
      vertex 9 0.754088 4.2
      vertex 9 0.754088 30
    endloop
  endfacet
  facet normal 0.623481 0.781839 -0
    outer loop
      vertex 6 0.776206 4.2
      vertex 5.60796 1.08884 30
      vertex 6 0.776206 30
    endloop
  endfacet
  facet normal 0.623481 0.781839 0
    outer loop
      vertex 5.60796 1.08884 30
      vertex 6 0.776206 4.2
      vertex 5.60796 1.08884 4.2
    endloop
  endfacet
  facet normal -0.900967 -0.433887 0
    outer loop
      vertex 9.6 13 4.2
      vertex 9 14.2459 30
      vertex 9 14.2459 4.2
    endloop
  endfacet
  facet normal -0.900967 -0.433887 0
    outer loop
      vertex 9 14.2459 30
      vertex 9.6 13 4.2
      vertex 9.6 13 30
    endloop
  endfacet
  facet normal 0.623439 -0.781872 0
    outer loop
      vertex 5.60796 13.9112 4.2
      vertex 6 14.2238 30
      vertex 5.60796 13.9112 30
    endloop
  endfacet
  facet normal 0.623439 -0.781872 0
    outer loop
      vertex 6 14.2238 30
      vertex 5.60796 13.9112 4.2
      vertex 6 14.2238 4.2
    endloop
  endfacet
  facet normal -0.900967 0.433887 0
    outer loop
      vertex 9 11.7541 0.754088
      vertex 9.6 13 0
      vertex 9 11.7541 0
    endloop
  endfacet
  facet normal -0.900967 0.433887 0
    outer loop
      vertex 9.6 13 0
      vertex 9 11.7541 0.754088
      vertex 9.6 13 2
    endloop
  endfacet
  facet normal -0.900964 0.433893 0
    outer loop
      vertex 8.80933 11.3582 3.64185
      vertex 9.6 13 4.2
      vertex 9.6 13 2
    endloop
  endfacet
  facet normal -0.900964 0.433893 0
    outer loop
      vertex 8.80933 11.3582 30
      vertex 9.6 13 4.2
      vertex 8.80933 11.3582 3.64185
    endloop
  endfacet
  facet normal -0.900974 0.433873 0
    outer loop
      vertex 9.6 13 4.2
      vertex 9.38951 12.5629 30
      vertex 9.6 13 30
    endloop
  endfacet
  facet normal -0.900961 0.4339 5.61628e-07
    outer loop
      vertex 9.6 13 4.2
      vertex 8.80933 11.3582 30
      vertex 9.38951 12.5629 30
    endloop
  endfacet
  facet normal 0.623439 0.781872 0
    outer loop
      vertex 5.60796 12.0888 0
      vertex 6 11.7762 0.776206
      vertex 6 11.7762 0
    endloop
  endfacet
  facet normal 0.623439 0.781872 0
    outer loop
      vertex 6 11.7762 0.776206
      vertex 5.60796 12.0888 0
      vertex 5.60796 12.0888 1.08884
    endloop
  endfacet
  facet normal 0.623456 0.781858 -0
    outer loop
      vertex 7.03271 10.9527 4.04735
      vertex 5.60796 12.0888 30
      vertex 7.03271 10.9527 30
    endloop
  endfacet
  facet normal 0.623456 0.781858 0
    outer loop
      vertex 5.60796 12.0888 30
      vertex 7.03271 10.9527 4.04735
      vertex 5.60796 12.0888 2.91116
    endloop
  endfacet
  facet normal -0.22252 0.974928 0
    outer loop
      vertex 8.80933 11.3582 30
      vertex 7.03271 10.9527 4.04735
      vertex 7.03271 10.9527 30
    endloop
  endfacet
  facet normal -0.22252 0.974928 0
    outer loop
      vertex 7.03271 10.9527 4.04735
      vertex 8.80933 11.3582 30
      vertex 8.80933 11.3582 3.64185
    endloop
  endfacet
  facet normal -0.900997 -0.433825 0
    outer loop
      vertex 14.3776 9 0
      vertex 14.3093 9.14185 30
      vertex 14.3093 9.14185 0
    endloop
  endfacet
  facet normal -0.900997 -0.433825 0
    outer loop
      vertex 14.3093 9.14185 30
      vertex 14.3776 9 0
      vertex 14.3776 9 30
    endloop
  endfacet
  facet normal 1 -0 0
    outer loop
      vertex 11.108 6.58884 30
      vertex 11.108 8.41116 0
      vertex 11.108 8.41116 30
    endloop
  endfacet
  facet normal 1 0 0
    outer loop
      vertex 11.108 8.41116 0
      vertex 11.108 6.58884 30
      vertex 11.108 6.58884 0
    endloop
  endfacet
  facet normal 0.6235 -0.781824 0
    outer loop
      vertex 11.108 8.41116 0
      vertex 12.5327 9.54735 30
      vertex 11.108 8.41116 30
    endloop
  endfacet
  facet normal 0.6235 -0.781824 0
    outer loop
      vertex 12.5327 9.54735 30
      vertex 11.108 8.41116 0
      vertex 12.5327 9.54735 0
    endloop
  endfacet
  facet normal -0.222549 -0.974922 0
    outer loop
      vertex 12.5327 9.54735 0
      vertex 12.6717 9.51562 30
      vertex 12.5327 9.54735 30
    endloop
  endfacet
  facet normal -0.22252 -0.974928 -1.3927e-07
    outer loop
      vertex 12.6717 9.51562 30
      vertex 12.5327 9.54735 0
      vertex 14.3093 9.14185 30
    endloop
  endfacet
  facet normal -0.222522 -0.974928 -0
    outer loop
      vertex 14.3093 9.14185 30
      vertex 12.5327 9.54735 0
      vertex 14.3093 9.14185 0
    endloop
  endfacet
  facet normal -0.900997 0.433825 0
    outer loop
      vertex 14.3093 5.85815 0
      vertex 14.3776 6 30
      vertex 14.3776 6 0
    endloop
  endfacet
  facet normal -0.900997 0.433825 0
    outer loop
      vertex 14.3776 6 30
      vertex 14.3093 5.85815 0
      vertex 14.3093 5.85815 30
    endloop
  endfacet
  facet normal 0.6235 0.781824 -0
    outer loop
      vertex 12.5327 5.45265 0
      vertex 11.108 6.58884 30
      vertex 12.5327 5.45265 30
    endloop
  endfacet
  facet normal 0.6235 0.781824 0
    outer loop
      vertex 11.108 6.58884 30
      vertex 12.5327 5.45265 0
      vertex 11.108 6.58884 0
    endloop
  endfacet
  facet normal -0.22252 0.974928 0
    outer loop
      vertex 14.3093 5.85815 0
      vertex 12.6717 5.48438 30
      vertex 14.3093 5.85815 30
    endloop
  endfacet
  facet normal -0.222522 0.974928 -1.28373e-07
    outer loop
      vertex 12.5327 5.45265 0
      vertex 12.6717 5.48438 30
      vertex 14.3093 5.85815 0
    endloop
  endfacet
  facet normal -0.222549 0.974922 0
    outer loop
      vertex 12.6717 5.48438 30
      vertex 12.5327 5.45265 0
      vertex 12.5327 5.45265 30
    endloop
  endfacet
  facet normal -0.90097 -0.433882 0
    outer loop
      vertex 4.1 7.5 0
      vertex 3.30933 9.14185 30
      vertex 3.30933 9.14185 0
    endloop
  endfacet
  facet normal -0.90097 -0.433882 0
    outer loop
      vertex 3.30933 9.14185 30
      vertex 4.1 7.5 0
      vertex 4.1 7.5 30
    endloop
  endfacet
  facet normal 0.623488 -0.781833 0
    outer loop
      vertex 0.846352 9 0
      vertex 1.53271 9.54735 30
      vertex 0.846352 9 30
    endloop
  endfacet
  facet normal 0.623488 -0.781833 0
    outer loop
      vertex 1.53271 9.54735 30
      vertex 0.846352 9 0
      vertex 1.53271 9.54735 0
    endloop
  endfacet
  facet normal -0.222521 -0.974928 0
    outer loop
      vertex 1.53271 9.54735 0
      vertex 2.55276 9.31453 30
      vertex 1.53271 9.54735 30
    endloop
  endfacet
  facet normal -0.22252 -0.974928 -4.37796e-08
    outer loop
      vertex 3.30933 9.14185 0
      vertex 2.55276 9.31453 30
      vertex 1.53271 9.54735 0
    endloop
  endfacet
  facet normal -0.222518 -0.974929 0
    outer loop
      vertex 2.55276 9.31453 30
      vertex 3.30933 9.14185 0
      vertex 3.30933 9.14185 30
    endloop
  endfacet
  facet normal -0.90097 0.433882 0
    outer loop
      vertex 3.30933 5.85815 0
      vertex 4.1 7.5 30
      vertex 4.1 7.5 0
    endloop
  endfacet
  facet normal -0.90097 0.433882 0
    outer loop
      vertex 4.1 7.5 30
      vertex 3.30933 5.85815 0
      vertex 3.30933 5.85815 30
    endloop
  endfacet
  facet normal 0.623488 0.781833 -0
    outer loop
      vertex 1.53271 5.45265 0
      vertex 0.846351 6 30
      vertex 1.53271 5.45265 30
    endloop
  endfacet
  facet normal 0.623488 0.781833 0
    outer loop
      vertex 0.846351 6 30
      vertex 1.53271 5.45265 0
      vertex 0.846351 6 0
    endloop
  endfacet
  facet normal -0.222518 0.974929 0
    outer loop
      vertex 3.30933 5.85815 0
      vertex 2.55276 5.68547 30
      vertex 3.30933 5.85815 30
    endloop
  endfacet
  facet normal -0.22252 0.974928 -4.37796e-08
    outer loop
      vertex 1.53271 5.45265 0
      vertex 2.55276 5.68547 30
      vertex 3.30933 5.85815 0
    endloop
  endfacet
  facet normal -0.222521 0.974928 0
    outer loop
      vertex 2.55276 5.68547 30
      vertex 1.53271 5.45265 0
      vertex 1.53271 5.45265 30
    endloop
  endfacet
  facet normal 1 -0 0
    outer loop
      vertex 6 0 30
      vertex 6 0.776206 4.2
      vertex 6 0.776206 30
    endloop
  endfacet
  facet normal 1 0 0
    outer loop
      vertex 6 0.776206 4.2
      vertex 6 0 30
      vertex 6 0 4.2
    endloop
  endfacet
  facet normal -1 0 0
    outer loop
      vertex 9 0 4.2
      vertex 9 0.754088 30
      vertex 9 0.754088 4.2
    endloop
  endfacet
  facet normal -1 -0 0
    outer loop
      vertex 9 0.754088 30
      vertex 9 0 4.2
      vertex 9 0 30
    endloop
  endfacet
  facet normal 1 -0 0
    outer loop
      vertex 6 14.2238 30
      vertex 6 15 4.2
      vertex 6 15 30
    endloop
  endfacet
  facet normal 1 0 0
    outer loop
      vertex 6 15 4.2
      vertex 6 14.2238 30
      vertex 6 14.2238 4.2
    endloop
  endfacet
  facet normal -1 0 0
    outer loop
      vertex 9 14.2459 4.2
      vertex 9 15 30
      vertex 9 15 4.2
    endloop
  endfacet
  facet normal -1 -0 0
    outer loop
      vertex 9 15 30
      vertex 9 14.2459 4.2
      vertex 9 14.2459 30
    endloop
  endfacet
  facet normal 0 1 -0
    outer loop
      vertex 15 6 0
      vertex 14.3776 6 30
      vertex 15 6 30
    endloop
  endfacet
  facet normal 0 1 0
    outer loop
      vertex 14.3776 6 30
      vertex 15 6 0
      vertex 14.3776 6 0
    endloop
  endfacet
  facet normal 0 -1 0
    outer loop
      vertex 14.3776 9 0
      vertex 15 9 30
      vertex 14.3776 9 30
    endloop
  endfacet
  facet normal 0 -1 -0
    outer loop
      vertex 15 9 30
      vertex 14.3776 9 0
      vertex 15 9 0
    endloop
  endfacet
  facet normal 0 -1 0
    outer loop
      vertex 0 9 0
      vertex 0.846352 9 30
      vertex 0 9 30
    endloop
  endfacet
  facet normal 0 -1 -0
    outer loop
      vertex 0.846352 9 30
      vertex 0 9 0
      vertex 0.846352 9 0
    endloop
  endfacet
  facet normal 0 1 -0
    outer loop
      vertex 0.846351 6 0
      vertex 0 6 30
      vertex 0.846351 6 30
    endloop
  endfacet
  facet normal 0 1 0
    outer loop
      vertex 0 6 30
      vertex 0.846351 6 0
      vertex 0 6 0
    endloop
  endfacet
  facet normal -0.90097 0 -0.433882
    outer loop
      vertex 9.6 2.2 2
      vertex 8.80933 11.3582 3.64185
      vertex 9.6 13 2
    endloop
  endfacet
  facet normal -0.90097 -0 -0.433882
    outer loop
      vertex 8.80933 11.3582 3.64185
      vertex 9.6 2.2 2
      vertex 8.80933 3.64185 3.64185
    endloop
  endfacet
  facet normal -0.90096 2.80939e-05 -0.433902
    outer loop
      vertex 8.80933 3.64185 3.64185
      vertex 9.6 2.2 2
      vertex 9.50368 2.2 2.2
    endloop
  endfacet
  facet normal -0.22252 0 -0.974928
    outer loop
      vertex 7.03271 4.04735 4.04735
      vertex 8.80933 11.3582 3.64185
      vertex 8.80933 3.64185 3.64185
    endloop
  endfacet
  facet normal -0.22252 0 -0.974928
    outer loop
      vertex 8.80933 11.3582 3.64185
      vertex 7.03271 4.04735 4.04735
      vertex 7.03271 10.9527 4.04735
    endloop
  endfacet
  facet normal 0.623486 0 -0.781834
    outer loop
      vertex 5.60796 2.91116 2.91116
      vertex 7.03271 10.9527 4.04735
      vertex 7.03271 4.04735 4.04735
    endloop
  endfacet
  facet normal 0.623486 0 -0.781834
    outer loop
      vertex 7.03271 10.9527 4.04735
      vertex 5.60796 2.91116 2.91116
      vertex 5.60796 12.0888 2.91116
    endloop
  endfacet
  facet normal -0.900969 0 0.433884
    outer loop
      vertex 9.6 2.2 2
      vertex 9 11.7541 0.754088
      vertex 9 3.24591 0.754088
    endloop
  endfacet
  facet normal -0.90096 2.68926e-05 0.433902
    outer loop
      vertex 9.6 2.2 2
      vertex 9 3.24591 0.754088
      vertex 9.50368 2.2 1.8
    endloop
  endfacet
  facet normal -0.900969 0 0.433884
    outer loop
      vertex 9 11.7541 0.754088
      vertex 9.6 2.2 2
      vertex 9.6 13 2
    endloop
  endfacet
  facet normal 0.623481 0 0.781839
    outer loop
      vertex 5.60796 12.0888 1.08884
      vertex 6 3.22379 0.776206
      vertex 6 11.7762 0.776206
    endloop
  endfacet
  facet normal 0.623481 0 0.781839
    outer loop
      vertex 6 3.22379 0.776206
      vertex 5.60796 12.0888 1.08884
      vertex 5.60796 2.91116 1.08884
    endloop
  endfacet
  facet normal 1 -0 0
    outer loop
      vertex 5.5 13 4.2
      vertex 5.5 15 0
      vertex 5.5 15 4.2
    endloop
  endfacet
  facet normal 1 0 0
    outer loop
      vertex 5.5 15 0
      vertex 5.5 13 4.2
      vertex 5.5 13 0
    endloop
  endfacet
  facet normal 0 0 -1
    outer loop
      vertex 9 14.2459 4.2
      vertex 9.7 13 4.2
      vertex 9.6 13 4.2
    endloop
  endfacet
  facet normal 0 0 -1
    outer loop
      vertex 9.7 13 4.2
      vertex 9 14.2459 4.2
      vertex 9.7 15 4.2
    endloop
  endfacet
  facet normal -0 0 -1
    outer loop
      vertex 9.7 15 4.2
      vertex 9 14.2459 4.2
      vertex 9 15 4.2
    endloop
  endfacet
  facet normal 0 0 -1
    outer loop
      vertex 5.60796 13 4.2
      vertex 5.5 13 4.2
      vertex 5.60796 13.9112 4.2
    endloop
  endfacet
  facet normal 0 0 -1
    outer loop
      vertex 5.5 15 4.2
      vertex 6 14.2238 4.2
      vertex 5.60796 13.9112 4.2
    endloop
  endfacet
  facet normal 0 0 -1
    outer loop
      vertex 6 14.2238 4.2
      vertex 5.5 15 4.2
      vertex 6 15 4.2
    endloop
  endfacet
  facet normal 0 0 -1
    outer loop
      vertex 5.5 15 4.2
      vertex 5.60796 13.9112 4.2
      vertex 5.5 13 4.2
    endloop
  endfacet
  facet normal -1 0 0
    outer loop
      vertex 9.7 13 0
      vertex 9.7 15 4.2
      vertex 9.7 15 0
    endloop
  endfacet
  facet normal -1 -0 0
    outer loop
      vertex 9.7 15 4.2
      vertex 9.7 13 0
      vertex 9.7 13 4.2
    endloop
  endfacet
  facet normal 0 1 0
    outer loop
      vertex 9.7 13 4.2
      vertex 9.6 13 2
      vertex 9.6 13 4.2
    endloop
  endfacet
  facet normal 0 1 -0
    outer loop
      vertex 9.7 13 0
      vertex 9.6 13 2
      vertex 9.7 13 4.2
    endloop
  endfacet
  facet normal 0 1 0
    outer loop
      vertex 9.6 13 2
      vertex 9.7 13 0
      vertex 9.6 13 0
    endloop
  endfacet
  facet normal 0 1 -0
    outer loop
      vertex 5.60796 13 0
      vertex 5.5 13 4.2
      vertex 5.60796 13 4.2
    endloop
  endfacet
  facet normal 0 1 0
    outer loop
      vertex 5.5 13 4.2
      vertex 5.60796 13 0
      vertex 5.5 13 0
    endloop
  endfacet
  facet normal 1 -0 0
    outer loop
      vertex 5.5 0 4.2
      vertex 5.5 2.2 0
      vertex 5.5 2.2 4.2
    endloop
  endfacet
  facet normal 1 0 0
    outer loop
      vertex 5.5 2.2 0
      vertex 5.5 0 4.2
      vertex 5.5 0 0
    endloop
  endfacet
  facet normal 0 0 -1
    outer loop
      vertex 9.7 0 4.2
      vertex 9.6 2 4.2
      vertex 9.7 2.2 4.2
    endloop
  endfacet
  facet normal 0 0 -1
    outer loop
      vertex 9 0.754088 4.2
      vertex 9.7 0 4.2
      vertex 9 0 4.2
    endloop
  endfacet
  facet normal 0 0 -1
    outer loop
      vertex 9.7 0 4.2
      vertex 9 0.754088 4.2
      vertex 9.6 2 4.2
    endloop
  endfacet
  facet normal -0 0 -1
    outer loop
      vertex 9.7 2.2 4.2
      vertex 9.6 2 4.2
      vertex 9.50368 2.2 4.2
    endloop
  endfacet
  facet normal 0 0 -1
    outer loop
      vertex 5.5 0 4.2
      vertex 6 0.776206 4.2
      vertex 6 0 4.2
    endloop
  endfacet
  facet normal -0 0 -1
    outer loop
      vertex 6 0.776206 4.2
      vertex 5.5 0 4.2
      vertex 5.60796 1.08884 4.2
    endloop
  endfacet
  facet normal 0 0 -1
    outer loop
      vertex 5.5 2.2 4.2
      vertex 5.60796 1.08884 4.2
      vertex 5.5 0 4.2
    endloop
  endfacet
  facet normal 0 0 -1
    outer loop
      vertex 5.60796 1.08884 4.2
      vertex 5.5 2.2 4.2
      vertex 5.60796 2.2 4.2
    endloop
  endfacet
  facet normal -1 0 0
    outer loop
      vertex 9.7 0 0
      vertex 9.7 2.2 4.2
      vertex 9.7 2.2 0
    endloop
  endfacet
  facet normal -1 -0 0
    outer loop
      vertex 9.7 2.2 4.2
      vertex 9.7 0 0
      vertex 9.7 0 4.2
    endloop
  endfacet
  facet normal 0 -1 0
    outer loop
      vertex 9.50368 2.2 2.2
      vertex 9.7 2.2 4.2
      vertex 9.50368 2.2 4.2
    endloop
  endfacet
  facet normal 0 -1 0
    outer loop
      vertex 9.6 2.2 2
      vertex 9.7 2.2 4.2
      vertex 9.50368 2.2 2.2
    endloop
  endfacet
  facet normal 0 -1 0
    outer loop
      vertex 9.7 2.2 0
      vertex 9.50368 2.2 1.8
      vertex 9.50368 2.2 0
    endloop
  endfacet
  facet normal 0 -1 0
    outer loop
      vertex 9.6 2.2 2
      vertex 9.7 2.2 0
      vertex 9.7 2.2 4.2
    endloop
  endfacet
  facet normal 0 -1 0
    outer loop
      vertex 9.50368 2.2 1.8
      vertex 9.7 2.2 0
      vertex 9.6 2.2 2
    endloop
  endfacet
  facet normal 0 -1 0
    outer loop
      vertex 5.5 2.2 0
      vertex 5.60796 2.2 4.2
      vertex 5.5 2.2 4.2
    endloop
  endfacet
  facet normal 0 -1 -0
    outer loop
      vertex 5.60796 2.2 4.2
      vertex 5.5 2.2 0
      vertex 5.60796 2.2 0
    endloop
  endfacet
  facet normal -1 0 0
    outer loop
      vertex 9 3.24591 0
      vertex 9 11.7541 0.754088
      vertex 9 11.7541 0
    endloop
  endfacet
  facet normal -1 -0 0
    outer loop
      vertex 9 11.7541 0.754088
      vertex 9 3.24591 0
      vertex 9 3.24591 0.754088
    endloop
  endfacet
  facet normal 1 -0 0
    outer loop
      vertex 6 3.22379 0.776206
      vertex 6 11.7762 0
      vertex 6 11.7762 0.776206
    endloop
  endfacet
  facet normal 1 0 0
    outer loop
      vertex 6 11.7762 0
      vertex 6 3.22379 0.776206
      vertex 6 3.22379 0
    endloop
  endfacet
  facet normal -1 0 0
    outer loop
      vertex 1 1 30
      vertex 1 4.10481 60
      vertex 1 4.10481 30
    endloop
  endfacet
  facet normal -1 -0 0
    outer loop
      vertex 1 4.10481 60
      vertex 1 1 30
      vertex 1 1 60
    endloop
  endfacet
  facet normal -1 0 0
    outer loop
      vertex 1 10.8952 30
      vertex 1 14 60
      vertex 1 14 30
    endloop
  endfacet
  facet normal -1 -0 0
    outer loop
      vertex 1 14 60
      vertex 1 10.8952 30
      vertex 1 10.8952 60
    endloop
  endfacet
  facet normal -0 0 1
    outer loop
      vertex 10.9168 14 60
      vertex 14 10.8386 60
      vertex 14 14 60
    endloop
  endfacet
  facet normal 0 0 1
    outer loop
      vertex 14 10.8386 60
      vertex 10.9168 14 60
      vertex 13.006 10.1525 60
    endloop
  endfacet
  facet normal 0 0 1
    outer loop
      vertex 13.006 10.1525 60
      vertex 9.77226 12.7081 60
      vertex 12.1162 8.45726 60
    endloop
  endfacet
  facet normal 0 0 1
    outer loop
      vertex 13.006 10.1525 60
      vertex 10.9168 14 60
      vertex 9.77226 12.7081 60
    endloop
  endfacet
  facet normal 0 0 1
    outer loop
      vertex 10.9168 1 60
      vertex 14 4.16137 60
      vertex 13.006 4.84751 60
    endloop
  endfacet
  facet normal 0 0 1
    outer loop
      vertex 9.77226 2.29193 60
      vertex 13.006 4.84751 60
      vertex 12.1162 6.54274 60
    endloop
  endfacet
  facet normal 0 -0 1
    outer loop
      vertex 10.9168 1 60
      vertex 13.006 4.84751 60
      vertex 9.77226 2.29193 60
    endloop
  endfacet
  facet normal -0 0 1
    outer loop
      vertex 7.98215 12.0292 60
      vertex 12.1162 8.45726 60
      vertex 9.77226 12.7081 60
    endloop
  endfacet
  facet normal 0 0 1
    outer loop
      vertex 12.1162 8.45726 60
      vertex 7.98215 12.0292 60
      vertex 12.1162 6.54274 60
    endloop
  endfacet
  facet normal 0 0 1
    outer loop
      vertex 14 4.16137 60
      vertex 10.9168 1 60
      vertex 14 1 60
    endloop
  endfacet
  facet normal 0 0 1
    outer loop
      vertex 7.98215 2.97083 60
      vertex 12.1162 6.54274 60
      vertex 7.98215 12.0292 60
    endloop
  endfacet
  facet normal 0 0 1
    outer loop
      vertex 12.1162 6.54274 60
      vertex 7.98215 2.97083 60
      vertex 9.77226 2.29193 60
    endloop
  endfacet
  facet normal 0 0 1
    outer loop
      vertex 3 7.5 60
      vertex 7.98215 12.0292 60
      vertex 6.08158 12.2599 60
    endloop
  endfacet
  facet normal 0 0 1
    outer loop
      vertex 7.98215 12.0292 60
      vertex 3 7.5 60
      vertex 7.98215 2.97083 60
    endloop
  endfacet
  facet normal 0 0 1
    outer loop
      vertex 2.54182 9.35889 60
      vertex 6.08158 12.2599 60
      vertex 4.50596 13.3475 60
    endloop
  endfacet
  facet normal 0 0 1
    outer loop
      vertex 7.98215 2.97083 60
      vertex 3 7.5 60
      vertex 6.08158 2.74006 60
    endloop
  endfacet
  facet normal -0 0 1
    outer loop
      vertex 1 14 60
      vertex 4.50596 13.3475 60
      vertex 4.1635 14 60
    endloop
  endfacet
  facet normal -0 0 1
    outer loop
      vertex 2.54182 5.64111 60
      vertex 6.08158 2.74006 60
      vertex 3 7.5 60
    endloop
  endfacet
  facet normal 0 0 1
    outer loop
      vertex 6.08158 2.74006 60
      vertex 2.54182 5.64111 60
      vertex 4.50596 1.65249 60
    endloop
  endfacet
  facet normal 0 0 1
    outer loop
      vertex 6.08158 12.2599 60
      vertex 2.54182 9.35889 60
      vertex 3 7.5 60
    endloop
  endfacet
  facet normal 0 0 1
    outer loop
      vertex 4.50596 13.3475 60
      vertex 1.27226 10.7919 60
      vertex 2.54182 9.35889 60
    endloop
  endfacet
  facet normal 0 0 1
    outer loop
      vertex 4.50596 13.3475 60
      vertex 1 14 60
      vertex 1.27226 10.7919 60
    endloop
  endfacet
  facet normal 0 0 1
    outer loop
      vertex 1.27226 10.7919 60
      vertex 1 14 60
      vertex 1 10.8952 60
    endloop
  endfacet
  facet normal -0 0 1
    outer loop
      vertex 1.27226 4.20806 60
      vertex 4.50596 1.65249 60
      vertex 2.54182 5.64111 60
    endloop
  endfacet
  facet normal 0 0 1
    outer loop
      vertex 1 1 60
      vertex 4.50596 1.65249 60
      vertex 1.27226 4.20806 60
    endloop
  endfacet
  facet normal 0 0 1
    outer loop
      vertex 1 1 60
      vertex 1.27226 4.20806 60
      vertex 1 4.10481 60
    endloop
  endfacet
  facet normal 0 0 1
    outer loop
      vertex 4.50596 1.65249 60
      vertex 1 1 60
      vertex 4.1635 1 60
    endloop
  endfacet
  facet normal 1 -0 0
    outer loop
      vertex 14 1 60
      vertex 14 4.16137 30
      vertex 14 4.16137 60
    endloop
  endfacet
  facet normal 1 0 0
    outer loop
      vertex 14 4.16137 30
      vertex 14 1 60
      vertex 14 1 30
    endloop
  endfacet
  facet normal 1 -0 0
    outer loop
      vertex 14 10.8386 60
      vertex 14 14 30
      vertex 14 14 60
    endloop
  endfacet
  facet normal 1 0 0
    outer loop
      vertex 14 14 30
      vertex 14 10.8386 60
      vertex 14 10.8386 30
    endloop
  endfacet
  facet normal 0 -1 0
    outer loop
      vertex 10.9168 1 30
      vertex 14 1 60
      vertex 10.9168 1 60
    endloop
  endfacet
  facet normal 0 -1 -0
    outer loop
      vertex 14 1 60
      vertex 10.9168 1 30
      vertex 14 1 30
    endloop
  endfacet
  facet normal 0 -1 0
    outer loop
      vertex 1 1 30
      vertex 4.1635 1 60
      vertex 1 1 60
    endloop
  endfacet
  facet normal 0 -1 -0
    outer loop
      vertex 4.1635 1 60
      vertex 1 1 30
      vertex 4.1635 1 30
    endloop
  endfacet
  facet normal 0 1 -0
    outer loop
      vertex 14 14 30
      vertex 10.9168 14 60
      vertex 14 14 60
    endloop
  endfacet
  facet normal 0 1 0
    outer loop
      vertex 10.9168 14 60
      vertex 14 14 30
      vertex 10.9168 14 30
    endloop
  endfacet
  facet normal 0 1 -0
    outer loop
      vertex 4.1635 14 30
      vertex 1 14 60
      vertex 4.1635 14 60
    endloop
  endfacet
  facet normal 0 1 0
    outer loop
      vertex 1 14 60
      vertex 4.1635 14 30
      vertex 1 14 30
    endloop
  endfacet
  facet normal 0.120536 -0.992709 0
    outer loop
      vertex 6.08158 2.74006 30
      vertex 7.98215 2.97083 60
      vertex 6.08158 2.74006 60
    endloop
  endfacet
  facet normal 0.120536 -0.992709 0
    outer loop
      vertex 7.98215 2.97083 60
      vertex 6.08158 2.74006 30
      vertex 7.98215 2.97083 30
    endloop
  endfacet
  facet normal -0.748514 -0.663119 0
    outer loop
      vertex 10.9168 1 30
      vertex 9.77226 2.29193 60
      vertex 9.77226 2.29193 30
    endloop
  endfacet
  facet normal -0.748514 -0.663119 0
    outer loop
      vertex 9.77226 2.29193 60
      vertex 10.9168 1 30
      vertex 10.9168 1 60
    endloop
  endfacet
  facet normal -0.354604 -0.935017 0
    outer loop
      vertex 9.38951 2.43709 30
      vertex 7.98215 2.97083 60
      vertex 7.98215 2.97083 30
    endloop
  endfacet
  facet normal -0.354605 -0.935016 -5.90678e-08
    outer loop
      vertex 7.98215 2.97083 60
      vertex 9.38951 2.43709 30
      vertex 9.77226 2.29193 60
    endloop
  endfacet
  facet normal -0.354609 -0.935015 -0
    outer loop
      vertex 9.77226 2.29193 60
      vertex 9.38951 2.43709 30
      vertex 9.77226 2.29193 30
    endloop
  endfacet
  facet normal 0.885452 -0.46473 0
    outer loop
      vertex 4.1635 1 60
      vertex 4.50596 1.65249 30
      vertex 4.50596 1.65249 60
    endloop
  endfacet
  facet normal 0.885452 -0.46473 0
    outer loop
      vertex 4.50596 1.65249 30
      vertex 4.1635 1 60
      vertex 4.1635 1 30
    endloop
  endfacet
  facet normal 0.568067 -0.822982 0
    outer loop
      vertex 5.60796 2.41315 30
      vertex 4.50596 1.65249 60
      vertex 4.50596 1.65249 30
    endloop
  endfacet
  facet normal 0.568064 -0.822984 -1.56161e-07
    outer loop
      vertex 4.50596 1.65249 60
      vertex 5.60796 2.41315 30
      vertex 6.08158 2.74006 60
    endloop
  endfacet
  facet normal 0.568057 -0.822989 0
    outer loop
      vertex 6.08158 2.74006 60
      vertex 5.60796 2.41315 30
      vertex 6.08158 2.74006 30
    endloop
  endfacet
  facet normal -0.354695 0.934982 0
    outer loop
      vertex 9.38951 12.5629 30
      vertex 9.77226 12.7081 60
      vertex 9.77226 12.7081 30
    endloop
  endfacet
  facet normal -0.354605 0.935016 -1.30576e-06
    outer loop
      vertex 9.77226 12.7081 60
      vertex 9.38951 12.5629 30
      vertex 7.98215 12.0292 60
    endloop
  endfacet
  facet normal -0.354581 0.935025 0
    outer loop
      vertex 7.98215 12.0292 60
      vertex 9.38951 12.5629 30
      vertex 7.98215 12.0292 30
    endloop
  endfacet
  facet normal 0.885455 0.464725 0
    outer loop
      vertex 4.50596 13.3475 60
      vertex 4.1635 14 30
      vertex 4.1635 14 60
    endloop
  endfacet
  facet normal 0.885455 0.464725 0
    outer loop
      vertex 4.1635 14 30
      vertex 4.50596 13.3475 60
      vertex 4.50596 13.3475 30
    endloop
  endfacet
  facet normal -0.748506 0.663128 0
    outer loop
      vertex 9.77226 12.7081 30
      vertex 10.9168 14 60
      vertex 10.9168 14 30
    endloop
  endfacet
  facet normal -0.748506 0.663128 0
    outer loop
      vertex 10.9168 14 60
      vertex 9.77226 12.7081 30
      vertex 9.77226 12.7081 60
    endloop
  endfacet
  facet normal 0.1205 0.992713 -0
    outer loop
      vertex 7.98215 12.0292 30
      vertex 6.08158 12.2599 60
      vertex 7.98215 12.0292 60
    endloop
  endfacet
  facet normal 0.1205 0.992713 0
    outer loop
      vertex 6.08158 12.2599 60
      vertex 7.98215 12.0292 30
      vertex 6.08158 12.2599 30
    endloop
  endfacet
  facet normal 0.568046 0.822997 0
    outer loop
      vertex 5.60796 12.5868 30
      vertex 6.08158 12.2599 60
      vertex 6.08158 12.2599 30
    endloop
  endfacet
  facet normal 0.568075 0.822977 -6.77866e-07
    outer loop
      vertex 6.08158 12.2599 60
      vertex 5.60796 12.5868 30
      vertex 4.50596 13.3475 60
    endloop
  endfacet
  facet normal 0.568087 0.822968 0
    outer loop
      vertex 4.50596 13.3475 60
      vertex 5.60796 12.5868 30
      vertex 4.50596 13.3475 30
    endloop
  endfacet
  facet normal 1 -0 0
    outer loop
      vertex 12.1162 6.54274 60
      vertex 12.1162 8.45726 30
      vertex 12.1162 8.45726 60
    endloop
  endfacet
  facet normal 1 0 0
    outer loop
      vertex 12.1162 8.45726 30
      vertex 12.1162 6.54274 60
      vertex 12.1162 6.54274 30
    endloop
  endfacet
  facet normal 0.56806 -0.822987 0
    outer loop
      vertex 13.006 10.1525 30
      vertex 14 10.8386 60
      vertex 13.006 10.1525 60
    endloop
  endfacet
  facet normal 0.56806 -0.822987 0
    outer loop
      vertex 14 10.8386 60
      vertex 13.006 10.1525 30
      vertex 14 10.8386 30
    endloop
  endfacet
  facet normal 0.885433 -0.464766 0
    outer loop
      vertex 13.006 10.1525 60
      vertex 12.6717 9.51562 30
      vertex 13.006 10.1525 30
    endloop
  endfacet
  facet normal 0.885441 -0.464752 -3.98836e-07
    outer loop
      vertex 12.1162 8.45726 60
      vertex 12.6717 9.51562 30
      vertex 13.006 10.1525 60
    endloop
  endfacet
  facet normal 0.885446 -0.464743 0
    outer loop
      vertex 12.6717 9.51562 30
      vertex 12.1162 8.45726 60
      vertex 12.1162 8.45726 30
    endloop
  endfacet
  facet normal 0.885446 0.464743 0
    outer loop
      vertex 12.1162 6.54274 60
      vertex 12.6717 5.48438 30
      vertex 12.1162 6.54274 30
    endloop
  endfacet
  facet normal 0.88544 0.464754 -4.95553e-07
    outer loop
      vertex 13.006 4.84751 60
      vertex 12.6717 5.48438 30
      vertex 12.1162 6.54274 60
    endloop
  endfacet
  facet normal 0.88543 0.464772 0
    outer loop
      vertex 12.6717 5.48438 30
      vertex 13.006 4.84751 60
      vertex 13.006 4.84751 30
    endloop
  endfacet
  facet normal 0.568082 0.822972 -0
    outer loop
      vertex 14 4.16137 30
      vertex 13.006 4.84751 60
      vertex 14 4.16137 60
    endloop
  endfacet
  facet normal 0.568082 0.822972 0
    outer loop
      vertex 13.006 4.84751 60
      vertex 14 4.16137 30
      vertex 13.006 4.84751 30
    endloop
  endfacet
  facet normal -0.97091 -0.239444 0
    outer loop
      vertex 2.55276 9.31453 30
      vertex 2.54182 9.35889 60
      vertex 2.54182 9.35889 30
    endloop
  endfacet
  facet normal -0.970942 -0.239315 -2.03189e-07
    outer loop
      vertex 3 7.5 30
      vertex 2.54182 9.35889 60
      vertex 2.55276 9.31453 30
    endloop
  endfacet
  facet normal -0.970941 -0.239318 0
    outer loop
      vertex 2.54182 9.35889 60
      vertex 3 7.5 30
      vertex 3 7.5 60
    endloop
  endfacet
  facet normal -0.748505 -0.66313 0
    outer loop
      vertex 2.54182 9.35889 30
      vertex 1.27226 10.7919 60
      vertex 1.27226 10.7919 30
    endloop
  endfacet
  facet normal -0.748505 -0.66313 0
    outer loop
      vertex 1.27226 10.7919 60
      vertex 2.54182 9.35889 30
      vertex 2.54182 9.35889 60
    endloop
  endfacet
  facet normal -0.354591 0.935021 0
    outer loop
      vertex 1.27226 4.20806 30
      vertex 1 4.10481 60
      vertex 1.27226 4.20806 60
    endloop
  endfacet
  facet normal -0.354591 0.935021 0
    outer loop
      vertex 1 4.10481 60
      vertex 1.27226 4.20806 30
      vertex 1 4.10481 30
    endloop
  endfacet
  facet normal -0.354741 -0.934965 0
    outer loop
      vertex 1 10.8952 30
      vertex 1.27226 10.7919 60
      vertex 1 10.8952 60
    endloop
  endfacet
  facet normal -0.354741 -0.934965 -0
    outer loop
      vertex 1.27226 10.7919 60
      vertex 1 10.8952 30
      vertex 1.27226 10.7919 30
    endloop
  endfacet
  facet normal -0.970942 0.239315 0
    outer loop
      vertex 2.55276 5.68547 30
      vertex 3 7.5 60
      vertex 3 7.5 30
    endloop
  endfacet
  facet normal -0.97091 0.239444 0
    outer loop
      vertex 2.54182 5.64111 60
      vertex 2.55276 5.68547 30
      vertex 2.54182 5.64111 30
    endloop
  endfacet
  facet normal -0.970941 0.239318 -1.9834e-07
    outer loop
      vertex 2.55276 5.68547 30
      vertex 2.54182 5.64111 60
      vertex 3 7.5 60
    endloop
  endfacet
  facet normal -0.748514 0.663119 0
    outer loop
      vertex 1.27226 4.20806 30
      vertex 2.54182 5.64111 60
      vertex 2.54182 5.64111 30
    endloop
  endfacet
  facet normal -0.748514 0.663119 0
    outer loop
      vertex 2.54182 5.64111 60
      vertex 1.27226 4.20806 30
      vertex 1.27226 4.20806 60
    endloop
  endfacet
endsolid OpenSCAD_Model
