solid OpenSCAD_Model
  facet normal -0.900961 0.306811 -0.306818
    outer loop
      vertex 9.6 4.82843 2
      vertex 9.6 4.38406 1.55564
      vertex 9.47464 4.2 1.7397
    endloop
  endfacet
  facet normal -0.900969 0.306801 -0.306802
    outer loop
      vertex 9 4.31235 3.24591
      vertex 9.6 30.2642 27.4357
      vertex 9.6 4.82843 2
    endloop
  endfacet
  facet normal -0.90097 0.3068 -0.306801
    outer loop
      vertex 9.6 30.2642 27.4357
      vertex 9 4.31235 3.24591
      vertex 9 29.3832 28.3167
    endloop
  endfacet
  facet normal 1 -0 0
    outer loop
      vertex 5.60796 59.1886 2.91116
      vertex 5.60796 58.6113 0.91135
      vertex 5.60796 60.6111 2.91116
    endloop
  endfacet
  facet normal 1 0 0
    outer loop
      vertex 5.60796 59.1886 2.91116
      vertex 5.60796 58.4338 1.08884
      vertex 5.60796 58.6113 0.91135
    endloop
  endfacet
  facet normal 1 0 0
    outer loop
      vertex 5.60796 59.1886 2.91116
      vertex 5.60796 56.6115 2.91116
      vertex 5.60796 58.4338 1.08884
    endloop
  endfacet
  facet normal 1 0 0
    outer loop
      vertex 5.60796 34.0197 28.08
      vertex 5.60796 56.6115 2.91116
      vertex 5.60796 59.1886 2.91116
    endloop
  endfacet
  facet normal 1 0 0
    outer loop
      vertex 5.60796 56.6115 2.91116
      vertex 5.60796 34.0197 28.08
      vertex 5.60796 32.7312 26.7915
    endloop
  endfacet
  facet normal 1 -0 0
    outer loop
      vertex 5.60796 7.02815 2.91116
      vertex 5.60796 58.4338 1.08884
      vertex 5.60796 56.6115 2.91116
    endloop
  endfacet
  facet normal 1 0 0
    outer loop
      vertex 5.60796 58.4338 1.08884
      vertex 5.60796 7.02815 2.91116
      vertex 5.60796 5.20584 1.08884
    endloop
  endfacet
  facet normal 1 0 0
    outer loop
      vertex 5.60796 29.6199 28.08
      vertex 5.60796 7.02815 2.91116
      vertex 5.60796 30.9085 26.7915
    endloop
  endfacet
  facet normal 1 0 0
    outer loop
      vertex 5.60796 4.45101 2.91116
      vertex 5.60796 7.02815 2.91116
      vertex 5.60796 29.6199 28.08
    endloop
  endfacet
  facet normal 1 0 0
    outer loop
      vertex 5.60796 7.02815 2.91116
      vertex 5.60796 4.45101 2.91116
      vertex 5.60796 5.20584 1.08884
    endloop
  endfacet
  facet normal 1 0 0
    outer loop
      vertex 5.60796 5.20584 1.08884
      vertex 5.60796 4.45101 2.91116
      vertex 5.60796 5.02835 0.91135
    endloop
  endfacet
  facet normal 1 0 0
    outer loop
      vertex 5.60796 5.02835 0.91135
      vertex 5.60796 4.45101 2.91116
      vertex 5.60796 3.02854 2.91116
    endloop
  endfacet
  facet normal 0 0.707108 0.707105
    outer loop
      vertex 6 34.7897 28.85
      vertex 6 60.4158 3.22379
      vertex 5.4 34.7897 28.85
    endloop
  endfacet
  facet normal 0 0.707095 0.707119
    outer loop
      vertex 5.4 34.7897 28.85
      vertex 0 31.8198 31.8198
      vertex 5.4 31.8198 31.8198
    endloop
  endfacet
  facet normal 7.12889e-05 0.707107 0.707106
    outer loop
      vertex 5.4 60.6698 2.96985
      vertex 5.4 34.7897 28.85
      vertex 6 60.4158 3.22379
    endloop
  endfacet
  facet normal -0 0.707023 0.70719
    outer loop
      vertex 5.4 60.6698 2.96985
      vertex 6 60.4158 3.22379
      vertex 5.68156 60.6698 2.96985
    endloop
  endfacet
  facet normal -1.38459e-05 0.707107 0.707106
    outer loop
      vertex 5.4 34.7897 28.85
      vertex 5.4 60.6698 2.96985
      vertex 0 31.8198 31.8198
    endloop
  endfacet
  facet normal -0 0.707113 0.707101
    outer loop
      vertex 0 63.6396 0
      vertex 5.4 60.6698 2.96985
      vertex 5.4 63.6396 0
    endloop
  endfacet
  facet normal -6.54729e-06 0.707107 0.707107
    outer loop
      vertex 5.4 60.6698 2.96985
      vertex 0 63.6396 0
      vertex 0 31.8198 31.8198
    endloop
  endfacet
  facet normal 0 0.707095 0.707119
    outer loop
      vertex 15 31.8198 31.8198
      vertex 9.6 34.7897 28.85
      vertex 9.6 31.8198 31.8198
    endloop
  endfacet
  facet normal 0 0.707108 0.707106
    outer loop
      vertex 9.6 34.7897 28.85
      vertex 9 60.3937 3.24591
      vertex 9 34.7897 28.85
    endloop
  endfacet
  facet normal 1.38459e-05 0.707107 0.707106
    outer loop
      vertex 9.6 60.6698 2.96985
      vertex 9.6 34.7897 28.85
      vertex 15 31.8198 31.8198
    endloop
  endfacet
  facet normal -4.7769e-05 0.707107 0.707106
    outer loop
      vertex 9.6 34.7897 28.85
      vertex 9.6 60.6698 2.96985
      vertex 9 60.3937 3.24591
    endloop
  endfacet
  facet normal 6.54729e-06 0.707107 0.707107
    outer loop
      vertex 15 63.6396 0
      vertex 9.6 60.6698 2.96985
      vertex 15 31.8198 31.8198
    endloop
  endfacet
  facet normal 0 0.707113 0.707101
    outer loop
      vertex 9.6 60.6698 2.96985
      vertex 15 63.6396 0
      vertex 9.6 63.6396 0
    endloop
  endfacet
  facet normal 0 0.707056 0.707158
    outer loop
      vertex 9 60.3937 3.24591
      vertex 9.6 60.6698 2.96985
      vertex 9.13295 60.6698 2.96985
    endloop
  endfacet
  facet normal 0.62354 0.55281 -0.55281
    outer loop
      vertex 6 4.32152 3.22379
      vertex 5.60796 29.6199 28.08
      vertex 6 29.3988 28.3011
    endloop
  endfacet
  facet normal 0.623471 0.552848 -0.552849
    outer loop
      vertex 5.60796 29.6199 28.08
      vertex 6 4.32152 3.22379
      vertex 5.60796 4.45101 2.91116
    endloop
  endfacet
  facet normal -0.90096 -0.306815 0.306814
    outer loop
      vertex 8.80933 8.79219 3.64185
      vertex 9.6 30.2642 27.4357
      vertex 8.80933 31.4251 26.2748
    endloop
  endfacet
  facet normal -0.900968 -0.306803 0.306804
    outer loop
      vertex 9.6 30.2642 27.4357
      vertex 8.80933 8.79219 3.64185
      vertex 9.6 4.82843 2
    endloop
  endfacet
  facet normal -0.90097 -0.30681 0.306791
    outer loop
      vertex 9.6 4.38406 1.55564
      vertex 9 5.3445 0.754088
      vertex 9 5.26506 0.674643
    endloop
  endfacet
  facet normal -0.900969 -0.306798 0.306805
    outer loop
      vertex 9 5.3445 0.754088
      vertex 9.6 4.38406 1.55564
      vertex 9.6 4.82843 2
    endloop
  endfacet
  facet normal 0.623483 -0.552842 0.552842
    outer loop
      vertex 5.60796 5.02835 0.91135
      vertex 6 5.33534 0.776206
      vertex 5.60796 5.20584 1.08884
    endloop
  endfacet
  facet normal 0.623487 -0.552853 0.552827
    outer loop
      vertex 6 5.33534 0.776206
      vertex 5.60796 5.02835 0.91135
      vertex 6 5.24942 0.690282
    endloop
  endfacet
  facet normal 0.623506 -0.552828 0.55283
    outer loop
      vertex 5.60796 30.9085 26.7915
      vertex 7.03271 9.77116 4.04735
      vertex 7.03271 31.7119 25.988
    endloop
  endfacet
  facet normal 0.623487 -0.55284 0.55284
    outer loop
      vertex 7.03271 9.77116 4.04735
      vertex 5.60796 30.9085 26.7915
      vertex 5.60796 7.02815 2.91116
    endloop
  endfacet
  facet normal -0.22257 -0.689369 0.689372
    outer loop
      vertex 7.03271 9.77116 4.04735
      vertex 8.80933 31.4251 26.2748
      vertex 7.03271 31.7119 25.988
    endloop
  endfacet
  facet normal -0.222523 -0.689378 0.689377
    outer loop
      vertex 8.80933 31.4251 26.2748
      vertex 7.03271 9.77116 4.04735
      vertex 8.80933 8.79219 3.64185
    endloop
  endfacet
  facet normal 1 0 0
    outer loop
      vertex 6 34.7897 28.85
      vertex 6 59.3181 3.22379
      vertex 6 60.4158 3.22379
    endloop
  endfacet
  facet normal 1 0 0
    outer loop
      vertex 6 59.3181 3.22379
      vertex 6 34.7897 28.85
      vertex 6 34.2408 28.3011
    endloop
  endfacet
  facet normal 1 0 0
    outer loop
      vertex 6 28.85 28.85
      vertex 6 4.32152 3.22379
      vertex 6 29.3988 28.3011
    endloop
  endfacet
  facet normal 1 0 -0
    outer loop
      vertex 6 4.32152 3.22379
      vertex 6 28.85 28.85
      vertex 6 3.22379 3.22379
    endloop
  endfacet
  facet normal 1 0 0
    outer loop
      vertex 6 58.3043 0.776206
      vertex 6 57.6999 0
      vertex 6 58.3902 0.690282
    endloop
  endfacet
  facet normal 1 0 0
    outer loop
      vertex 6 58.3043 0.776206
      vertex 6 5.9397 0
      vertex 6 57.6999 0
    endloop
  endfacet
  facet normal 1 -0 0
    outer loop
      vertex 6 5.33534 0.776206
      vertex 6 5.9397 0
      vertex 6 58.3043 0.776206
    endloop
  endfacet
  facet normal 1 0 0
    outer loop
      vertex 6 5.9397 0
      vertex 6 5.33534 0.776206
      vertex 6 5.24942 0.690282
    endloop
  endfacet
  facet normal -1 0 0
    outer loop
      vertex 9 59.3273 3.24591
      vertex 9 34.7897 28.85
      vertex 9 60.3937 3.24591
    endloop
  endfacet
  facet normal -1 0 -0
    outer loop
      vertex 9 34.7897 28.85
      vertex 9 59.3273 3.24591
      vertex 9 34.2564 28.3167
    endloop
  endfacet
  facet normal -1 0 0
    outer loop
      vertex 9 4.31235 3.24591
      vertex 9 28.85 28.85
      vertex 9 29.3832 28.3167
    endloop
  endfacet
  facet normal -1 0 0
    outer loop
      vertex 9 28.85 28.85
      vertex 9 4.31235 3.24591
      vertex 9 3.24591 3.24591
    endloop
  endfacet
  facet normal -1 0 0
    outer loop
      vertex 9 57.6999 0
      vertex 9 58.2951 0.754088
      vertex 9 58.3746 0.674642
    endloop
  endfacet
  facet normal -1 0 0
    outer loop
      vertex 9 5.9397 0
      vertex 9 58.2951 0.754088
      vertex 9 57.6999 0
    endloop
  endfacet
  facet normal -1 0 0
    outer loop
      vertex 9 5.9397 0
      vertex 9 5.3445 0.754088
      vertex 9 58.2951 0.754088
    endloop
  endfacet
  facet normal -1 0 -0
    outer loop
      vertex 9 5.3445 0.754088
      vertex 9 5.9397 0
      vertex 9 5.26506 0.674643
    endloop
  endfacet
  facet normal 0 -0.707107 0.707107
    outer loop
      vertex 11.108 27.1608 27.1608
      vertex 9.6 28.85 28.85
      vertex 9 28.85 28.85
    endloop
  endfacet
  facet normal 0 -0.707107 0.707107
    outer loop
      vertex 9.6 28.85 28.85
      vertex 11.108 27.1608 27.1608
      vertex 12.5327 27.9642 27.9642
    endloop
  endfacet
  facet normal 0 -0.707107 0.707107
    outer loop
      vertex 9 28.85 28.85
      vertex 11.108 25.8722 25.8722
      vertex 11.108 27.1608 27.1608
    endloop
  endfacet
  facet normal 0 -0.707107 0.707107
    outer loop
      vertex 11.108 25.8722 25.8722
      vertex 9 3.24591 3.24591
      vertex 12.5327 25.0688 25.0688
    endloop
  endfacet
  facet normal 0 -0.707107 0.707107
    outer loop
      vertex 9 3.24591 3.24591
      vertex 11.108 25.8722 25.8722
      vertex 9 28.85 28.85
    endloop
  endfacet
  facet normal 0 -0.707107 0.707107
    outer loop
      vertex 12.5327 27.9642 27.9642
      vertex 9.6 31.8198 31.8198
      vertex 9.6 28.85 28.85
    endloop
  endfacet
  facet normal 0 -0.707107 0.707107
    outer loop
      vertex 9.6 31.8198 31.8198
      vertex 12.5327 27.9642 27.9642
      vertex 15 31.8198 31.8198
    endloop
  endfacet
  facet normal 0 -0.707107 0.707107
    outer loop
      vertex 14.3093 27.6775 27.6775
      vertex 15 31.8198 31.8198
      vertex 12.5327 27.9642 27.9642
    endloop
  endfacet
  facet normal 0 -0.707107 0.707107
    outer loop
      vertex 15 27.5772 27.5772
      vertex 14.3093 27.6775 27.6775
      vertex 14.3776 27.5772 27.5772
    endloop
  endfacet
  facet normal 0 -0.707107 0.707107
    outer loop
      vertex 14.3093 27.6775 27.6775
      vertex 15 27.5772 27.5772
      vertex 15 31.8198 31.8198
    endloop
  endfacet
  facet normal 0 -0.707107 0.707107
    outer loop
      vertex 14.3093 25.3555 25.3555
      vertex 15 25.4558 25.4558
      vertex 14.3776 25.4558 25.4558
    endloop
  endfacet
  facet normal 0 -0.707107 0.707107
    outer loop
      vertex 9.6 2.96985 2.96985
      vertex 14.3093 25.3555 25.3555
      vertex 12.5327 25.0688 25.0688
    endloop
  endfacet
  facet normal 0 -0.707107 0.707107
    outer loop
      vertex 9.6 2.96985 2.96985
      vertex 12.5327 25.0688 25.0688
      vertex 9 3.24591 3.24591
    endloop
  endfacet
  facet normal 0 -0.707107 0.707107
    outer loop
      vertex 9.6 2.96985 2.96985
      vertex 9 3.24591 3.24591
      vertex 9.13295 2.96985 2.96985
    endloop
  endfacet
  facet normal 0 -0.707107 0.707107
    outer loop
      vertex 14.3093 25.3555 25.3555
      vertex 9.6 2.96985 2.96985
      vertex 15 25.4558 25.4558
    endloop
  endfacet
  facet normal 0 -0.707107 0.707107
    outer loop
      vertex 15 -1.9984e-15 0
      vertex 9.6 2.96985 2.96985
      vertex 9.6 -1.9984e-15 0
    endloop
  endfacet
  facet normal -2.19304e-16 -0.707107 0.707107
    outer loop
      vertex 9.6 2.96985 2.96985
      vertex 15 -1.9984e-15 0
      vertex 15 25.4558 25.4558
    endloop
  endfacet
  facet normal 0 -0.707107 0.707107
    outer loop
      vertex 0 25.4558 25.4558
      vertex 1.53271 25.0688 25.0688
      vertex 0.846352 25.4558 25.4558
    endloop
  endfacet
  facet normal 0 -0.707107 0.707107
    outer loop
      vertex 5.4 2.96985 2.96985
      vertex 1.53271 25.0688 25.0688
      vertex 0 25.4558 25.4558
    endloop
  endfacet
  facet normal 0 -0.707107 0.707107
    outer loop
      vertex 1.53271 25.0688 25.0688
      vertex 5.4 2.96985 2.96985
      vertex 6 3.22379 3.22379
    endloop
  endfacet
  facet normal 1.46202e-16 -0.707107 0.707107
    outer loop
      vertex 0 -1.9984e-15 0
      vertex 5.4 2.96985 2.96985
      vertex 0 25.4558 25.4558
    endloop
  endfacet
  facet normal 0 -0.707107 0.707107
    outer loop
      vertex 5.4 2.96985 2.96985
      vertex 0 -1.9984e-15 0
      vertex 5.4 -1.9984e-15 0
    endloop
  endfacet
  facet normal 0 -0.707107 0.707107
    outer loop
      vertex 1.53271 27.9642 27.9642
      vertex 5.4 31.8198 31.8198
      vertex 0 31.8198 31.8198
    endloop
  endfacet
  facet normal 0 -0.707107 0.707107
    outer loop
      vertex 5.4 31.8198 31.8198
      vertex 3.30933 27.6775 27.6775
      vertex 5.4 28.85 28.85
    endloop
  endfacet
  facet normal 0 -0.707107 0.707107
    outer loop
      vertex 5.4 31.8198 31.8198
      vertex 1.53271 27.9642 27.9642
      vertex 3.30933 27.6775 27.6775
    endloop
  endfacet
  facet normal 0 -0.707107 0.707107
    outer loop
      vertex 0 27.5772 27.5772
      vertex 1.53271 27.9642 27.9642
      vertex 0 31.8198 31.8198
    endloop
  endfacet
  facet normal 0 -0.707107 0.707107
    outer loop
      vertex 1.53271 27.9642 27.9642
      vertex 0 27.5772 27.5772
      vertex 0.846351 27.5772 27.5772
    endloop
  endfacet
  facet normal 0 -0.707107 0.707107
    outer loop
      vertex 4.1 26.5165 26.5165
      vertex 5.4 28.85 28.85
      vertex 3.30933 27.6775 27.6775
    endloop
  endfacet
  facet normal 0 -0.707107 0.707107
    outer loop
      vertex 5.4 28.85 28.85
      vertex 4.1 26.5165 26.5165
      vertex 6 28.85 28.85
    endloop
  endfacet
  facet normal 0 -0.707107 0.707107
    outer loop
      vertex 6 3.22379 3.22379
      vertex 4.1 26.5165 26.5165
      vertex 3.30933 25.3555 25.3555
    endloop
  endfacet
  facet normal 0 -0.707107 0.707107
    outer loop
      vertex 4.1 26.5165 26.5165
      vertex 6 3.22379 3.22379
      vertex 6 28.85 28.85
    endloop
  endfacet
  facet normal 0 -0.707107 0.707107
    outer loop
      vertex 6 3.22379 3.22379
      vertex 3.30933 25.3555 25.3555
      vertex 1.53271 25.0688 25.0688
    endloop
  endfacet
  facet normal 0 -0.707107 0.707107
    outer loop
      vertex 6 3.22379 3.22379
      vertex 5.4 2.96985 2.96985
      vertex 5.68156 2.96985 2.96985
    endloop
  endfacet
  facet normal -0.90097 0.306799 0.3068
    outer loop
      vertex 8.80933 54.8474 3.64185
      vertex 9.6 33.3754 27.4357
      vertex 9.6 58.8112 2
    endloop
  endfacet
  facet normal -0.90096 0.306815 0.306814
    outer loop
      vertex 9.6 33.3754 27.4357
      vertex 8.80933 54.8474 3.64185
      vertex 8.80933 32.2145 26.2748
    endloop
  endfacet
  facet normal -0.900959 0.306712 0.30692
    outer loop
      vertex 9 58.2951 0.754088
      vertex 9.6 59.2555 1.55563
      vertex 9 58.3746 0.674642
    endloop
  endfacet
  facet normal -0.900966 0.306831 0.306783
    outer loop
      vertex 9.6 59.2555 1.55563
      vertex 9 58.2951 0.754088
      vertex 9.6 58.8112 2
    endloop
  endfacet
  facet normal 0.623488 0.552824 0.552855
    outer loop
      vertex 6 58.3043 0.776206
      vertex 5.60796 58.6113 0.91135
      vertex 5.60796 58.4338 1.08884
    endloop
  endfacet
  facet normal 0.623512 0.552903 0.552748
    outer loop
      vertex 5.60796 58.6113 0.91135
      vertex 6 58.3043 0.776206
      vertex 6 58.3902 0.690282
    endloop
  endfacet
  facet normal 0.62351 0.552828 0.552827
    outer loop
      vertex 5.60796 32.7312 26.7915
      vertex 7.03271 53.8684 4.04735
      vertex 5.60796 56.6115 2.91116
    endloop
  endfacet
  facet normal 0.62353 0.552815 0.552816
    outer loop
      vertex 7.03271 53.8684 4.04735
      vertex 5.60796 32.7312 26.7915
      vertex 7.03271 31.9277 25.988
    endloop
  endfacet
  facet normal -0.22257 0.689369 0.689371
    outer loop
      vertex 8.80933 32.2145 26.2748
      vertex 7.03271 53.8684 4.04735
      vertex 7.03271 31.9277 25.988
    endloop
  endfacet
  facet normal -0.222534 0.689377 0.689375
    outer loop
      vertex 7.03271 53.8684 4.04735
      vertex 8.80933 32.2145 26.2748
      vertex 8.80933 54.8474 3.64185
    endloop
  endfacet
  facet normal -0.900984 -0.306805 -0.306756
    outer loop
      vertex 9.6 59.2555 1.55563
      vertex 9.6 58.8112 2
      vertex 9.47464 59.4396 1.7397
    endloop
  endfacet
  facet normal -0.900971 -0.306798 -0.306799
    outer loop
      vertex 9.6 33.3754 27.4357
      vertex 9 59.3273 3.24591
      vertex 9.6 58.8112 2
    endloop
  endfacet
  facet normal -0.90097 -0.3068 -0.306801
    outer loop
      vertex 9 59.3273 3.24591
      vertex 9.6 33.3754 27.4357
      vertex 9 34.2564 28.3167
    endloop
  endfacet
  facet normal 0.62354 -0.55281 -0.55281
    outer loop
      vertex 5.60796 34.0197 28.08
      vertex 6 59.3181 3.22379
      vertex 6 34.2408 28.3011
    endloop
  endfacet
  facet normal 0.62348 -0.552843 -0.552845
    outer loop
      vertex 6 59.3181 3.22379
      vertex 5.60796 34.0197 28.08
      vertex 5.60796 59.1886 2.91116
    endloop
  endfacet
  facet normal -0.900992 0.306768 0.306769
    outer loop
      vertex 14.3093 50.7111 0
      vertex 14.3776 25.4558 25.4558
      vertex 14.3776 50.9117 0
    endloop
  endfacet
  facet normal -0.900992 0.306768 0.306769
    outer loop
      vertex 14.3776 25.4558 25.4558
      vertex 14.3093 50.7111 0
      vertex 14.3093 25.3555 25.3555
    endloop
  endfacet
  facet normal 1 0 0
    outer loop
      vertex 11.108 27.1608 27.1608
      vertex 11.108 51.7444 0
      vertex 11.108 54.3216 0
    endloop
  endfacet
  facet normal 1 0 0
    outer loop
      vertex 11.108 51.7444 0
      vertex 11.108 27.1608 27.1608
      vertex 11.108 25.8722 25.8722
    endloop
  endfacet
  facet normal 0.623496 0.552835 0.552835
    outer loop
      vertex 11.108 25.8722 25.8722
      vertex 12.5327 50.1376 0
      vertex 11.108 51.7444 0
    endloop
  endfacet
  facet normal 0.623496 0.552835 0.552835
    outer loop
      vertex 12.5327 50.1376 0
      vertex 11.108 25.8722 25.8722
      vertex 12.5327 25.0688 25.0688
    endloop
  endfacet
  facet normal -0.222499 0.68938 0.689383
    outer loop
      vertex 14.3093 50.7111 0
      vertex 12.5327 25.0688 25.0688
      vertex 14.3093 25.3555 25.3555
    endloop
  endfacet
  facet normal -0.222536 0.689376 0.689376
    outer loop
      vertex 12.5327 25.0688 25.0688
      vertex 14.3093 50.7111 0
      vertex 12.5327 50.1376 0
    endloop
  endfacet
  facet normal -0.900992 -0.306769 -0.306767
    outer loop
      vertex 14.3776 55.1543 0
      vertex 14.3093 27.6775 27.6775
      vertex 14.3093 55.3549 0
    endloop
  endfacet
  facet normal -0.900992 -0.306769 -0.306768
    outer loop
      vertex 14.3093 27.6775 27.6775
      vertex 14.3776 55.1543 0
      vertex 14.3776 27.5772 27.5772
    endloop
  endfacet
  facet normal 0.623496 -0.552835 -0.552835
    outer loop
      vertex 12.5327 27.9642 27.9642
      vertex 11.108 54.3216 0
      vertex 12.5327 55.9284 0
    endloop
  endfacet
  facet normal 0.623496 -0.552835 -0.552835
    outer loop
      vertex 11.108 54.3216 0
      vertex 12.5327 27.9642 27.9642
      vertex 11.108 27.1608 27.1608
    endloop
  endfacet
  facet normal -0.222499 -0.689382 -0.689382
    outer loop
      vertex 12.5327 55.9284 0
      vertex 14.3093 27.6775 27.6775
      vertex 12.5327 27.9642 27.9642
    endloop
  endfacet
  facet normal -0.222536 -0.689377 -0.689374
    outer loop
      vertex 14.3093 27.6775 27.6775
      vertex 12.5327 55.9284 0
      vertex 14.3093 55.3549 0
    endloop
  endfacet
  facet normal -0.900968 0.306804 0.306804
    outer loop
      vertex 3.30933 50.7111 0
      vertex 4.1 26.5165 26.5165
      vertex 4.1 53.033 0
    endloop
  endfacet
  facet normal -0.900975 0.306793 0.306794
    outer loop
      vertex 4.1 26.5165 26.5165
      vertex 3.30933 50.7111 0
      vertex 3.30933 25.3555 25.3555
    endloop
  endfacet
  facet normal 0.623502 0.55283 0.552832
    outer loop
      vertex 0.846352 25.4558 25.4558
      vertex 1.53271 50.1376 0
      vertex 0.846352 50.9117 0
    endloop
  endfacet
  facet normal 0.623454 0.552859 0.552859
    outer loop
      vertex 1.53271 50.1376 0
      vertex 0.846352 25.4558 25.4558
      vertex 1.53271 25.0688 25.0688
    endloop
  endfacet
  facet normal -0.222496 0.689381 0.689383
    outer loop
      vertex 3.30933 50.7111 0
      vertex 1.53271 25.0688 25.0688
      vertex 3.30933 25.3555 25.3555
    endloop
  endfacet
  facet normal -0.222533 0.689376 0.689376
    outer loop
      vertex 1.53271 25.0688 25.0688
      vertex 3.30933 50.7111 0
      vertex 1.53271 50.1376 0
    endloop
  endfacet
  facet normal -0.900968 -0.306804 -0.306803
    outer loop
      vertex 4.1 53.033 0
      vertex 3.30933 27.6775 27.6775
      vertex 3.30933 55.3549 0
    endloop
  endfacet
  facet normal -0.900975 -0.306793 -0.306793
    outer loop
      vertex 3.30933 27.6775 27.6775
      vertex 4.1 53.033 0
      vertex 4.1 26.5165 26.5165
    endloop
  endfacet
  facet normal 0.623503 -0.552831 -0.552831
    outer loop
      vertex 1.53271 27.9642 27.9642
      vertex 0.846351 55.1543 0
      vertex 1.53271 55.9284 0
    endloop
  endfacet
  facet normal 0.623453 -0.55286 -0.552858
    outer loop
      vertex 0.846351 55.1543 0
      vertex 1.53271 27.9642 27.9642
      vertex 0.846351 27.5772 27.5772
    endloop
  endfacet
  facet normal -0.222496 -0.689382 -0.689382
    outer loop
      vertex 1.53271 55.9284 0
      vertex 3.30933 27.6775 27.6775
      vertex 1.53271 27.9642 27.9642
    endloop
  endfacet
  facet normal -0.222534 -0.689377 -0.689375
    outer loop
      vertex 3.30933 27.6775 27.6775
      vertex 1.53271 55.9284 0
      vertex 3.30933 55.3549 0
    endloop
  endfacet
  facet normal 0 -0.707108 -0.707105
    outer loop
      vertex 14.3776 55.1543 0
      vertex 15 27.5772 27.5772
      vertex 14.3776 27.5772 27.5772
    endloop
  endfacet
  facet normal 0 -0.707108 -0.707105
    outer loop
      vertex 15 27.5772 27.5772
      vertex 14.3776 55.1543 0
      vertex 15 55.1543 0
    endloop
  endfacet
  facet normal 0 0.707105 0.707108
    outer loop
      vertex 15 50.9117 0
      vertex 14.3776 25.4558 25.4558
      vertex 15 25.4558 25.4558
    endloop
  endfacet
  facet normal 0 0.707105 0.707108
    outer loop
      vertex 14.3776 25.4558 25.4558
      vertex 15 50.9117 0
      vertex 14.3776 50.9117 0
    endloop
  endfacet
  facet normal -1 0 0
    outer loop
      vertex 0 55.1543 0
      vertex 0 31.8198 31.8198
      vertex 0 63.6396 0
    endloop
  endfacet
  facet normal -1 0 -0
    outer loop
      vertex 0 31.8198 31.8198
      vertex 0 55.1543 0
      vertex 0 27.5772 27.5772
    endloop
  endfacet
  facet normal -1 0 -0
    outer loop
      vertex 0 25.4558 25.4558
      vertex 0 50.9117 0
      vertex 0 -1.9984e-15 0
    endloop
  endfacet
  facet normal 0 0.707105 0.707108
    outer loop
      vertex 0.846352 50.9117 0
      vertex 0 25.4558 25.4558
      vertex 0.846352 25.4558 25.4558
    endloop
  endfacet
  facet normal 0 0.707105 0.707108
    outer loop
      vertex 0 25.4558 25.4558
      vertex 0.846352 50.9117 0
      vertex 0 50.9117 0
    endloop
  endfacet
  facet normal 0 -0.707108 -0.707105
    outer loop
      vertex 0 55.1543 0
      vertex 0.846351 27.5772 27.5772
      vertex 0 27.5772 27.5772
    endloop
  endfacet
  facet normal 0 -0.707108 -0.707105
    outer loop
      vertex 0.846351 27.5772 27.5772
      vertex 0 55.1543 0
      vertex 0.846351 55.1543 0
    endloop
  endfacet
  facet normal -0.90097 0 -0.433882
    outer loop
      vertex 9.6 58.8112 2
      vertex 8.80933 8.79219 3.64185
      vertex 8.80933 54.8474 3.64185
    endloop
  endfacet
  facet normal -0.90097 0 -0.433882
    outer loop
      vertex 8.80933 8.79219 3.64185
      vertex 9.6 58.8112 2
      vertex 9.6 4.82843 2
    endloop
  endfacet
  facet normal -0.900966 1.30125e-05 -0.43389
    outer loop
      vertex 9.6 59.6999 2
      vertex 9 60.3937 3.24591
      vertex 9.13295 60.6698 2.96985
    endloop
  endfacet
  facet normal -0.900968 0 -0.433885
    outer loop
      vertex 9.6 59.6999 2
      vertex 9 59.3273 3.24591
      vertex 9 60.3937 3.24591
    endloop
  endfacet
  facet normal -0.900968 0 -0.433885
    outer loop
      vertex 9 59.3273 3.24591
      vertex 9.6 59.6999 2
      vertex 9.6 58.8112 2
    endloop
  endfacet
  facet normal -0.900968 0 -0.433885
    outer loop
      vertex 9.6 3.9397 2
      vertex 9 4.31235 3.24591
      vertex 9.6 4.82843 2
    endloop
  endfacet
  facet normal -0.900968 0 -0.433885
    outer loop
      vertex 9.6 3.9397 2
      vertex 9 3.24591 3.24591
      vertex 9 4.31235 3.24591
    endloop
  endfacet
  facet normal -0.900966 -1.30137e-05 -0.43389
    outer loop
      vertex 9 3.24591 3.24591
      vertex 9.6 3.9397 2
      vertex 9.13295 2.96985 2.96985
    endloop
  endfacet
  facet normal 0.623476 0 -0.781843
    outer loop
      vertex 5.60796 59.1886 2.91116
      vertex 6 60.4158 3.22379
      vertex 6 59.3181 3.22379
    endloop
  endfacet
  facet normal 0.623476 0 -0.781843
    outer loop
      vertex 6 60.4158 3.22379
      vertex 5.60796 59.1886 2.91116
      vertex 5.60796 60.6111 2.91116
    endloop
  endfacet
  facet normal 0.623471 -1.54835e-05 -0.781846
    outer loop
      vertex 6 60.4158 3.22379
      vertex 5.60796 60.6111 2.91116
      vertex 5.68156 60.6698 2.96985
    endloop
  endfacet
  facet normal 0.623486 0 -0.781834
    outer loop
      vertex 5.60796 7.02815 2.91116
      vertex 7.03271 53.8684 4.04735
      vertex 7.03271 9.77116 4.04735
    endloop
  endfacet
  facet normal 0.623486 0 -0.781834
    outer loop
      vertex 7.03271 53.8684 4.04735
      vertex 5.60796 7.02815 2.91116
      vertex 5.60796 56.6115 2.91116
    endloop
  endfacet
  facet normal 0.623471 1.54867e-05 -0.781846
    outer loop
      vertex 5.60796 3.02854 2.91116
      vertex 6 3.22379 3.22379
      vertex 5.68156 2.96985 2.96985
    endloop
  endfacet
  facet normal 0.623476 0 -0.781843
    outer loop
      vertex 5.60796 4.45101 2.91116
      vertex 6 3.22379 3.22379
      vertex 5.60796 3.02854 2.91116
    endloop
  endfacet
  facet normal 0.623476 0 -0.781843
    outer loop
      vertex 6 3.22379 3.22379
      vertex 5.60796 4.45101 2.91116
      vertex 6 4.32152 3.22379
    endloop
  endfacet
  facet normal -0.22252 0 -0.974928
    outer loop
      vertex 7.03271 9.77116 4.04735
      vertex 8.80933 54.8474 3.64185
      vertex 8.80933 8.79219 3.64185
    endloop
  endfacet
  facet normal -0.22252 0 -0.974928
    outer loop
      vertex 8.80933 54.8474 3.64185
      vertex 7.03271 9.77116 4.04735
      vertex 7.03271 53.8684 4.04735
    endloop
  endfacet
  facet normal -0.900969 0 0.433884
    outer loop
      vertex 9 5.3445 0.754088
      vertex 9.6 58.8112 2
      vertex 9 58.2951 0.754088
    endloop
  endfacet
  facet normal -0.900969 0 0.433884
    outer loop
      vertex 9.6 58.8112 2
      vertex 9 5.3445 0.754088
      vertex 9.6 4.82843 2
    endloop
  endfacet
  facet normal -0.900961 0 0.433901
    outer loop
      vertex 9.6 58.8112 2
      vertex 9.6 59.6999 2
      vertex 9.47464 59.4396 1.7397
    endloop
  endfacet
  facet normal -0.900961 0 0.433901
    outer loop
      vertex 9.6 3.9397 2
      vertex 9.6 4.82843 2
      vertex 9.47464 4.2 1.7397
    endloop
  endfacet
  facet normal 0.623481 0 0.781839
    outer loop
      vertex 5.60796 58.4338 1.08884
      vertex 6 5.33534 0.776206
      vertex 6 58.3043 0.776206
    endloop
  endfacet
  facet normal 0.623481 0 0.781839
    outer loop
      vertex 6 5.33534 0.776206
      vertex 5.60796 58.4338 1.08884
      vertex 5.60796 5.20584 1.08884
    endloop
  endfacet
  facet normal 0 0 -1
    outer loop
      vertex 0 -1.9984e-15 0
      vertex 5.4 5.9397 0
      vertex 5.4 -1.9984e-15 0
    endloop
  endfacet
  facet normal 0 0 -1
    outer loop
      vertex 5.4 5.9397 0
      vertex 4.1 53.033 0
      vertex 5.4 57.6999 0
    endloop
  endfacet
  facet normal 0 0 -1
    outer loop
      vertex 3.30933 55.3549 0
      vertex 5.4 57.6999 0
      vertex 4.1 53.033 0
    endloop
  endfacet
  facet normal 0 0 -1
    outer loop
      vertex 5.4 5.9397 0
      vertex 3.30933 50.7111 0
      vertex 4.1 53.033 0
    endloop
  endfacet
  facet normal 0 0 -1
    outer loop
      vertex 5.4 5.9397 0
      vertex 1.53271 50.1376 0
      vertex 3.30933 50.7111 0
    endloop
  endfacet
  facet normal 0 0 -1
    outer loop
      vertex 0 50.9117 0
      vertex 5.4 5.9397 0
      vertex 0 -1.9984e-15 0
    endloop
  endfacet
  facet normal 0 0 -1
    outer loop
      vertex 5.4 5.9397 0
      vertex 0 50.9117 0
      vertex 1.53271 50.1376 0
    endloop
  endfacet
  facet normal 0 0 -1
    outer loop
      vertex 1.53271 50.1376 0
      vertex 0 50.9117 0
      vertex 0.846352 50.9117 0
    endloop
  endfacet
  facet normal 0 0 -1
    outer loop
      vertex 5.4 5.9397 0
      vertex 6 57.6999 0
      vertex 6 5.9397 0
    endloop
  endfacet
  facet normal -0 0 -1
    outer loop
      vertex 6 57.6999 0
      vertex 5.4 5.9397 0
      vertex 5.4 57.6999 0
    endloop
  endfacet
  facet normal 0 0 -1
    outer loop
      vertex 1.53271 55.9284 0
      vertex 5.4 57.6999 0
      vertex 3.30933 55.3549 0
    endloop
  endfacet
  facet normal 0 0 -1
    outer loop
      vertex 0 63.6396 0
      vertex 5.4 57.6999 0
      vertex 1.53271 55.9284 0
    endloop
  endfacet
  facet normal 0 0 -1
    outer loop
      vertex 0 55.1543 0
      vertex 1.53271 55.9284 0
      vertex 0.846351 55.1543 0
    endloop
  endfacet
  facet normal -0 0 -1
    outer loop
      vertex 1.53271 55.9284 0
      vertex 0 55.1543 0
      vertex 0 63.6396 0
    endloop
  endfacet
  facet normal 0 0 -1
    outer loop
      vertex 5.4 57.6999 0
      vertex 0 63.6396 0
      vertex 5.4 63.6396 0
    endloop
  endfacet
  facet normal 0 0 -1
    outer loop
      vertex 9.6 5.9397 0
      vertex 15 50.9117 0
      vertex 15 -1.9984e-15 0
    endloop
  endfacet
  facet normal -0 0 -1
    outer loop
      vertex 15 50.9117 0
      vertex 14.3093 50.7111 0
      vertex 14.3776 50.9117 0
    endloop
  endfacet
  facet normal 0 0 -1
    outer loop
      vertex 15 50.9117 0
      vertex 9.6 5.9397 0
      vertex 14.3093 50.7111 0
    endloop
  endfacet
  facet normal 0 0 -1
    outer loop
      vertex 14.3093 50.7111 0
      vertex 9.6 5.9397 0
      vertex 12.5327 50.1376 0
    endloop
  endfacet
  facet normal 0 0 -1
    outer loop
      vertex 9 5.9397 0
      vertex 12.5327 50.1376 0
      vertex 9.6 5.9397 0
    endloop
  endfacet
  facet normal 0 0 -1
    outer loop
      vertex 9.6 5.9397 0
      vertex 15 -1.9984e-15 0
      vertex 9.6 -1.9984e-15 0
    endloop
  endfacet
  facet normal 0 0 -1
    outer loop
      vertex 14.3093 55.3549 0
      vertex 15 55.1543 0
      vertex 14.3776 55.1543 0
    endloop
  endfacet
  facet normal 0 0 -1
    outer loop
      vertex 15 55.1543 0
      vertex 14.3093 55.3549 0
      vertex 15 63.6396 0
    endloop
  endfacet
  facet normal 0 0 -1
    outer loop
      vertex 12.5327 55.9284 0
      vertex 15 63.6396 0
      vertex 14.3093 55.3549 0
    endloop
  endfacet
  facet normal 0 0 -1
    outer loop
      vertex 9.6 57.6999 0
      vertex 12.5327 55.9284 0
      vertex 11.108 54.3216 0
    endloop
  endfacet
  facet normal -0 0 -1
    outer loop
      vertex 12.5327 50.1376 0
      vertex 9 5.9397 0
      vertex 11.108 51.7444 0
    endloop
  endfacet
  facet normal 0 0 -1
    outer loop
      vertex 9 57.6999 0
      vertex 11.108 51.7444 0
      vertex 9 5.9397 0
    endloop
  endfacet
  facet normal 0 0 -1
    outer loop
      vertex 12.5327 55.9284 0
      vertex 9.6 57.6999 0
      vertex 15 63.6396 0
    endloop
  endfacet
  facet normal -0 0 -1
    outer loop
      vertex 15 63.6396 0
      vertex 9.6 57.6999 0
      vertex 9.6 63.6396 0
    endloop
  endfacet
  facet normal 0 0 -1
    outer loop
      vertex 11.108 51.7444 0
      vertex 9 57.6999 0
      vertex 11.108 54.3216 0
    endloop
  endfacet
  facet normal 0 0 -1
    outer loop
      vertex 11.108 54.3216 0
      vertex 9 57.6999 0
      vertex 9.6 57.6999 0
    endloop
  endfacet
  facet normal 1 0 0
    outer loop
      vertex 15 31.8198 31.8198
      vertex 15 55.1543 0
      vertex 15 63.6396 0
    endloop
  endfacet
  facet normal 1 0 0
    outer loop
      vertex 15 55.1543 0
      vertex 15 31.8198 31.8198
      vertex 15 27.5772 27.5772
    endloop
  endfacet
  facet normal 1 0 0
    outer loop
      vertex 15 -1.9984e-15 0
      vertex 15 50.9117 0
      vertex 15 25.4558 25.4558
    endloop
  endfacet
  facet normal 1 0 0
    outer loop
      vertex 5.4 60.6698 2.96985
      vertex 5.4 57.6999 0
      vertex 5.4 63.6396 0
    endloop
  endfacet
  facet normal -1 0 0
    outer loop
      vertex 9.6 63.6396 0
      vertex 9.6 59.6999 2
      vertex 9.6 60.6698 2.96985
    endloop
  endfacet
  facet normal -1 0 0
    outer loop
      vertex 9.6 63.6396 0
      vertex 9.6 59.2555 1.55563
      vertex 9.6 59.6999 2
    endloop
  endfacet
  facet normal -1 0 -0
    outer loop
      vertex 9.6 59.2555 1.55563
      vertex 9.6 63.6396 0
      vertex 9.6 57.6999 0
    endloop
  endfacet
  facet normal 0 0.707089 -0.707125
    outer loop
      vertex 9.6 60.6698 2.96985
      vertex 9.6 59.6999 2
      vertex 9.13295 60.6698 2.96985
    endloop
  endfacet
  facet normal 8.36873e-05 0.707114 -0.7071
    outer loop
      vertex 9.6 57.6999 0
      vertex 9 58.3746 0.674642
      vertex 9.6 59.2555 1.55563
    endloop
  endfacet
  facet normal 0 0.707076 -0.707137
    outer loop
      vertex 9 58.3746 0.674642
      vertex 9.6 57.6999 0
      vertex 9 57.6999 0
    endloop
  endfacet
  facet normal 0 0.707098 -0.707116
    outer loop
      vertex 5.4 57.6999 0
      vertex 6 58.3902 0.690282
      vertex 6 57.6999 0
    endloop
  endfacet
  facet normal -0.000117839 0.707101 -0.707113
    outer loop
      vertex 5.4 60.6698 2.96985
      vertex 5.60796 58.6113 0.91135
      vertex 5.4 57.6999 0
    endloop
  endfacet
  facet normal 3.17542e-05 0.707084 -0.70713
    outer loop
      vertex 6 58.3902 0.690282
      vertex 5.4 57.6999 0
      vertex 5.60796 58.6113 0.91135
    endloop
  endfacet
  facet normal 0 0.707047 -0.707167
    outer loop
      vertex 5.60796 60.6111 2.91116
      vertex 5.4 60.6698 2.96985
      vertex 5.68156 60.6698 2.96985
    endloop
  endfacet
  facet normal 3.5e-05 0.707109 -0.707105
    outer loop
      vertex 5.60796 58.6113 0.91135
      vertex 5.4 60.6698 2.96985
      vertex 5.60796 60.6111 2.91116
    endloop
  endfacet
  facet normal 9.91202e-05 0.707083 -0.707131
    outer loop
      vertex 9.6 59.6999 2
      vertex 9.6 59.2555 1.55563
      vertex 9.47464 59.4396 1.7397
    endloop
  endfacet
  facet normal 1 0 0
    outer loop
      vertex 5.4 31.8198 31.8198
      vertex 5.4 31.8198 25.8801
      vertex 5.4 34.7897 28.85
    endloop
  endfacet
  facet normal 1 0 -0
    outer loop
      vertex 5.4 31.8198 25.8801
      vertex 5.4 31.8198 31.8198
      vertex 5.4 28.85 28.85
    endloop
  endfacet
  facet normal 0 0.707107 0.707107
    outer loop
      vertex 8.80933 31.4251 26.2748
      vertex 9.6 31.8198 25.8801
      vertex 7.03271 31.7119 25.988
    endloop
  endfacet
  facet normal 0 0.707107 0.707107
    outer loop
      vertex 9.6 31.8198 25.8801
      vertex 8.80933 31.4251 26.2748
      vertex 9.6 30.2642 27.4357
    endloop
  endfacet
  facet normal 0 0.707171 0.707042
    outer loop
      vertex 6 29.3988 28.3011
      vertex 5.4 28.85 28.85
      vertex 6 28.85 28.85
    endloop
  endfacet
  facet normal 4.49475e-05 0.707147 0.707067
    outer loop
      vertex 5.60796 29.6199 28.08
      vertex 5.4 28.85 28.85
      vertex 6 29.3988 28.3011
    endloop
  endfacet
  facet normal 0.000543194 0.707079 0.707134
    outer loop
      vertex 5.60796 30.9085 26.7915
      vertex 5.4 28.85 28.85
      vertex 5.60796 29.6199 28.08
    endloop
  endfacet
  facet normal -0.000235679 0.707119 0.707095
    outer loop
      vertex 5.60796 30.9085 26.7915
      vertex 5.4 31.8198 25.8801
      vertex 5.4 28.85 28.85
    endloop
  endfacet
  facet normal 5.20609e-06 0.707146 0.707067
    outer loop
      vertex 7.03271 31.7119 25.988
      vertex 5.4 31.8198 25.8801
      vertex 5.60796 30.9085 26.7915
    endloop
  endfacet
  facet normal -0 0.707107 0.707107
    outer loop
      vertex 5.4 31.8198 25.8801
      vertex 7.03271 31.7119 25.988
      vertex 9.6 31.8198 25.8801
    endloop
  endfacet
  facet normal 0 0.707173 0.70704
    outer loop
      vertex 9.6 28.85 28.85
      vertex 9 29.3832 28.3167
      vertex 9 28.85 28.85
    endloop
  endfacet
  facet normal -7.34148e-05 0.707132 0.707082
    outer loop
      vertex 9 29.3832 28.3167
      vertex 9.6 28.85 28.85
      vertex 9.6 30.2642 27.4357
    endloop
  endfacet
  facet normal -1 0 0
    outer loop
      vertex 9.6 30.2642 27.4357
      vertex 9.6 33.3754 27.4357
      vertex 9.6 31.8198 25.8801
    endloop
  endfacet
  facet normal -1 0 -0
    outer loop
      vertex 9.6 31.8198 31.8198
      vertex 9.6 33.3754 27.4357
      vertex 9.6 30.2642 27.4357
    endloop
  endfacet
  facet normal -1 0 0
    outer loop
      vertex 9.6 33.3754 27.4357
      vertex 9.6 31.8198 31.8198
      vertex 9.6 34.7897 28.85
    endloop
  endfacet
  facet normal -1 0 0
    outer loop
      vertex 9.6 31.8198 31.8198
      vertex 9.6 30.2642 27.4357
      vertex 9.6 28.85 28.85
    endloop
  endfacet
  facet normal 0 -0.707107 0.707107
    outer loop
      vertex 5.4 34.7897 28.85
      vertex 6 34.2408 28.3011
      vertex 6 34.7897 28.85
    endloop
  endfacet
  facet normal -5.52928e-15 -0.707107 0.707107
    outer loop
      vertex 5.4 34.7897 28.85
      vertex 5.60796 34.0197 28.08
      vertex 6 34.2408 28.3011
    endloop
  endfacet
  facet normal 0 -0.707107 0.707107
    outer loop
      vertex 5.4 34.7897 28.85
      vertex 5.60796 32.7312 26.7915
      vertex 5.60796 34.0197 28.08
    endloop
  endfacet
  facet normal 0 -0.707107 0.707107
    outer loop
      vertex 5.60796 32.7312 26.7915
      vertex 5.4 31.8198 25.8801
      vertex 7.03271 31.9277 25.988
    endloop
  endfacet
  facet normal 0 -0.707107 0.707107
    outer loop
      vertex 5.4 31.8198 25.8801
      vertex 5.60796 32.7312 26.7915
      vertex 5.4 34.7897 28.85
    endloop
  endfacet
  facet normal -8.29746e-16 -0.707107 0.707107
    outer loop
      vertex 8.80933 32.2145 26.2748
      vertex 9.6 31.8198 25.8801
      vertex 9.6 33.3754 27.4357
    endloop
  endfacet
  facet normal 0 -0.707107 0.707107
    outer loop
      vertex 7.03271 31.9277 25.988
      vertex 9.6 31.8198 25.8801
      vertex 8.80933 32.2145 26.2748
    endloop
  endfacet
  facet normal 0 -0.707107 0.707107
    outer loop
      vertex 9.6 31.8198 25.8801
      vertex 7.03271 31.9277 25.988
      vertex 5.4 31.8198 25.8801
    endloop
  endfacet
  facet normal 0 -0.707107 0.707107
    outer loop
      vertex 9 34.2564 28.3167
      vertex 9.6 34.7897 28.85
      vertex 9 34.7897 28.85
    endloop
  endfacet
  facet normal 2.68287e-15 -0.707107 0.707107
    outer loop
      vertex 9.6 34.7897 28.85
      vertex 9 34.2564 28.3167
      vertex 9.6 33.3754 27.4357
    endloop
  endfacet
  facet normal 1 0 0
    outer loop
      vertex 5.4 2.96985 2.96985
      vertex 5.4 -1.9984e-15 0
      vertex 5.4 5.9397 0
    endloop
  endfacet
  facet normal -1 0 0
    outer loop
      vertex 9.6 -1.9984e-15 0
      vertex 9.6 4.38406 1.55564
      vertex 9.6 5.9397 0
    endloop
  endfacet
  facet normal -1 -0 0
    outer loop
      vertex 9.6 3.9397 2
      vertex 9.6 -1.9984e-15 0
      vertex 9.6 2.96985 2.96985
    endloop
  endfacet
  facet normal -1 -0 0
    outer loop
      vertex 9.6 4.38406 1.55564
      vertex 9.6 -1.9984e-15 0
      vertex 9.6 3.9397 2
    endloop
  endfacet
  facet normal 0 -0.707107 -0.707107
    outer loop
      vertex 5.4 2.96985 2.96985
      vertex 5.60796 3.02854 2.91116
      vertex 5.68156 2.96985 2.96985
    endloop
  endfacet
  facet normal 4.71918e-17 -0.707107 -0.707107
    outer loop
      vertex 5.4 2.96985 2.96985
      vertex 5.60796 5.02835 0.91135
      vertex 5.60796 3.02854 2.91116
    endloop
  endfacet
  facet normal -1.52532e-15 -0.707107 -0.707107
    outer loop
      vertex 5.4 5.9397 0
      vertex 5.60796 5.02835 0.91135
      vertex 5.4 2.96985 2.96985
    endloop
  endfacet
  facet normal 3.19607e-06 -0.707106 -0.707107
    outer loop
      vertex 5.4 5.9397 0
      vertex 6 5.24942 0.690282
      vertex 5.60796 5.02835 0.91135
    endloop
  endfacet
  facet normal 0 -0.707108 -0.707106
    outer loop
      vertex 6 5.24942 0.690282
      vertex 5.4 5.9397 0
      vertex 6 5.9397 0
    endloop
  endfacet
  facet normal 0 -0.707107 -0.707107
    outer loop
      vertex 9.6 3.9397 2
      vertex 9.6 2.96985 2.96985
      vertex 9.13295 2.96985 2.96985
    endloop
  endfacet
  facet normal -0 -0.707108 -0.707105
    outer loop
      vertex 9.6 5.9397 0
      vertex 9 5.26506 0.674643
      vertex 9 5.9397 0
    endloop
  endfacet
  facet normal -3.53553e-06 -0.707107 -0.707107
    outer loop
      vertex 9 5.26506 0.674643
      vertex 9.6 5.9397 0
      vertex 9.6 4.38406 1.55564
    endloop
  endfacet
  facet normal -1.58545e-15 -0.707107 -0.707107
    outer loop
      vertex 9.6 4.38406 1.55564
      vertex 9.6 3.9397 2
      vertex 9.47464 4.2 1.7397
    endloop
  endfacet
endsolid OpenSCAD_Model
