solid OpenSCAD_Model
  facet normal -0.923881 -0.382681 0
    outer loop
      vertex 10.4 2.4 0
      vertex 9.69706 4.09706 0.702943
      vertex 9.69706 4.09706 0
    endloop
  endfacet
  facet normal -0.923881 -0.382681 0
    outer loop
      vertex 9.69706 4.09706 0.702943
      vertex 10.4 2.4 0
      vertex 10.4 2.4 2.4
    endloop
  endfacet
  facet normal -0.923881 -0.382681 -0
    outer loop
      vertex 10.4 2.4 4.8
      vertex 9.69706 4.09706 4.09706
      vertex 10.4 2.4 2.4
    endloop
  endfacet
  facet normal -0.923881 -0.382681 0
    outer loop
      vertex 9.69706 4.09706 4.09706
      vertex 10.4 2.4 4.8
      vertex 9.69706 4.09706 40
    endloop
  endfacet
  facet normal -0.923881 -0.382681 0
    outer loop
      vertex 9.69706 4.09706 40
      vertex 10.4 2.4 4.8
      vertex 10.4 2.4 40
    endloop
  endfacet
  facet normal 0.382681 -0.923881 0
    outer loop
      vertex 6.30294 4.09706 40
      vertex 8 4.8 4.8
      vertex 8 4.8 40
    endloop
  endfacet
  facet normal 0.382681 -0.923881 0
    outer loop
      vertex 8 4.8 4.8
      vertex 6.30294 4.09706 40
      vertex 6.30294 4.09706 4.09706
    endloop
  endfacet
  facet normal 0.382664 -0.923888 0
    outer loop
      vertex 6.30294 4.09706 0
      vertex 6.5 4.17868 0.621319
      vertex 6.30294 4.09706 0.702943
    endloop
  endfacet
  facet normal 0.382664 -0.923888 0
    outer loop
      vertex 6.5 4.17868 0.621319
      vertex 6.30294 4.09706 0
      vertex 6.5 4.17868 0
    endloop
  endfacet
  facet normal -0.382664 -0.923888 0
    outer loop
      vertex 9.69706 4.09706 0
      vertex 9.5 4.17868 0.62132
      vertex 9.5 4.17868 0
    endloop
  endfacet
  facet normal -0.382664 -0.923888 0
    outer loop
      vertex 9.5 4.17868 0.62132
      vertex 9.69706 4.09706 0
      vertex 9.69706 4.09706 0.702943
    endloop
  endfacet
  facet normal -0.382681 -0.923881 0
    outer loop
      vertex 8 4.8 4.8
      vertex 9.69706 4.09706 40
      vertex 8 4.8 40
    endloop
  endfacet
  facet normal -0.382681 -0.923881 -0
    outer loop
      vertex 9.69706 4.09706 40
      vertex 8 4.8 4.8
      vertex 9.69706 4.09706 4.09706
    endloop
  endfacet
  facet normal 0 0 -1
    outer loop
      vertex 6.5 0.621319 40
      vertex 9.5 0.62132 40
      vertex 9.5 0 40
    endloop
  endfacet
  facet normal 0 0 -1
    outer loop
      vertex 6.5 0.621319 40
      vertex 9.5 0 40
      vertex 6.5 0 40
    endloop
  endfacet
  facet normal -0 0 -1
    outer loop
      vertex 9.5 0.62132 40
      vertex 6.5 0.621319 40
      vertex 8 4.8 40
    endloop
  endfacet
  facet normal 0 0 -1
    outer loop
      vertex 5.6 2.4 40
      vertex 6.5 0.621319 40
      vertex 6.30294 0.702943 40
    endloop
  endfacet
  facet normal 0 0 -1
    outer loop
      vertex 6.5 0.621319 40
      vertex 6.30294 4.09706 40
      vertex 8 4.8 40
    endloop
  endfacet
  facet normal 0 0 -1
    outer loop
      vertex 6.5 0.621319 40
      vertex 5.6 2.4 40
      vertex 6.30294 4.09706 40
    endloop
  endfacet
  facet normal 0 0 -1
    outer loop
      vertex 9.5 0.62132 40
      vertex 10.4 2.4 40
      vertex 9.69706 0.702943 40
    endloop
  endfacet
  facet normal -0 0 -1
    outer loop
      vertex 10.4 2.4 40
      vertex 9.5 0.62132 40
      vertex 9.69706 4.09706 40
    endloop
  endfacet
  facet normal -0 0 -1
    outer loop
      vertex 9.69706 4.09706 40
      vertex 9.5 0.62132 40
      vertex 8 4.8 40
    endloop
  endfacet
  facet normal 0.923881 -0.382681 0
    outer loop
      vertex 5.6 2.4 4.8
      vertex 6.30294 4.09706 40
      vertex 5.6 2.4 40
    endloop
  endfacet
  facet normal 0.923881 -0.382681 0
    outer loop
      vertex 6.30294 4.09706 40
      vertex 5.6 2.4 4.8
      vertex 6.30294 4.09706 4.09706
    endloop
  endfacet
  facet normal 0.923881 -0.382681 0
    outer loop
      vertex 6.30294 4.09706 4.09706
      vertex 5.6 2.4 4.8
      vertex 5.6 2.4 2.4
    endloop
  endfacet
  facet normal 0.923881 -0.382681 0
    outer loop
      vertex 5.6 2.4 0
      vertex 6.30294 4.09706 0.702943
      vertex 5.6 2.4 2.4
    endloop
  endfacet
  facet normal 0.923881 -0.382681 0
    outer loop
      vertex 6.30294 4.09706 0.702943
      vertex 5.6 2.4 0
      vertex 6.30294 4.09706 0
    endloop
  endfacet
  facet normal 0 0 -1
    outer loop
      vertex 0 0 0
      vertex 5.6 2.4 0
      vertex 5.6 0 0
    endloop
  endfacet
  facet normal 0 0 -1
    outer loop
      vertex 5.6 2.4 0
      vertex 4.8 8 0
      vertex 5.6 13.6 0
    endloop
  endfacet
  facet normal 0 0 -1
    outer loop
      vertex 4.09706 9.69706 0
      vertex 5.6 13.6 0
      vertex 4.8 8 0
    endloop
  endfacet
  facet normal 0 0 -1
    outer loop
      vertex 5.6 2.4 0
      vertex 4.09706 6.30294 0
      vertex 4.8 8 0
    endloop
  endfacet
  facet normal 0 0 -1
    outer loop
      vertex 5.6 2.4 0
      vertex 2.4 5.6 0
      vertex 4.09706 6.30294 0
    endloop
  endfacet
  facet normal -0 0 -1
    outer loop
      vertex 5.6 2.4 0
      vertex 0 0 0
      vertex 2.4 5.6 0
    endloop
  endfacet
  facet normal -0 0 -1
    outer loop
      vertex 2.4 5.6 0
      vertex 0 0 0
      vertex 0.702943 6.30294 0
    endloop
  endfacet
  facet normal 0 0 -1
    outer loop
      vertex 0 6.5 0
      vertex 0.702943 6.30294 0
      vertex 0 0 0
    endloop
  endfacet
  facet normal 0 0 -1
    outer loop
      vertex 0.702943 6.30294 0
      vertex 0 6.5 0
      vertex 0.621319 6.5 0
    endloop
  endfacet
  facet normal 0 0 -1
    outer loop
      vertex 6.30294 4.09706 0
      vertex 6.5 11.8213 0
      vertex 6.5 4.17868 0
    endloop
  endfacet
  facet normal 0 0 -1
    outer loop
      vertex 6.30294 4.09706 0
      vertex 6.30294 11.9029 0
      vertex 6.5 11.8213 0
    endloop
  endfacet
  facet normal 0 0 -1
    outer loop
      vertex 5.6 2.4 0
      vertex 6.30294 11.9029 0
      vertex 6.30294 4.09706 0
    endloop
  endfacet
  facet normal -0 0 -1
    outer loop
      vertex 6.30294 11.9029 0
      vertex 5.6 2.4 0
      vertex 5.6 13.6 0
    endloop
  endfacet
  facet normal 0 0 -1
    outer loop
      vertex 2.4 10.4 0
      vertex 5.6 13.6 0
      vertex 4.09706 9.69706 0
    endloop
  endfacet
  facet normal 0 0 -1
    outer loop
      vertex 0 16 0
      vertex 5.6 13.6 0
      vertex 2.4 10.4 0
    endloop
  endfacet
  facet normal 0 0 -1
    outer loop
      vertex 0 16 0
      vertex 2.4 10.4 0
      vertex 0.702943 9.69706 0
    endloop
  endfacet
  facet normal 0 0 -1
    outer loop
      vertex 0 9.5 0
      vertex 0.702943 9.69706 0
      vertex 0.62132 9.5 0
    endloop
  endfacet
  facet normal 0 0 -1
    outer loop
      vertex 0 16 0
      vertex 0.702943 9.69706 0
      vertex 0 9.5 0
    endloop
  endfacet
  facet normal 0 0 -1
    outer loop
      vertex 5.6 13.6 0
      vertex 0 16 0
      vertex 5.6 16 0
    endloop
  endfacet
  facet normal 0 0 -1
    outer loop
      vertex 15.2971 6.30294 0
      vertex 16 6.5 0
      vertex 16 0 0
    endloop
  endfacet
  facet normal -0 0 -1
    outer loop
      vertex 16 6.5 0
      vertex 15.2971 6.30294 0
      vertex 15.3787 6.5 0
    endloop
  endfacet
  facet normal 0 0 -1
    outer loop
      vertex 16 0 0
      vertex 13.6 5.6 0
      vertex 15.2971 6.30294 0
    endloop
  endfacet
  facet normal 0 0 -1
    outer loop
      vertex 10.4 2.4 0
      vertex 13.6 5.6 0
      vertex 16 0 0
    endloop
  endfacet
  facet normal -0 0 -1
    outer loop
      vertex 13.6 5.6 0
      vertex 10.4 2.4 0
      vertex 11.9029 6.30294 0
    endloop
  endfacet
  facet normal 0 0 -1
    outer loop
      vertex 10.4 2.4 0
      vertex 16 0 0
      vertex 10.4 0 0
    endloop
  endfacet
  facet normal 0 0 -1
    outer loop
      vertex 15.2971 9.69706 0
      vertex 16 9.5 0
      vertex 15.3787 9.5 0
    endloop
  endfacet
  facet normal 0 0 -1
    outer loop
      vertex 16 9.5 0
      vertex 15.2971 9.69706 0
      vertex 16 16 0
    endloop
  endfacet
  facet normal 0 0 -1
    outer loop
      vertex 13.6 10.4 0
      vertex 16 16 0
      vertex 15.2971 9.69706 0
    endloop
  endfacet
  facet normal 0 0 -1
    outer loop
      vertex 10.4 13.6 0
      vertex 13.6 10.4 0
      vertex 11.9029 9.69706 0
    endloop
  endfacet
  facet normal 0 0 -1
    outer loop
      vertex 9.69706 4.09706 0
      vertex 11.9029 6.30294 0
      vertex 10.4 2.4 0
    endloop
  endfacet
  facet normal 0 0 -1
    outer loop
      vertex 9.5 4.17868 0
      vertex 11.9029 6.30294 0
      vertex 9.69706 4.09706 0
    endloop
  endfacet
  facet normal 0 0 -1
    outer loop
      vertex 9.69706 11.9029 0
      vertex 11.9029 9.69706 0
      vertex 11.2 8 0
    endloop
  endfacet
  facet normal 0 0 -1
    outer loop
      vertex 13.6 10.4 0
      vertex 10.4 13.6 0
      vertex 16 16 0
    endloop
  endfacet
  facet normal -0 0 -1
    outer loop
      vertex 16 16 0
      vertex 10.4 13.6 0
      vertex 10.4 16 0
    endloop
  endfacet
  facet normal -0 0 -1
    outer loop
      vertex 11.9029 6.30294 0
      vertex 9.5 4.17868 0
      vertex 11.2 8 0
    endloop
  endfacet
  facet normal 0 0 -1
    outer loop
      vertex 11.9029 9.69706 0
      vertex 9.69706 11.9029 0
      vertex 10.4 13.6 0
    endloop
  endfacet
  facet normal 0 0 -1
    outer loop
      vertex 9.5 11.8213 0
      vertex 11.2 8 0
      vertex 9.5 4.17868 0
    endloop
  endfacet
  facet normal 0 0 -1
    outer loop
      vertex 11.2 8 0
      vertex 9.5 11.8213 0
      vertex 9.69706 11.9029 0
    endloop
  endfacet
  facet normal -0.92388 0.382682 0
    outer loop
      vertex 9.69706 0.702943 4.8
      vertex 10.4 2.4 40
      vertex 10.4 2.4 4.8
    endloop
  endfacet
  facet normal -0.92388 0.382682 0
    outer loop
      vertex 10.4 2.4 40
      vertex 9.69706 0.702943 4.8
      vertex 9.69706 0.702943 40
    endloop
  endfacet
  facet normal 0.38268 0.923881 -0
    outer loop
      vertex 6.5 0.621319 4.8
      vertex 6.30294 0.702943 40
      vertex 6.5 0.621319 40
    endloop
  endfacet
  facet normal 0.38268 0.923881 0
    outer loop
      vertex 6.30294 0.702943 40
      vertex 6.5 0.621319 4.8
      vertex 6.30294 0.702943 4.8
    endloop
  endfacet
  facet normal 0.92388 0.382682 0
    outer loop
      vertex 6.30294 0.702943 40
      vertex 5.6 2.4 4.8
      vertex 5.6 2.4 40
    endloop
  endfacet
  facet normal 0.92388 0.382682 0
    outer loop
      vertex 5.6 2.4 4.8
      vertex 6.30294 0.702943 40
      vertex 6.30294 0.702943 4.8
    endloop
  endfacet
  facet normal -0.382676 0.923883 0
    outer loop
      vertex 9.69706 0.702943 4.8
      vertex 9.5 0.62132 40
      vertex 9.69706 0.702943 40
    endloop
  endfacet
  facet normal -0.382676 0.923883 0
    outer loop
      vertex 9.5 0.62132 40
      vertex 9.69706 0.702943 4.8
      vertex 9.5 0.62132 4.8
    endloop
  endfacet
  facet normal -0.923884 -0.382673 0
    outer loop
      vertex 10.4 13.6 4.8
      vertex 9.69706 15.2971 40
      vertex 9.69706 15.2971 4.8
    endloop
  endfacet
  facet normal -0.923884 -0.382673 0
    outer loop
      vertex 9.69706 15.2971 40
      vertex 10.4 13.6 4.8
      vertex 10.4 13.6 40
    endloop
  endfacet
  facet normal 0.923884 -0.382673 0
    outer loop
      vertex 5.6 13.6 40
      vertex 6.30294 15.2971 4.8
      vertex 6.30294 15.2971 40
    endloop
  endfacet
  facet normal 0.923884 -0.382673 0
    outer loop
      vertex 6.30294 15.2971 4.8
      vertex 5.6 13.6 40
      vertex 5.6 13.6 4.8
    endloop
  endfacet
  facet normal 0.382584 -0.923921 0
    outer loop
      vertex 6.30294 15.2971 4.8
      vertex 6.5 15.3787 40
      vertex 6.30294 15.2971 40
    endloop
  endfacet
  facet normal 0.382584 -0.923921 0
    outer loop
      vertex 6.5 15.3787 40
      vertex 6.30294 15.2971 4.8
      vertex 6.5 15.3787 4.8
    endloop
  endfacet
  facet normal -0.382584 -0.923921 0
    outer loop
      vertex 9.5 15.3787 4.8
      vertex 9.69706 15.2971 40
      vertex 9.5 15.3787 40
    endloop
  endfacet
  facet normal -0.382584 -0.923921 -0
    outer loop
      vertex 9.69706 15.2971 40
      vertex 9.5 15.3787 4.8
      vertex 9.69706 15.2971 4.8
    endloop
  endfacet
  facet normal 0 0 -1
    outer loop
      vertex 6.30294 11.9029 40
      vertex 6.5 15.3787 40
      vertex 8 11.2 40
    endloop
  endfacet
  facet normal 0 0 -1
    outer loop
      vertex 5.6 13.6 40
      vertex 6.5 15.3787 40
      vertex 6.30294 11.9029 40
    endloop
  endfacet
  facet normal 0 0 -1
    outer loop
      vertex 6.5 15.3787 40
      vertex 5.6 13.6 40
      vertex 6.30294 15.2971 40
    endloop
  endfacet
  facet normal 0 0 -1
    outer loop
      vertex 9.5 15.3787 40
      vertex 10.4 13.6 40
      vertex 9.69706 11.9029 40
    endloop
  endfacet
  facet normal 0 0 -1
    outer loop
      vertex 10.4 13.6 40
      vertex 9.5 15.3787 40
      vertex 9.69706 15.2971 40
    endloop
  endfacet
  facet normal 0 0 -1
    outer loop
      vertex 8 11.2 40
      vertex 9.5 15.3787 40
      vertex 9.69706 11.9029 40
    endloop
  endfacet
  facet normal 0 0 -1
    outer loop
      vertex 6.5 15.3787 40
      vertex 9.5 15.3787 40
      vertex 8 11.2 40
    endloop
  endfacet
  facet normal 0 0 -1
    outer loop
      vertex 9.5 15.3787 40
      vertex 6.5 15.3787 40
      vertex 9.5 16 40
    endloop
  endfacet
  facet normal -0 0 -1
    outer loop
      vertex 9.5 16 40
      vertex 6.5 15.3787 40
      vertex 6.5 16 40
    endloop
  endfacet
  facet normal -0.382662 0.923888 0
    outer loop
      vertex 9.69706 11.9029 40
      vertex 8 11.2 4.8
      vertex 8 11.2 40
    endloop
  endfacet
  facet normal -0.382662 0.923888 0
    outer loop
      vertex 8 11.2 4.8
      vertex 9.69706 11.9029 40
      vertex 9.69706 11.9029 4.09706
    endloop
  endfacet
  facet normal -0.382584 0.923921 0
    outer loop
      vertex 9.69706 11.9029 0
      vertex 9.5 11.8213 0.62132
      vertex 9.69706 11.9029 0.702943
    endloop
  endfacet
  facet normal -0.382584 0.923921 0
    outer loop
      vertex 9.5 11.8213 0.62132
      vertex 9.69706 11.9029 0
      vertex 9.5 11.8213 0
    endloop
  endfacet
  facet normal 0.923884 0.382673 0
    outer loop
      vertex 6.30294 11.9029 0.702943
      vertex 5.6 13.6 0
      vertex 5.6 13.6 2.4
    endloop
  endfacet
  facet normal 0.923884 0.382673 0
    outer loop
      vertex 5.6 13.6 0
      vertex 6.30294 11.9029 0.702943
      vertex 6.30294 11.9029 0
    endloop
  endfacet
  facet normal 0.923884 0.382673 0
    outer loop
      vertex 6.30294 11.9029 40
      vertex 5.6 13.6 4.8
      vertex 5.6 13.6 40
    endloop
  endfacet
  facet normal 0.923884 0.382673 0
    outer loop
      vertex 5.6 13.6 4.8
      vertex 6.30294 11.9029 40
      vertex 6.30294 11.9029 4.09706
    endloop
  endfacet
  facet normal 0.923884 0.382673 0
    outer loop
      vertex 5.6 13.6 4.8
      vertex 6.30294 11.9029 4.09706
      vertex 5.6 13.6 2.4
    endloop
  endfacet
  facet normal 0.382584 0.923921 0
    outer loop
      vertex 6.30294 11.9029 0
      vertex 6.5 11.8213 0.621319
      vertex 6.5 11.8213 0
    endloop
  endfacet
  facet normal 0.382584 0.923921 0
    outer loop
      vertex 6.5 11.8213 0.621319
      vertex 6.30294 11.9029 0
      vertex 6.30294 11.9029 0.702943
    endloop
  endfacet
  facet normal 0.382662 0.923888 -0
    outer loop
      vertex 8 11.2 4.8
      vertex 6.30294 11.9029 40
      vertex 8 11.2 40
    endloop
  endfacet
  facet normal 0.382662 0.923888 0
    outer loop
      vertex 6.30294 11.9029 40
      vertex 8 11.2 4.8
      vertex 6.30294 11.9029 4.09706
    endloop
  endfacet
  facet normal -0.923884 0.382673 0
    outer loop
      vertex 9.69706 11.9029 0.702943
      vertex 10.4 13.6 0
      vertex 9.69706 11.9029 0
    endloop
  endfacet
  facet normal -0.923884 0.382673 0
    outer loop
      vertex 10.4 13.6 0
      vertex 9.69706 11.9029 0.702943
      vertex 10.4 13.6 2.4
    endloop
  endfacet
  facet normal -0.923884 0.382673 0
    outer loop
      vertex 9.69706 11.9029 4.09706
      vertex 10.4 13.6 4.8
      vertex 10.4 13.6 2.4
    endloop
  endfacet
  facet normal -0.923884 0.382673 0
    outer loop
      vertex 9.69706 11.9029 40
      vertex 10.4 13.6 4.8
      vertex 9.69706 11.9029 4.09706
    endloop
  endfacet
  facet normal -0.923884 0.382673 0
    outer loop
      vertex 10.4 13.6 4.8
      vertex 9.69706 11.9029 40
      vertex 10.4 13.6 40
    endloop
  endfacet
  facet normal -0.923921 -0.382584 0
    outer loop
      vertex 15.3787 9.5 0
      vertex 15.2971 9.69706 40
      vertex 15.2971 9.69706 0
    endloop
  endfacet
  facet normal -0.923921 -0.382584 0
    outer loop
      vertex 15.2971 9.69706 40
      vertex 15.3787 9.5 0
      vertex 15.3787 9.5 40
    endloop
  endfacet
  facet normal 0.382673 -0.923884 0
    outer loop
      vertex 11.9029 9.69706 0
      vertex 13.6 10.4 40
      vertex 11.9029 9.69706 40
    endloop
  endfacet
  facet normal 0.382673 -0.923884 0
    outer loop
      vertex 13.6 10.4 40
      vertex 11.9029 9.69706 0
      vertex 13.6 10.4 0
    endloop
  endfacet
  facet normal -0.382673 -0.923884 0
    outer loop
      vertex 13.6 10.4 0
      vertex 15.2971 9.69706 40
      vertex 13.6 10.4 40
    endloop
  endfacet
  facet normal -0.382673 -0.923884 -0
    outer loop
      vertex 15.2971 9.69706 40
      vertex 13.6 10.4 0
      vertex 15.2971 9.69706 0
    endloop
  endfacet
  facet normal 0 0 -1
    outer loop
      vertex 15.3787 6.5 40
      vertex 16 9.5 40
      vertex 16 6.5 40
    endloop
  endfacet
  facet normal 0 0 -1
    outer loop
      vertex 15.3787 6.5 40
      vertex 15.3787 9.5 40
      vertex 16 9.5 40
    endloop
  endfacet
  facet normal 0 0 -1
    outer loop
      vertex 13.6 5.6 40
      vertex 15.3787 6.5 40
      vertex 15.2971 6.30294 40
    endloop
  endfacet
  facet normal 0 0 -1
    outer loop
      vertex 11.9029 6.30294 40
      vertex 15.3787 6.5 40
      vertex 13.6 5.6 40
    endloop
  endfacet
  facet normal -0 0 -1
    outer loop
      vertex 15.3787 6.5 40
      vertex 11.9029 6.30294 40
      vertex 15.3787 9.5 40
    endloop
  endfacet
  facet normal 0 0 -1
    outer loop
      vertex 15.3787 9.5 40
      vertex 13.6 10.4 40
      vertex 15.2971 9.69706 40
    endloop
  endfacet
  facet normal 0 0 -1
    outer loop
      vertex 11.2 8 40
      vertex 15.3787 9.5 40
      vertex 11.9029 6.30294 40
    endloop
  endfacet
  facet normal 0 0 -1
    outer loop
      vertex 15.3787 9.5 40
      vertex 11.9029 9.69706 40
      vertex 13.6 10.4 40
    endloop
  endfacet
  facet normal -0 0 -1
    outer loop
      vertex 15.3787 9.5 40
      vertex 11.2 8 40
      vertex 11.9029 9.69706 40
    endloop
  endfacet
  facet normal 0.923888 -0.382662 0
    outer loop
      vertex 11.2 8 40
      vertex 11.9029 9.69706 0
      vertex 11.9029 9.69706 40
    endloop
  endfacet
  facet normal 0.923888 -0.382662 0
    outer loop
      vertex 11.9029 9.69706 0
      vertex 11.2 8 40
      vertex 11.2 8 0
    endloop
  endfacet
  facet normal -0.923921 0.382584 0
    outer loop
      vertex 15.2971 6.30294 0
      vertex 15.3787 6.5 40
      vertex 15.3787 6.5 0
    endloop
  endfacet
  facet normal -0.923921 0.382584 0
    outer loop
      vertex 15.3787 6.5 40
      vertex 15.2971 6.30294 0
      vertex 15.2971 6.30294 40
    endloop
  endfacet
  facet normal 0.382673 0.923884 -0
    outer loop
      vertex 13.6 5.6 0
      vertex 11.9029 6.30294 40
      vertex 13.6 5.6 40
    endloop
  endfacet
  facet normal 0.382673 0.923884 0
    outer loop
      vertex 11.9029 6.30294 40
      vertex 13.6 5.6 0
      vertex 11.9029 6.30294 0
    endloop
  endfacet
  facet normal 0.923888 0.382662 0
    outer loop
      vertex 11.9029 6.30294 40
      vertex 11.2 8 0
      vertex 11.2 8 40
    endloop
  endfacet
  facet normal 0.923888 0.382662 0
    outer loop
      vertex 11.2 8 0
      vertex 11.9029 6.30294 40
      vertex 11.9029 6.30294 0
    endloop
  endfacet
  facet normal -0.382673 0.923884 0
    outer loop
      vertex 15.2971 6.30294 0
      vertex 13.6 5.6 40
      vertex 15.2971 6.30294 40
    endloop
  endfacet
  facet normal -0.382673 0.923884 0
    outer loop
      vertex 13.6 5.6 40
      vertex 15.2971 6.30294 0
      vertex 13.6 5.6 0
    endloop
  endfacet
  facet normal -0.923881 -0.382681 0
    outer loop
      vertex 4.8 8 0
      vertex 4.09706 9.69706 40
      vertex 4.09706 9.69706 0
    endloop
  endfacet
  facet normal -0.923881 -0.382681 0
    outer loop
      vertex 4.09706 9.69706 40
      vertex 4.8 8 0
      vertex 4.8 8 40
    endloop
  endfacet
  facet normal 0.382682 0.92388 -0
    outer loop
      vertex 2.4 5.6 0
      vertex 0.702943 6.30294 40
      vertex 2.4 5.6 40
    endloop
  endfacet
  facet normal 0.382682 0.92388 0
    outer loop
      vertex 0.702943 6.30294 40
      vertex 2.4 5.6 0
      vertex 0.702943 6.30294 0
    endloop
  endfacet
  facet normal 0.382682 -0.92388 0
    outer loop
      vertex 0.702943 9.69706 0
      vertex 2.4 10.4 40
      vertex 0.702943 9.69706 40
    endloop
  endfacet
  facet normal 0.382682 -0.92388 0
    outer loop
      vertex 2.4 10.4 40
      vertex 0.702943 9.69706 0
      vertex 2.4 10.4 0
    endloop
  endfacet
  facet normal -0.382681 -0.923881 0
    outer loop
      vertex 2.4 10.4 0
      vertex 4.09706 9.69706 40
      vertex 2.4 10.4 40
    endloop
  endfacet
  facet normal -0.382681 -0.923881 -0
    outer loop
      vertex 4.09706 9.69706 40
      vertex 2.4 10.4 0
      vertex 4.09706 9.69706 0
    endloop
  endfacet
  facet normal 0 0 -1
    outer loop
      vertex 0.621319 6.5 40
      vertex 4.8 8 40
      vertex 4.09706 6.30294 40
    endloop
  endfacet
  facet normal 0 0 -1
    outer loop
      vertex 0.621319 6.5 40
      vertex 4.09706 6.30294 40
      vertex 2.4 5.6 40
    endloop
  endfacet
  facet normal -0 0 -1
    outer loop
      vertex 4.8 8 40
      vertex 0.621319 6.5 40
      vertex 4.09706 9.69706 40
    endloop
  endfacet
  facet normal 0 0 -1
    outer loop
      vertex 0.621319 6.5 40
      vertex 2.4 5.6 40
      vertex 0.702943 6.30294 40
    endloop
  endfacet
  facet normal 0 -0 -1
    outer loop
      vertex 0.62132 9.5 40
      vertex 4.09706 9.69706 40
      vertex 0.621319 6.5 40
    endloop
  endfacet
  facet normal 0 0 -1
    outer loop
      vertex 2.4 10.4 40
      vertex 0.62132 9.5 40
      vertex 0.702943 9.69706 40
    endloop
  endfacet
  facet normal -0 0 -1
    outer loop
      vertex 4.09706 9.69706 40
      vertex 0.62132 9.5 40
      vertex 2.4 10.4 40
    endloop
  endfacet
  facet normal 0 0 -1
    outer loop
      vertex 0 6.5 40
      vertex 0.62132 9.5 40
      vertex 0.621319 6.5 40
    endloop
  endfacet
  facet normal -0 0 -1
    outer loop
      vertex 0.62132 9.5 40
      vertex 0 6.5 40
      vertex 0 9.5 40
    endloop
  endfacet
  facet normal 0.923883 -0.382676 0
    outer loop
      vertex 0.62132 9.5 40
      vertex 0.702943 9.69706 0
      vertex 0.702943 9.69706 40
    endloop
  endfacet
  facet normal 0.923883 -0.382676 0
    outer loop
      vertex 0.702943 9.69706 0
      vertex 0.62132 9.5 40
      vertex 0.62132 9.5 0
    endloop
  endfacet
  facet normal -0.923881 0.382681 0
    outer loop
      vertex 4.09706 6.30294 0
      vertex 4.8 8 40
      vertex 4.8 8 0
    endloop
  endfacet
  facet normal -0.923881 0.382681 0
    outer loop
      vertex 4.8 8 40
      vertex 4.09706 6.30294 0
      vertex 4.09706 6.30294 40
    endloop
  endfacet
  facet normal 0.923881 0.38268 0
    outer loop
      vertex 0.702943 6.30294 40
      vertex 0.621319 6.5 0
      vertex 0.621319 6.5 40
    endloop
  endfacet
  facet normal 0.923881 0.38268 0
    outer loop
      vertex 0.621319 6.5 0
      vertex 0.702943 6.30294 40
      vertex 0.702943 6.30294 0
    endloop
  endfacet
  facet normal -0.382681 0.923881 0
    outer loop
      vertex 4.09706 6.30294 0
      vertex 2.4 5.6 40
      vertex 4.09706 6.30294 40
    endloop
  endfacet
  facet normal -0.382681 0.923881 0
    outer loop
      vertex 2.4 5.6 40
      vertex 4.09706 6.30294 0
      vertex 2.4 5.6 0
    endloop
  endfacet
  facet normal 1 -0 0
    outer loop
      vertex 6.5 0 40
      vertex 6.5 0.621319 4.8
      vertex 6.5 0.621319 40
    endloop
  endfacet
  facet normal 1 0 0
    outer loop
      vertex 6.5 0.621319 4.8
      vertex 6.5 0 40
      vertex 6.5 0 4.8
    endloop
  endfacet
  facet normal -1 0 0
    outer loop
      vertex 9.5 0 4.8
      vertex 9.5 0.62132 40
      vertex 9.5 0.62132 4.8
    endloop
  endfacet
  facet normal -1 -0 0
    outer loop
      vertex 9.5 0.62132 40
      vertex 9.5 0 4.8
      vertex 9.5 0 40
    endloop
  endfacet
  facet normal 0 -1 0
    outer loop
      vertex 0 0 90
      vertex 5.6 0 85.2
      vertex 5.6 0 90
    endloop
  endfacet
  facet normal 0 -1 0
    outer loop
      vertex 5.6 0 85.2
      vertex 6.5 0 50
      vertex 6.5 0 85.2
    endloop
  endfacet
  facet normal 0 -1 0
    outer loop
      vertex 0 0 90
      vertex 6.5 0 50
      vertex 5.6 0 85.2
    endloop
  endfacet
  facet normal 0 -1 0
    outer loop
      vertex 6.5 0 50
      vertex 8 0 47.4
      vertex 9.5 0 50
    endloop
  endfacet
  facet normal 0 -1 -0
    outer loop
      vertex 6.5 0 50
      vertex 6.30294 0 46.6971
      vertex 8 0 47.4
    endloop
  endfacet
  facet normal 0 -1 0
    outer loop
      vertex 5.6 0 45
      vertex 6.5 0 50
      vertex 0 0 90
    endloop
  endfacet
  facet normal 0 -1 0
    outer loop
      vertex 6.5 0 50
      vertex 5.6 0 45
      vertex 6.30294 0 46.6971
    endloop
  endfacet
  facet normal 0 -1 0
    outer loop
      vertex 6.30294 0 43.3029
      vertex 6.5 0 40
      vertex 8 0 42.6
    endloop
  endfacet
  facet normal 0 -1 0
    outer loop
      vertex 5.6 0 45
      vertex 6.5 0 40
      vertex 6.30294 0 43.3029
    endloop
  endfacet
  facet normal 0 -1 0
    outer loop
      vertex 0 0 0
      vertex 6.5 0 40
      vertex 5.6 0 45
    endloop
  endfacet
  facet normal 0 -1 0
    outer loop
      vertex 0 0 0
      vertex 5.6 0 45
      vertex 0 0 90
    endloop
  endfacet
  facet normal 0 -1 0
    outer loop
      vertex 6.5 0 40
      vertex 0 0 0
      vertex 5.6 0 4.8
    endloop
  endfacet
  facet normal 0 -1 -0
    outer loop
      vertex 5.6 0 4.8
      vertex 0 0 0
      vertex 5.6 0 0
    endloop
  endfacet
  facet normal 0 -1 0
    outer loop
      vertex 9.5 0 85.2
      vertex 9.5 0 50
      vertex 10.4 0 85.2
    endloop
  endfacet
  facet normal 0 -1 0
    outer loop
      vertex 10.4 0 85.2
      vertex 16 0 90
      vertex 10.4 0 90
    endloop
  endfacet
  facet normal 0 -1 0
    outer loop
      vertex 9.5 0 50
      vertex 16 0 90
      vertex 10.4 0 85.2
    endloop
  endfacet
  facet normal 0 -1 0
    outer loop
      vertex 9.69706 0 46.6971
      vertex 9.5 0 50
      vertex 8 0 47.4
    endloop
  endfacet
  facet normal 0 -1 0
    outer loop
      vertex 10.4 0 45
      vertex 9.5 0 50
      vertex 9.69706 0 46.6971
    endloop
  endfacet
  facet normal 0 -1 0
    outer loop
      vertex 9.5 0 50
      vertex 10.4 0 45
      vertex 16 0 90
    endloop
  endfacet
  facet normal 0 -1 0
    outer loop
      vertex 9.5 0 40
      vertex 8 0 42.6
      vertex 6.5 0 40
    endloop
  endfacet
  facet normal 0 -1 0
    outer loop
      vertex 8 0 42.6
      vertex 9.5 0 40
      vertex 9.69706 0 43.3029
    endloop
  endfacet
  facet normal 0 -1 0
    outer loop
      vertex 9.5 0 40
      vertex 10.4 0 45
      vertex 9.69706 0 43.3029
    endloop
  endfacet
  facet normal 0 -1 0
    outer loop
      vertex 10.4 0 4.8
      vertex 9.5 0 40
      vertex 9.5 0 4.8
    endloop
  endfacet
  facet normal 0 -1 0
    outer loop
      vertex 16 0 0
      vertex 9.5 0 40
      vertex 10.4 0 4.8
    endloop
  endfacet
  facet normal 0 -1 0
    outer loop
      vertex 9.5 0 40
      vertex 16 0 0
      vertex 10.4 0 45
    endloop
  endfacet
  facet normal 0 -1 0
    outer loop
      vertex 16 0 0
      vertex 10.4 0 4.8
      vertex 10.4 0 0
    endloop
  endfacet
  facet normal 0 -1 0
    outer loop
      vertex 10.4 0 45
      vertex 16 0 0
      vertex 16 0 90
    endloop
  endfacet
  facet normal 0 -1 -0
    outer loop
      vertex 6.5 0 40
      vertex 5.6 0 4.8
      vertex 6.5 0 4.8
    endloop
  endfacet
  facet normal 1 -0 0
    outer loop
      vertex 6.5 15.3787 40
      vertex 6.5 16 4.8
      vertex 6.5 16 40
    endloop
  endfacet
  facet normal 1 0 0
    outer loop
      vertex 6.5 16 4.8
      vertex 6.5 15.3787 40
      vertex 6.5 15.3787 4.8
    endloop
  endfacet
  facet normal -1 0 0
    outer loop
      vertex 9.5 15.3787 4.8
      vertex 9.5 16 40
      vertex 9.5 16 4.8
    endloop
  endfacet
  facet normal -1 -0 0
    outer loop
      vertex 9.5 16 40
      vertex 9.5 15.3787 4.8
      vertex 9.5 15.3787 40
    endloop
  endfacet
  facet normal 0 1 0
    outer loop
      vertex 16 16 90
      vertex 10.4 16 85.2
      vertex 10.4 16 90
    endloop
  endfacet
  facet normal 0 1 0
    outer loop
      vertex 10.4 16 85.2
      vertex 9.5 16 50
      vertex 9.5 16 85.2
    endloop
  endfacet
  facet normal 0 1 0
    outer loop
      vertex 16 16 90
      vertex 9.5 16 50
      vertex 10.4 16 85.2
    endloop
  endfacet
  facet normal 0 1 0
    outer loop
      vertex 9.5 16 50
      vertex 8 16 47.4
      vertex 6.5 16 50
    endloop
  endfacet
  facet normal 0 1 0
    outer loop
      vertex 9.5 16 50
      vertex 9.69706 16 46.6971
      vertex 8 16 47.4
    endloop
  endfacet
  facet normal 0 1 -0
    outer loop
      vertex 10.4 16 45
      vertex 9.5 16 50
      vertex 16 16 90
    endloop
  endfacet
  facet normal 0 1 0
    outer loop
      vertex 9.5 16 50
      vertex 10.4 16 45
      vertex 9.69706 16 46.6971
    endloop
  endfacet
  facet normal 0 1 0
    outer loop
      vertex 9.69706 16 43.3029
      vertex 9.5 16 40
      vertex 8 16 42.6
    endloop
  endfacet
  facet normal 0 1 0
    outer loop
      vertex 10.4 16 45
      vertex 9.5 16 40
      vertex 9.69706 16 43.3029
    endloop
  endfacet
  facet normal 0 1 0
    outer loop
      vertex 16 16 0
      vertex 9.5 16 40
      vertex 10.4 16 45
    endloop
  endfacet
  facet normal 0 1 -0
    outer loop
      vertex 16 16 0
      vertex 10.4 16 45
      vertex 16 16 90
    endloop
  endfacet
  facet normal 0 1 0
    outer loop
      vertex 9.5 16 40
      vertex 16 16 0
      vertex 10.4 16 4.8
    endloop
  endfacet
  facet normal 0 1 0
    outer loop
      vertex 10.4 16 4.8
      vertex 16 16 0
      vertex 10.4 16 0
    endloop
  endfacet
  facet normal 0 1 0
    outer loop
      vertex 6.5 16 85.2
      vertex 6.5 16 50
      vertex 5.6 16 85.2
    endloop
  endfacet
  facet normal 0 1 -0
    outer loop
      vertex 5.6 16 85.2
      vertex 0 16 90
      vertex 5.6 16 90
    endloop
  endfacet
  facet normal 0 1 0
    outer loop
      vertex 6.5 16 50
      vertex 0 16 90
      vertex 5.6 16 85.2
    endloop
  endfacet
  facet normal 0 1 0
    outer loop
      vertex 6.30294 16 46.6971
      vertex 6.5 16 50
      vertex 8 16 47.4
    endloop
  endfacet
  facet normal 0 1 0
    outer loop
      vertex 5.6 16 45
      vertex 6.5 16 50
      vertex 6.30294 16 46.6971
    endloop
  endfacet
  facet normal 0 1 0
    outer loop
      vertex 6.5 16 50
      vertex 5.6 16 45
      vertex 0 16 90
    endloop
  endfacet
  facet normal 0 1 0
    outer loop
      vertex 6.5 16 40
      vertex 8 16 42.6
      vertex 9.5 16 40
    endloop
  endfacet
  facet normal 0 1 0
    outer loop
      vertex 8 16 42.6
      vertex 6.5 16 40
      vertex 6.30294 16 43.3029
    endloop
  endfacet
  facet normal 0 1 0
    outer loop
      vertex 6.5 16 40
      vertex 5.6 16 45
      vertex 6.30294 16 43.3029
    endloop
  endfacet
  facet normal 0 1 0
    outer loop
      vertex 5.6 16 4.8
      vertex 6.5 16 40
      vertex 6.5 16 4.8
    endloop
  endfacet
  facet normal 0 1 0
    outer loop
      vertex 0 16 0
      vertex 6.5 16 40
      vertex 5.6 16 4.8
    endloop
  endfacet
  facet normal 0 1 0
    outer loop
      vertex 6.5 16 40
      vertex 0 16 0
      vertex 5.6 16 45
    endloop
  endfacet
  facet normal 0 1 0
    outer loop
      vertex 0 16 0
      vertex 5.6 16 4.8
      vertex 5.6 16 0
    endloop
  endfacet
  facet normal 0 1 0
    outer loop
      vertex 5.6 16 45
      vertex 0 16 0
      vertex 0 16 90
    endloop
  endfacet
  facet normal 0 1 0
    outer loop
      vertex 9.5 16 40
      vertex 10.4 16 4.8
      vertex 9.5 16 4.8
    endloop
  endfacet
  facet normal 0 1 -0
    outer loop
      vertex 16 6.5 0
      vertex 15.3787 6.5 40
      vertex 16 6.5 40
    endloop
  endfacet
  facet normal 0 1 0
    outer loop
      vertex 15.3787 6.5 40
      vertex 16 6.5 0
      vertex 15.3787 6.5 0
    endloop
  endfacet
  facet normal 0 -1 0
    outer loop
      vertex 15.3787 9.5 0
      vertex 16 9.5 40
      vertex 15.3787 9.5 40
    endloop
  endfacet
  facet normal 0 -1 -0
    outer loop
      vertex 16 9.5 40
      vertex 15.3787 9.5 0
      vertex 16 9.5 0
    endloop
  endfacet
  facet normal -1 0 0
    outer loop
      vertex 0 0 0
      vertex 0 6.5 40
      vertex 0 6.5 0
    endloop
  endfacet
  facet normal -1 0 -0
    outer loop
      vertex 0 5.6 45
      vertex 0 6.5 40
      vertex 0 0 0
    endloop
  endfacet
  facet normal -1 0 0
    outer loop
      vertex 0 6.5 40
      vertex 0 5.6 45
      vertex 0 6.30294 43.3029
    endloop
  endfacet
  facet normal -1 0 0
    outer loop
      vertex 0 8 47.4
      vertex 0 9.5 50
      vertex 0 9.69706 46.6971
    endloop
  endfacet
  facet normal -1 0 0
    outer loop
      vertex 0 8 47.4
      vertex 0 6.5 50
      vertex 0 9.5 50
    endloop
  endfacet
  facet normal -1 0 0
    outer loop
      vertex 0 6.30294 46.6971
      vertex 0 6.5 50
      vertex 0 8 47.4
    endloop
  endfacet
  facet normal -1 0 0
    outer loop
      vertex 0 5.6 45
      vertex 0 6.5 50
      vertex 0 6.30294 46.6971
    endloop
  endfacet
  facet normal -1 -0 0
    outer loop
      vertex 0 6.5 50
      vertex 0 5.6 45
      vertex 0 0 90
    endloop
  endfacet
  facet normal -1 0 0
    outer loop
      vertex 0 0 90
      vertex 0 5.6 45
      vertex 0 0 0
    endloop
  endfacet
  facet normal -1 0 0
    outer loop
      vertex 0 6.5 50
      vertex 0 0 90
      vertex 0 6.5 90
    endloop
  endfacet
  facet normal -1 0 0
    outer loop
      vertex 0 16 0
      vertex 0 10.4 45
      vertex 0 16 90
    endloop
  endfacet
  facet normal -1 0 0
    outer loop
      vertex 0 9.5 40
      vertex 0 10.4 45
      vertex 0 16 0
    endloop
  endfacet
  facet normal -1 0 0
    outer loop
      vertex 0 9.5 40
      vertex 0 16 0
      vertex 0 9.5 0
    endloop
  endfacet
  facet normal -1 0 0
    outer loop
      vertex 0 10.4 45
      vertex 0 9.5 40
      vertex 0 9.69706 43.3029
    endloop
  endfacet
  facet normal -1 0 0
    outer loop
      vertex 0 9.5 40
      vertex 0 8 42.6
      vertex 0 9.69706 43.3029
    endloop
  endfacet
  facet normal -1 0 0
    outer loop
      vertex 0 6.5 40
      vertex 0 8 42.6
      vertex 0 9.5 40
    endloop
  endfacet
  facet normal -1 -0 0
    outer loop
      vertex 0 8 42.6
      vertex 0 6.5 40
      vertex 0 6.30294 43.3029
    endloop
  endfacet
  facet normal -1 0 0
    outer loop
      vertex 0 9.5 50
      vertex 0 10.4 45
      vertex 0 9.69706 46.6971
    endloop
  endfacet
  facet normal -1 0 0
    outer loop
      vertex 0 10.4 45
      vertex 0 9.5 50
      vertex 0 16 90
    endloop
  endfacet
  facet normal -1 -0 0
    outer loop
      vertex 0 16 90
      vertex 0 9.5 50
      vertex 0 9.5 90
    endloop
  endfacet
  facet normal 0 -1 0
    outer loop
      vertex 0 9.5 0
      vertex 0.62132 9.5 40
      vertex 0 9.5 40
    endloop
  endfacet
  facet normal 0 -1 -0
    outer loop
      vertex 0.62132 9.5 40
      vertex 0 9.5 0
      vertex 0.62132 9.5 0
    endloop
  endfacet
  facet normal 0 1 -0
    outer loop
      vertex 0.621319 6.5 0
      vertex 0 6.5 40
      vertex 0.621319 6.5 40
    endloop
  endfacet
  facet normal 0 1 0
    outer loop
      vertex 0 6.5 40
      vertex 0.621319 6.5 0
      vertex 0 6.5 0
    endloop
  endfacet
  facet normal -0.923881 -0.382681 -0
    outer loop
      vertex 10.4 2.4 85.2
      vertex 9.69706 4.09706 50
      vertex 10.4 2.4 50
    endloop
  endfacet
  facet normal -0.923881 -0.382681 0
    outer loop
      vertex 9.69706 4.09706 50
      vertex 10.4 2.4 85.2
      vertex 9.69706 4.09706 85.9029
    endloop
  endfacet
  facet normal -0.923881 -0.382681 0
    outer loop
      vertex 9.69706 4.09706 85.9029
      vertex 10.4 2.4 85.2
      vertex 10.4 2.4 87.6
    endloop
  endfacet
  facet normal -0.923881 -0.382681 -0
    outer loop
      vertex 10.4 2.4 90
      vertex 9.69706 4.09706 89.2971
      vertex 10.4 2.4 87.6
    endloop
  endfacet
  facet normal -0.923881 -0.382681 0
    outer loop
      vertex 9.69706 4.09706 89.2971
      vertex 10.4 2.4 90
      vertex 9.69706 4.09706 90
    endloop
  endfacet
  facet normal 0.382681 -0.923881 0
    outer loop
      vertex 6.30294 4.09706 50
      vertex 8 4.8 85.2
      vertex 6.30294 4.09706 85.9029
    endloop
  endfacet
  facet normal 0.382681 -0.923881 0
    outer loop
      vertex 8 4.8 85.2
      vertex 6.30294 4.09706 50
      vertex 8 4.8 50
    endloop
  endfacet
  facet normal 0.382664 -0.923888 0
    outer loop
      vertex 6.30294 4.09706 90
      vertex 6.5 4.17868 89.3787
      vertex 6.5 4.17868 90
    endloop
  endfacet
  facet normal 0.382664 -0.923888 0
    outer loop
      vertex 6.5 4.17868 89.3787
      vertex 6.30294 4.09706 90
      vertex 6.30294 4.09706 89.2971
    endloop
  endfacet
  facet normal -0.382681 -0.923881 0
    outer loop
      vertex 9.69706 4.09706 50
      vertex 8 4.8 85.2
      vertex 8 4.8 50
    endloop
  endfacet
  facet normal -0.382681 -0.923881 0
    outer loop
      vertex 8 4.8 85.2
      vertex 9.69706 4.09706 50
      vertex 9.69706 4.09706 85.9029
    endloop
  endfacet
  facet normal -0.382664 -0.923888 0
    outer loop
      vertex 9.5 4.17868 89.3787
      vertex 9.69706 4.09706 90
      vertex 9.5 4.17868 90
    endloop
  endfacet
  facet normal -0.382664 -0.923888 -0
    outer loop
      vertex 9.69706 4.09706 90
      vertex 9.5 4.17868 89.3787
      vertex 9.69706 4.09706 89.2971
    endloop
  endfacet
  facet normal -0 0 1
    outer loop
      vertex 15.2971 9.69706 90
      vertex 16 9.5 90
      vertex 16 16 90
    endloop
  endfacet
  facet normal 0 0 1
    outer loop
      vertex 16 9.5 90
      vertex 15.2971 9.69706 90
      vertex 15.3787 9.5 90
    endloop
  endfacet
  facet normal 0 0 1
    outer loop
      vertex 16 16 90
      vertex 13.6 10.4 90
      vertex 15.2971 9.69706 90
    endloop
  endfacet
  facet normal -0 0 1
    outer loop
      vertex 10.4 13.6 90
      vertex 13.6 10.4 90
      vertex 16 16 90
    endloop
  endfacet
  facet normal 0 0 1
    outer loop
      vertex 13.6 10.4 90
      vertex 10.4 13.6 90
      vertex 11.9029 9.69706 90
    endloop
  endfacet
  facet normal 0 0 1
    outer loop
      vertex 10.4 13.6 90
      vertex 16 16 90
      vertex 10.4 16 90
    endloop
  endfacet
  facet normal 0 0 1
    outer loop
      vertex 15.2971 6.30294 90
      vertex 16 6.5 90
      vertex 15.3787 6.5 90
    endloop
  endfacet
  facet normal 0 0 1
    outer loop
      vertex 16 6.5 90
      vertex 15.2971 6.30294 90
      vertex 16 0 90
    endloop
  endfacet
  facet normal -0 0 1
    outer loop
      vertex 13.6 5.6 90
      vertex 16 0 90
      vertex 15.2971 6.30294 90
    endloop
  endfacet
  facet normal 0 0 1
    outer loop
      vertex 10.4 2.4 90
      vertex 13.6 5.6 90
      vertex 11.9029 6.30294 90
    endloop
  endfacet
  facet normal -0 0 1
    outer loop
      vertex 9.69706 11.9029 90
      vertex 11.9029 9.69706 90
      vertex 10.4 13.6 90
    endloop
  endfacet
  facet normal -0 0 1
    outer loop
      vertex 9.5 11.8213 90
      vertex 11.9029 9.69706 90
      vertex 9.69706 11.9029 90
    endloop
  endfacet
  facet normal 0 0 1
    outer loop
      vertex 9.69706 4.09706 90
      vertex 11.9029 6.30294 90
      vertex 11.2 8 90
    endloop
  endfacet
  facet normal 0 0 1
    outer loop
      vertex 13.6 5.6 90
      vertex 10.4 2.4 90
      vertex 16 0 90
    endloop
  endfacet
  facet normal 0 0 1
    outer loop
      vertex 16 0 90
      vertex 10.4 2.4 90
      vertex 10.4 0 90
    endloop
  endfacet
  facet normal 0 0 1
    outer loop
      vertex 11.9029 9.69706 90
      vertex 9.5 11.8213 90
      vertex 11.2 8 90
    endloop
  endfacet
  facet normal 0 0 1
    outer loop
      vertex 11.9029 6.30294 90
      vertex 9.69706 4.09706 90
      vertex 10.4 2.4 90
    endloop
  endfacet
  facet normal 0 0 1
    outer loop
      vertex 9.5 4.17868 90
      vertex 11.2 8 90
      vertex 9.5 11.8213 90
    endloop
  endfacet
  facet normal 0 0 1
    outer loop
      vertex 11.2 8 90
      vertex 9.5 4.17868 90
      vertex 9.69706 4.09706 90
    endloop
  endfacet
  facet normal -0 0 1
    outer loop
      vertex 0 16 90
      vertex 5.6 13.6 90
      vertex 5.6 16 90
    endloop
  endfacet
  facet normal 0 0 1
    outer loop
      vertex 5.6 13.6 90
      vertex 4.8 8 90
      vertex 5.6 2.4 90
    endloop
  endfacet
  facet normal -0 0 1
    outer loop
      vertex 4.09706 6.30294 90
      vertex 5.6 2.4 90
      vertex 4.8 8 90
    endloop
  endfacet
  facet normal 0 0 1
    outer loop
      vertex 5.6 13.6 90
      vertex 4.09706 9.69706 90
      vertex 4.8 8 90
    endloop
  endfacet
  facet normal 0 0 1
    outer loop
      vertex 5.6 13.6 90
      vertex 2.4 10.4 90
      vertex 4.09706 9.69706 90
    endloop
  endfacet
  facet normal 0 0 1
    outer loop
      vertex 5.6 13.6 90
      vertex 0 16 90
      vertex 2.4 10.4 90
    endloop
  endfacet
  facet normal 0 0 1
    outer loop
      vertex 2.4 10.4 90
      vertex 0 16 90
      vertex 0.702943 9.69706 90
    endloop
  endfacet
  facet normal 0 0 1
    outer loop
      vertex 0 9.5 90
      vertex 0.702943 9.69706 90
      vertex 0 16 90
    endloop
  endfacet
  facet normal 0 0 1
    outer loop
      vertex 0.702943 9.69706 90
      vertex 0 9.5 90
      vertex 0.62132 9.5 90
    endloop
  endfacet
  facet normal 0 0 1
    outer loop
      vertex 6.30294 11.9029 90
      vertex 6.5 4.17868 90
      vertex 6.5 11.8213 90
    endloop
  endfacet
  facet normal 0 0 1
    outer loop
      vertex 6.30294 11.9029 90
      vertex 6.30294 4.09706 90
      vertex 6.5 4.17868 90
    endloop
  endfacet
  facet normal 0 0 1
    outer loop
      vertex 5.6 13.6 90
      vertex 6.30294 4.09706 90
      vertex 6.30294 11.9029 90
    endloop
  endfacet
  facet normal 0 0 1
    outer loop
      vertex 6.30294 4.09706 90
      vertex 5.6 13.6 90
      vertex 5.6 2.4 90
    endloop
  endfacet
  facet normal -0 0 1
    outer loop
      vertex 2.4 5.6 90
      vertex 5.6 2.4 90
      vertex 4.09706 6.30294 90
    endloop
  endfacet
  facet normal 0 0 1
    outer loop
      vertex 0 0 90
      vertex 5.6 2.4 90
      vertex 2.4 5.6 90
    endloop
  endfacet
  facet normal 0 0 1
    outer loop
      vertex 0 0 90
      vertex 2.4 5.6 90
      vertex 0.702943 6.30294 90
    endloop
  endfacet
  facet normal -0 0 1
    outer loop
      vertex 0 6.5 90
      vertex 0.702943 6.30294 90
      vertex 0.621319 6.5 90
    endloop
  endfacet
  facet normal 0 0 1
    outer loop
      vertex 0 0 90
      vertex 0.702943 6.30294 90
      vertex 0 6.5 90
    endloop
  endfacet
  facet normal 0 0 1
    outer loop
      vertex 5.6 2.4 90
      vertex 0 0 90
      vertex 5.6 0 90
    endloop
  endfacet
  facet normal 0.923881 -0.382681 0
    outer loop
      vertex 5.6 2.4 85.2
      vertex 6.30294 4.09706 85.9029
      vertex 5.6 2.4 87.6
    endloop
  endfacet
  facet normal 0.923881 -0.382681 0
    outer loop
      vertex 6.30294 4.09706 85.9029
      vertex 5.6 2.4 85.2
      vertex 6.30294 4.09706 50
    endloop
  endfacet
  facet normal 0.923881 -0.382681 0
    outer loop
      vertex 6.30294 4.09706 50
      vertex 5.6 2.4 85.2
      vertex 5.6 2.4 50
    endloop
  endfacet
  facet normal 0.923881 -0.382681 0
    outer loop
      vertex 5.6 2.4 90
      vertex 6.30294 4.09706 89.2971
      vertex 6.30294 4.09706 90
    endloop
  endfacet
  facet normal 0.923881 -0.382681 0
    outer loop
      vertex 6.30294 4.09706 89.2971
      vertex 5.6 2.4 90
      vertex 5.6 2.4 87.6
    endloop
  endfacet
  facet normal -0 0 1
    outer loop
      vertex 6.30294 4.09706 50
      vertex 6.5 0.621319 50
      vertex 8 4.8 50
    endloop
  endfacet
  facet normal -0 0 1
    outer loop
      vertex 5.6 2.4 50
      vertex 6.5 0.621319 50
      vertex 6.30294 4.09706 50
    endloop
  endfacet
  facet normal 0 0 1
    outer loop
      vertex 6.5 0.621319 50
      vertex 5.6 2.4 50
      vertex 6.30294 0.702943 50
    endloop
  endfacet
  facet normal 0 0 1
    outer loop
      vertex 9.5 0.62132 50
      vertex 10.4 2.4 50
      vertex 9.69706 4.09706 50
    endloop
  endfacet
  facet normal 0 0 1
    outer loop
      vertex 10.4 2.4 50
      vertex 9.5 0.62132 50
      vertex 9.69706 0.702943 50
    endloop
  endfacet
  facet normal 0 0 1
    outer loop
      vertex 8 4.8 50
      vertex 9.5 0.62132 50
      vertex 9.69706 4.09706 50
    endloop
  endfacet
  facet normal 0 0 1
    outer loop
      vertex 6.5 0.621319 50
      vertex 9.5 0.62132 50
      vertex 8 4.8 50
    endloop
  endfacet
  facet normal 0 0 1
    outer loop
      vertex 9.5 0.62132 50
      vertex 6.5 0.621319 50
      vertex 9.5 0 50
    endloop
  endfacet
  facet normal 0 0 1
    outer loop
      vertex 9.5 0 50
      vertex 6.5 0.621319 50
      vertex 6.5 0 50
    endloop
  endfacet
  facet normal -0.92388 0.382682 0
    outer loop
      vertex 9.69706 0.702943 50
      vertex 10.4 2.4 85.2
      vertex 10.4 2.4 50
    endloop
  endfacet
  facet normal -0.92388 0.382682 0
    outer loop
      vertex 10.4 2.4 85.2
      vertex 9.69706 0.702943 50
      vertex 9.69706 0.702943 85.2
    endloop
  endfacet
  facet normal 0.38268 0.923881 -0
    outer loop
      vertex 6.5 0.621319 50
      vertex 6.30294 0.702943 85.2
      vertex 6.5 0.621319 85.2
    endloop
  endfacet
  facet normal 0.38268 0.923881 0
    outer loop
      vertex 6.30294 0.702943 85.2
      vertex 6.5 0.621319 50
      vertex 6.30294 0.702943 50
    endloop
  endfacet
  facet normal 0.92388 0.382682 0
    outer loop
      vertex 6.30294 0.702943 85.2
      vertex 5.6 2.4 50
      vertex 5.6 2.4 85.2
    endloop
  endfacet
  facet normal 0.92388 0.382682 0
    outer loop
      vertex 5.6 2.4 50
      vertex 6.30294 0.702943 85.2
      vertex 6.30294 0.702943 50
    endloop
  endfacet
  facet normal -0.382676 0.923883 0
    outer loop
      vertex 9.69706 0.702943 50
      vertex 9.5 0.62132 85.2
      vertex 9.69706 0.702943 85.2
    endloop
  endfacet
  facet normal -0.382676 0.923883 0
    outer loop
      vertex 9.5 0.62132 85.2
      vertex 9.69706 0.702943 50
      vertex 9.5 0.62132 50
    endloop
  endfacet
  facet normal -0.923884 -0.382673 0
    outer loop
      vertex 10.4 13.6 50
      vertex 9.69706 15.2971 85.2
      vertex 9.69706 15.2971 50
    endloop
  endfacet
  facet normal -0.923884 -0.382673 0
    outer loop
      vertex 9.69706 15.2971 85.2
      vertex 10.4 13.6 50
      vertex 10.4 13.6 85.2
    endloop
  endfacet
  facet normal 0.923884 -0.382673 0
    outer loop
      vertex 5.6 13.6 85.2
      vertex 6.30294 15.2971 50
      vertex 6.30294 15.2971 85.2
    endloop
  endfacet
  facet normal 0.923884 -0.382673 0
    outer loop
      vertex 6.30294 15.2971 50
      vertex 5.6 13.6 85.2
      vertex 5.6 13.6 50
    endloop
  endfacet
  facet normal 0 0 1
    outer loop
      vertex 6.5 15.3787 50
      vertex 9.5 15.3787 50
      vertex 9.5 16 50
    endloop
  endfacet
  facet normal 0 0 1
    outer loop
      vertex 6.5 15.3787 50
      vertex 9.5 16 50
      vertex 6.5 16 50
    endloop
  endfacet
  facet normal 0 0 1
    outer loop
      vertex 9.5 15.3787 50
      vertex 6.5 15.3787 50
      vertex 8 11.2 50
    endloop
  endfacet
  facet normal 0 0 1
    outer loop
      vertex 5.6 13.6 50
      vertex 6.5 15.3787 50
      vertex 6.30294 15.2971 50
    endloop
  endfacet
  facet normal 0 0 1
    outer loop
      vertex 6.5 15.3787 50
      vertex 6.30294 11.9029 50
      vertex 8 11.2 50
    endloop
  endfacet
  facet normal 0 0 1
    outer loop
      vertex 6.5 15.3787 50
      vertex 5.6 13.6 50
      vertex 6.30294 11.9029 50
    endloop
  endfacet
  facet normal 0 0 1
    outer loop
      vertex 9.5 15.3787 50
      vertex 10.4 13.6 50
      vertex 9.69706 15.2971 50
    endloop
  endfacet
  facet normal 0 0 1
    outer loop
      vertex 10.4 13.6 50
      vertex 9.5 15.3787 50
      vertex 9.69706 11.9029 50
    endloop
  endfacet
  facet normal 0 0 1
    outer loop
      vertex 9.69706 11.9029 50
      vertex 9.5 15.3787 50
      vertex 8 11.2 50
    endloop
  endfacet
  facet normal 0.382584 -0.923921 0
    outer loop
      vertex 6.30294 15.2971 50
      vertex 6.5 15.3787 85.2
      vertex 6.30294 15.2971 85.2
    endloop
  endfacet
  facet normal 0.382584 -0.923921 0
    outer loop
      vertex 6.5 15.3787 85.2
      vertex 6.30294 15.2971 50
      vertex 6.5 15.3787 50
    endloop
  endfacet
  facet normal -0.382584 -0.923921 0
    outer loop
      vertex 9.5 15.3787 50
      vertex 9.69706 15.2971 85.2
      vertex 9.5 15.3787 85.2
    endloop
  endfacet
  facet normal -0.382584 -0.923921 -0
    outer loop
      vertex 9.69706 15.2971 85.2
      vertex 9.5 15.3787 50
      vertex 9.69706 15.2971 50
    endloop
  endfacet
  facet normal -0.382584 0.923921 0
    outer loop
      vertex 9.69706 11.9029 90
      vertex 9.5 11.8213 89.3787
      vertex 9.5 11.8213 90
    endloop
  endfacet
  facet normal -0.382584 0.923921 0
    outer loop
      vertex 9.5 11.8213 89.3787
      vertex 9.69706 11.9029 90
      vertex 9.69706 11.9029 89.2971
    endloop
  endfacet
  facet normal -0.382662 0.923888 0
    outer loop
      vertex 9.69706 11.9029 50
      vertex 8 11.2 85.2
      vertex 9.69706 11.9029 85.9029
    endloop
  endfacet
  facet normal -0.382662 0.923888 0
    outer loop
      vertex 8 11.2 85.2
      vertex 9.69706 11.9029 50
      vertex 8 11.2 50
    endloop
  endfacet
  facet normal 0.923884 0.382673 0
    outer loop
      vertex 6.30294 11.9029 85.9029
      vertex 5.6 13.6 85.2
      vertex 5.6 13.6 87.6
    endloop
  endfacet
  facet normal 0.923884 0.382673 -0
    outer loop
      vertex 6.30294 11.9029 50
      vertex 5.6 13.6 85.2
      vertex 6.30294 11.9029 85.9029
    endloop
  endfacet
  facet normal 0.923884 0.382673 0
    outer loop
      vertex 5.6 13.6 85.2
      vertex 6.30294 11.9029 50
      vertex 5.6 13.6 50
    endloop
  endfacet
  facet normal 0.923884 0.382673 -0
    outer loop
      vertex 6.30294 11.9029 89.2971
      vertex 5.6 13.6 90
      vertex 6.30294 11.9029 90
    endloop
  endfacet
  facet normal 0.923884 0.382673 0
    outer loop
      vertex 5.6 13.6 90
      vertex 6.30294 11.9029 89.2971
      vertex 5.6 13.6 87.6
    endloop
  endfacet
  facet normal 0.382662 0.923888 0
    outer loop
      vertex 6.30294 11.9029 50
      vertex 8 11.2 85.2
      vertex 8 11.2 50
    endloop
  endfacet
  facet normal 0.382662 0.923888 0
    outer loop
      vertex 8 11.2 85.2
      vertex 6.30294 11.9029 50
      vertex 6.30294 11.9029 85.9029
    endloop
  endfacet
  facet normal 0.382584 0.923921 -0
    outer loop
      vertex 6.5 11.8213 89.3787
      vertex 6.30294 11.9029 90
      vertex 6.5 11.8213 90
    endloop
  endfacet
  facet normal 0.382584 0.923921 0
    outer loop
      vertex 6.30294 11.9029 90
      vertex 6.5 11.8213 89.3787
      vertex 6.30294 11.9029 89.2971
    endloop
  endfacet
  facet normal -0.923884 0.382673 0
    outer loop
      vertex 9.69706 11.9029 50
      vertex 10.4 13.6 85.2
      vertex 10.4 13.6 50
    endloop
  endfacet
  facet normal -0.923884 0.382673 0
    outer loop
      vertex 10.4 13.6 85.2
      vertex 9.69706 11.9029 50
      vertex 9.69706 11.9029 85.9029
    endloop
  endfacet
  facet normal -0.923884 0.382673 0
    outer loop
      vertex 10.4 13.6 85.2
      vertex 9.69706 11.9029 85.9029
      vertex 10.4 13.6 87.6
    endloop
  endfacet
  facet normal -0.923884 0.382673 0
    outer loop
      vertex 9.69706 11.9029 89.2971
      vertex 10.4 13.6 90
      vertex 10.4 13.6 87.6
    endloop
  endfacet
  facet normal -0.923884 0.382673 0
    outer loop
      vertex 10.4 13.6 90
      vertex 9.69706 11.9029 89.2971
      vertex 9.69706 11.9029 90
    endloop
  endfacet
  facet normal -0.923921 -0.382584 0
    outer loop
      vertex 15.3787 9.5 50
      vertex 15.2971 9.69706 90
      vertex 15.2971 9.69706 50
    endloop
  endfacet
  facet normal -0.923921 -0.382584 0
    outer loop
      vertex 15.2971 9.69706 90
      vertex 15.3787 9.5 50
      vertex 15.3787 9.5 90
    endloop
  endfacet
  facet normal 0.382673 -0.923884 0
    outer loop
      vertex 11.9029 9.69706 50
      vertex 13.6 10.4 90
      vertex 11.9029 9.69706 90
    endloop
  endfacet
  facet normal 0.382673 -0.923884 0
    outer loop
      vertex 13.6 10.4 90
      vertex 11.9029 9.69706 50
      vertex 13.6 10.4 50
    endloop
  endfacet
  facet normal -0.382673 -0.923884 0
    outer loop
      vertex 13.6 10.4 50
      vertex 15.2971 9.69706 90
      vertex 13.6 10.4 90
    endloop
  endfacet
  facet normal -0.382673 -0.923884 -0
    outer loop
      vertex 15.2971 9.69706 90
      vertex 13.6 10.4 50
      vertex 15.2971 9.69706 50
    endloop
  endfacet
  facet normal 0.923888 -0.382662 0
    outer loop
      vertex 11.2 8 90
      vertex 11.9029 9.69706 50
      vertex 11.9029 9.69706 90
    endloop
  endfacet
  facet normal 0.923888 -0.382662 0
    outer loop
      vertex 11.9029 9.69706 50
      vertex 11.2 8 90
      vertex 11.2 8 50
    endloop
  endfacet
  facet normal 0 0 1
    outer loop
      vertex 16 9.5 50
      vertex 15.3787 6.5 50
      vertex 16 6.5 50
    endloop
  endfacet
  facet normal -0 0 1
    outer loop
      vertex 15.3787 9.5 50
      vertex 15.3787 6.5 50
      vertex 16 9.5 50
    endloop
  endfacet
  facet normal 0 0 1
    outer loop
      vertex 13.6 10.4 50
      vertex 15.3787 9.5 50
      vertex 15.2971 9.69706 50
    endloop
  endfacet
  facet normal -0 0 1
    outer loop
      vertex 11.9029 9.69706 50
      vertex 15.3787 9.5 50
      vertex 13.6 10.4 50
    endloop
  endfacet
  facet normal 0 0 1
    outer loop
      vertex 15.3787 9.5 50
      vertex 11.9029 9.69706 50
      vertex 15.3787 6.5 50
    endloop
  endfacet
  facet normal 0 0 1
    outer loop
      vertex 15.3787 6.5 50
      vertex 13.6 5.6 50
      vertex 15.2971 6.30294 50
    endloop
  endfacet
  facet normal -0 0 1
    outer loop
      vertex 11.2 8 50
      vertex 15.3787 6.5 50
      vertex 11.9029 9.69706 50
    endloop
  endfacet
  facet normal 0 0 1
    outer loop
      vertex 15.3787 6.5 50
      vertex 11.9029 6.30294 50
      vertex 13.6 5.6 50
    endloop
  endfacet
  facet normal 0 0 1
    outer loop
      vertex 15.3787 6.5 50
      vertex 11.2 8 50
      vertex 11.9029 6.30294 50
    endloop
  endfacet
  facet normal -0.923921 0.382584 0
    outer loop
      vertex 15.2971 6.30294 50
      vertex 15.3787 6.5 90
      vertex 15.3787 6.5 50
    endloop
  endfacet
  facet normal -0.923921 0.382584 0
    outer loop
      vertex 15.3787 6.5 90
      vertex 15.2971 6.30294 50
      vertex 15.2971 6.30294 90
    endloop
  endfacet
  facet normal 0.382673 0.923884 -0
    outer loop
      vertex 13.6 5.6 50
      vertex 11.9029 6.30294 90
      vertex 13.6 5.6 90
    endloop
  endfacet
  facet normal 0.382673 0.923884 0
    outer loop
      vertex 11.9029 6.30294 90
      vertex 13.6 5.6 50
      vertex 11.9029 6.30294 50
    endloop
  endfacet
  facet normal 0.923888 0.382662 0
    outer loop
      vertex 11.9029 6.30294 90
      vertex 11.2 8 50
      vertex 11.2 8 90
    endloop
  endfacet
  facet normal 0.923888 0.382662 0
    outer loop
      vertex 11.2 8 50
      vertex 11.9029 6.30294 90
      vertex 11.9029 6.30294 50
    endloop
  endfacet
  facet normal -0.382673 0.923884 0
    outer loop
      vertex 15.2971 6.30294 50
      vertex 13.6 5.6 90
      vertex 15.2971 6.30294 90
    endloop
  endfacet
  facet normal -0.382673 0.923884 0
    outer loop
      vertex 13.6 5.6 90
      vertex 15.2971 6.30294 50
      vertex 13.6 5.6 50
    endloop
  endfacet
  facet normal -0.923881 -0.382681 0
    outer loop
      vertex 4.8 8 50
      vertex 4.09706 9.69706 90
      vertex 4.09706 9.69706 50
    endloop
  endfacet
  facet normal -0.923881 -0.382681 0
    outer loop
      vertex 4.09706 9.69706 90
      vertex 4.8 8 50
      vertex 4.8 8 90
    endloop
  endfacet
  facet normal 0.923881 0.38268 0
    outer loop
      vertex 0.702943 6.30294 90
      vertex 0.621319 6.5 50
      vertex 0.621319 6.5 90
    endloop
  endfacet
  facet normal 0.923881 0.38268 0
    outer loop
      vertex 0.621319 6.5 50
      vertex 0.702943 6.30294 90
      vertex 0.702943 6.30294 50
    endloop
  endfacet
  facet normal 0.382682 0.92388 -0
    outer loop
      vertex 2.4 5.6 50
      vertex 0.702943 6.30294 90
      vertex 2.4 5.6 90
    endloop
  endfacet
  facet normal 0.382682 0.92388 0
    outer loop
      vertex 0.702943 6.30294 90
      vertex 2.4 5.6 50
      vertex 0.702943 6.30294 50
    endloop
  endfacet
  facet normal 0.382682 -0.92388 0
    outer loop
      vertex 0.702943 9.69706 50
      vertex 2.4 10.4 90
      vertex 0.702943 9.69706 90
    endloop
  endfacet
  facet normal 0.382682 -0.92388 0
    outer loop
      vertex 2.4 10.4 90
      vertex 0.702943 9.69706 50
      vertex 2.4 10.4 50
    endloop
  endfacet
  facet normal -0.382681 -0.923881 0
    outer loop
      vertex 2.4 10.4 50
      vertex 4.09706 9.69706 90
      vertex 2.4 10.4 90
    endloop
  endfacet
  facet normal -0.382681 -0.923881 -0
    outer loop
      vertex 4.09706 9.69706 90
      vertex 2.4 10.4 50
      vertex 4.09706 9.69706 50
    endloop
  endfacet
  facet normal 0.923883 -0.382676 0
    outer loop
      vertex 0.62132 9.5 90
      vertex 0.702943 9.69706 50
      vertex 0.702943 9.69706 90
    endloop
  endfacet
  facet normal 0.923883 -0.382676 0
    outer loop
      vertex 0.702943 9.69706 50
      vertex 0.62132 9.5 90
      vertex 0.62132 9.5 50
    endloop
  endfacet
  facet normal -0 0 1
    outer loop
      vertex 0.62132 9.5 50
      vertex 4.8 8 50
      vertex 4.09706 9.69706 50
    endloop
  endfacet
  facet normal 0 0 1
    outer loop
      vertex 0.62132 9.5 50
      vertex 4.09706 9.69706 50
      vertex 2.4 10.4 50
    endloop
  endfacet
  facet normal 0 0 1
    outer loop
      vertex 4.8 8 50
      vertex 0.62132 9.5 50
      vertex 4.09706 6.30294 50
    endloop
  endfacet
  facet normal 0 0 1
    outer loop
      vertex 0.62132 9.5 50
      vertex 2.4 10.4 50
      vertex 0.702943 9.69706 50
    endloop
  endfacet
  facet normal -0 0 1
    outer loop
      vertex 0.621319 6.5 50
      vertex 4.09706 6.30294 50
      vertex 0.62132 9.5 50
    endloop
  endfacet
  facet normal 0 0 1
    outer loop
      vertex 4.09706 6.30294 50
      vertex 0.621319 6.5 50
      vertex 2.4 5.6 50
    endloop
  endfacet
  facet normal 0 0 1
    outer loop
      vertex 2.4 5.6 50
      vertex 0.621319 6.5 50
      vertex 0.702943 6.30294 50
    endloop
  endfacet
  facet normal -0 0 1
    outer loop
      vertex 0 9.5 50
      vertex 0.621319 6.5 50
      vertex 0.62132 9.5 50
    endloop
  endfacet
  facet normal 0 0 1
    outer loop
      vertex 0.621319 6.5 50
      vertex 0 9.5 50
      vertex 0 6.5 50
    endloop
  endfacet
  facet normal -0.382681 0.923881 0
    outer loop
      vertex 4.09706 6.30294 50
      vertex 2.4 5.6 90
      vertex 4.09706 6.30294 90
    endloop
  endfacet
  facet normal -0.382681 0.923881 0
    outer loop
      vertex 2.4 5.6 90
      vertex 4.09706 6.30294 50
      vertex 2.4 5.6 50
    endloop
  endfacet
  facet normal -0.923881 0.382681 0
    outer loop
      vertex 4.09706 6.30294 50
      vertex 4.8 8 90
      vertex 4.8 8 50
    endloop
  endfacet
  facet normal -0.923881 0.382681 0
    outer loop
      vertex 4.8 8 90
      vertex 4.09706 6.30294 50
      vertex 4.09706 6.30294 90
    endloop
  endfacet
  facet normal 1 -0 0
    outer loop
      vertex 6.5 0 85.2
      vertex 6.5 0.621319 50
      vertex 6.5 0.621319 85.2
    endloop
  endfacet
  facet normal 1 0 0
    outer loop
      vertex 6.5 0.621319 50
      vertex 6.5 0 85.2
      vertex 6.5 0 50
    endloop
  endfacet
  facet normal -1 0 0
    outer loop
      vertex 9.5 0 50
      vertex 9.5 0.62132 85.2
      vertex 9.5 0.62132 50
    endloop
  endfacet
  facet normal -1 -0 0
    outer loop
      vertex 9.5 0.62132 85.2
      vertex 9.5 0 50
      vertex 9.5 0 85.2
    endloop
  endfacet
  facet normal 1 -0 0
    outer loop
      vertex 6.5 15.3787 85.2
      vertex 6.5 16 50
      vertex 6.5 16 85.2
    endloop
  endfacet
  facet normal 1 0 0
    outer loop
      vertex 6.5 16 50
      vertex 6.5 15.3787 85.2
      vertex 6.5 15.3787 50
    endloop
  endfacet
  facet normal -1 0 0
    outer loop
      vertex 9.5 15.3787 50
      vertex 9.5 16 85.2
      vertex 9.5 16 50
    endloop
  endfacet
  facet normal -1 -0 0
    outer loop
      vertex 9.5 16 85.2
      vertex 9.5 15.3787 50
      vertex 9.5 15.3787 85.2
    endloop
  endfacet
  facet normal 0 1 -0
    outer loop
      vertex 16 6.5 50
      vertex 15.3787 6.5 90
      vertex 16 6.5 90
    endloop
  endfacet
  facet normal 0 1 0
    outer loop
      vertex 15.3787 6.5 90
      vertex 16 6.5 50
      vertex 15.3787 6.5 50
    endloop
  endfacet
  facet normal 0 -1 0
    outer loop
      vertex 15.3787 9.5 50
      vertex 16 9.5 90
      vertex 15.3787 9.5 90
    endloop
  endfacet
  facet normal 0 -1 -0
    outer loop
      vertex 16 9.5 90
      vertex 15.3787 9.5 50
      vertex 16 9.5 50
    endloop
  endfacet
  facet normal 0 -1 0
    outer loop
      vertex 0 9.5 50
      vertex 0.62132 9.5 90
      vertex 0 9.5 90
    endloop
  endfacet
  facet normal 0 -1 -0
    outer loop
      vertex 0.62132 9.5 90
      vertex 0 9.5 50
      vertex 0.62132 9.5 50
    endloop
  endfacet
  facet normal 0 1 -0
    outer loop
      vertex 0.621319 6.5 50
      vertex 0 6.5 90
      vertex 0.621319 6.5 90
    endloop
  endfacet
  facet normal 0 1 0
    outer loop
      vertex 0 6.5 90
      vertex 0.621319 6.5 50
      vertex 0 6.5 50
    endloop
  endfacet
  facet normal -0.923884 0 -0.382673
    outer loop
      vertex 10.4 10.4 45
      vertex 9.69706 16 46.6971
      vertex 10.4 16 45
    endloop
  endfacet
  facet normal -0.923884 -0 -0.382673
    outer loop
      vertex 9.69706 16 46.6971
      vertex 10.4 10.4 45
      vertex 9.69706 9.69706 46.6971
    endloop
  endfacet
  facet normal -0.923884 0 -0.382673
    outer loop
      vertex 9.69706 0 46.6971
      vertex 10.4 5.6 45
      vertex 10.4 0 45
    endloop
  endfacet
  facet normal -0.923884 0 -0.382673
    outer loop
      vertex 10.4 5.6 45
      vertex 9.69706 0 46.6971
      vertex 9.69706 6.30294 46.6971
    endloop
  endfacet
  facet normal -0.382662 -0 -0.923888
    outer loop
      vertex 8 16 47.4
      vertex 9.69706 9.69706 46.6971
      vertex 8 8 47.4
    endloop
  endfacet
  facet normal -0.382662 0 -0.923888
    outer loop
      vertex 9.69706 9.69706 46.6971
      vertex 8 16 47.4
      vertex 9.69706 16 46.6971
    endloop
  endfacet
  facet normal -0.382662 0 -0.923888
    outer loop
      vertex 8 0 47.4
      vertex 9.69706 6.30294 46.6971
      vertex 9.69706 0 46.6971
    endloop
  endfacet
  facet normal -0.382662 0 -0.923888
    outer loop
      vertex 9.69706 6.30294 46.6971
      vertex 8 0 47.4
      vertex 8 8 47.4
    endloop
  endfacet
  facet normal 0.382662 -0 0.923888
    outer loop
      vertex 6.30294 9.69706 43.3029
      vertex 8 16 42.6
      vertex 6.30294 16 43.3029
    endloop
  endfacet
  facet normal 0.382662 0 0.923888
    outer loop
      vertex 8 16 42.6
      vertex 6.30294 9.69706 43.3029
      vertex 8 8 42.6
    endloop
  endfacet
  facet normal 0.382662 0 0.923888
    outer loop
      vertex 6.30294 6.30294 43.3029
      vertex 8 0 42.6
      vertex 8 8 42.6
    endloop
  endfacet
  facet normal 0.382662 0 0.923888
    outer loop
      vertex 8 0 42.6
      vertex 6.30294 6.30294 43.3029
      vertex 6.30294 0 43.3029
    endloop
  endfacet
  facet normal 0.382662 0 -0.923888
    outer loop
      vertex 6.30294 9.69706 46.6971
      vertex 8 16 47.4
      vertex 8 8 47.4
    endloop
  endfacet
  facet normal 0.382662 0 -0.923888
    outer loop
      vertex 8 16 47.4
      vertex 6.30294 9.69706 46.6971
      vertex 6.30294 16 46.6971
    endloop
  endfacet
  facet normal 0.382662 0 -0.923888
    outer loop
      vertex 6.30294 6.30294 46.6971
      vertex 8 0 47.4
      vertex 6.30294 0 46.6971
    endloop
  endfacet
  facet normal 0.382662 0 -0.923888
    outer loop
      vertex 8 0 47.4
      vertex 6.30294 6.30294 46.6971
      vertex 8 8 47.4
    endloop
  endfacet
  facet normal 0.923884 0 -0.382673
    outer loop
      vertex 6.30294 16 46.6971
      vertex 5.6 10.4 45
      vertex 5.6 16 45
    endloop
  endfacet
  facet normal 0.923884 0 -0.382673
    outer loop
      vertex 5.6 10.4 45
      vertex 6.30294 16 46.6971
      vertex 6.30294 9.69706 46.6971
    endloop
  endfacet
  facet normal 0.923884 0 -0.382673
    outer loop
      vertex 6.30294 0 46.6971
      vertex 5.6 5.6 45
      vertex 6.30294 6.30294 46.6971
    endloop
  endfacet
  facet normal 0.923884 0 -0.382673
    outer loop
      vertex 5.6 5.6 45
      vertex 6.30294 0 46.6971
      vertex 5.6 0 45
    endloop
  endfacet
  facet normal 0.923884 -0 0.382673
    outer loop
      vertex 5.6 10.4 45
      vertex 6.30294 16 43.3029
      vertex 5.6 16 45
    endloop
  endfacet
  facet normal 0.923884 0 0.382673
    outer loop
      vertex 6.30294 16 43.3029
      vertex 5.6 10.4 45
      vertex 6.30294 9.69706 43.3029
    endloop
  endfacet
  facet normal 0.923884 0 0.382673
    outer loop
      vertex 6.30294 0 43.3029
      vertex 5.6 5.6 45
      vertex 5.6 0 45
    endloop
  endfacet
  facet normal 0.923884 0 0.382673
    outer loop
      vertex 5.6 5.6 45
      vertex 6.30294 0 43.3029
      vertex 6.30294 6.30294 43.3029
    endloop
  endfacet
  facet normal -0.382662 0 0.923888
    outer loop
      vertex 8 16 42.6
      vertex 9.69706 9.69706 43.3029
      vertex 9.69706 16 43.3029
    endloop
  endfacet
  facet normal -0.382662 0 0.923888
    outer loop
      vertex 9.69706 9.69706 43.3029
      vertex 8 16 42.6
      vertex 8 8 42.6
    endloop
  endfacet
  facet normal -0.382662 0 0.923888
    outer loop
      vertex 8 0 42.6
      vertex 9.69706 6.30294 43.3029
      vertex 8 8 42.6
    endloop
  endfacet
  facet normal -0.382662 0 0.923888
    outer loop
      vertex 9.69706 6.30294 43.3029
      vertex 8 0 42.6
      vertex 9.69706 0 43.3029
    endloop
  endfacet
  facet normal -0.923884 0 0.382673
    outer loop
      vertex 9.69706 16 43.3029
      vertex 10.4 10.4 45
      vertex 10.4 16 45
    endloop
  endfacet
  facet normal -0.923884 0 0.382673
    outer loop
      vertex 10.4 10.4 45
      vertex 9.69706 16 43.3029
      vertex 9.69706 9.69706 43.3029
    endloop
  endfacet
  facet normal -0.923884 0 0.382673
    outer loop
      vertex 9.69706 0 43.3029
      vertex 10.4 5.6 45
      vertex 9.69706 6.30294 43.3029
    endloop
  endfacet
  facet normal -0.923884 0 0.382673
    outer loop
      vertex 10.4 5.6 45
      vertex 9.69706 0 43.3029
      vertex 10.4 0 45
    endloop
  endfacet
  facet normal -0 -0.923884 -0.382673
    outer loop
      vertex 5.6 10.4 45
      vertex 0 9.69706 46.6971
      vertex 0 10.4 45
    endloop
  endfacet
  facet normal 0 -0.923884 -0.382673
    outer loop
      vertex 0 9.69706 46.6971
      vertex 5.6 10.4 45
      vertex 6.30294 9.69706 46.6971
    endloop
  endfacet
  facet normal 0 -0.923884 -0.382673
    outer loop
      vertex 10.4 10.4 45
      vertex 16 9.69706 46.6971
      vertex 9.69706 9.69706 46.6971
    endloop
  endfacet
  facet normal 0 -0.923884 -0.382673
    outer loop
      vertex 16 9.69706 46.6971
      vertex 10.4 10.4 45
      vertex 16 10.4 45
    endloop
  endfacet
  facet normal 0 0.382662 -0.923888
    outer loop
      vertex 0 8 47.4
      vertex 6.30294 6.30294 46.6971
      vertex 0 6.30294 46.6971
    endloop
  endfacet
  facet normal 0 0.382662 -0.923888
    outer loop
      vertex 6.30294 6.30294 46.6971
      vertex 0 8 47.4
      vertex 8 8 47.4
    endloop
  endfacet
  facet normal 0 0.382662 -0.923888
    outer loop
      vertex 9.69706 6.30294 46.6971
      vertex 16 8 47.4
      vertex 16 6.30294 46.6971
    endloop
  endfacet
  facet normal 0 0.382662 -0.923888
    outer loop
      vertex 16 8 47.4
      vertex 9.69706 6.30294 46.6971
      vertex 8 8 47.4
    endloop
  endfacet
  facet normal 0 -0.382662 -0.923888
    outer loop
      vertex 0 8 47.4
      vertex 6.30294 9.69706 46.6971
      vertex 8 8 47.4
    endloop
  endfacet
  facet normal -0 -0.382662 -0.923888
    outer loop
      vertex 6.30294 9.69706 46.6971
      vertex 0 8 47.4
      vertex 0 9.69706 46.6971
    endloop
  endfacet
  facet normal 0 -0.382662 -0.923888
    outer loop
      vertex 16 8 47.4
      vertex 9.69706 9.69706 46.6971
      vertex 16 9.69706 46.6971
    endloop
  endfacet
  facet normal 0 -0.382662 -0.923888
    outer loop
      vertex 9.69706 9.69706 46.6971
      vertex 16 8 47.4
      vertex 8 8 47.4
    endloop
  endfacet
  facet normal 1 -0 0
    outer loop
      vertex 16 0 90
      vertex 16 6.5 50
      vertex 16 6.5 90
    endloop
  endfacet
  facet normal 1 0 -0
    outer loop
      vertex 16 5.6 45
      vertex 16 6.5 50
      vertex 16 0 90
    endloop
  endfacet
  facet normal 1 0 0
    outer loop
      vertex 16 6.5 50
      vertex 16 5.6 45
      vertex 16 6.30294 46.6971
    endloop
  endfacet
  facet normal 1 -0 0
    outer loop
      vertex 16 8 42.6
      vertex 16 9.5 40
      vertex 16 9.69706 43.3029
    endloop
  endfacet
  facet normal 1 0 0
    outer loop
      vertex 16 8 42.6
      vertex 16 6.5 40
      vertex 16 9.5 40
    endloop
  endfacet
  facet normal 1 0 0
    outer loop
      vertex 16 6.30294 43.3029
      vertex 16 6.5 40
      vertex 16 8 42.6
    endloop
  endfacet
  facet normal 1 0 0
    outer loop
      vertex 16 5.6 45
      vertex 16 6.5 40
      vertex 16 6.30294 43.3029
    endloop
  endfacet
  facet normal 1 0 0
    outer loop
      vertex 16 6.5 40
      vertex 16 5.6 45
      vertex 16 0 0
    endloop
  endfacet
  facet normal 1 0 0
    outer loop
      vertex 16 0 0
      vertex 16 5.6 45
      vertex 16 0 90
    endloop
  endfacet
  facet normal 1 0 0
    outer loop
      vertex 16 6.5 40
      vertex 16 0 0
      vertex 16 6.5 0
    endloop
  endfacet
  facet normal 1 0 0
    outer loop
      vertex 16 16 90
      vertex 16 10.4 45
      vertex 16 16 0
    endloop
  endfacet
  facet normal 1 -0 0
    outer loop
      vertex 16 9.5 50
      vertex 16 10.4 45
      vertex 16 16 90
    endloop
  endfacet
  facet normal 1 0 0
    outer loop
      vertex 16 9.5 50
      vertex 16 16 90
      vertex 16 9.5 90
    endloop
  endfacet
  facet normal 1 0 0
    outer loop
      vertex 16 10.4 45
      vertex 16 9.5 50
      vertex 16 9.69706 46.6971
    endloop
  endfacet
  facet normal 1 0 0
    outer loop
      vertex 16 9.5 50
      vertex 16 8 47.4
      vertex 16 9.69706 46.6971
    endloop
  endfacet
  facet normal 1 -0 0
    outer loop
      vertex 16 6.5 50
      vertex 16 8 47.4
      vertex 16 9.5 50
    endloop
  endfacet
  facet normal 1 0 0
    outer loop
      vertex 16 8 47.4
      vertex 16 6.5 50
      vertex 16 6.30294 46.6971
    endloop
  endfacet
  facet normal 1 0 0
    outer loop
      vertex 16 9.5 40
      vertex 16 10.4 45
      vertex 16 9.69706 43.3029
    endloop
  endfacet
  facet normal 1 0 0
    outer loop
      vertex 16 10.4 45
      vertex 16 9.5 40
      vertex 16 16 0
    endloop
  endfacet
  facet normal 1 0 0
    outer loop
      vertex 16 16 0
      vertex 16 9.5 40
      vertex 16 9.5 0
    endloop
  endfacet
  facet normal 0 0.923884 -0.382673
    outer loop
      vertex 5.6 5.6 45
      vertex 0 6.30294 46.6971
      vertex 6.30294 6.30294 46.6971
    endloop
  endfacet
  facet normal 0 0.923884 -0.382673
    outer loop
      vertex 0 6.30294 46.6971
      vertex 5.6 5.6 45
      vertex 0 5.6 45
    endloop
  endfacet
  facet normal 0 0.923884 -0.382673
    outer loop
      vertex 10.4 5.6 45
      vertex 16 6.30294 46.6971
      vertex 16 5.6 45
    endloop
  endfacet
  facet normal 0 0.923884 -0.382673
    outer loop
      vertex 16 6.30294 46.6971
      vertex 10.4 5.6 45
      vertex 9.69706 6.30294 46.6971
    endloop
  endfacet
  facet normal 0 -0.923884 0.382673
    outer loop
      vertex 0 9.69706 43.3029
      vertex 5.6 10.4 45
      vertex 0 10.4 45
    endloop
  endfacet
  facet normal 0 -0.923884 0.382673
    outer loop
      vertex 5.6 10.4 45
      vertex 0 9.69706 43.3029
      vertex 6.30294 9.69706 43.3029
    endloop
  endfacet
  facet normal 0 -0.923884 0.382673
    outer loop
      vertex 16 9.69706 43.3029
      vertex 10.4 10.4 45
      vertex 9.69706 9.69706 43.3029
    endloop
  endfacet
  facet normal 0 -0.923884 0.382673
    outer loop
      vertex 10.4 10.4 45
      vertex 16 9.69706 43.3029
      vertex 16 10.4 45
    endloop
  endfacet
  facet normal -0 0.923884 0.382673
    outer loop
      vertex 0 6.30294 43.3029
      vertex 5.6 5.6 45
      vertex 6.30294 6.30294 43.3029
    endloop
  endfacet
  facet normal 0 0.923884 0.382673
    outer loop
      vertex 5.6 5.6 45
      vertex 0 6.30294 43.3029
      vertex 0 5.6 45
    endloop
  endfacet
  facet normal 0 0.923884 0.382673
    outer loop
      vertex 16 6.30294 43.3029
      vertex 10.4 5.6 45
      vertex 16 5.6 45
    endloop
  endfacet
  facet normal 0 0.923884 0.382673
    outer loop
      vertex 10.4 5.6 45
      vertex 16 6.30294 43.3029
      vertex 9.69706 6.30294 43.3029
    endloop
  endfacet
  facet normal 0 -0.382662 0.923888
    outer loop
      vertex 0 8 42.6
      vertex 6.30294 9.69706 43.3029
      vertex 0 9.69706 43.3029
    endloop
  endfacet
  facet normal 0 -0.382662 0.923888
    outer loop
      vertex 6.30294 9.69706 43.3029
      vertex 0 8 42.6
      vertex 8 8 42.6
    endloop
  endfacet
  facet normal 0 -0.382662 0.923888
    outer loop
      vertex 9.69706 9.69706 43.3029
      vertex 16 8 42.6
      vertex 16 9.69706 43.3029
    endloop
  endfacet
  facet normal 0 -0.382662 0.923888
    outer loop
      vertex 16 8 42.6
      vertex 9.69706 9.69706 43.3029
      vertex 8 8 42.6
    endloop
  endfacet
  facet normal -0 0.382662 0.923888
    outer loop
      vertex 0 8 42.6
      vertex 6.30294 6.30294 43.3029
      vertex 8 8 42.6
    endloop
  endfacet
  facet normal 0 0.382662 0.923888
    outer loop
      vertex 6.30294 6.30294 43.3029
      vertex 0 8 42.6
      vertex 0 6.30294 43.3029
    endloop
  endfacet
  facet normal 0 0.382662 0.923888
    outer loop
      vertex 16 8 42.6
      vertex 9.69706 6.30294 43.3029
      vertex 16 6.30294 43.3029
    endloop
  endfacet
  facet normal 0 0.382662 0.923888
    outer loop
      vertex 9.69706 6.30294 43.3029
      vertex 16 8 42.6
      vertex 8 8 42.6
    endloop
  endfacet
  facet normal -0.923881 0 -0.382681
    outer loop
      vertex 10.4 13.6 2.4
      vertex 9.69706 4.09706 4.09706
      vertex 9.69706 11.9029 4.09706
    endloop
  endfacet
  facet normal -0.923881 0 -0.382681
    outer loop
      vertex 9.69706 4.09706 4.09706
      vertex 10.4 13.6 2.4
      vertex 10.4 2.4 2.4
    endloop
  endfacet
  facet normal -0.382681 0 -0.923881
    outer loop
      vertex 8 4.8 4.8
      vertex 9.69706 11.9029 4.09706
      vertex 9.69706 4.09706 4.09706
    endloop
  endfacet
  facet normal -0.382681 0 -0.923881
    outer loop
      vertex 9.69706 11.9029 4.09706
      vertex 8 4.8 4.8
      vertex 8 11.2 4.8
    endloop
  endfacet
  facet normal 0.382681 0 -0.923881
    outer loop
      vertex 6.30294 4.09706 4.09706
      vertex 8 11.2 4.8
      vertex 8 4.8 4.8
    endloop
  endfacet
  facet normal 0.382681 0 -0.923881
    outer loop
      vertex 8 11.2 4.8
      vertex 6.30294 4.09706 4.09706
      vertex 6.30294 11.9029 4.09706
    endloop
  endfacet
  facet normal -0.92388 0 0.382682
    outer loop
      vertex 9.69706 4.09706 0.702943
      vertex 10.4 13.6 2.4
      vertex 9.69706 11.9029 0.702943
    endloop
  endfacet
  facet normal -0.92388 0 0.382682
    outer loop
      vertex 10.4 13.6 2.4
      vertex 9.69706 4.09706 0.702943
      vertex 10.4 2.4 2.4
    endloop
  endfacet
  facet normal 0.38268 0 0.923881
    outer loop
      vertex 6.30294 11.9029 0.702943
      vertex 6.5 4.17868 0.621319
      vertex 6.5 11.8213 0.621319
    endloop
  endfacet
  facet normal 0.38268 0 0.923881
    outer loop
      vertex 6.5 4.17868 0.621319
      vertex 6.30294 11.9029 0.702943
      vertex 6.30294 4.09706 0.702943
    endloop
  endfacet
  facet normal 0.923881 0 -0.382681
    outer loop
      vertex 6.30294 4.09706 4.09706
      vertex 5.6 13.6 2.4
      vertex 6.30294 11.9029 4.09706
    endloop
  endfacet
  facet normal 0.923881 0 -0.382681
    outer loop
      vertex 5.6 13.6 2.4
      vertex 6.30294 4.09706 4.09706
      vertex 5.6 2.4 2.4
    endloop
  endfacet
  facet normal 0.92388 0 0.382682
    outer loop
      vertex 5.6 13.6 2.4
      vertex 6.30294 4.09706 0.702943
      vertex 6.30294 11.9029 0.702943
    endloop
  endfacet
  facet normal 0.92388 0 0.382682
    outer loop
      vertex 6.30294 4.09706 0.702943
      vertex 5.6 13.6 2.4
      vertex 5.6 2.4 2.4
    endloop
  endfacet
  facet normal -0.382676 0 0.923883
    outer loop
      vertex 9.5 11.8213 0.62132
      vertex 9.69706 4.09706 0.702943
      vertex 9.69706 11.9029 0.702943
    endloop
  endfacet
  facet normal -0.382676 0 0.923883
    outer loop
      vertex 9.69706 4.09706 0.702943
      vertex 9.5 11.8213 0.62132
      vertex 9.5 4.17868 0.62132
    endloop
  endfacet
  facet normal 1 0 0
    outer loop
      vertex 5.6 13.6 2.4
      vertex 5.6 16 4.8
      vertex 5.6 13.6 4.8
    endloop
  endfacet
  facet normal 1 0 0
    outer loop
      vertex 5.6 16 4.8
      vertex 5.6 13.6 2.4
      vertex 5.6 16 0
    endloop
  endfacet
  facet normal 1 0 0
    outer loop
      vertex 5.6 16 0
      vertex 5.6 13.6 2.4
      vertex 5.6 13.6 0
    endloop
  endfacet
  facet normal 0 0 -1
    outer loop
      vertex 9.69706 15.2971 4.8
      vertex 10.4 16 4.8
      vertex 10.4 13.6 4.8
    endloop
  endfacet
  facet normal 0 0 -1
    outer loop
      vertex 9.5 16 4.8
      vertex 9.69706 15.2971 4.8
      vertex 9.5 15.3787 4.8
    endloop
  endfacet
  facet normal 0 0 -1
    outer loop
      vertex 9.69706 15.2971 4.8
      vertex 9.5 16 4.8
      vertex 10.4 16 4.8
    endloop
  endfacet
  facet normal 0 0 -1
    outer loop
      vertex 6.30294 15.2971 4.8
      vertex 6.5 16 4.8
      vertex 6.5 15.3787 4.8
    endloop
  endfacet
  facet normal 0 0 -1
    outer loop
      vertex 5.6 16 4.8
      vertex 6.30294 15.2971 4.8
      vertex 5.6 13.6 4.8
    endloop
  endfacet
  facet normal 0 0 -1
    outer loop
      vertex 6.30294 15.2971 4.8
      vertex 5.6 16 4.8
      vertex 6.5 16 4.8
    endloop
  endfacet
  facet normal -1 0 0
    outer loop
      vertex 10.4 13.6 2.4
      vertex 10.4 16 0
      vertex 10.4 13.6 0
    endloop
  endfacet
  facet normal -1 0 0
    outer loop
      vertex 10.4 16 0
      vertex 10.4 13.6 2.4
      vertex 10.4 16 4.8
    endloop
  endfacet
  facet normal -1 -0 0
    outer loop
      vertex 10.4 16 4.8
      vertex 10.4 13.6 2.4
      vertex 10.4 13.6 4.8
    endloop
  endfacet
  facet normal 1 -0 0
    outer loop
      vertex 5.6 0 4.8
      vertex 5.6 2.4 2.4
      vertex 5.6 2.4 4.8
    endloop
  endfacet
  facet normal 1 0 0
    outer loop
      vertex 5.6 0 0
      vertex 5.6 2.4 2.4
      vertex 5.6 0 4.8
    endloop
  endfacet
  facet normal 1 0 0
    outer loop
      vertex 5.6 2.4 2.4
      vertex 5.6 0 0
      vertex 5.6 2.4 0
    endloop
  endfacet
  facet normal 0 0 -1
    outer loop
      vertex 10.4 0 4.8
      vertex 9.69706 0.702943 4.8
      vertex 10.4 2.4 4.8
    endloop
  endfacet
  facet normal 0 0 -1
    outer loop
      vertex 9.5 0 4.8
      vertex 9.69706 0.702943 4.8
      vertex 10.4 0 4.8
    endloop
  endfacet
  facet normal 0 0 -1
    outer loop
      vertex 9.69706 0.702943 4.8
      vertex 9.5 0 4.8
      vertex 9.5 0.62132 4.8
    endloop
  endfacet
  facet normal 0 0 -1
    outer loop
      vertex 6.5 0 4.8
      vertex 6.30294 0.702943 4.8
      vertex 6.5 0.621319 4.8
    endloop
  endfacet
  facet normal 0 0 -1
    outer loop
      vertex 5.6 0 4.8
      vertex 6.30294 0.702943 4.8
      vertex 6.5 0 4.8
    endloop
  endfacet
  facet normal -0 0 -1
    outer loop
      vertex 6.30294 0.702943 4.8
      vertex 5.6 0 4.8
      vertex 5.6 2.4 4.8
    endloop
  endfacet
  facet normal -1 0 0
    outer loop
      vertex 10.4 0 0
      vertex 10.4 2.4 2.4
      vertex 10.4 2.4 0
    endloop
  endfacet
  facet normal -1 0 0
    outer loop
      vertex 10.4 0 4.8
      vertex 10.4 2.4 2.4
      vertex 10.4 0 0
    endloop
  endfacet
  facet normal -1 0 0
    outer loop
      vertex 10.4 2.4 2.4
      vertex 10.4 0 4.8
      vertex 10.4 2.4 4.8
    endloop
  endfacet
  facet normal -1 0 0
    outer loop
      vertex 9.5 4.17868 0
      vertex 9.5 11.8213 0.62132
      vertex 9.5 11.8213 0
    endloop
  endfacet
  facet normal -1 -0 0
    outer loop
      vertex 9.5 11.8213 0.62132
      vertex 9.5 4.17868 0
      vertex 9.5 4.17868 0.62132
    endloop
  endfacet
  facet normal 1 -0 0
    outer loop
      vertex 6.5 4.17868 0.621319
      vertex 6.5 11.8213 0
      vertex 6.5 11.8213 0.621319
    endloop
  endfacet
  facet normal 1 0 0
    outer loop
      vertex 6.5 11.8213 0
      vertex 6.5 4.17868 0.621319
      vertex 6.5 4.17868 0
    endloop
  endfacet
  facet normal -0.923884 0 -0.382673
    outer loop
      vertex 10.4 13.6 87.6
      vertex 9.69706 4.09706 89.2971
      vertex 9.69706 11.9029 89.2971
    endloop
  endfacet
  facet normal -0.923884 0 -0.382673
    outer loop
      vertex 9.69706 4.09706 89.2971
      vertex 10.4 13.6 87.6
      vertex 10.4 2.4 87.6
    endloop
  endfacet
  facet normal -0.382584 0 -0.923921
    outer loop
      vertex 9.5 4.17868 89.3787
      vertex 9.69706 11.9029 89.2971
      vertex 9.69706 4.09706 89.2971
    endloop
  endfacet
  facet normal -0.382584 0 -0.923921
    outer loop
      vertex 9.69706 11.9029 89.2971
      vertex 9.5 4.17868 89.3787
      vertex 9.5 11.8213 89.3787
    endloop
  endfacet
  facet normal 0.923884 0 -0.382673
    outer loop
      vertex 6.30294 4.09706 89.2971
      vertex 5.6 13.6 87.6
      vertex 6.30294 11.9029 89.2971
    endloop
  endfacet
  facet normal 0.923884 0 -0.382673
    outer loop
      vertex 5.6 13.6 87.6
      vertex 6.30294 4.09706 89.2971
      vertex 5.6 2.4 87.6
    endloop
  endfacet
  facet normal 0.382584 0 -0.923921
    outer loop
      vertex 6.30294 4.09706 89.2971
      vertex 6.5 11.8213 89.3787
      vertex 6.5 4.17868 89.3787
    endloop
  endfacet
  facet normal 0.382584 0 -0.923921
    outer loop
      vertex 6.5 11.8213 89.3787
      vertex 6.30294 4.09706 89.2971
      vertex 6.30294 11.9029 89.2971
    endloop
  endfacet
  facet normal 0.923884 0 0.382673
    outer loop
      vertex 5.6 13.6 87.6
      vertex 6.30294 4.09706 85.9029
      vertex 6.30294 11.9029 85.9029
    endloop
  endfacet
  facet normal 0.923884 0 0.382673
    outer loop
      vertex 6.30294 4.09706 85.9029
      vertex 5.6 13.6 87.6
      vertex 5.6 2.4 87.6
    endloop
  endfacet
  facet normal 0.382662 0 0.923888
    outer loop
      vertex 6.30294 11.9029 85.9029
      vertex 8 4.8 85.2
      vertex 8 11.2 85.2
    endloop
  endfacet
  facet normal 0.382662 0 0.923888
    outer loop
      vertex 8 4.8 85.2
      vertex 6.30294 11.9029 85.9029
      vertex 6.30294 4.09706 85.9029
    endloop
  endfacet
  facet normal -0.382662 0 0.923888
    outer loop
      vertex 8 11.2 85.2
      vertex 9.69706 4.09706 85.9029
      vertex 9.69706 11.9029 85.9029
    endloop
  endfacet
  facet normal -0.382662 0 0.923888
    outer loop
      vertex 9.69706 4.09706 85.9029
      vertex 8 11.2 85.2
      vertex 8 4.8 85.2
    endloop
  endfacet
  facet normal -0.923884 0 0.382673
    outer loop
      vertex 9.69706 4.09706 85.9029
      vertex 10.4 13.6 87.6
      vertex 9.69706 11.9029 85.9029
    endloop
  endfacet
  facet normal -0.923884 0 0.382673
    outer loop
      vertex 10.4 13.6 87.6
      vertex 9.69706 4.09706 85.9029
      vertex 10.4 2.4 87.6
    endloop
  endfacet
  facet normal 1 0 0
    outer loop
      vertex 5.6 13.6 87.6
      vertex 5.6 16 90
      vertex 5.6 13.6 90
    endloop
  endfacet
  facet normal 1 0 0
    outer loop
      vertex 5.6 16 90
      vertex 5.6 13.6 87.6
      vertex 5.6 16 85.2
    endloop
  endfacet
  facet normal 1 0 0
    outer loop
      vertex 5.6 16 85.2
      vertex 5.6 13.6 87.6
      vertex 5.6 13.6 85.2
    endloop
  endfacet
  facet normal -1 0 0
    outer loop
      vertex 10.4 13.6 87.6
      vertex 10.4 16 85.2
      vertex 10.4 13.6 85.2
    endloop
  endfacet
  facet normal -1 0 0
    outer loop
      vertex 10.4 16 85.2
      vertex 10.4 13.6 87.6
      vertex 10.4 16 90
    endloop
  endfacet
  facet normal -1 -0 0
    outer loop
      vertex 10.4 16 90
      vertex 10.4 13.6 87.6
      vertex 10.4 13.6 90
    endloop
  endfacet
  facet normal 0 0 1
    outer loop
      vertex 6.5 16 85.2
      vertex 6.30294 15.2971 85.2
      vertex 6.5 15.3787 85.2
    endloop
  endfacet
  facet normal -0 0 1
    outer loop
      vertex 5.6 16 85.2
      vertex 6.30294 15.2971 85.2
      vertex 6.5 16 85.2
    endloop
  endfacet
  facet normal 0 0 1
    outer loop
      vertex 6.30294 15.2971 85.2
      vertex 5.6 16 85.2
      vertex 5.6 13.6 85.2
    endloop
  endfacet
  facet normal 0 0 1
    outer loop
      vertex 10.4 16 85.2
      vertex 9.69706 15.2971 85.2
      vertex 10.4 13.6 85.2
    endloop
  endfacet
  facet normal -0 0 1
    outer loop
      vertex 9.5 16 85.2
      vertex 9.69706 15.2971 85.2
      vertex 10.4 16 85.2
    endloop
  endfacet
  facet normal 0 0 1
    outer loop
      vertex 9.69706 15.2971 85.2
      vertex 9.5 16 85.2
      vertex 9.5 15.3787 85.2
    endloop
  endfacet
  facet normal 1 -0 0
    outer loop
      vertex 5.6 0 90
      vertex 5.6 2.4 87.6
      vertex 5.6 2.4 90
    endloop
  endfacet
  facet normal 1 0 0
    outer loop
      vertex 5.6 0 85.2
      vertex 5.6 2.4 87.6
      vertex 5.6 0 90
    endloop
  endfacet
  facet normal 1 0 0
    outer loop
      vertex 5.6 2.4 87.6
      vertex 5.6 0 85.2
      vertex 5.6 2.4 85.2
    endloop
  endfacet
  facet normal -1 0 0
    outer loop
      vertex 10.4 0 85.2
      vertex 10.4 2.4 87.6
      vertex 10.4 2.4 85.2
    endloop
  endfacet
  facet normal -1 0 0
    outer loop
      vertex 10.4 0 90
      vertex 10.4 2.4 87.6
      vertex 10.4 0 85.2
    endloop
  endfacet
  facet normal -1 0 0
    outer loop
      vertex 10.4 2.4 87.6
      vertex 10.4 0 90
      vertex 10.4 2.4 90
    endloop
  endfacet
  facet normal -0 0 1
    outer loop
      vertex 9.69706 0.702943 85.2
      vertex 10.4 0 85.2
      vertex 10.4 2.4 85.2
    endloop
  endfacet
  facet normal 0 0 1
    outer loop
      vertex 9.5 0 85.2
      vertex 9.69706 0.702943 85.2
      vertex 9.5 0.62132 85.2
    endloop
  endfacet
  facet normal 0 0 1
    outer loop
      vertex 9.69706 0.702943 85.2
      vertex 9.5 0 85.2
      vertex 10.4 0 85.2
    endloop
  endfacet
  facet normal 0 0 1
    outer loop
      vertex 6.30294 0.702943 85.2
      vertex 6.5 0 85.2
      vertex 6.5 0.621319 85.2
    endloop
  endfacet
  facet normal 0 0 1
    outer loop
      vertex 5.6 0 85.2
      vertex 6.30294 0.702943 85.2
      vertex 5.6 2.4 85.2
    endloop
  endfacet
  facet normal 0 0 1
    outer loop
      vertex 6.30294 0.702943 85.2
      vertex 5.6 0 85.2
      vertex 6.5 0 85.2
    endloop
  endfacet
  facet normal -1 0 0
    outer loop
      vertex 9.5 4.17868 89.3787
      vertex 9.5 11.8213 90
      vertex 9.5 11.8213 89.3787
    endloop
  endfacet
  facet normal -1 -0 0
    outer loop
      vertex 9.5 11.8213 90
      vertex 9.5 4.17868 89.3787
      vertex 9.5 4.17868 90
    endloop
  endfacet
  facet normal 1 -0 0
    outer loop
      vertex 6.5 4.17868 90
      vertex 6.5 11.8213 89.3787
      vertex 6.5 11.8213 90
    endloop
  endfacet
  facet normal 1 0 0
    outer loop
      vertex 6.5 11.8213 89.3787
      vertex 6.5 4.17868 90
      vertex 6.5 4.17868 89.3787
    endloop
  endfacet
endsolid OpenSCAD_Model
